<svg xmlns="http://www.w3.org/2000/svg" xmlns:xlink="http://www.w3.org/1999/xlink" viewBox="0 0 103.65 103.65"><defs><style>.cls-1{fill:url(#linear-gradient);}.cls-2{fill:url(#linear-gradient-2);}.cls-3{fill:url(#linear-gradient-3);}.cls-4{fill:none;}.cls-5{fill:url(#linear-gradient-4);}.cls-6{fill:#efeff2;}.cls-7{fill:url(#linear-gradient-5);}</style><linearGradient id="linear-gradient" x1="25.91" y1="25.91" x2="99.21" y2="99.21" gradientUnits="userSpaceOnUse"><stop offset="0" stop-color="#5c6cef"/><stop offset="0.18" stop-color="#6674e8"/><stop offset="0.48" stop-color="#818ad4"/><stop offset="0.87" stop-color="#adaeb5"/><stop offset="0.91" stop-color="#b1b1b2"/></linearGradient><linearGradient id="linear-gradient-2" x1="-3.9" y1="55.72" x2="69.4" y2="129.02" gradientUnits="userSpaceOnUse"><stop offset="0" stop-color="#5546ff"/><stop offset="0.35" stop-color="#7d75dd"/><stop offset="0.72" stop-color="#a3a0be"/><stop offset="0.91" stop-color="#b1b1b2"/></linearGradient><linearGradient id="linear-gradient-3" x1="15.83" y1="105.15" x2="42.79" y2="78.2" xlink:href="#linear-gradient"/><linearGradient id="linear-gradient-4" x1="71.94" y1="84.84" x2="88.74" y2="119.06" gradientUnits="userSpaceOnUse"><stop offset="0" stop-color="#5c6cef"/><stop offset="0.19" stop-color="#5b62f3"/><stop offset="0.68" stop-color="#594dfc"/><stop offset="1" stop-color="#5845ff"/></linearGradient><linearGradient id="linear-gradient-5" x1="15.53" y1="54.63" x2="91.76" y2="54.63" gradientUnits="userSpaceOnUse"><stop offset="0" stop-color="#353535"/><stop offset="0.17" stop-color="#303030"/><stop offset="0.36" stop-color="#222"/><stop offset="0.56" stop-color="#0b0b0b"/><stop offset="0.64"/></linearGradient></defs><g id="Layer_2" data-name="Layer 2"><g id="Layer_1-2" data-name="Layer 1"><path class="cls-1" d="M79.26,0H24.39A24.39,24.39,0,0,0,0,24.39V79.26A24.4,24.4,0,0,0,15.53,102V69.14L53.65,86.43v17.22H79.26a24.39,24.39,0,0,0,24.39-24.39V24.39A24.39,24.39,0,0,0,79.26,0Z"/><path class="cls-2" d="M15.53,69.14V102a24.35,24.35,0,0,0,8.86,1.66H53.65V86.43Z"/><path class="cls-3" d="M15.53,69.14V102a24.35,24.35,0,0,0,8.86,1.66H53.65V86.43Z"/><path class="cls-4" d="M79.26,0H24.39A24.39,24.39,0,0,0,0,24.39V79.26a24.39,24.39,0,0,0,24.39,24.39H53.65V86.43L91.76,69.14v31.07a24.39,24.39,0,0,0,11.89-20.95V24.39A24.39,24.39,0,0,0,79.26,0Z"/><path class="cls-5" d="M53.65,86.43v17.22H79.26a24.32,24.32,0,0,0,12.5-3.44V69.14Z"/><polygon class="cls-6" points="53.65 86.43 15.53 69.14 53.65 51.85 91.77 69.14 53.65 86.43"/><polygon class="cls-7" points="53.65 71.92 15.53 54.63 53.65 37.34 91.77 54.63 53.65 71.92"/><path class="cls-6" d="M53.65,50a1.24,1.24,0,0,1-1.25-1.25V23.91a1.25,1.25,0,0,1,2.5,0V48.76A1.24,1.24,0,0,1,53.65,50Z"/><path class="cls-6" d="M63.19,34.52a1.23,1.23,0,0,1-.88-.35l-8.66-8.51L45,34.17a1.25,1.25,0,1,1-1.75-1.79L52.77,23a1.24,1.24,0,0,1,1.75,0l9.54,9.36a1.25,1.25,0,0,1,0,1.77A1.23,1.23,0,0,1,63.19,34.52Z"/></g></g></svg>