<svg width="69" height="69" viewBox="0 0 69 69" fill="none" xmlns="http://www.w3.org/2000/svg">
<g clip-path="url(#clip0_1_460)">
<path d="M52.7635 0H16.2365C11.9303 0 7.80048 1.71062 4.75555 4.75555C1.71062 7.80048 1.18933e-06 11.9303 1.18933e-06 16.2365V52.7635C-0.00125016 56.0343 0.984976 59.2293 2.8296 61.9303C4.67423 64.6314 7.29132 66.7126 10.3384 67.9016V46.0266L35.7149 57.5366V69H52.7635C57.0697 69 61.1995 67.2894 64.2444 64.2444C67.2894 61.1995 69 57.0697 69 52.7635V16.2365C69 11.9303 67.2894 7.80048 64.2444 4.75555C61.1995 1.71062 57.0697 0 52.7635 0V0Z" fill="#FF5500"/>
<path d="M10.3384 46.0266V67.9016C12.2185 68.6338 14.2188 69.0086 16.2365 69.0066H35.7149V57.5366L10.3384 46.0266Z" fill="url(#paint0_linear_1_460)"/>
<path d="M10.3384 46.0266V67.9016C12.2185 68.6338 14.2188 69.0086 16.2365 69.0066H35.7149V57.5366L10.3384 46.0266Z" fill="#8C877D"/>
<path d="M35.7149 57.5366V69H52.7635C55.6934 69.0037 58.5694 68.2122 61.0848 66.71V46.0266L35.7149 57.5366Z" fill="#45403D"/>
<path d="M35.7149 57.5366L10.3384 46.0266L35.7149 34.5166L61.0915 46.0266L35.7149 57.5366Z" fill="#F2F0ED"/>
<path d="M35.7149 47.8773L10.3384 36.3673L35.7149 24.8573L61.0915 36.3673L35.7149 47.8773Z" fill="#0D0C0C"/>
<path d="M35.7149 33.2851C35.6054 33.286 35.4968 33.2651 35.3954 33.2236C35.2941 33.1821 35.202 33.1208 35.1245 33.0433C35.0471 32.9659 34.9858 32.8738 34.9443 32.7725C34.9028 32.6711 34.8819 32.5625 34.8828 32.453V15.9169C34.8828 15.6962 34.9704 15.4846 35.1265 15.3285C35.2826 15.1725 35.4942 15.0848 35.7149 15.0848C35.9356 15.0848 36.1473 15.1725 36.3033 15.3285C36.4594 15.4846 36.547 15.6962 36.547 15.9169V32.4596C36.547 32.5686 36.5255 32.6765 36.4836 32.7771C36.4417 32.8776 36.3803 32.9689 36.3029 33.0457C36.2255 33.1224 36.1338 33.1831 36.0328 33.2242C35.9319 33.2653 35.8239 33.286 35.7149 33.2851Z" fill="#F2F0ED"/>
<path d="M42.0657 22.98C41.8474 22.9822 41.637 22.8985 41.4799 22.747L35.7149 17.0819L29.9566 22.747C29.7985 22.9015 29.5856 22.9869 29.3647 22.9844C29.1437 22.9819 28.9327 22.8917 28.7783 22.7337C28.6238 22.5757 28.5384 22.3628 28.5409 22.1418C28.5434 21.9208 28.6336 21.7099 28.7916 21.5554L35.1291 15.3111C35.2838 15.1571 35.4932 15.0706 35.7115 15.0706C35.9299 15.0706 36.1393 15.1571 36.294 15.3111L42.6448 21.5421C42.7223 21.6194 42.7838 21.7112 42.8258 21.8123C42.8677 21.9134 42.8893 22.0218 42.8893 22.1313C42.8893 22.2407 42.8677 22.3491 42.8258 22.4502C42.7838 22.5513 42.7223 22.6431 42.6448 22.7204C42.5704 22.8 42.4809 22.864 42.3814 22.9086C42.282 22.9532 42.1746 22.9775 42.0657 22.98Z" fill="#F2F0ED"/>
</g>
<defs>
<linearGradient id="paint0_linear_1_460" x1="-88.6302" y1="1326.47" x2="1587.55" y2="3177.46" gradientUnits="userSpaceOnUse">
<stop stop-color="#5546FF"/>
<stop offset="0.35" stop-color="#7D75DD"/>
<stop offset="0.72" stop-color="#A3A0BE"/>
<stop offset="0.91" stop-color="#B1B1B2"/>
</linearGradient>
<clipPath id="clip0_1_460">
<rect width="69" height="69" fill="white"/>
</clipPath>
</defs>
</svg>
