<svg xmlns="http://www.w3.org/2000/svg" xmlns:xlink="http://www.w3.org/1999/xlink" viewBox="0 0 103.65 103.65"><defs><style>.cls-1{fill:url(#linear-gradient);}.cls-2{fill:url(#linear-gradient-2);}.cls-3{fill:url(#linear-gradient-3);}.cls-4{fill:#242629;}.cls-5{fill:url(#linear-gradient-4);}.cls-6{fill:url(#linear-gradient-5);}.cls-7{fill:#efeff2;}.cls-8{fill:url(#linear-gradient-6);}.cls-9{fill:url(#linear-gradient-7);}.cls-10{fill:url(#linear-gradient-8);}.cls-11{fill:url(#linear-gradient-9);}</style><linearGradient id="linear-gradient" x1="18.62" y1="18.62" x2="91.91" y2="91.91" gradientUnits="userSpaceOnUse"><stop offset="0" stop-color="#353535"/><stop offset="0.16" stop-color="#303030"/><stop offset="0.34" stop-color="#222"/><stop offset="0.54" stop-color="#0b0b0b"/><stop offset="0.61"/></linearGradient><linearGradient id="linear-gradient-2" x1="53.65" y1="69.61" x2="53.65" y2="-25.93" gradientUnits="userSpaceOnUse"><stop offset="0" stop-color="#5845ff"/><stop offset="1" stop-color="#090909" stop-opacity="0"/></linearGradient><linearGradient id="linear-gradient-3" x1="15.83" y1="105.15" x2="42.79" y2="78.2" gradientUnits="userSpaceOnUse"><stop offset="0" stop-color="#5546ff"/><stop offset="0.35" stop-color="#7d75dd"/><stop offset="0.72" stop-color="#a3a0be"/><stop offset="0.91" stop-color="#b1b1b2"/></linearGradient><linearGradient id="linear-gradient-4" x1="71.94" y1="84.84" x2="88.74" y2="119.06" xlink:href="#linear-gradient"/><linearGradient id="linear-gradient-5" x1="15.53" y1="69.14" x2="91.76" y2="69.14" gradientUnits="userSpaceOnUse"><stop offset="0" stop-color="#5845ff"/><stop offset="1" stop-color="#5c6cef"/></linearGradient><linearGradient id="linear-gradient-6" x1="61.95" y1="28.83" x2="78.18" y2="45.07" gradientTransform="translate(-8.04 28.08) rotate(-22.16)" xlink:href="#linear-gradient-5"/><linearGradient id="linear-gradient-7" x1="-60.41" y1="711.57" x2="-45.3" y2="726.67" gradientTransform="translate(191 -656.97) rotate(7.73)" xlink:href="#linear-gradient-5"/><linearGradient id="linear-gradient-8" x1="-62.09" y1="697.44" x2="-39.5" y2="697.44" gradientTransform="translate(-102.11 -673.3) rotate(-16.73)" xlink:href="#linear-gradient-5"/><linearGradient id="linear-gradient-9" x1="15.83" y1="105.15" x2="42.79" y2="78.2" gradientUnits="userSpaceOnUse"><stop offset="0" stop-color="#5c6cef"/><stop offset="0.18" stop-color="#6674e8"/><stop offset="0.48" stop-color="#818ad4"/><stop offset="0.87" stop-color="#adaeb5"/><stop offset="0.91" stop-color="#b1b1b2"/></linearGradient></defs><g id="Layer_2" data-name="Layer 2"><g id="Layer_1-2" data-name="Layer 1"><rect class="cls-1" width="103.65" height="103.65" rx="24.39"/><path class="cls-2" d="M91.76,69.14V3.45A24.23,24.23,0,0,0,79.26,0H24.39a24.15,24.15,0,0,0-8.86,1.67V69.14Z"/><path class="cls-3" d="M15.53,69.14V102a24.35,24.35,0,0,0,8.86,1.66H53.65V86.43Z"/><path class="cls-4" d="M79.26,0H24.39A24.39,24.39,0,0,0,0,24.39V79.26a24.39,24.39,0,0,0,24.39,24.39H53.65V86.43L91.76,69.14v31.07a24.39,24.39,0,0,0,11.89-20.95V24.39A24.39,24.39,0,0,0,79.26,0Z"/><path class="cls-5" d="M53.65,86.43v17.22H79.26a24.32,24.32,0,0,0,12.5-3.44V69.14Z"/><polygon class="cls-6" points="53.65 86.43 15.53 69.14 53.65 51.85 91.77 69.14 53.65 86.43"/><polygon class="cls-7" points="53.65 71.92 15.53 54.63 53.65 37.34 91.77 54.63 53.65 71.92"/><rect class="cls-8" x="57.57" y="24.46" width="20.23" height="20.23" rx="5.6" transform="translate(18.04 -22.97) rotate(22.16)"/><rect class="cls-9" x="29.88" y="35.9" width="20.23" height="20.23" rx="5.6" transform="translate(-15.28 20.3) rotate(-24.05)"/><circle class="cls-7" cx="83.34" cy="41.92" r="1.65"/><circle class="cls-7" cx="72.71" cy="13.12" r="1.65"/><circle class="cls-7" cx="34.59" cy="28.18" r="1.65"/><path class="cls-10" d="M39,10.56,44.11,18a5.62,5.62,0,0,0,7.8,1.39l7.41-5.16a5.62,5.62,0,0,0,1.38-7.8L56.25,0h-12L40.34,2.76A5.62,5.62,0,0,0,39,10.56Z"/><path class="cls-11" d="M15.53,69.14V102a24.35,24.35,0,0,0,8.86,1.66H53.65V86.43Z"/></g></g></svg>