<svg width="69" height="69" viewBox="0 0 69 69" fill="none" xmlns="http://www.w3.org/2000/svg">
<g clip-path="url(#clip0_1_490)">
<path d="M52.7635 0H16.2365C7.26931 0 0 7.26931 0 16.2365V52.7635C0 61.7307 7.26931 69 16.2365 69H52.7635C61.7307 69 69 61.7307 69 52.7635V16.2365C69 7.26931 61.7307 0 52.7635 0Z" fill="url(#paint0_linear_1_490)"/>
<path d="M61.0848 46.0266V2.29667C58.5712 0.78932 55.6944 -0.00467305 52.7635 -4.761e-07H16.2365C14.2181 -0.00296053 12.2172 0.374185 10.3383 1.11172V46.0266H61.0848Z" fill="url(#paint1_linear_1_490)"/>
<path d="M10.3383 46.0266V67.9016C12.2185 68.6338 14.2188 69.0086 16.2365 69.0066H35.7149V57.5366L10.3383 46.0266Z" fill="#8C877D"/>
<path d="M35.7149 57.5366V69H52.7635C55.6934 69.0037 58.5694 68.2122 61.0848 66.71V46.0266L35.7149 57.5366Z" fill="#45403D"/>
<path d="M35.7149 57.5366L10.3383 46.0266L35.7149 34.5166L61.0915 46.0266L35.7149 57.5366Z" fill="#FF5500"/>
<path d="M35.7149 47.8773L10.3383 36.3673L35.7149 24.8573L61.0915 36.3673L35.7149 47.8773Z" fill="#F2F0ED"/>
<path d="M50.3808 17.9185L44.8135 15.6511C42.9067 14.8745 40.7314 15.7907 39.9548 17.6975L37.6874 23.2647C36.9108 25.1715 37.827 27.3468 39.7338 28.1234L45.3011 30.3909C47.2079 31.1675 49.3832 30.2513 50.1598 28.3445L52.4272 22.7772C53.2038 20.8704 52.2876 18.6951 50.3808 17.9185Z" fill="#FF5500"/>
<path d="M26.6258 23.2624L21.1363 25.7122C19.2562 26.5513 18.4122 28.7556 19.2513 30.6358L21.7011 36.1252C22.5401 38.0054 24.7445 38.8494 26.6247 38.0103L32.1141 35.5605C33.9943 34.7214 34.8382 32.5171 33.9992 30.6369L31.5494 25.1475C30.7103 23.2673 28.5059 22.4234 26.6258 23.2624Z" fill="#FF5500"/>
<path d="M55.4796 29.0046C56.0862 29.0046 56.578 28.5129 56.578 27.9062C56.578 27.2996 56.0862 26.8078 55.4796 26.8078C54.873 26.8078 54.3812 27.2996 54.3812 27.9062C54.3812 28.5129 54.873 29.0046 55.4796 29.0046Z" fill="#F2F0ED"/>
<path d="M48.4032 9.83242C49.0098 9.83242 49.5016 9.34064 49.5016 8.73401C49.5016 8.12737 49.0098 7.6356 48.4032 7.6356C47.7966 7.6356 47.3048 8.12737 47.3048 8.73401C47.3048 9.34064 47.7966 9.83242 48.4032 9.83242Z" fill="#F2F0ED"/>
<path d="M23.0266 19.8579C23.6333 19.8579 24.125 19.3661 24.125 18.7595C24.125 18.1528 23.6333 17.6611 23.0266 17.6611C22.42 17.6611 21.9282 18.1528 21.9282 18.7595C21.9282 19.3661 22.42 19.8579 23.0266 19.8579Z" fill="#F2F0ED"/>
<path d="M25.9624 7.02981L29.3641 11.9826C29.932 12.7913 30.7967 13.3426 31.7695 13.5159C32.7424 13.6893 33.7443 13.4707 34.5566 12.908L39.4894 9.47294C40.2971 8.90406 40.8469 8.03884 41.0191 7.06606C41.1912 6.09328 40.9715 5.09192 40.4081 4.28046L37.4457 0H29.4573L26.8544 1.83734C26.051 2.41027 25.5065 3.27741 25.3394 4.24993C25.1723 5.22245 25.3962 6.2216 25.9624 7.02981Z" fill="#FF5500"/>
</g>
<defs>
<linearGradient id="paint0_linear_1_490" x1="12.3954" y1="12.3954" x2="61.1847" y2="61.1847" gradientUnits="userSpaceOnUse">
<stop stop-color="#353535"/>
<stop offset="0.26" stop-color="#303030"/>
<stop offset="0.56" stop-color="#222222"/>
<stop offset="0.87" stop-color="#0B0B0B"/>
<stop offset="1"/>
</linearGradient>
<linearGradient id="paint1_linear_1_490" x1="35.7149" y1="46.3395" x2="35.7149" y2="-17.2616" gradientUnits="userSpaceOnUse">
<stop stop-color="#5845FF"/>
<stop offset="0.0001" stop-color="#FF5500"/>
<stop offset="1" stop-color="#0C0C0D" stop-opacity="0"/>
</linearGradient>
<clipPath id="clip0_1_490">
<rect width="69" height="69" fill="white"/>
</clipPath>
</defs>
</svg>
