<svg width="302" height="84" viewBox="0 0 302 84" fill="none" xmlns="http://www.w3.org/2000/svg">
<path d="M164.106 74.4198V83.0201H119.274V74.4198H136.931V33.1407H119.274V24.5404H146.335V74.4198H164.106ZM134.524 7.11166C134.524 3.09675 137.735 0 141.75 0C145.765 0 148.861 3.09675 148.861 7.11166C148.861 11.3548 145.765 14.3374 141.75 14.3374C137.735 14.3374 134.524 11.3548 134.524 7.11166Z" fill="white"/>
<path d="M229.286 24.541V33.7117H221.718C208.07 33.7117 204.061 44.1483 204.061 53.4332V74.415H223.782V83.0153H181.585V74.415H194.657V33.1413H181.585V24.541H203.599L203.941 34.4017C206.576 29.8164 211.852 24.541 222.978 24.541H229.286Z" fill="white"/>
<path d="M243.806 53.7794C243.806 36.0084 255.731 23.8496 272.818 23.8496C289.904 23.8496 301.829 36.003 301.829 53.7794C301.829 71.5559 289.904 83.7093 272.818 83.7093C255.731 83.7093 243.806 71.5559 243.806 53.7794ZM292.197 53.7794C292.197 41.2838 284.401 32.2217 272.818 32.2217C261.235 32.2217 253.439 41.2783 253.439 53.7794C253.439 66.2805 261.235 75.3372 272.818 75.3372C284.401 75.3372 292.197 66.2805 292.197 53.7794Z" fill="white"/>
<path d="M67.7056 83.0633L94.9515 2.38477H105.328L78.0824 83.0633H67.7056Z" fill="white"/>
<path d="M0 83.0633L27.246 2.38477H37.6174L10.3768 83.0633H0Z" fill="white"/>
<path d="M68.0632 38.4258H40.1708L37.2642 47.0261H65.1567L68.0632 38.4258Z" fill="white"/>
</svg>
