<svg width="190" height="34" xmlns="http://www.w3.org/2000/svg"><path d="M98.92 16.71c1.054 0 1.868-.723 1.868-1.806 0-1.084-.814-1.836-1.867-1.836-1.054 0-1.837.753-1.837 1.836 0 1.083.783 1.806 1.837 1.806Zm0 11.284c1.054 0 1.868-.722 1.868-1.806 0-1.083-.814-1.835-1.867-1.835-1.054 0-1.837.752-1.837 1.835 0 1.084.783 1.806 1.837 1.806Zm27.705-.18c6.263 0 9.636-4.243 9.636-10.533 0-6.32-3.373-10.532-9.636-10.532h-6.565v21.064h6.565ZM122.68 9.155h3.945c4.787 0 6.955 3.19 6.955 8.125 0 4.905-2.168 8.125-6.955 8.125h-3.945V9.156Zm24.918 18.838c4.486 0 7.618-3.19 7.618-7.854s-3.132-7.854-7.618-7.854c-4.487 0-7.619 3.19-7.619 7.854s3.132 7.854 7.619 7.854Zm0-2.197c-3.042 0-5.09-2.377-5.09-5.657 0-3.28 2.048-5.657 5.09-5.657 3.04 0 5.088 2.377 5.088 5.657 0 3.28-2.047 5.657-5.088 5.657Zm18.786 2.197c3.734 0 6.233-2.106 6.836-5.417h-2.62c-.482 1.956-1.987 3.22-4.186 3.22-2.95 0-4.938-2.287-4.938-5.627s1.987-5.687 4.938-5.687c2.259 0 3.765 1.233 4.216 3.28h2.59c-.633-3.37-3.011-5.477-6.775-5.477-4.457 0-7.498 3.19-7.498 7.884 0 4.785 2.95 7.824 7.437 7.824Zm17.473 0c3.403 0 6.143-1.775 6.143-4.634 0-3.4-2.8-4.063-6.293-4.484-2.229-.27-3.855-.482-3.855-2.167 0-1.414 1.446-2.317 3.584-2.317 2.107 0 3.553 1.174 3.733 2.739h2.53c-.241-3.19-2.77-4.845-6.263-4.845-3.463 0-6.023 1.805-6.023 4.604 0 3.19 2.74 3.882 6.173 4.303 2.289.27 3.975.421 3.975 2.347 0 1.415-1.536 2.348-3.704 2.348-2.56 0-4.155-1.325-4.246-3.13h-2.53c.061 3.37 2.801 5.236 6.776 5.236Zm-140.7-2.436v2.26h-11.79v-2.26h4.643V14.71h-4.644v-2.26h7.117v13.108h4.674ZM35.377 7.87c0-1.055.844-1.869 1.9-1.869s1.87.814 1.87 1.87c0 1.114-.814 1.898-1.87 1.898s-1.9-.784-1.9-1.899ZM60.3 12.45v2.41h-1.99c-3.59 0-4.644 2.744-4.644 5.184v5.514h5.187v2.26H47.755v-2.26h3.438V14.71h-3.438v-2.26h5.79l.09 2.591c.693-1.205 2.08-2.591 5.006-2.591h1.66Zm3.816 7.685c0-4.67 3.136-7.866 7.63-7.866 4.493 0 7.63 3.194 7.63 7.866S76.238 28 71.745 28c-4.494 0-7.63-3.194-7.63-7.866Zm12.726 0c0-3.284-2.05-5.666-5.096-5.666-3.047 0-5.097 2.38-5.097 5.666 0 3.285 2.05 5.666 5.097 5.666 3.046 0 5.096-2.38 5.096-5.666ZM17.808 27.83l7.165-21.203h2.73L20.536 27.83h-2.729ZM0 27.83 7.165 6.627h2.728L2.729 27.83H0ZM17.903 16.1h-7.335l-.765 2.26h7.336l.764-2.26Z" fill="#F2F0ED" fill-rule="nonzero"/></svg>