<svg width="744" height="126" viewBox="0 0 744 126" fill="none" xmlns="http://www.w3.org/2000/svg">
<path d="M376.145 62.7495C380.152 62.7495 383.244 60.0015 383.244 55.8795C383.244 51.7575 380.152 48.895 376.145 48.895C372.137 48.895 369.16 51.7575 369.16 55.8795C369.16 60.0015 372.137 62.7495 376.145 62.7495ZM376.145 105.687C380.152 105.687 383.244 102.939 383.244 98.817C383.244 94.695 380.152 91.8325 376.145 91.8325C372.137 91.8325 369.16 94.695 369.16 98.817C369.16 102.939 372.137 105.687 376.145 105.687ZM481.49 105C505.306 105 518.13 88.8555 518.13 64.925C518.13 40.88 505.306 24.85 481.49 24.85H456.529V105H481.49ZM466.49 34.01H481.49C499.695 34.01 507.939 46.147 507.939 64.925C507.939 83.5885 499.695 95.84 481.49 95.84H466.49V34.01ZM567.239 105.687C584.299 105.687 596.207 93.55 596.207 75.8025C596.207 58.055 584.299 45.918 567.239 45.918C550.178 45.918 538.27 58.055 538.27 75.8025C538.27 93.55 550.178 105.687 567.239 105.687ZM567.239 97.3285C555.674 97.3285 547.888 88.283 547.888 75.8025C547.888 63.322 555.674 54.2765 567.239 54.2765C578.803 54.2765 586.589 63.322 586.589 75.8025C586.589 88.283 578.803 97.3285 567.239 97.3285ZM644.676 105.687C658.874 105.687 668.377 97.672 670.667 85.077H660.706C658.874 92.5195 653.149 97.3285 644.79 97.3285C633.569 97.3285 626.012 88.6265 626.012 75.917C626.012 63.2075 633.569 54.2765 644.79 54.2765C653.378 54.2765 659.103 58.971 660.82 66.757H670.667C668.263 53.933 659.217 45.918 644.905 45.918C627.959 45.918 616.394 58.055 616.394 75.917C616.394 94.1225 627.615 105.687 644.676 105.687ZM715.116 105.687C728.054 105.687 738.474 98.9315 738.474 88.054C738.474 75.1155 727.825 72.5965 714.543 70.9935C706.07 69.963 699.887 69.1615 699.887 62.7495C699.887 57.368 705.383 53.933 713.513 53.933C721.528 53.933 727.024 58.3985 727.711 64.3525H737.329C736.413 52.2155 726.795 45.918 713.513 45.918C700.345 45.918 690.613 52.788 690.613 63.4365C690.613 75.5735 701.032 78.207 714.085 79.81C722.787 80.8405 729.199 81.413 729.199 88.741C729.199 94.1225 723.36 97.672 715.116 97.672C705.383 97.672 699.315 92.634 698.971 85.764H689.353C689.582 98.588 700.002 105.687 715.116 105.687Z" fill="white"/>
<path d="M164.103 96.4201V105.02H119.27V96.4201H136.927V55.1408H119.27V46.5405H146.332V96.4201H164.103ZM134.521 29.1117C134.521 25.0968 137.731 22 141.746 22C145.761 22 148.858 25.0968 148.858 29.1117C148.858 33.3548 145.761 36.3375 141.746 36.3375C137.731 36.3375 134.521 33.3548 134.521 29.1117Z" fill="white"/>
<path d="M229.291 46.5415V55.7123H221.723C208.075 55.7123 204.066 66.1489 204.066 75.4338V96.4157H223.787V105.016H181.59V96.4157H194.661V55.1418H181.59V46.5415H203.604L203.946 56.4023C206.581 51.8169 211.856 46.5415 222.983 46.5415H229.291Z" fill="white"/>
<path d="M243.8 75.7799C243.8 58.0088 255.725 45.85 272.812 45.85C289.898 45.85 301.824 58.0034 301.824 75.7799C301.824 93.5564 289.898 105.71 272.812 105.71C255.725 105.71 243.8 93.5564 243.8 75.7799ZM292.191 75.7799C292.191 63.2842 284.395 54.2221 272.812 54.2221C261.229 54.2221 253.432 63.2788 253.432 75.7799C253.432 88.2811 261.229 97.3377 272.812 97.3377C284.395 97.3377 292.191 88.2811 292.191 75.7799Z" fill="white"/>
<path d="M67.7146 105.063L94.9607 24.3843H105.338L78.0915 105.063H67.7146Z" fill="white"/>
<path d="M0 105.063L27.2461 24.3843H37.6175L10.3769 105.063H0Z" fill="white"/>
<path d="M68.0763 60.4283H40.1837L37.2771 69.0287H65.1697L68.0763 60.4283Z" fill="white"/>
</svg>
