<svg xmlns="http://www.w3.org/2000/svg" xmlns:xlink="http://www.w3.org/1999/xlink" viewBox="0 0 103.65 103.65"><defs><style>.cls-1{fill:#efeff2;}.cls-2{fill:url(#linear-gradient);}.cls-3{fill:url(#linear-gradient-2);}.cls-4{fill:none;}</style><linearGradient id="linear-gradient" x1="-4.17" y1="75.79" x2="28.45" y2="43.17" gradientUnits="userSpaceOnUse"><stop offset="0" stop-color="#353535"/><stop offset="0.26" stop-color="#303030"/><stop offset="0.56" stop-color="#222"/><stop offset="0.87" stop-color="#0b0b0b"/><stop offset="1"/></linearGradient><linearGradient id="linear-gradient-2" x1="71.61" y1="39.58" x2="103.64" y2="71.61" gradientUnits="userSpaceOnUse"><stop offset="0" stop-color="#5845ff"/><stop offset="1" stop-color="#803cf3"/></linearGradient></defs><g id="Layer_2" data-name="Layer 2"><g id="Layer_1-2" data-name="Layer 1"><path class="cls-1" d="M57.52,69.81v-36A11.3,11.3,0,0,1,68.78,22.58h34.8A24.39,24.39,0,0,0,79.26,0H24.39A24.4,24.4,0,0,0,.07,22.58h34.8A11.3,11.3,0,0,1,46.13,33.85v36A11.3,11.3,0,0,1,34.87,81.07H.07a24.4,24.4,0,0,0,24.32,22.58H79.26a24.39,24.39,0,0,0,24.32-22.58H68.78A11.3,11.3,0,0,1,57.52,69.81Z"/><path class="cls-2" d="M46.13,69.81v-36A11.3,11.3,0,0,0,34.87,22.58H.07c0,.6-.07,1.2-.07,1.81V50.82H27.78l-5.84-6a1,1,0,0,1,1.43-1.41l7.52,7.66a1,1,0,0,1,0,1.41l-7.52,7.66a1,1,0,0,1-1.43-1.41l5.84-6H0V79.26c0,.61,0,1.21.07,1.81h34.8A11.3,11.3,0,0,0,46.13,69.81Z"/><path class="cls-1" d="M81.72,58.78a1,1,0,0,1-1.44,1.41l-7.52-7.66a1,1,0,0,1,0-1.41l7.52-7.66a1,1,0,0,1,1.44,1.41l-5.85,6h27.78V24.39c0-.61,0-1.21-.07-1.81H68.78A11.3,11.3,0,0,0,57.52,33.85v36A11.3,11.3,0,0,0,68.78,81.07h34.8c0-.6.07-1.2.07-1.81V52.83H75.87Z"/><path class="cls-3" d="M81.72,58.78a1,1,0,0,1-1.44,1.41l-7.52-7.66a1,1,0,0,1,0-1.41l7.52-7.66a1,1,0,0,1,1.44,1.41l-5.85,6h27.78V24.39c0-.61,0-1.21-.07-1.81H68.78A11.3,11.3,0,0,0,57.52,33.85v36A11.3,11.3,0,0,0,68.78,81.07h34.8c0-.6.07-1.2.07-1.81V52.83H75.87Z"/><rect class="cls-4" width="103.65" height="103.65" rx="24.39"/><path class="cls-1" d="M21.94,58.78a1,1,0,0,0,0,1.42,1,1,0,0,0,1.42,0l7.52-7.66a1,1,0,0,0,0-1.41l-7.52-7.66a1,1,0,0,0-1.43,1.41l5.84,6H0v2H27.78Z"/><path class="cls-1" d="M75.87,50.82l5.85-6a1,1,0,0,0-1.44-1.41l-7.52,7.66a1,1,0,0,0,0,1.41l7.52,7.66a1,1,0,0,0,.72.3,1,1,0,0,0,.72-1.71l-5.85-6h27.78v-2Z"/></g></g></svg>