<svg width="70" height="69" viewBox="0 0 70 69" fill="none" xmlns="http://www.w3.org/2000/svg">
<g clip-path="url(#clip0_1_479)">
<path d="M38.8468 46.4726V22.5074C38.8592 20.525 39.665 18.6276 41.089 17.2277C42.513 15.8278 44.4401 15.0385 46.4512 15.0315H69.9534C69.6449 10.9456 67.7807 7.12561 64.7345 4.33779C61.6884 1.54998 57.6856 0.000461397 53.5289 0L16.4724 0C12.3162 0.00201962 8.31432 1.55207 5.2685 4.33957C2.22268 7.12707 0.357955 10.9461 0.0479431 15.0315H23.5501C25.5659 15.0386 27.497 15.8315 28.9218 17.2371C30.3465 18.6428 31.1492 20.547 31.1546 22.534V46.4993C31.1403 48.4805 30.3337 50.3762 28.9099 51.7747C27.4861 53.1732 25.5601 53.9615 23.5501 53.9684H0.0479431C0.357955 58.0539 2.22268 61.8729 5.2685 64.6604C8.31432 67.4479 12.3162 68.998 16.4724 69H53.5289C57.6856 68.9995 61.6884 67.45 64.7345 64.6622C67.7807 61.8744 69.6449 58.0544 69.9534 53.9684H46.4512C44.4366 53.9614 42.5065 53.1694 41.0819 51.7652C39.6574 50.361 38.8539 48.4585 38.8468 46.4726Z" fill="#F2F0ED"/>
<path d="M31.1539 46.4726V22.5074C31.1414 20.525 30.3356 18.6276 28.9116 17.2277C27.4876 15.8278 25.5606 15.0385 23.5494 15.0316H0.0472745C0.0472745 15.431 0 15.8304 0 16.2365V33.831H18.7612L14.8172 29.8368C14.6909 29.7105 14.6207 29.54 14.6219 29.3627C14.6232 29.1855 14.6959 29.0159 14.8239 28.8915C14.952 28.767 15.125 28.6978 15.3048 28.699C15.4847 28.7003 15.6566 28.7719 15.7829 28.8981L20.8616 33.9974C20.9873 34.1221 21.0579 34.2909 21.0579 34.4667C21.0579 34.6426 20.9873 34.8113 20.8616 34.936L15.7829 40.0353C15.6566 40.1615 15.4847 40.2332 15.3048 40.2344C15.125 40.2357 14.952 40.1664 14.8239 40.042C14.6959 39.9175 14.6232 39.748 14.6219 39.5707C14.6207 39.3934 14.6909 39.2229 14.8172 39.0967L18.7612 35.1025H0V52.7635C0 53.1696 0 53.569 0.0472745 53.9685H23.5494C25.5641 53.9614 27.4942 53.1694 28.9187 51.7652C30.3433 50.361 31.1468 48.4585 31.1539 46.4726Z" fill="#45403D"/>
<path d="M55.1896 39.13C55.3159 39.2571 55.3857 39.4284 55.3838 39.6063C55.3819 39.7842 55.3084 39.9541 55.1794 40.0786C55.0505 40.2031 54.8766 40.2719 54.6962 40.2701C54.5157 40.2682 54.3433 40.1957 54.2171 40.0686L49.1384 34.9693C49.0127 34.8446 48.9421 34.6759 48.9421 34.5C48.9421 34.3241 49.0127 34.1554 49.1384 34.0307L54.2171 28.9314C54.3433 28.8043 54.5157 28.7318 54.6962 28.7299C54.8766 28.7281 55.0505 28.797 55.1794 28.9214C55.3084 29.0459 55.3819 29.2158 55.3838 29.3937C55.3857 29.5716 55.3159 29.7429 55.1896 29.87L51.2388 33.8643H70V16.2365C70 15.8304 70 15.431 69.9527 15.0316H46.4506C44.4348 15.0386 42.5037 15.8315 41.0789 17.2371C39.6541 18.6428 38.8515 20.547 38.8461 22.534V46.4993C38.8603 48.4805 39.6669 50.3762 41.0907 51.7747C42.5145 53.1732 44.4406 53.9615 46.4506 53.9685H69.9527C69.9527 53.569 70 53.1696 70 52.7635V35.169H51.2388L55.1896 39.13Z" fill="#F2F0ED"/>
<path d="M55.1896 39.13C55.3159 39.2571 55.3857 39.4284 55.3838 39.6063C55.3819 39.7842 55.3084 39.9541 55.1794 40.0786C55.0505 40.2031 54.8766 40.2719 54.6962 40.2701C54.5157 40.2682 54.3433 40.1957 54.2171 40.0686L49.1384 34.9693C49.0127 34.8446 48.9421 34.6759 48.9421 34.5C48.9421 34.3241 49.0127 34.1554 49.1384 34.0307L54.2171 28.9314C54.3433 28.8043 54.5157 28.7318 54.6962 28.7299C54.8766 28.7281 55.0505 28.797 55.1794 28.9214C55.3084 29.0459 55.3819 29.2158 55.3838 29.3937C55.3857 29.5716 55.3159 29.7429 55.1896 29.87L51.2388 33.8643H70V16.2365C70 15.8304 70 15.431 69.9527 15.0316H46.4506C44.4348 15.0386 42.5037 15.8315 41.0789 17.2371C39.6541 18.6428 38.8515 20.547 38.8461 22.534V46.4993C38.8603 48.4805 39.6669 50.3762 41.0907 51.7747C42.5145 53.1732 44.4406 53.9615 46.4506 53.9685H69.9527C69.9527 53.569 70 53.1696 70 52.7635V35.169H51.2388L55.1896 39.13Z" fill="#FF5500"/>
<path d="M14.8172 39.13C14.7539 39.1918 14.7036 39.2655 14.6693 39.3466C14.6351 39.4277 14.6174 39.5147 14.6174 39.6026C14.6174 39.6905 14.6351 39.7775 14.6693 39.8586C14.7036 39.9397 14.7539 40.0134 14.8172 40.0752C14.88 40.1376 14.9547 40.1872 15.0369 40.221C15.1192 40.2548 15.2075 40.2722 15.2967 40.2722C15.3858 40.2722 15.4741 40.2548 15.5564 40.221C15.6387 40.1872 15.7134 40.1376 15.7762 40.0752L20.8548 34.976C20.9806 34.8512 21.0512 34.6825 21.0512 34.5067C21.0512 34.3308 20.9806 34.1621 20.8548 34.0373L15.7762 28.9381C15.6499 28.8118 15.4779 28.7402 15.2981 28.739C15.1182 28.7377 14.9452 28.8069 14.8172 28.9314C14.6891 29.0559 14.6164 29.2254 14.6152 29.4027C14.6139 29.5799 14.6841 29.7505 14.8104 29.8767L18.7545 33.8709H0V35.2023H18.7612L14.8172 39.13Z" fill="#F2F0ED"/>
<path d="M51.2388 33.831L55.1896 29.8368C55.3158 29.7096 55.3857 29.5383 55.3838 29.3604C55.3819 29.1825 55.3084 29.0126 55.1794 28.8881C55.0505 28.7637 54.8766 28.6948 54.6962 28.6967C54.5157 28.6985 54.3433 28.771 54.2171 28.8981L49.1384 33.9974C49.0127 34.1221 48.942 34.2909 48.942 34.4667C48.942 34.6426 49.0127 34.8113 49.1384 34.936L54.2171 40.0353C54.2804 40.099 54.3561 40.1495 54.4396 40.1838C54.5232 40.2181 54.6128 40.2355 54.7033 40.235C54.838 40.2371 54.9703 40.1995 55.0831 40.1269C55.196 40.0543 55.2842 39.9501 55.3365 39.8277C55.3888 39.7053 55.4027 39.5703 55.3765 39.44C55.3504 39.3098 55.2852 39.1902 55.1896 39.0967L51.2388 35.1025H70V33.7711L51.2388 33.831Z" fill="#F2F0ED"/>
</g>
<defs>
<clipPath id="clip0_1_479">
<rect width="70" height="69" fill="white"/>
</clipPath>
</defs>
</svg>
