<svg width="184" height="26" viewBox="0 0 184 26" fill="none" xmlns="http://www.w3.org/2000/svg">
<path d="M42 4.80005V21.44H44.71V14.21H52.37V21.44H55.08V4.80005H52.37V11.8H44.71V4.80005H42Z" fill="white"/>
<path d="M58.86 4.42001C58.6523 4.41428 58.4457 4.45146 58.2531 4.52923C58.0604 4.607 57.8859 4.72369 57.7404 4.87198C57.5949 5.02028 57.4816 5.19701 57.4076 5.3911C57.3335 5.5852 57.3003 5.79249 57.31 6.00001C57.3414 6.39089 57.5188 6.75561 57.807 7.02157C58.0951 7.28753 58.4729 7.43521 58.865 7.43521C59.2571 7.43521 59.6349 7.28753 59.923 7.02157C60.2112 6.75561 60.3886 6.39089 60.42 6.00001C60.4283 5.792 60.3938 5.5845 60.3186 5.39038C60.2434 5.19626 60.1291 5.01965 59.9828 4.87151C59.8366 4.72338 59.6614 4.60686 59.4683 4.5292C59.2751 4.45153 59.0681 4.41436 58.86 4.42001ZM57.59 9.27001V21.44H60.13V9.27001H57.59Z" fill="white"/>
<path d="M68.49 9.27004C67.7854 9.20474 67.0768 9.34233 66.4477 9.66658C65.8187 9.99082 65.2956 10.4882 64.94 11.1L64.65 9.27004H62.39V21.44H64.94V15.33C64.94 13.45 65.67 11.67 67.94 11.67H69.07V9.27004H68.49Z" fill="white"/>
<path d="M75.57 21.58C76.3949 21.6212 77.2193 21.4875 77.9889 21.1878C78.7585 20.888 79.4561 20.429 80.0359 19.8407C80.6156 19.2524 81.0645 18.5483 81.353 17.7743C81.6415 17.0004 81.7632 16.1743 81.71 15.35C81.7434 14.5222 81.6092 13.6962 81.3155 12.9215C81.0217 12.1468 80.5744 11.4395 80.0005 10.8419C79.4266 10.2444 78.7379 9.769 77.9757 9.44424C77.2135 9.11949 76.3935 8.95209 75.565 8.95209C74.7365 8.95209 73.9166 9.11949 73.1544 9.44424C72.3922 9.769 71.7034 10.2444 71.1295 10.8419C70.5556 11.4395 70.1084 12.1468 69.8146 12.9215C69.5208 13.6962 69.3866 14.5222 69.42 15.35C69.3667 16.1751 69.4886 17.0022 69.7777 17.7768C70.0669 18.5515 70.5166 19.2562 71.0975 19.8446C71.6784 20.433 72.3772 20.8919 73.148 21.191C73.9189 21.4901 74.7443 21.6227 75.57 21.58ZM75.57 19.39C73.42 19.39 72.03 17.71 72.03 15.39C72.03 13.07 73.42 11.39 75.57 11.39C77.72 11.39 79.12 13.08 79.12 15.39C79.12 17.7 77.71 19.39 75.57 19.39Z" fill="white"/>
<path d="M26.8 0H8.8L0 13L8.76 26H26.76L35.53 13L26.8 0ZM24.22 15.32H20.3L23 19.5H21L17.79 14.59L14.56 19.5H12.56L15.3 15.33H11.34V13.75H24.22V15.32ZM24.22 12.22H11.34V10.63H15.19L12.49 6.5H14.49L17.74 11.5L21 6.5H23L20.29 10.63H24.14L24.22 12.22Z" fill="white"/>
<path d="M91.292 21H95.225C99.386 21 101.913 18.321 101.913 14.35C101.913 10.36 99.386 7.7 95.225 7.7H91.292V21ZM92.945 19.48V9.22H95.225C98.455 9.22 100.222 11.234 100.222 14.35C100.222 17.447 98.455 19.48 95.225 19.48H92.945ZM103.242 16.155C103.242 19.119 105.142 21.114 108.049 21.114C110.291 21.114 111.887 19.689 112.267 17.751H110.69C110.367 19.005 109.303 19.727 107.935 19.727C106.13 19.727 104.933 18.473 104.876 16.592V16.459H112.4C112.419 16.231 112.438 16.003 112.438 15.794C112.362 12.925 110.576 11.196 107.84 11.196C105.104 11.196 103.242 13.172 103.242 16.155ZM104.971 15.167C105.123 13.59 106.434 12.564 107.859 12.564C109.474 12.564 110.614 13.495 110.766 15.167H104.971ZM112.686 11.31L116.315 21H118.196L121.825 11.31H120.191L117.284 19.233L114.358 11.31H112.686ZM122.085 16.155C122.085 19.119 123.985 21.114 126.892 21.114C129.134 21.114 130.73 19.689 131.11 17.751H129.533C129.21 19.005 128.146 19.727 126.778 19.727C124.973 19.727 123.776 18.473 123.719 16.592V16.459H131.243C131.262 16.231 131.281 16.003 131.281 15.794C131.205 12.925 129.419 11.196 126.683 11.196C123.947 11.196 122.085 13.172 122.085 16.155ZM123.814 15.167C123.966 13.59 125.277 12.564 126.702 12.564C128.317 12.564 129.457 13.495 129.609 15.167H123.814ZM132.868 7.7V21H134.426V7.7H132.868ZM140.836 21.114C143.667 21.114 145.643 19.1 145.643 16.155C145.643 13.21 143.667 11.196 140.836 11.196C138.005 11.196 136.029 13.21 136.029 16.155C136.029 19.1 138.005 21.114 140.836 21.114ZM140.836 19.727C138.917 19.727 137.625 18.226 137.625 16.155C137.625 14.084 138.917 12.583 140.836 12.583C142.755 12.583 144.047 14.084 144.047 16.155C144.047 18.226 142.755 19.727 140.836 19.727ZM152.122 11.196C150.488 11.196 149.443 11.975 148.797 12.868L148.588 11.31H147.239V24.8H148.797V19.518C149.386 20.449 150.488 21.114 152.122 21.114C154.801 21.114 156.777 19.119 156.777 16.155C156.777 13.001 154.801 11.196 152.122 11.196ZM151.97 19.727C150.07 19.727 148.778 18.245 148.778 16.117C148.778 14.046 150.07 12.583 151.97 12.583C153.889 12.583 155.181 14.046 155.181 16.155C155.181 18.264 153.889 19.727 151.97 19.727ZM158.026 16.155C158.026 19.119 159.926 21.114 162.833 21.114C165.075 21.114 166.671 19.689 167.051 17.751H165.474C165.151 19.005 164.087 19.727 162.719 19.727C160.914 19.727 159.717 18.473 159.66 16.592V16.459H167.184C167.203 16.231 167.222 16.003 167.222 15.794C167.146 12.925 165.36 11.196 162.624 11.196C159.888 11.196 158.026 13.172 158.026 16.155ZM159.755 15.167C159.907 13.59 161.218 12.564 162.643 12.564C164.258 12.564 165.398 13.495 165.55 15.167H159.755ZM173.294 11.31C171.565 11.31 170.824 12.032 170.368 12.773L170.159 11.31H168.81V21H170.368V16.06C170.368 14.521 170.919 12.83 172.952 12.83H173.731V11.31H173.294ZM174.271 17.808C174.309 19.936 176.019 21.114 178.489 21.114C180.617 21.114 182.327 19.993 182.327 18.188C182.327 16.041 180.56 15.585 178.394 15.319C177.026 15.148 176.019 15.053 176.019 13.989C176.019 13.096 176.912 12.526 178.223 12.526C179.534 12.526 180.465 13.267 180.579 14.255H182.137C181.985 12.241 180.408 11.215 178.223 11.196C176.095 11.177 174.48 12.336 174.48 14.103C174.48 16.117 176.209 16.516 178.318 16.782C179.743 16.953 180.788 17.086 180.788 18.302C180.788 19.195 179.838 19.784 178.489 19.784C176.912 19.784 175.886 18.948 175.829 17.808H174.271Z" fill="#8D929A"/>
</svg>
