<svg width="3031" height="557" viewBox="0 0 3031 557" fill="none" xmlns="http://www.w3.org/2000/svg">
<path d="M1906.39 459.6H2019.67C2129.91 459.6 2199 386.956 2199 281.8C2199 176.136 2129.91 104 2019.67 104H1906.39V459.6ZM1964.81 408.8V154.8H2019.67C2097.4 154.8 2139.05 205.6 2139.05 281.8C2139.05 358 2097.4 408.8 2019.67 408.8H1964.81Z" fill="#9A9A9A"/>
<path d="M2362.45 462.648C2441.7 462.648 2495.04 409.308 2495.04 329.552C2495.04 250.304 2441.7 196.456 2362.45 196.456C2283.2 196.456 2229.86 250.304 2229.86 329.552C2229.86 409.308 2283.2 462.648 2362.45 462.648ZM2362.45 415.912C2316.22 415.912 2286.25 379.844 2286.25 329.552C2286.25 279.26 2316.22 243.192 2362.45 243.192C2408.68 243.192 2439.16 279.26 2439.16 329.552C2439.16 379.844 2408.68 415.912 2362.45 415.912Z" fill="#9A9A9A"/>
<path d="M2773.85 366.128H2717.97C2711.37 396.608 2688 415.912 2653.96 415.912C2609.77 415.912 2580.81 380.352 2580.81 329.044C2580.81 278.244 2609.77 243.192 2653.96 243.192C2686.98 243.192 2710.35 262.496 2717.46 291.96H2773.85C2763.69 233.54 2721.02 196.456 2655.49 196.456C2576.24 196.456 2524.42 249.288 2524.42 329.044C2524.42 409.308 2575.73 462.648 2653.96 462.648C2720.51 462.648 2763.69 425.564 2773.85 366.128Z" fill="#9A9A9A"/>
<path d="M2803.62 373.748C2805.14 430.136 2852.38 462.648 2921.47 462.648C2983.96 462.648 3030.69 431.152 3030.69 381.368C3030.69 323.456 2982.43 310.248 2924.01 303.644C2886.93 299.072 2862.04 297.04 2862.04 272.656C2862.04 251.828 2883.37 238.62 2915.38 238.62C2947.38 238.62 2970.24 255.892 2972.78 279.26H3026.12C3022.56 225.92 2977.86 196.456 2914.36 196.456C2852.89 195.948 2808.7 227.952 2808.7 277.228C2808.7 331.076 2855.43 343.268 2913.85 350.38C2953.48 355.46 2976.84 358 2976.84 385.432C2976.84 406.768 2953.98 419.976 2920.96 419.976C2883.37 419.976 2858.48 400.672 2856.45 373.748H2803.62Z" fill="#9A9A9A"/>
<path d="M905.528 102.741V458.827H964.028V304.184H1129.35V458.827H1187.85V102.741H1129.35V252.297H964.028V102.741H905.528Z" fill="black"/>
<path d="M1269.56 94.6021C1250.74 94.6021 1235.98 108.337 1235.98 127.667C1235.98 146.998 1250.74 160.732 1269.56 160.732C1288.38 160.732 1303.13 146.998 1303.13 127.667C1303.13 108.337 1288.38 94.6021 1269.56 94.6021ZM1242.09 198.376V458.827H1297.03V198.376H1242.09Z" fill="black"/>
<path d="M1477.55 198.376C1434.82 198.376 1413.96 215.671 1400.73 237.545L1394.63 198.376H1345.8V458.827H1400.73V328.093C1400.73 287.906 1416.5 249.754 1465.34 249.754H1489.76V198.376H1477.55Z" fill="black"/>
<path d="M1630.23 461.879C1709.59 461.879 1763 408.467 1763 328.601C1763 249.245 1709.59 195.324 1630.23 195.324C1550.87 195.324 1497.46 249.245 1497.46 328.601C1497.46 408.467 1550.87 461.879 1630.23 461.879ZM1630.23 415.08C1583.94 415.08 1553.93 378.962 1553.93 328.601C1553.93 278.241 1583.94 242.123 1630.23 242.123C1676.52 242.123 1707.04 278.241 1707.04 328.601C1707.04 378.962 1676.52 415.08 1630.23 415.08Z" fill="black"/>
<path fill-rule="evenodd" clip-rule="evenodd" d="M577.349 556.481L766.552 278.24L577.349 0H187.812V2.046L0 278.241L187.812 554.435V556.481L189.203 556.481L577.349 556.481ZM521.701 227.428H438.532L496.937 139.12H452.783L382.464 245.651L312.378 139.12H268.224L326.629 227.428H243.46V261.537H521.701V227.428ZM436.897 327.884L496.003 417.361H451.848L382.464 312.232L313.079 417.361H269.158L328.264 328.118H243.46V294.243H521.701V327.884H436.897Z" fill="black"/>
</svg>
