<svg xmlns="http://www.w3.org/2000/svg" xmlns:xlink="http://www.w3.org/1999/xlink" viewBox="0 0 103.65 103.65"><defs><style>.cls-1{fill:url(#linear-gradient);}.cls-2{fill:url(#linear-gradient-2);}.cls-3{fill:#efeff2;}.cls-4{fill:#fff;}.cls-5{fill:url(#linear-gradient-3);}</style><linearGradient id="linear-gradient" x1="37.64" y1="37.64" x2="110.93" y2="110.93" gradientUnits="userSpaceOnUse"><stop offset="0" stop-color="#5546ff"/><stop offset="0.35" stop-color="#7d75dd"/><stop offset="0.72" stop-color="#a3a0be"/><stop offset="0.91" stop-color="#b1b1b2"/></linearGradient><linearGradient id="linear-gradient-2" x1="23.24" y1="23.24" x2="74.84" y2="74.84" gradientTransform="translate(29.73 -12.31) rotate(45)" gradientUnits="userSpaceOnUse"><stop offset="0" stop-color="#efeff2"/><stop offset="0.07" stop-color="#eaeaed"/><stop offset="0.15" stop-color="#dcdcdf"/><stop offset="0.24" stop-color="#c6c6c8"/><stop offset="0.33" stop-color="#a6a6a8"/><stop offset="0.42" stop-color="#7c7c7e"/><stop offset="0.52" stop-color="#4a4a4b"/><stop offset="0.61" stop-color="#101010"/><stop offset="0.64"/></linearGradient><linearGradient id="linear-gradient-3" x1="55.83" y1="58.74" x2="76.98" y2="58.74" gradientUnits="userSpaceOnUse"><stop offset="0" stop-color="#353535"/><stop offset="0.17" stop-color="#303030"/><stop offset="0.36" stop-color="#222"/><stop offset="0.56" stop-color="#0b0b0b"/><stop offset="0.64"/></linearGradient></defs><g id="Layer_2" data-name="Layer 2"><g id="Layer_1-2" data-name="Layer 1"><rect class="cls-1" width="103.65" height="103.65" rx="24.39"/><rect class="cls-2" x="26.06" y="12.88" width="7.34" height="33.69" rx="3.67" transform="translate(-12.31 29.73) rotate(-45)"/><path class="cls-3" d="M78.66,38.82a28.17,28.17,0,1,0,0,39.84A28.16,28.16,0,0,0,78.66,38.82ZM75.31,75.31a23.44,23.44,0,1,1,0-33.15A23.45,23.45,0,0,1,75.31,75.31Z"/><path class="cls-4" d="M65.18,51c-10.64-2.84-19.84,3.15-23.61,6.16a2,2,0,0,0,0,3.09c8.9,6.84,16.61,7.77,22.6,6.51a11.63,11.63,0,0,1,1-15.76Z"/><path class="cls-4" d="M76.39,57.45A26.87,26.87,0,0,0,65.18,51a11.63,11.63,0,0,0-1,15.76,25.69,25.69,0,0,0,12.22-6.64A1.83,1.83,0,0,0,76.39,57.45Z"/><path class="cls-5" d="M76.43,60.11a1.83,1.83,0,0,0,0-2.66A26.87,26.87,0,0,0,65.18,51a11.88,11.88,0,0,0-2.11,2.72A11.82,11.82,0,0,1,65.19,51a22.07,22.07,0,0,0-6.13-.75,15.11,15.11,0,0,0-1.16,17,22.71,22.71,0,0,0,6.32-.41,11.79,11.79,0,0,1-1.93-3.4,11.6,11.6,0,0,0,1.92,3.37A25.69,25.69,0,0,0,76.43,60.11Z"/></g></g></svg>