<svg width="69" height="69" viewBox="0 0 69 69" fill="none" xmlns="http://www.w3.org/2000/svg">
<g clip-path="url(#clip0_1_527)">
<path d="M52.7635 0H16.2365C7.26931 0 0 7.26931 0 16.2365V52.7635C0 61.7307 7.26931 69 16.2365 69H52.7635C61.7307 69 69 61.7307 69 52.7635V16.2365C69 7.26931 61.7307 0 52.7635 0Z" fill="#FF5500"/>
<path d="M15.3178 11.8596C14.3637 10.9055 12.8168 10.9055 11.8627 11.8596C10.9086 12.8137 10.9086 14.3606 11.8627 15.3147L24.2662 27.7183C25.2203 28.6724 26.7672 28.6724 27.7213 27.7183C28.6754 26.7642 28.6754 25.2173 27.7213 24.2632L15.3178 11.8596Z" fill="#CFC9C2"/>
<path d="M52.3641 25.8425C49.7414 23.2201 46.4 21.4342 42.7623 20.7107C39.1247 19.9873 35.3542 20.3587 31.9276 21.7781C28.5011 23.1975 25.5724 25.6011 23.5119 28.685C21.4514 31.7688 20.3516 35.3944 20.3516 39.1033C20.3516 42.8122 21.4514 46.4378 23.5119 49.5217C25.5724 52.6055 28.5011 55.0091 31.9276 56.4285C35.3542 57.8479 39.1247 58.2194 42.7623 57.4959C46.4 56.7725 49.7414 54.9866 52.3641 52.3641C54.1064 50.6232 55.4886 48.5559 56.4316 46.2806C57.3746 44.0052 57.86 41.5664 57.86 39.1033C57.86 36.6403 57.3746 34.2014 56.4316 31.9261C55.4886 29.6507 54.1064 27.5835 52.3641 25.8425ZM50.134 50.134C47.9517 52.3162 45.1713 53.8023 42.1445 54.4043C39.1176 55.0063 35.9802 54.6972 33.129 53.5162C30.2777 52.3351 27.8408 50.3351 26.1262 47.7691C24.4116 45.203 23.4965 42.1862 23.4965 39.1C23.4965 36.0138 24.4116 32.997 26.1262 30.4309C27.8408 27.8649 30.2777 25.8649 33.129 24.6838C35.9802 23.5027 39.1176 23.1937 42.1445 23.7957C45.1713 24.3977 47.9517 25.8838 50.134 28.066C53.0589 30.9932 54.7018 34.9619 54.7018 39.1C54.7018 43.238 53.0589 47.2068 50.134 50.134Z" fill="#F2F0ED"/>
<path d="M43.3904 33.9508C36.3074 32.0602 30.1829 36.0477 27.6732 38.0515C27.5213 38.1764 27.3989 38.3334 27.3149 38.5113C27.2309 38.6891 27.1873 38.8833 27.1873 39.08C27.1873 39.2767 27.2309 39.4709 27.3149 39.6488C27.3989 39.8266 27.5213 39.9836 27.6732 40.1085C33.598 44.6619 38.7305 45.281 42.7181 44.4422C41.4884 42.9306 40.8739 41.0109 40.9973 39.0662C41.1207 37.1215 41.9729 35.2948 43.3838 33.9508H43.3904Z" fill="#F2F0ED"/>
<path d="M50.853 38.2446C48.7521 36.2271 46.1904 34.7531 43.3904 33.9508C41.9795 35.2949 41.1273 37.1215 41.004 39.0662C40.8806 41.0109 41.495 42.9307 42.7247 44.4423C45.7912 43.7448 48.606 42.2153 50.8596 40.022C50.9807 39.9076 51.0771 39.7696 51.1427 39.6165C51.2084 39.4634 51.2419 39.2984 51.2413 39.1319C51.2407 38.9653 51.2059 38.8006 51.1391 38.648C51.0723 38.4954 50.9749 38.3581 50.853 38.2446Z" fill="#F2F0ED"/>
<path d="M50.8796 40.0153C51.0001 39.9015 51.096 39.7642 51.1616 39.612C51.2272 39.4597 51.2611 39.2957 51.2611 39.13C51.2611 38.9642 51.2272 38.8002 51.1616 38.6479C51.096 38.4957 51.0001 38.3584 50.8796 38.2446C48.7712 36.2234 46.1999 34.7492 43.3905 33.9508C42.8368 34.483 42.3636 35.0929 41.9858 35.7615C42.3652 35.0922 42.8407 34.4821 43.3971 33.9508C42.067 33.5939 40.6933 33.4259 39.3164 33.4515C38.0642 35.0413 37.3206 36.9718 37.1829 38.9908C37.0451 41.0097 37.5195 43.0233 38.5441 44.7685C39.9524 44.8744 41.3686 44.7826 42.7514 44.4955C42.2001 43.8178 41.7659 43.0528 41.4666 42.2321C41.7637 43.0464 42.1958 43.8048 42.7447 44.4755C45.8155 43.7668 48.6307 42.2232 50.8796 40.0153Z" fill="#45403D"/>
</g>
<defs>
<clipPath id="clip0_1_527">
<rect width="69" height="69" fill="white"/>
</clipPath>
</defs>
</svg>
