<svg width="70" height="69" viewBox="0 0 70 69" fill="none" xmlns="http://www.w3.org/2000/svg">
<g clip-path="url(#clip0_1_510)">
<path d="M53.5282 0H16.4718C7.37467 0 0 7.26931 0 16.2365V52.7635C0 61.7307 7.37467 69 16.4718 69H53.5282C62.6253 69 70 61.7307 70 52.7635V16.2365C70 7.26931 62.6253 0 53.5282 0Z" fill="#0D0C0C"/>
<path d="M31.9711 25.776H39.5215C39.5257 22.9619 38.6682 20.2121 37.0613 17.8862C35.4543 15.5603 33.1726 13.7665 30.5146 12.7396C27.8566 11.7127 24.9461 11.5004 22.1637 12.1305C19.3813 12.7605 16.8566 14.2037 14.9198 16.2711C12.983 18.3385 11.7243 20.9339 11.3082 23.718C10.8922 26.502 11.3382 29.345 12.5879 31.8751C13.8377 34.4052 15.833 36.5046 18.3129 37.8988C20.7927 39.293 23.6417 39.9169 26.4872 39.6891V31.1815C26.4926 29.7495 27.072 28.3776 28.0993 27.365C29.1266 26.3524 30.5183 25.7812 31.9711 25.776Z" fill="#FF5500"/>
<path d="M50.1042 25.776H38.7853C38.7796 29.0865 37.5122 32.2741 35.2344 34.7068C32.9565 37.1395 29.8345 38.6398 26.4872 38.9103V51.4188C26.4943 52.6125 26.9795 53.755 27.837 54.5978C28.6946 55.4406 29.8551 55.9155 31.0661 55.919H50.1042C51.3187 55.9207 52.4844 55.4482 53.3463 54.6049C54.2083 53.7615 54.6962 52.6159 54.7033 51.4188V30.2894C54.6997 29.09 54.2134 27.941 53.3511 27.0948C52.4888 26.2485 51.321 25.7742 50.1042 25.776Z" fill="#F2F0ED"/>
<path d="M39.5215 25.776H31.9711C30.5183 25.7812 29.1266 26.3524 28.0993 27.365C27.072 28.3776 26.4926 29.7495 26.4872 31.1815V39.6891C30.0346 39.4051 33.3439 37.8169 35.7585 35.2395C38.173 32.6621 39.5162 29.2842 39.5215 25.776Z" fill="#45403D"/>
<path d="M38.7381 50.8197C38.7125 50.8798 38.7055 50.946 38.7178 51.01C38.73 51.074 38.7611 51.1331 38.8071 51.1799C38.8532 51.2267 38.9121 51.2591 38.9767 51.2732C39.0412 51.2873 39.1085 51.2823 39.1703 51.259L43.1211 50.2339V50.1939L39.9875 46.9852L38.7381 50.8197Z" fill="#FF5500"/>
<path d="M59.7752 27.5467L59.5929 27.7198L39.9604 46.9187L41.534 48.5962L43.1143 50.2139L62.8075 30.9884L63.0979 30.7088C63.3227 30.4975 63.5016 30.2433 63.6238 29.9619C63.7461 29.6804 63.8091 29.3774 63.8091 29.0712C63.8091 28.765 63.7461 28.462 63.6238 28.1805C63.5016 27.899 63.3227 27.6449 63.0979 27.4336C62.6367 27.0254 62.033 26.8091 61.4134 26.8302C60.7939 26.8513 60.2068 27.1081 59.7752 27.5467Z" fill="#8C877D"/>
<path d="M20.5712 29.5305H20.9358C20.9562 29.5305 20.9759 29.538 20.9909 29.5515C21.0059 29.5651 21.0152 29.5837 21.0169 29.6038V31.0616C21.0169 31.2229 21.0814 31.3777 21.1965 31.4924C21.3115 31.607 21.4678 31.6723 21.6315 31.6741H22.0232C22.0435 31.674 22.0632 31.6815 22.0782 31.6951C22.0932 31.7087 22.1025 31.7273 22.1042 31.7473V32.666C22.1042 32.6872 22.0957 32.7075 22.0805 32.7225C22.0653 32.7375 22.0447 32.7459 22.0232 32.7459H21.1182C21.1078 32.7459 21.0976 32.7438 21.0881 32.7397C21.0786 32.7356 21.0701 32.7296 21.0631 32.7221C21.0561 32.7146 21.0508 32.7057 21.0475 32.6961C21.0442 32.6864 21.043 32.6761 21.0439 32.666V32.2865C21.0439 32.1241 20.9784 31.9683 20.8619 31.8535C20.7454 31.7386 20.5874 31.6741 20.4226 31.6741H20.0309C20.0094 31.6741 19.9888 31.6657 19.9736 31.6507C19.9584 31.6357 19.9498 31.6154 19.9498 31.5942V30.143C19.9498 29.9817 19.8853 29.8269 19.7702 29.7123C19.6552 29.5976 19.4989 29.5323 19.3353 29.5305H18.9436C18.9329 29.5305 18.9224 29.5285 18.9125 29.5245C18.9027 29.5204 18.8938 29.5146 18.8863 29.5071C18.8787 29.4997 18.8728 29.4909 18.8687 29.4812C18.8646 29.4715 18.8625 29.4611 18.8625 29.4507V22.1279C18.8625 22.1174 18.8646 22.1071 18.8687 22.0974C18.8728 22.0877 18.8787 22.0789 18.8863 22.0714C18.8938 22.064 18.9027 22.0581 18.9125 22.0541C18.9224 22.0501 18.9329 22.048 18.9436 22.048H19.3285C19.4933 22.048 19.6513 21.9835 19.7679 21.8687C19.8844 21.7538 19.9498 21.598 19.9498 21.4356V19.9711C19.9515 19.951 19.9608 19.9324 19.9758 19.9188C19.9908 19.9053 20.0105 19.8978 20.0309 19.8978H20.4226C20.5042 19.8978 20.585 19.882 20.6603 19.8512C20.7357 19.8204 20.8042 19.7753 20.8619 19.7184C20.9196 19.6616 20.9654 19.5941 20.9966 19.5198C21.0278 19.4455 21.0439 19.3658 21.0439 19.2854V18.8993C21.0439 18.8799 21.0517 18.8612 21.0657 18.8475C21.0796 18.8338 21.0985 18.8261 21.1182 18.8261H22.0502C22.0705 18.826 22.0902 18.8335 22.1052 18.847C22.1202 18.8606 22.1295 18.8793 22.1312 18.8993V19.8179C22.1312 19.8391 22.1227 19.8595 22.1075 19.8744C22.0923 19.8894 22.0717 19.8978 22.0502 19.8978H21.6652C21.5004 19.8978 21.3424 19.9624 21.2259 20.0772C21.1094 20.1921 21.0439 20.3478 21.0439 20.5103V21.9682C21.0422 21.9882 21.0329 22.0068 21.0179 22.0204C21.0029 22.034 20.9832 22.0415 20.9629 22.0414H20.5712C20.4064 22.0414 20.2483 22.1059 20.1318 22.2208C20.0153 22.3356 19.9498 22.4914 19.9498 22.6538V28.9381C19.9551 29.097 20.0229 29.2477 20.1388 29.3583C20.2548 29.4688 20.4098 29.5306 20.5712 29.5305Z" fill="#F2F0ED"/>
<path d="M22.0502 32.9123H21.1182C21.0857 32.9123 21.0535 32.9059 21.0236 32.8935C20.9936 32.881 20.9665 32.8627 20.9438 32.8398C20.9212 32.8168 20.9034 32.7896 20.8916 32.7598C20.8798 32.7299 20.8742 32.698 20.8751 32.666V32.2866C20.8751 32.228 20.8634 32.17 20.8406 32.1159C20.8179 32.0618 20.7845 32.0126 20.7425 31.9712C20.7005 31.9298 20.6506 31.8969 20.5957 31.8745C20.5408 31.8521 20.482 31.8405 20.4226 31.8405H20.0309C19.9651 31.8389 19.9026 31.8124 19.8561 31.7665C19.8096 31.7207 19.7827 31.659 19.781 31.5942V30.143C19.781 30.0258 19.7343 29.9134 19.6509 29.8299C19.5675 29.7465 19.4541 29.6987 19.3353 29.697H18.9436C18.8778 29.6953 18.8153 29.6688 18.7688 29.623C18.7223 29.5771 18.6954 29.5155 18.6937 29.4507V22.1279C18.6937 22.0626 18.72 22 18.7669 21.9538C18.8137 21.9076 18.8773 21.8816 18.9436 21.8816H19.3285C19.4485 21.8816 19.5636 21.8346 19.6485 21.751C19.7333 21.6674 19.781 21.5539 19.781 21.4356V19.9711C19.7828 19.9069 19.8099 19.846 19.8565 19.8012C19.9032 19.7564 19.9658 19.7314 20.0309 19.7314H20.4226C20.542 19.7297 20.6561 19.6822 20.7406 19.5989C20.8251 19.5156 20.8733 19.4032 20.8751 19.2854V18.8993C20.8751 18.8357 20.9007 18.7748 20.9463 18.7298C20.9919 18.6849 21.0537 18.6596 21.1182 18.6596H22.0502C22.1153 18.6596 22.1778 18.6846 22.2245 18.7294C22.2712 18.7742 22.2983 18.8351 22.3 18.8993V19.818C22.3 19.8833 22.2737 19.9459 22.2269 19.9921C22.18 20.0383 22.1164 20.0643 22.0502 20.0643H21.6652C21.6058 20.0643 21.547 20.0758 21.4921 20.0982C21.4372 20.1206 21.3873 20.1535 21.3453 20.1949C21.3032 20.2363 21.2699 20.2855 21.2472 20.3396C21.2244 20.3937 21.2127 20.4517 21.2127 20.5103V21.9682C21.211 22.0323 21.1839 22.0933 21.1372 22.1381C21.0905 22.1828 21.028 22.2079 20.9629 22.2078H20.5712C20.4511 22.2078 20.3361 22.2548 20.2512 22.3385C20.1663 22.4221 20.1187 22.5356 20.1187 22.6538V28.9381C20.1187 29.0564 20.1663 29.1698 20.2512 29.2535C20.3361 29.3371 20.4511 29.3841 20.5712 29.3841H20.9358C21.001 29.3841 21.0635 29.4091 21.1102 29.4539C21.1569 29.4986 21.184 29.5596 21.1857 29.6237V31.0816C21.1857 31.1988 21.2325 31.3112 21.3159 31.3947C21.3993 31.4781 21.5126 31.5259 21.6314 31.5277H22.0232C22.0883 31.5276 22.1508 31.5527 22.1975 31.5974C22.2442 31.6422 22.2713 31.7031 22.273 31.7673V32.686C22.2686 32.7434 22.2439 32.7976 22.2032 32.8389C22.1625 32.8803 22.1083 32.9062 22.0502 32.9123ZM21.2127 32.5795H21.9624V31.8405H21.6585C21.4501 31.8388 21.2508 31.7559 21.1041 31.6101C20.9574 31.4642 20.8751 31.2671 20.8751 31.0617V29.7303H20.5712C20.3621 29.7285 20.1622 29.6459 20.0144 29.5002C19.8666 29.3545 19.7828 29.1574 19.781 28.9514V22.6339C19.7828 22.4278 19.8666 22.2307 20.0144 22.0851C20.1622 21.9394 20.3621 21.8567 20.5712 21.855H20.8751V20.5236C20.8751 20.317 20.9583 20.1189 21.1065 19.9729C21.2547 19.8268 21.4557 19.7447 21.6652 19.7447H21.9624V18.9725H21.2127V19.2654C21.211 19.4715 21.1272 19.6686 20.9794 19.8142C20.8315 19.9599 20.6316 20.0426 20.4226 20.0443H20.1187V21.3757C20.1187 21.5823 20.0354 21.7804 19.8872 21.9264C19.7391 22.0725 19.5381 22.1546 19.3285 22.1546H19.0314V29.3641H19.3353C19.4387 29.3641 19.5411 29.3843 19.6366 29.4235C19.7321 29.4628 19.8188 29.5202 19.8916 29.5926C19.9644 29.6651 20.022 29.751 20.061 29.8454C20.1 29.9399 20.1196 30.041 20.1187 30.143V31.4744H20.4226C20.6321 31.4744 20.8331 31.5565 20.9813 31.7025C21.1295 31.8486 21.2127 32.0467 21.2127 32.2533V32.5795Z" fill="#F2F0ED"/>
<path d="M31.7414 22.1013V29.424C31.7424 29.4342 31.7412 29.4444 31.7378 29.4541C31.7345 29.4638 31.7292 29.4727 31.7222 29.4802C31.7152 29.4877 31.7067 29.4937 31.6972 29.4978C31.6877 29.5019 31.6775 29.504 31.6671 29.5039H31.2754C31.1939 29.5039 31.1131 29.5198 31.0377 29.5505C30.9623 29.5813 30.8938 29.6264 30.8361 29.6833C30.7784 29.7402 30.7326 29.8077 30.7014 29.882C30.6702 29.9563 30.6541 30.0359 30.6541 30.1164V31.5676C30.6541 31.5888 30.6456 31.6091 30.6304 31.6241C30.6152 31.6391 30.5946 31.6475 30.5731 31.6475H30.1881C30.0233 31.6475 29.8653 31.712 29.7488 31.8269C29.6323 31.9417 29.5668 32.0975 29.5668 32.2599V32.6394C29.5668 32.6606 29.5583 32.6809 29.5431 32.6959C29.5279 32.7108 29.5073 32.7193 29.4858 32.7193H28.574C28.5637 32.7193 28.5535 32.7172 28.544 32.7131C28.5345 32.709 28.526 32.703 28.519 32.6955C28.512 32.688 28.5067 32.6791 28.5033 32.6694C28.5 32.6598 28.4988 32.6495 28.4998 32.6394V31.7473C28.4998 31.7279 28.5076 31.7093 28.5215 31.6955C28.5354 31.6818 28.5543 31.6741 28.574 31.6741H28.9657C29.1305 31.6741 29.2886 31.6096 29.4051 31.4947C29.5216 31.3799 29.5871 31.2241 29.5871 31.0617V29.6038C29.5871 29.5844 29.5949 29.5657 29.6088 29.552C29.6228 29.5383 29.6417 29.5305 29.6614 29.5305H30.0531C30.2178 29.5305 30.3759 29.466 30.4924 29.3512C30.6089 29.2363 30.6744 29.0805 30.6744 28.9181V22.6339C30.6744 22.4714 30.6089 22.3157 30.4924 22.2008C30.3759 22.086 30.2178 22.0214 30.0531 22.0214H29.6614C29.6417 22.0214 29.6228 22.0137 29.6088 22C29.5949 21.9862 29.5871 21.9676 29.5871 21.9482V20.4903C29.5871 20.3279 29.5216 20.1721 29.4051 20.0572C29.2886 19.9424 29.1305 19.8779 28.9657 19.8779H28.574C28.5637 19.8779 28.5535 19.8758 28.544 19.8717C28.5345 19.8676 28.526 19.8616 28.519 19.8541C28.512 19.8466 28.5067 19.8377 28.5033 19.8281C28.5 19.8184 28.4988 19.8081 28.4998 19.798V18.8793C28.4998 18.8599 28.5076 18.8413 28.5215 18.8275C28.5354 18.8138 28.5543 18.8061 28.574 18.8061H29.506C29.5163 18.8052 29.5267 18.8064 29.5365 18.8096C29.5463 18.8129 29.5554 18.8181 29.563 18.825C29.5706 18.8319 29.5767 18.8403 29.5808 18.8497C29.585 18.859 29.5871 18.8691 29.5871 18.8793V19.2654C29.5871 19.4279 29.6525 19.5836 29.7691 19.6985C29.8856 19.8133 30.0436 19.8779 30.2084 19.8779H30.5933C30.6037 19.8769 30.614 19.8781 30.6238 19.8814C30.6337 19.8847 30.6427 19.8899 30.6503 19.8968C30.6579 19.9037 30.664 19.9121 30.6682 19.9214C30.6723 19.9308 30.6744 19.9409 30.6744 19.9511V21.409C30.6744 21.5714 30.7398 21.7272 30.8564 21.842C30.9729 21.9569 31.1309 22.0214 31.2957 22.0214H31.6874C31.7047 22.0261 31.7196 22.0367 31.7296 22.0514C31.7395 22.0661 31.7437 22.0838 31.7414 22.1013Z" fill="#F2F0ED"/>
<path d="M29.506 32.9123H28.574C28.5415 32.9123 28.5094 32.9059 28.4794 32.8934C28.4495 32.881 28.4224 32.8627 28.3997 32.8398C28.377 32.8168 28.3593 32.7896 28.3475 32.7597C28.3356 32.7299 28.33 32.698 28.3309 32.666V31.7473C28.3309 31.6838 28.3565 31.6228 28.4021 31.5779C28.4477 31.5329 28.5096 31.5077 28.574 31.5077H28.9657C29.0252 31.5077 29.084 31.4961 29.1389 31.4737C29.1938 31.4513 29.2437 31.4185 29.2857 31.377C29.3277 31.3356 29.361 31.2864 29.3838 31.2323C29.4065 31.1782 29.4182 31.1202 29.4182 31.0616V29.6038C29.4182 29.5402 29.4438 29.4792 29.4894 29.4343C29.535 29.3894 29.5969 29.3641 29.6614 29.3641H30.0531C30.1731 29.3641 30.2882 29.3171 30.373 29.2335C30.4579 29.1498 30.5055 29.0364 30.5055 28.9181V22.6339C30.5055 22.5156 30.4579 22.4021 30.373 22.3185C30.2882 22.2348 30.1731 22.1878 30.0531 22.1878H29.6614C29.5969 22.1878 29.535 22.1626 29.4894 22.1176C29.4438 22.0727 29.4182 22.0117 29.4182 21.9482V20.4903C29.4182 20.4317 29.4065 20.3737 29.3838 20.3196C29.361 20.2655 29.3277 20.2163 29.2857 20.1749C29.2437 20.1335 29.1938 20.1006 29.1389 20.0782C29.084 20.0558 29.0252 20.0443 28.9657 20.0443H28.574C28.5415 20.0443 28.5094 20.0379 28.4794 20.0254C28.4495 20.013 28.4224 19.9947 28.3997 19.9717C28.377 19.9488 28.3593 19.9216 28.3475 19.8917C28.3356 19.8619 28.33 19.83 28.3309 19.798V18.8793C28.3309 18.8157 28.3565 18.7548 28.4021 18.7098C28.4477 18.6649 28.5096 18.6396 28.574 18.6396H29.506C29.5711 18.6396 29.6337 18.6647 29.6804 18.7094C29.727 18.7542 29.7541 18.8151 29.7559 18.8793V19.2654C29.7559 19.3837 29.8036 19.4971 29.8884 19.5808C29.9733 19.6644 30.0884 19.7114 30.2084 19.7114H30.5933C30.6258 19.7105 30.6582 19.7161 30.6885 19.7277C30.7187 19.7394 30.7463 19.7569 30.7696 19.7792C30.7929 19.8016 30.8115 19.8283 30.8241 19.8578C30.8367 19.8873 30.8432 19.919 30.8432 19.9511V21.409C30.8432 21.5273 30.8909 21.6407 30.9758 21.7244C31.0606 21.808 31.1757 21.855 31.2957 21.855H31.6874C31.7199 21.855 31.7521 21.8614 31.782 21.8738C31.812 21.8863 31.8391 21.9046 31.8618 21.9275C31.8844 21.9505 31.9022 21.9777 31.914 22.0075C31.9258 22.0374 31.9314 22.0693 31.9305 22.1013V29.424C31.9306 29.4882 31.9052 29.5499 31.8598 29.5959C31.8143 29.6419 31.7525 29.6686 31.6874 29.6703H31.2957C31.1757 29.6703 31.0606 29.7173 30.9758 29.801C30.8909 29.8846 30.8432 29.9981 30.8432 30.1164V31.5676C30.8432 31.6329 30.8169 31.6956 30.77 31.7418C30.7232 31.7879 30.6596 31.8139 30.5933 31.8139H30.2084C30.0884 31.8139 29.9733 31.8609 29.8884 31.9445C29.8036 32.0282 29.7559 32.1416 29.7559 32.2599V32.6394C29.7597 32.6739 29.7561 32.7088 29.7452 32.7418C29.7344 32.7748 29.7166 32.8052 29.693 32.831C29.6694 32.8568 29.6406 32.8774 29.6083 32.8914C29.5761 32.9054 29.5412 32.9125 29.506 32.9123ZM28.6686 32.5794H29.4182V32.2865C29.4182 32.1843 29.4387 32.083 29.4784 31.9885C29.5181 31.894 29.5763 31.8081 29.6497 31.7358C29.723 31.6635 29.8101 31.6061 29.906 31.567C30.0019 31.5278 30.1046 31.5077 30.2084 31.5077H30.5055V30.1763C30.5055 29.9697 30.5888 29.7716 30.737 29.6255C30.8852 29.4795 31.0861 29.3974 31.2957 29.3974H31.5929V22.1878H31.2957C31.1919 22.1878 31.0892 22.1677 30.9933 22.1286C30.8975 22.0894 30.8104 22.032 30.737 21.9597C30.6636 21.8874 30.6054 21.8015 30.5657 21.707C30.526 21.6125 30.5055 21.5113 30.5055 21.409V20.0776H30.2084C30.1046 20.0776 30.0019 20.0574 29.906 20.0183C29.8101 19.9791 29.723 19.9218 29.6497 19.8494C29.5763 19.7771 29.5181 19.6913 29.4784 19.5968C29.4387 19.5023 29.4182 19.401 29.4182 19.2987V18.9725H28.6686V19.7114H28.9657C29.1753 19.7114 29.3763 19.7935 29.5245 19.9396C29.6727 20.0856 29.7559 20.2837 29.7559 20.4903V21.8217H30.0531C30.1595 21.8225 30.2646 21.8444 30.3623 21.8859C30.46 21.9274 30.5483 21.9878 30.6219 22.0635C30.6956 22.1392 30.7531 22.2287 30.7911 22.3266C30.8291 22.4246 30.8468 22.529 30.8432 22.6339V28.9181C30.8415 29.1241 30.7576 29.3212 30.6098 29.4669C30.462 29.6126 30.2621 29.6952 30.0531 29.697H29.7559V31.0284C29.7541 31.2344 29.6703 31.4315 29.5225 31.5772C29.3747 31.7229 29.1748 31.8055 28.9657 31.8072H28.6686V32.5794Z" fill="#F2F0ED"/>
</g>
<defs>
<clipPath id="clip0_1_510">
<rect width="70" height="69" fill="white"/>
</clipPath>
</defs>
</svg>
