<svg xmlns="http://www.w3.org/2000/svg" xmlns:xlink="http://www.w3.org/1999/xlink" viewBox="0 0 103.65 103.65"><defs><style>.cls-1{fill:url(#linear-gradient);}.cls-2{fill:url(#linear-gradient-2);}.cls-3{fill:#efeff2;}.cls-4{fill:url(#linear-gradient-3);}.cls-5{fill:url(#linear-gradient-4);}.cls-6{fill:url(#linear-gradient-5);}</style><linearGradient id="linear-gradient" x1="37.64" y1="37.64" x2="110.93" y2="110.93" gradientUnits="userSpaceOnUse"><stop offset="0" stop-color="#353535"/><stop offset="0.17" stop-color="#303030"/><stop offset="0.36" stop-color="#222"/><stop offset="0.56" stop-color="#0b0b0b"/><stop offset="0.64"/></linearGradient><linearGradient id="linear-gradient-2" x1="17.02" y1="38.16" x2="59.09" y2="38.16" gradientTransform="translate(37.56 -15.23) rotate(45)" gradientUnits="userSpaceOnUse"><stop offset="0" stop-color="#5845ff"/><stop offset="1" stop-color="#803cf3"/></linearGradient><linearGradient id="linear-gradient-3" x1="39.22" y1="49.17" x2="58.52" y2="49.17" xlink:href="#linear-gradient"/><linearGradient id="linear-gradient-4" x1="262.77" y1="-99.83" x2="262.77" y2="-93.68" gradientTransform="translate(227.62 297.41) rotate(-106.74)" gradientUnits="userSpaceOnUse"><stop offset="0" stop-color="#5546ff"/><stop offset="0.35" stop-color="#7d75dd"/><stop offset="0.72" stop-color="#a3a0be"/><stop offset="0.91" stop-color="#b1b1b2"/></linearGradient><linearGradient id="linear-gradient-5" x1="272.72" y1="-98.32" x2="272.72" y2="-59.24" xlink:href="#linear-gradient-4"/></defs><g id="Layer_2" data-name="Layer 2"><g id="Layer_1-2" data-name="Layer 1"><rect class="cls-1" width="103.65" height="103.65" rx="24.39"/><path class="cls-2" d="M47.34,38.72H58.52a21,21,0,1,0-19.3,20.9V46.84A8.15,8.15,0,0,1,47.34,38.72Z"/><path class="cls-3" d="M74.19,38.72H57.43A19.83,19.83,0,0,1,39.22,58.45V77.24A6.8,6.8,0,0,0,46,84H74.19A6.8,6.8,0,0,0,81,77.24V45.5A6.8,6.8,0,0,0,74.19,38.72Z"/><path class="cls-4" d="M58.52,38.72H47.34a8.15,8.15,0,0,0-8.12,8.12V59.62a21,21,0,0,0,19.3-20.9Z"/><path class="cls-5" d="M57.36,76.34A.5.5,0,0,0,58,77l5.85-1.54a0,0,0,0,0,0-.06l-4.64-4.82s0,0,0,0Z"/><path class="cls-6" d="M88.51,41.38l-.27.26L59.17,70.48a0,0,0,0,0,0,0L61.5,73l2.34,2.43a0,0,0,0,0,0,0L93,46.55l.43-.42a3.4,3.4,0,0,0,0-4.92A3.55,3.55,0,0,0,88.51,41.38Z"/><path class="cls-3" d="M30.46,44.36H31a.12.12,0,0,1,.12.11v2.19a.92.92,0,0,0,.91.92h.58a.12.12,0,0,1,.12.11v1.38a.12.12,0,0,1-.12.12H31.27a.11.11,0,0,1-.11-.12V48.5a.92.92,0,0,0-.92-.92h-.58a.12.12,0,0,1-.12-.12V45.28a.92.92,0,0,0-.91-.92h-.58a.12.12,0,0,1-.12-.12v-11a.12.12,0,0,1,.12-.12h.57a.92.92,0,0,0,.92-.92V30a.12.12,0,0,1,.12-.11h.58a.92.92,0,0,0,.92-.92v-.58a.11.11,0,0,1,.11-.11h1.38a.12.12,0,0,1,.12.11v1.38a.12.12,0,0,1-.12.12h-.57a.92.92,0,0,0-.92.92V33a.12.12,0,0,1-.12.11h-.58a.92.92,0,0,0-.92.92v9.44A.92.92,0,0,0,30.46,44.36Z"/><path class="cls-3" d="M32.65,49.44H31.27a.36.36,0,0,1-.36-.37V48.5a.67.67,0,0,0-.67-.67h-.58a.38.38,0,0,1-.37-.37V45.28a.67.67,0,0,0-.66-.67h-.58a.38.38,0,0,1-.37-.37v-11a.37.37,0,0,1,.37-.37h.57a.67.67,0,0,0,.67-.67V30a.37.37,0,0,1,.37-.36h.58a.68.68,0,0,0,.67-.67v-.58a.36.36,0,0,1,.36-.36h1.38a.37.37,0,0,1,.37.36v1.38a.37.37,0,0,1-.37.37h-.57a.67.67,0,0,0-.67.67V33a.37.37,0,0,1-.37.36h-.58a.67.67,0,0,0-.67.67v9.44a.67.67,0,0,0,.67.67H31a.37.37,0,0,1,.37.36v2.19a.67.67,0,0,0,.66.67h.58a.37.37,0,0,1,.37.36v1.38A.37.37,0,0,1,32.65,49.44Zm-1.24-.5h1.11V47.83h-.45a1.17,1.17,0,0,1-1.16-1.17v-2h-.45a1.18,1.18,0,0,1-1.17-1.17V34a1.18,1.18,0,0,1,1.17-1.17h.45v-2a1.17,1.17,0,0,1,1.17-1.17h.44V28.5H31.41v.44a1.18,1.18,0,0,1-1.17,1.17h-.45v2a1.17,1.17,0,0,1-1.17,1.17h-.44V44.11h.45a1.16,1.16,0,0,1,1.16,1.17v2h.45a1.17,1.17,0,0,1,1.17,1.17Z"/><path class="cls-3" d="M47,33.2v11a.11.11,0,0,1-.11.12h-.58a.92.92,0,0,0-.92.92v2.18a.12.12,0,0,1-.12.12h-.57a.92.92,0,0,0-.92.92v.57a.12.12,0,0,1-.12.12H42.31a.11.11,0,0,1-.11-.12V47.69a.11.11,0,0,1,.11-.11h.58a.92.92,0,0,0,.92-.92V44.47a.11.11,0,0,1,.11-.11h.58a.92.92,0,0,0,.92-.92V34a.92.92,0,0,0-.92-.92h-.58a.11.11,0,0,1-.11-.11V30.78a.92.92,0,0,0-.92-.92h-.58a.11.11,0,0,1-.11-.12V28.36a.11.11,0,0,1,.11-.11h1.38a.11.11,0,0,1,.12.11v.58a.92.92,0,0,0,.92.92h.57a.11.11,0,0,1,.12.11v2.19a.92.92,0,0,0,.92.92h.58A.11.11,0,0,1,47,33.2Z"/><path class="cls-3" d="M43.69,49.44H42.31a.36.36,0,0,1-.36-.37V47.69a.36.36,0,0,1,.36-.36h.58a.67.67,0,0,0,.67-.67V44.47a.36.36,0,0,1,.36-.36h.58a.67.67,0,0,0,.67-.67V34a.67.67,0,0,0-.67-.67h-.58a.36.36,0,0,1-.36-.36V30.78a.67.67,0,0,0-.67-.67h-.58a.36.36,0,0,1-.36-.37V28.36a.36.36,0,0,1,.36-.36h1.38a.37.37,0,0,1,.37.36v.58a.67.67,0,0,0,.67.67h.57a.36.36,0,0,1,.37.36v2.19a.67.67,0,0,0,.67.67h.58a.36.36,0,0,1,.36.37v11a.37.37,0,0,1-.36.37h-.58a.67.67,0,0,0-.67.67v2.18a.37.37,0,0,1-.37.37h-.57a.67.67,0,0,0-.67.67v.57A.37.37,0,0,1,43.69,49.44Zm-1.24-.5h1.11V48.5a1.17,1.17,0,0,1,1.17-1.17h.44v-2a1.17,1.17,0,0,1,1.17-1.17h.44V33.33h-.44a1.17,1.17,0,0,1-1.17-1.17v-2h-.44a1.17,1.17,0,0,1-1.17-1.17V28.5H42.45v1.11h.44a1.17,1.17,0,0,1,1.17,1.17v2h.44A1.18,1.18,0,0,1,45.67,34v9.44a1.18,1.18,0,0,1-1.17,1.17h-.44v2a1.18,1.18,0,0,1-1.17,1.17h-.44Z"/></g></g></svg>