<svg width="766" height="377" viewBox="0 0 766 377" fill="none" xmlns="http://www.w3.org/2000/svg">
<line x1="1.3183" y1="13.8501" x2="765.086" y2="13.8502" stroke="#CFC9C2" style="stroke:#CFC9C2;stroke:color(display-p3 0.8118 0.7882 0.7608);stroke-opacity:1;" stroke-width="1.5" stroke-linecap="square" stroke-dasharray="5 8"/>
<rect x="334.127" y="0.10022" width="98.15" height="29" rx="6" fill="#CFC9C2" style="fill:#CFC9C2;fill:color(display-p3 0.8118 0.7882 0.7608);fill-opacity:1;"/>
<path d="M351.202 8.03943C349.904 8.03943 348.636 8.42422 347.557 9.14515C346.478 9.86607 345.637 10.8907 345.14 12.0896C344.644 13.2885 344.514 14.6076 344.767 15.8803C345.02 17.153 345.645 18.3221 346.563 19.2396C347.48 20.1572 348.649 20.7821 349.922 21.0352C351.195 21.2884 352.514 21.1585 353.713 20.6619C354.911 20.1653 355.936 19.3244 356.657 18.2454C357.378 17.1665 357.763 15.898 357.763 14.6004C357.761 12.8609 357.069 11.1931 355.839 9.96311C354.609 8.7331 352.941 8.04127 351.202 8.03943ZM356.73 14.0957H354.217C354.128 12.3003 353.569 10.5963 352.633 9.23806C353.73 9.53263 354.711 10.156 355.443 11.0244C356.176 11.8927 356.625 12.9645 356.73 14.0957ZM351.202 20.145C350.02 18.8662 349.304 17.0538 349.198 15.1051H353.206C353.1 17.0525 352.383 18.8662 351.202 20.145ZM349.198 14.0957C349.304 12.1482 350.018 10.3345 351.202 9.05574C352.383 10.3345 353.1 12.147 353.206 14.0957H349.198ZM349.771 9.23806C348.834 10.5963 348.275 12.3003 348.186 14.0957H345.674C345.779 12.9645 346.228 11.8927 346.961 11.0244C347.693 10.156 348.674 9.53263 349.771 9.23806ZM345.674 15.1051H348.186C348.275 16.9005 348.834 18.6044 349.771 19.9627C348.674 19.6681 347.693 19.0447 346.961 18.1764C346.228 17.308 345.779 16.2362 345.674 15.1051ZM352.633 19.9627C353.569 18.6025 354.128 16.8986 354.217 15.1051H356.73C356.625 16.2362 356.176 17.308 355.443 18.1764C354.711 19.0447 353.73 19.6681 352.633 19.9627Z" fill="#141312" style="fill:#141312;fill:color(display-p3 0.0784 0.0745 0.0706);fill-opacity:1;"/>
<path d="M371.747 10.7002V11.5642H369.587V18.2362H371.747V19.1002H366.383V18.2362H368.543V11.5642H366.383V10.7002H371.747ZM376.561 12.9082C377.857 12.9082 378.937 13.6402 378.937 15.6202V19.1002H377.953V15.6802C377.953 14.4562 377.377 13.8082 376.393 13.8082C375.325 13.8082 374.641 14.6362 374.641 15.8482V19.1002H373.657V12.9802H374.509L374.641 13.8082C375.001 13.3402 375.601 12.9082 376.561 12.9082ZM386.234 19.1002H384.086C382.91 19.1002 382.49 18.5842 382.49 17.5042V13.8802H380.546V12.9802H382.49V11.2642H383.474V12.9802H386.138V13.8802H383.474V17.4922C383.474 18.0082 383.654 18.2002 384.182 18.2002H386.234V19.1002ZM393.556 16.2562H388.804V16.3162C388.84 17.4802 389.572 18.2962 390.736 18.2962C391.6 18.2962 392.272 17.8402 392.476 17.0482H393.472C393.232 18.2722 392.224 19.1722 390.808 19.1722C388.972 19.1722 387.772 17.9122 387.772 16.0402C387.772 14.1802 388.948 12.9082 390.676 12.9082C392.404 12.9082 393.532 14.0002 393.58 15.8122C393.58 15.8962 393.568 16.1122 393.556 16.2562ZM390.688 13.7722C389.788 13.7722 388.96 14.4202 388.864 15.4162H392.524C392.428 14.3602 391.708 13.7722 390.688 13.7722ZM400.733 13.9402H399.605C398.129 13.9402 397.685 15.0442 397.685 16.0162V18.2002H400.397V19.1002H395.189V18.2002H396.701V13.8802H395.189V12.9802H397.661V14.0362C397.937 13.5682 398.513 12.9802 399.713 12.9802H400.733V13.9402ZM405.366 12.9082C406.662 12.9082 407.742 13.6402 407.742 15.6202V19.1002H406.758V15.6802C406.758 14.4562 406.182 13.8082 405.198 13.8082C404.13 13.8082 403.446 14.6362 403.446 15.8482V19.1002H402.462V12.9802H403.314L403.446 13.8082C403.806 13.3402 404.406 12.9082 405.366 12.9082ZM415.16 16.2562H410.408V16.3162C410.444 17.4802 411.176 18.2962 412.34 18.2962C413.204 18.2962 413.876 17.8402 414.08 17.0482H415.076C414.836 18.2722 413.828 19.1722 412.412 19.1722C410.576 19.1722 409.376 17.9122 409.376 16.0402C409.376 14.1802 410.552 12.9082 412.28 12.9082C414.008 12.9082 415.136 14.0002 415.184 15.8122C415.184 15.8962 415.172 16.1122 415.16 16.2562ZM412.292 13.7722C411.392 13.7722 410.564 14.4202 410.468 15.4162H414.128C414.032 14.3602 413.312 13.7722 412.292 13.7722ZM422.241 19.1002H420.093C418.917 19.1002 418.497 18.5842 418.497 17.5042V13.8802H416.553V12.9802H418.497V11.2642H419.481V12.9802H422.145V13.8802H419.481V17.4922C419.481 18.0082 419.661 18.2002 420.189 18.2002H422.241V19.1002Z" fill="#141312" style="fill:#141312;fill:color(display-p3 0.0784 0.0745 0.0706);fill-opacity:1;"/>
<rect x="563.73" y="176.911" width="146.2" height="40" rx="6.22" fill="#494541" style="fill:#494541;fill:color(display-p3 0.2863 0.2706 0.2549);fill-opacity:1;"/>
<path d="M589.924 193.224C589.924 192.607 589.741 192.004 589.399 191.491C589.056 190.978 588.569 190.578 587.999 190.342C587.429 190.106 586.801 190.044 586.196 190.165C585.591 190.285 585.035 190.582 584.599 191.019C584.163 191.455 583.866 192.011 583.745 192.616C583.625 193.221 583.687 193.848 583.923 194.418C584.159 194.988 584.559 195.475 585.072 195.818C585.585 196.161 586.188 196.344 586.805 196.344C587.632 196.343 588.425 196.014 589.01 195.429C589.594 194.844 589.923 194.051 589.924 193.224ZM586.805 195.21C586.412 195.21 586.028 195.093 585.702 194.875C585.375 194.657 585.121 194.347 584.971 193.984C584.821 193.621 584.781 193.222 584.858 192.837C584.934 192.452 585.123 192.098 585.401 191.821C585.679 191.543 586.032 191.354 586.418 191.277C586.803 191.201 587.202 191.24 587.565 191.39C587.927 191.541 588.237 191.795 588.455 192.121C588.674 192.448 588.79 192.832 588.79 193.224C588.79 193.751 588.581 194.256 588.209 194.628C587.836 195 587.331 195.21 586.805 195.21ZM591.059 196.911C590.442 196.911 589.839 197.094 589.326 197.437C588.813 197.78 588.413 198.267 588.177 198.837C587.941 199.407 587.879 200.034 587.999 200.639C588.12 201.244 588.417 201.8 588.853 202.236C589.289 202.673 589.845 202.97 590.45 203.09C591.055 203.211 591.683 203.149 592.253 202.913C592.823 202.677 593.31 202.277 593.653 201.764C593.995 201.251 594.178 200.648 594.178 200.031C594.177 199.204 593.848 198.411 593.264 197.826C592.679 197.241 591.886 196.912 591.059 196.911ZM591.059 202.016C590.666 202.016 590.282 201.899 589.956 201.681C589.629 201.463 589.375 201.153 589.225 200.79C589.074 200.428 589.035 200.028 589.112 199.643C589.188 199.258 589.377 198.905 589.655 198.627C589.933 198.349 590.286 198.16 590.671 198.084C591.057 198.007 591.456 198.046 591.818 198.197C592.181 198.347 592.491 198.601 592.709 198.928C592.927 199.254 593.044 199.638 593.044 200.031C593.044 200.557 592.835 201.062 592.462 201.434C592.09 201.807 591.585 202.016 591.059 202.016ZM582.551 196.911C581.934 196.911 581.331 197.094 580.818 197.437C580.305 197.78 579.905 198.267 579.669 198.837C579.433 199.407 579.371 200.034 579.491 200.639C579.612 201.244 579.909 201.8 580.345 202.236C580.781 202.673 581.337 202.97 581.942 203.09C582.547 203.211 583.175 203.149 583.745 202.913C584.315 202.677 584.802 202.277 585.145 201.764C585.488 201.251 585.67 200.648 585.67 200.031C585.67 199.204 585.341 198.411 584.756 197.826C584.171 197.241 583.378 196.912 582.551 196.911ZM582.551 202.016C582.158 202.016 581.774 201.899 581.448 201.681C581.122 201.463 580.867 201.153 580.717 200.79C580.567 200.428 580.527 200.028 580.604 199.643C580.681 199.258 580.87 198.905 581.147 198.627C581.425 198.349 581.779 198.16 582.164 198.084C582.549 198.007 582.948 198.046 583.311 198.197C583.673 198.347 583.983 198.601 584.202 198.928C584.42 199.254 584.536 199.638 584.536 200.031C584.536 200.557 584.327 201.062 583.955 201.434C583.582 201.807 583.077 202.016 582.551 202.016Z" fill="#F2F0ED" style="fill:#F2F0ED;fill:color(display-p3 0.9490 0.9412 0.9294);fill-opacity:1;"/>
<path d="M607.451 201.995C605.239 201.995 603.797 200.721 603.727 198.705H604.987C605.085 200.035 606.065 200.889 607.465 200.889C608.753 200.889 609.579 200.245 609.579 199.223C609.579 198.271 608.963 197.837 607.031 197.501C604.917 197.137 603.965 196.297 603.965 194.813C603.965 193.147 605.267 192.027 607.171 192.027C609.201 192.027 610.559 193.189 610.671 195.009H609.411C609.285 193.861 608.403 193.133 607.171 193.133C605.925 193.133 605.183 193.735 605.183 194.743C605.183 195.667 605.771 196.073 607.703 196.409C609.817 196.759 610.797 197.627 610.797 199.111C610.797 200.805 609.425 201.995 607.451 201.995ZM618.891 201.911H616.385C615.013 201.911 614.523 201.309 614.523 200.049V195.821H612.255V194.771H614.523V192.769H615.671V194.771H618.779V195.821H615.671V200.035C615.671 200.637 615.881 200.861 616.497 200.861H618.891V201.911ZM627.251 200.861H627.615V201.911H626.985C626.033 201.911 625.711 201.505 625.697 200.805C625.249 201.449 624.535 201.995 623.303 201.995C621.735 201.995 620.671 201.211 620.671 199.909C620.671 198.481 621.665 197.683 623.541 197.683H625.641V197.193C625.641 196.269 624.983 195.709 623.863 195.709C622.855 195.709 622.183 196.185 622.043 196.913H620.895C621.063 195.513 622.197 194.687 623.919 194.687C625.739 194.687 626.789 195.597 626.789 197.263V200.385C626.789 200.763 626.929 200.861 627.251 200.861ZM625.641 198.999V198.649H623.429C622.407 198.649 621.833 199.027 621.833 199.839C621.833 200.539 622.435 201.015 623.387 201.015C624.815 201.015 625.641 200.189 625.641 198.999ZM632.656 201.995C630.57 201.995 629.198 200.581 629.198 198.355C629.198 196.171 630.612 194.687 632.684 194.687C634.434 194.687 635.54 195.667 635.834 197.235H634.63C634.42 196.283 633.72 195.709 632.67 195.709C631.298 195.709 630.374 196.801 630.374 198.355C630.374 199.909 631.298 200.973 632.67 200.973C633.692 200.973 634.392 200.385 634.616 199.475H635.834C635.554 201.015 634.392 201.995 632.656 201.995ZM639.168 201.911H638.02V192.111H639.168V198.565L643.046 194.771H644.516L641.436 197.781L644.642 201.911H643.228L640.638 198.551L639.168 199.993V201.911ZM649.418 201.995C647.57 201.995 646.296 201.127 646.268 199.559H647.444C647.486 200.399 648.228 201.015 649.418 201.015C650.426 201.015 651.14 200.581 651.14 199.923C651.14 199.027 650.356 198.957 649.292 198.831C647.696 198.635 646.422 198.313 646.422 196.829C646.422 195.527 647.612 194.687 649.222 194.687C650.846 194.687 652.022 195.457 652.134 196.941H650.958C650.874 196.213 650.202 195.667 649.222 195.667C648.228 195.667 647.556 196.087 647.556 196.745C647.556 197.529 648.312 197.627 649.348 197.753C650.972 197.949 652.274 198.257 652.274 199.839C652.274 201.169 651 201.995 649.418 201.995ZM663.995 201.911H662.833V192.111H664.023L668.167 199.629V192.111H669.329V201.911H668.139L663.995 194.379V201.911ZM674.482 201.995C672.396 201.995 670.94 200.511 670.94 198.341C670.94 196.171 672.396 194.687 674.482 194.687C676.568 194.687 678.024 196.171 678.024 198.341C678.024 200.511 676.568 201.995 674.482 201.995ZM674.482 200.973C675.896 200.973 676.848 199.867 676.848 198.341C676.848 196.815 675.896 195.709 674.482 195.709C673.068 195.709 672.116 196.815 672.116 198.341C672.116 199.867 673.068 200.973 674.482 200.973ZM685.152 195.863V192.111H686.3V201.911H685.306L685.152 200.763C684.676 201.421 683.906 201.995 682.702 201.995C680.728 201.995 679.272 200.665 679.272 198.341C679.272 196.157 680.728 194.687 682.702 194.687C683.906 194.687 684.718 195.177 685.152 195.863ZM682.814 200.973C684.214 200.973 685.166 199.895 685.166 198.369C685.166 196.801 684.214 195.709 682.814 195.709C681.4 195.709 680.448 196.787 680.448 198.341C680.448 199.895 681.4 200.973 682.814 200.973ZM694.646 198.593H689.102V198.663C689.144 200.021 689.998 200.973 691.356 200.973C692.364 200.973 693.148 200.441 693.386 199.517H694.548C694.268 200.945 693.092 201.995 691.44 201.995C689.298 201.995 687.898 200.525 687.898 198.341C687.898 196.171 689.27 194.687 691.286 194.687C693.302 194.687 694.618 195.961 694.674 198.075C694.674 198.173 694.66 198.425 694.646 198.593ZM691.3 195.695C690.25 195.695 689.284 196.451 689.172 197.613H693.442C693.33 196.381 692.49 195.695 691.3 195.695Z" fill="#F2F0ED" style="fill:#F2F0ED;fill:color(display-p3 0.9490 0.9412 0.9294);fill-opacity:1;"/>
<rect x="149.673" y="332.318" width="201.2" height="44" rx="22" fill="#C2EBC4" style="fill:#C2EBC4;fill:color(display-p3 0.7608 0.9216 0.7686);fill-opacity:1;"/>
<path d="M174.748 346.945C170.932 346.945 167.942 348.689 167.942 350.915V357.721C167.942 359.947 170.932 361.692 174.748 361.692C178.565 361.692 181.555 359.947 181.555 357.721V350.915C181.555 348.689 178.565 346.945 174.748 346.945ZM180.42 354.318C180.42 355 179.862 355.696 178.888 356.227C177.792 356.824 176.322 357.154 174.748 357.154C173.175 357.154 171.705 356.824 170.609 356.227C169.635 355.696 169.076 355 169.076 354.318V353.138C170.286 354.202 172.354 354.885 174.748 354.885C177.143 354.885 179.211 354.199 180.42 353.138V354.318ZM170.609 349.006C171.705 348.409 173.175 348.079 174.748 348.079C176.322 348.079 177.792 348.409 178.888 349.006C179.862 349.537 180.42 350.233 180.42 350.915C180.42 351.597 179.862 352.293 178.888 352.824C177.792 353.421 176.322 353.751 174.748 353.751C173.175 353.751 171.705 353.421 170.609 352.824C169.635 352.293 169.076 351.597 169.076 350.915C169.076 350.233 169.635 349.537 170.609 349.006ZM178.888 359.63C177.792 360.228 176.322 360.557 174.748 360.557C173.175 360.557 171.705 360.228 170.609 359.63C169.635 359.099 169.076 358.403 169.076 357.721V356.542C170.286 357.605 172.354 358.288 174.748 358.288C177.143 358.288 179.211 357.602 180.42 356.542V357.721C180.42 358.403 179.862 359.099 178.888 359.63Z" fill="#141312" style="fill:#141312;fill:color(display-p3 0.0784 0.0745 0.0706);fill-opacity:1;"/>
<path d="M198.935 359.318H192.971V349.518H194.189V358.198H198.935V359.318ZM204.061 359.402C201.975 359.402 200.519 357.918 200.519 355.748C200.519 353.578 201.975 352.094 204.061 352.094C206.147 352.094 207.603 353.578 207.603 355.748C207.603 357.918 206.147 359.402 204.061 359.402ZM204.061 358.38C205.475 358.38 206.427 357.274 206.427 355.748C206.427 354.222 205.475 353.116 204.061 353.116C202.647 353.116 201.695 354.222 201.695 355.748C201.695 357.274 202.647 358.38 204.061 358.38ZM212.644 359.402C210.558 359.402 209.186 357.988 209.186 355.762C209.186 353.578 210.6 352.094 212.672 352.094C214.422 352.094 215.528 353.074 215.822 354.642H214.618C214.408 353.69 213.708 353.116 212.658 353.116C211.286 353.116 210.362 354.208 210.362 355.762C210.362 357.316 211.286 358.38 212.658 358.38C213.68 358.38 214.38 357.792 214.604 356.882H215.822C215.542 358.422 214.38 359.402 212.644 359.402ZM224.042 358.268H224.406V359.318H223.776C222.824 359.318 222.502 358.912 222.488 358.212C222.04 358.856 221.326 359.402 220.094 359.402C218.526 359.402 217.462 358.618 217.462 357.316C217.462 355.888 218.456 355.09 220.332 355.09H222.432V354.6C222.432 353.676 221.774 353.116 220.654 353.116C219.646 353.116 218.974 353.592 218.834 354.32H217.686C217.854 352.92 218.988 352.094 220.71 352.094C222.53 352.094 223.58 353.004 223.58 354.67V357.792C223.58 358.17 223.72 358.268 224.042 358.268ZM222.432 356.406V356.056H220.22C219.198 356.056 218.624 356.434 218.624 357.246C218.624 357.946 219.226 358.422 220.178 358.422C221.606 358.422 222.432 357.596 222.432 356.406ZM229.937 358.268H232.457V359.318H226.269V358.268H228.789V350.568H226.269V349.518H229.937V358.268ZM243.661 359.318H242.541V349.518H243.969L246.083 354.292L248.211 349.518H249.597V359.318H248.477V351.506L246.601 355.692H245.551L243.661 351.506V359.318ZM257.83 356H252.286V356.07C252.328 357.428 253.182 358.38 254.54 358.38C255.548 358.38 256.332 357.848 256.57 356.924H257.732C257.452 358.352 256.276 359.402 254.624 359.402C252.482 359.402 251.082 357.932 251.082 355.748C251.082 353.578 252.454 352.094 254.47 352.094C256.486 352.094 257.802 353.368 257.858 355.482C257.858 355.58 257.844 355.832 257.83 356ZM254.484 353.102C253.434 353.102 252.468 353.858 252.356 355.02H256.626C256.514 353.788 255.674 353.102 254.484 353.102ZM266.092 359.318H263.586C262.214 359.318 261.724 358.716 261.724 357.456V353.228H259.456V352.178H261.724V350.176H262.872V352.178H265.98V353.228H262.872V357.442C262.872 358.044 263.082 358.268 263.698 358.268H266.092V359.318ZM274.452 358.268H274.816V359.318H274.186C273.234 359.318 272.912 358.912 272.898 358.212C272.45 358.856 271.736 359.402 270.504 359.402C268.936 359.402 267.872 358.618 267.872 357.316C267.872 355.888 268.866 355.09 270.742 355.09H272.842V354.6C272.842 353.676 272.184 353.116 271.064 353.116C270.056 353.116 269.384 353.592 269.244 354.32H268.096C268.264 352.92 269.398 352.094 271.12 352.094C272.94 352.094 273.99 353.004 273.99 354.67V357.792C273.99 358.17 274.13 358.268 274.452 358.268ZM272.842 356.406V356.056H270.63C269.608 356.056 269.034 356.434 269.034 357.246C269.034 357.946 269.636 358.422 270.588 358.422C272.016 358.422 272.842 357.596 272.842 356.406ZM281.943 353.27V349.518H283.091V359.318H282.097L281.943 358.17C281.467 358.828 280.697 359.402 279.493 359.402C277.519 359.402 276.063 358.072 276.063 355.748C276.063 353.564 277.519 352.094 279.493 352.094C280.697 352.094 281.509 352.584 281.943 353.27ZM279.605 358.38C281.005 358.38 281.957 357.302 281.957 355.776C281.957 354.208 281.005 353.116 279.605 353.116C278.191 353.116 277.239 354.194 277.239 355.748C277.239 357.302 278.191 358.38 279.605 358.38ZM291.255 358.268H291.619V359.318H290.989C290.037 359.318 289.715 358.912 289.701 358.212C289.253 358.856 288.539 359.402 287.307 359.402C285.739 359.402 284.675 358.618 284.675 357.316C284.675 355.888 285.669 355.09 287.545 355.09H289.645V354.6C289.645 353.676 288.987 353.116 287.867 353.116C286.859 353.116 286.187 353.592 286.047 354.32H284.899C285.067 352.92 286.201 352.094 287.923 352.094C289.743 352.094 290.793 353.004 290.793 354.67V357.792C290.793 358.17 290.933 358.268 291.255 358.268ZM289.645 356.406V356.056H287.433C286.411 356.056 285.837 356.434 285.837 357.246C285.837 357.946 286.439 358.422 287.391 358.422C288.819 358.422 289.645 357.596 289.645 356.406ZM299.699 359.318H297.193C295.821 359.318 295.331 358.716 295.331 357.456V353.228H293.063V352.178H295.331V350.176H296.479V352.178H299.587V353.228H296.479V357.442C296.479 358.044 296.689 358.268 297.305 358.268H299.699V359.318ZM308.058 358.268H308.422V359.318H307.792C306.84 359.318 306.518 358.912 306.504 358.212C306.056 358.856 305.342 359.402 304.11 359.402C302.542 359.402 301.478 358.618 301.478 357.316C301.478 355.888 302.472 355.09 304.348 355.09H306.448V354.6C306.448 353.676 305.79 353.116 304.67 353.116C303.662 353.116 302.99 353.592 302.85 354.32H301.702C301.87 352.92 303.004 352.094 304.726 352.094C306.546 352.094 307.596 353.004 307.596 354.67V357.792C307.596 358.17 307.736 358.268 308.058 358.268ZM306.448 356.406V356.056H304.236C303.214 356.056 302.64 356.434 302.64 357.246C302.64 357.946 303.242 358.422 304.194 358.422C305.622 358.422 306.448 357.596 306.448 356.406ZM321.124 359.318H318.436V349.518H321.124C323.91 349.518 325.324 351.478 325.324 354.418C325.324 357.344 323.91 359.318 321.124 359.318ZM319.654 350.638V358.198H321.124C323.224 358.198 324.078 356.7 324.078 354.418C324.078 352.122 323.224 350.638 321.124 350.638H319.654ZM330.127 359.318H326.977V349.518H330.029C332.115 349.518 333.165 350.526 333.165 352.108C333.165 353.228 332.549 353.914 331.625 354.236C332.661 354.432 333.571 355.104 333.571 356.518C333.571 358.254 332.451 359.318 330.127 359.318ZM328.195 350.624V353.774H330.085C331.345 353.774 331.947 353.186 331.947 352.192C331.947 351.212 331.359 350.624 330.085 350.624H328.195ZM328.195 354.866V358.212H330.127C331.639 358.212 332.325 357.582 332.325 356.574C332.325 355.468 331.583 354.866 330.127 354.866H328.195Z" fill="#141312" style="fill:#141312;fill:color(display-p3 0.0784 0.0745 0.0706);fill-opacity:1;"/>
<rect x="563.73" y="332.318" width="184.2" height="44" rx="22" fill="#B3D9FF" style="fill:#B3D9FF;fill:color(display-p3 0.7020 0.8510 1.0000);fill-opacity:1;"/>
<path d="M588.805 346.945C584.988 346.945 581.999 348.689 581.999 350.915V357.721C581.999 359.947 584.988 361.692 588.805 361.692C592.621 361.692 595.611 359.947 595.611 357.721V350.915C595.611 348.689 592.621 346.945 588.805 346.945ZM594.477 354.318C594.477 355 593.918 355.696 592.945 356.227C591.849 356.824 590.378 357.154 588.805 357.154C587.232 357.154 585.761 356.824 584.665 356.227C583.692 355.696 583.133 355 583.133 354.318V353.138C584.343 354.202 586.411 354.885 588.805 354.885C591.199 354.885 593.267 354.199 594.477 353.138V354.318ZM584.665 349.006C585.761 348.409 587.232 348.079 588.805 348.079C590.378 348.079 591.849 348.409 592.945 349.006C593.918 349.537 594.477 350.233 594.477 350.915C594.477 351.597 593.918 352.293 592.945 352.824C591.849 353.421 590.378 353.751 588.805 353.751C587.232 353.751 585.761 353.421 584.665 352.824C583.692 352.293 583.133 351.597 583.133 350.915C583.133 350.233 583.692 349.537 584.665 349.006ZM592.945 359.63C591.849 360.228 590.378 360.557 588.805 360.557C587.232 360.557 585.761 360.228 584.665 359.63C583.692 359.099 583.133 358.403 583.133 357.721V356.542C584.343 357.605 586.411 358.288 588.805 358.288C591.199 358.288 593.267 357.602 594.477 356.542V357.721C594.477 358.403 593.918 359.099 592.945 359.63Z" fill="#141312" style="fill:#141312;fill:color(display-p3 0.0784 0.0745 0.0706);fill-opacity:1;"/>
<path d="M606.817 359.318H605.571L608.861 349.518H610.373L613.663 359.318H612.375L611.493 356.672H607.699L606.817 359.318ZM609.589 350.848L608.049 355.566H611.143L609.589 350.848ZM616.199 359.318H614.981V349.518H618.397C620.357 349.518 621.645 350.694 621.645 352.528C621.645 354.362 620.357 355.552 618.397 355.552H616.199V359.318ZM616.199 350.638V354.432H618.285C619.573 354.432 620.399 353.69 620.399 352.528C620.399 351.366 619.587 350.638 618.299 350.638H616.199ZM629.542 349.518V350.526H627.022V358.31H629.542V359.318H623.284V358.31H625.804V350.526H623.284V349.518H629.542ZM641.404 359.318H640.186V349.518H643.602C645.562 349.518 646.85 350.694 646.85 352.528C646.85 354.362 645.562 355.552 643.602 355.552H641.404V359.318ZM641.404 350.638V354.432H643.49C644.778 354.432 645.604 353.69 645.604 352.528C645.604 351.366 644.792 350.638 643.504 350.638H641.404ZM651.625 359.402C649.539 359.402 648.083 357.918 648.083 355.748C648.083 353.578 649.539 352.094 651.625 352.094C653.711 352.094 655.167 353.578 655.167 355.748C655.167 357.918 653.711 359.402 651.625 359.402ZM651.625 358.38C653.039 358.38 653.991 357.274 653.991 355.748C653.991 354.222 653.039 353.116 651.625 353.116C650.211 353.116 649.259 354.222 649.259 355.748C649.259 357.274 650.211 358.38 651.625 358.38ZM660.167 359.402C658.319 359.402 657.045 358.534 657.017 356.966H658.193C658.235 357.806 658.977 358.422 660.167 358.422C661.175 358.422 661.889 357.988 661.889 357.33C661.889 356.434 661.105 356.364 660.041 356.238C658.445 356.042 657.171 355.72 657.171 354.236C657.171 352.934 658.361 352.094 659.971 352.094C661.595 352.094 662.771 352.864 662.883 354.348H661.707C661.623 353.62 660.951 353.074 659.971 353.074C658.977 353.074 658.305 353.494 658.305 354.152C658.305 354.936 659.061 355.034 660.097 355.16C661.721 355.356 663.023 355.664 663.023 357.246C663.023 358.576 661.749 359.402 660.167 359.402ZM671.649 359.318H669.143C667.771 359.318 667.281 358.716 667.281 357.456V353.228H665.013V352.178H667.281V350.176H668.429V352.178H671.537V353.228H668.429V357.442C668.429 358.044 668.639 358.268 669.255 358.268H671.649V359.318ZM679.098 353.41L679.252 352.178H680.246V358.968C680.246 361.026 679.154 362.202 676.704 362.202C674.884 362.202 673.61 361.348 673.428 359.78H674.604C674.8 360.676 675.598 361.18 676.788 361.18C678.286 361.18 679.098 360.48 679.098 358.926V358.086C678.622 358.898 677.852 359.402 676.648 359.402C674.674 359.402 673.218 358.072 673.218 355.748C673.218 353.564 674.674 352.094 676.648 352.094C677.852 352.094 678.65 352.612 679.098 353.41ZM676.76 358.38C678.16 358.38 679.112 357.302 679.112 355.776C679.112 354.208 678.16 353.116 676.76 353.116C675.346 353.116 674.394 354.194 674.394 355.748C674.394 357.302 675.346 358.38 676.76 358.38ZM688.564 353.298H687.248C685.526 353.298 685.008 354.586 685.008 355.72V358.268H688.172V359.318H682.096V358.268H683.86V353.228H682.096V352.178H684.98V353.41C685.302 352.864 685.974 352.178 687.374 352.178H688.564V353.298ZM696.993 356H691.449V356.07C691.491 357.428 692.345 358.38 693.703 358.38C694.711 358.38 695.495 357.848 695.733 356.924H696.895C696.615 358.352 695.439 359.402 693.787 359.402C691.645 359.402 690.245 357.932 690.245 355.748C690.245 353.578 691.617 352.094 693.633 352.094C695.649 352.094 696.965 353.368 697.021 355.482C697.021 355.58 697.007 355.832 696.993 356ZM693.647 353.102C692.597 353.102 691.631 353.858 691.519 355.02H695.789C695.677 353.788 694.837 353.102 693.647 353.102ZM702.175 359.402C700.327 359.402 699.053 358.534 699.025 356.966H700.201C700.243 357.806 700.985 358.422 702.175 358.422C703.183 358.422 703.897 357.988 703.897 357.33C703.897 356.434 703.113 356.364 702.049 356.238C700.453 356.042 699.179 355.72 699.179 354.236C699.179 352.934 700.369 352.094 701.979 352.094C703.603 352.094 704.779 352.864 704.891 354.348H703.715C703.631 353.62 702.959 353.074 701.979 353.074C700.985 353.074 700.313 353.494 700.313 354.152C700.313 354.936 701.069 355.034 702.105 355.16C703.729 355.356 705.031 355.664 705.031 357.246C705.031 358.576 703.757 359.402 702.175 359.402ZM718.278 359.318H715.59V349.518H718.278C721.064 349.518 722.478 351.478 722.478 354.418C722.478 357.344 721.064 359.318 718.278 359.318ZM716.808 350.638V358.198H718.278C720.378 358.198 721.232 356.7 721.232 354.418C721.232 352.122 720.378 350.638 718.278 350.638H716.808ZM727.282 359.318H724.132V349.518H727.184C729.27 349.518 730.32 350.526 730.32 352.108C730.32 353.228 729.704 353.914 728.78 354.236C729.816 354.432 730.726 355.104 730.726 356.518C730.726 358.254 729.606 359.318 727.282 359.318ZM725.35 350.624V353.774H727.24C728.5 353.774 729.102 353.186 729.102 352.192C729.102 351.212 728.514 350.624 727.24 350.624H725.35ZM725.35 354.866V358.212H727.282C728.794 358.212 729.48 357.582 729.48 356.574C729.48 355.468 728.738 354.866 727.282 354.866H725.35Z" fill="#141312" style="fill:#141312;fill:color(display-p3 0.0784 0.0745 0.0706);fill-opacity:1;"/>
<rect x="137.974" y="152.606" width="224.597" height="84" rx="8.72443" fill="#0D0C0C" style="fill:#0D0C0C;fill:color(display-p3 0.0510 0.0471 0.0471);fill-opacity:1;"/>
<rect x="137.974" y="152.606" width="224.597" height="84" rx="8.72443" stroke="#F2F0ED" style="stroke:#F2F0ED;stroke:color(display-p3 0.9490 0.9412 0.9294);stroke-opacity:1;"/>
<path d="M162.671 199.606H161.453V190.926H158.275V189.806H165.849V190.926H162.671V199.606ZM170.457 199.69C168.371 199.69 166.915 198.206 166.915 196.036C166.915 193.866 168.371 192.382 170.457 192.382C172.543 192.382 173.999 193.866 173.999 196.036C173.999 198.206 172.543 199.69 170.457 199.69ZM170.457 198.668C171.871 198.668 172.823 197.562 172.823 196.036C172.823 194.51 171.871 193.404 170.457 193.404C169.043 193.404 168.091 194.51 168.091 196.036C168.091 197.562 169.043 198.668 170.457 198.668ZM177.15 199.606H176.002V189.806H177.15V196.26L181.028 192.466H182.498L179.418 195.476L182.624 199.606H181.21L178.62 196.246L177.15 197.688V199.606ZM190.62 196.288H185.076V196.358C185.118 197.716 185.972 198.668 187.33 198.668C188.338 198.668 189.122 198.136 189.36 197.212H190.522C190.242 198.64 189.066 199.69 187.414 199.69C185.272 199.69 183.872 198.22 183.872 196.036C183.872 193.866 185.244 192.382 187.26 192.382C189.276 192.382 190.592 193.656 190.648 195.77C190.648 195.868 190.634 196.12 190.62 196.288ZM187.274 193.39C186.224 193.39 185.258 194.146 185.146 195.308H189.416C189.304 194.076 188.464 193.39 187.274 193.39ZM195.998 192.382C197.51 192.382 198.77 193.236 198.77 195.546V199.606H197.622V195.616C197.622 194.188 196.95 193.432 195.802 193.432C194.556 193.432 193.758 194.398 193.758 195.812V199.606H192.61V192.466H193.604L193.758 193.432C194.178 192.886 194.878 192.382 195.998 192.382ZM210.057 199.606H208.937V189.806H210.365L212.479 194.58L214.607 189.806H215.993V199.606H214.873V191.794L212.997 195.98H211.947L210.057 191.794V199.606ZM224.227 196.288H218.683V196.358C218.725 197.716 219.579 198.668 220.937 198.668C221.945 198.668 222.729 198.136 222.967 197.212H224.129C223.849 198.64 222.673 199.69 221.021 199.69C218.879 199.69 217.479 198.22 217.479 196.036C217.479 193.866 218.851 192.382 220.867 192.382C222.883 192.382 224.199 193.656 224.255 195.77C224.255 195.868 224.241 196.12 224.227 196.288ZM220.881 193.39C219.831 193.39 218.865 194.146 218.753 195.308H223.023C222.911 194.076 222.071 193.39 220.881 193.39ZM232.488 199.606H229.982C228.61 199.606 228.12 199.004 228.12 197.744V193.516H225.852V192.466H228.12V190.464H229.268V192.466H232.376V193.516H229.268V197.73C229.268 198.332 229.478 198.556 230.094 198.556H232.488V199.606ZM240.848 198.556H241.212V199.606H240.582C239.63 199.606 239.308 199.2 239.294 198.5C238.846 199.144 238.132 199.69 236.9 199.69C235.332 199.69 234.268 198.906 234.268 197.604C234.268 196.176 235.262 195.378 237.138 195.378H239.238V194.888C239.238 193.964 238.58 193.404 237.46 193.404C236.452 193.404 235.78 193.88 235.64 194.608H234.492C234.66 193.208 235.794 192.382 237.516 192.382C239.336 192.382 240.386 193.292 240.386 194.958V198.08C240.386 198.458 240.526 198.556 240.848 198.556ZM239.238 196.694V196.344H237.026C236.004 196.344 235.43 196.722 235.43 197.534C235.43 198.234 236.032 198.71 236.984 198.71C238.412 198.71 239.238 197.884 239.238 196.694ZM248.339 193.558V189.806H249.487V199.606H248.493L248.339 198.458C247.863 199.116 247.093 199.69 245.889 199.69C243.915 199.69 242.459 198.36 242.459 196.036C242.459 193.852 243.915 192.382 245.889 192.382C247.093 192.382 247.905 192.872 248.339 193.558ZM246.001 198.668C247.401 198.668 248.353 197.59 248.353 196.064C248.353 194.496 247.401 193.404 246.001 193.404C244.587 193.404 243.635 194.482 243.635 196.036C243.635 197.59 244.587 198.668 246.001 198.668ZM257.651 198.556H258.015V199.606H257.385C256.433 199.606 256.111 199.2 256.097 198.5C255.649 199.144 254.935 199.69 253.703 199.69C252.135 199.69 251.071 198.906 251.071 197.604C251.071 196.176 252.065 195.378 253.941 195.378H256.041V194.888C256.041 193.964 255.383 193.404 254.263 193.404C253.255 193.404 252.583 193.88 252.443 194.608H251.295C251.463 193.208 252.597 192.382 254.319 192.382C256.139 192.382 257.189 193.292 257.189 194.958V198.08C257.189 198.458 257.329 198.556 257.651 198.556ZM256.041 196.694V196.344H253.829C252.807 196.344 252.233 196.722 252.233 197.534C252.233 198.234 252.835 198.71 253.787 198.71C255.215 198.71 256.041 197.884 256.041 196.694ZM266.095 199.606H263.589C262.217 199.606 261.727 199.004 261.727 197.744V193.516H259.459V192.466H261.727V190.464H262.875V192.466H265.983V193.516H262.875V197.73C262.875 198.332 263.085 198.556 263.701 198.556H266.095V199.606ZM274.454 198.556H274.818V199.606H274.188C273.236 199.606 272.914 199.2 272.9 198.5C272.452 199.144 271.738 199.69 270.506 199.69C268.938 199.69 267.874 198.906 267.874 197.604C267.874 196.176 268.868 195.378 270.744 195.378H272.844V194.888C272.844 193.964 272.186 193.404 271.066 193.404C270.058 193.404 269.386 193.88 269.246 194.608H268.098C268.266 193.208 269.4 192.382 271.122 192.382C272.942 192.382 273.992 193.292 273.992 194.958V198.08C273.992 198.458 274.132 198.556 274.454 198.556ZM272.844 196.694V196.344H270.632C269.61 196.344 269.036 196.722 269.036 197.534C269.036 198.234 269.638 198.71 270.59 198.71C272.018 198.71 272.844 197.884 272.844 196.694ZM288.262 199.69C286.05 199.69 284.608 198.416 284.538 196.4H285.798C285.896 197.73 286.876 198.584 288.276 198.584C289.564 198.584 290.39 197.94 290.39 196.918C290.39 195.966 289.774 195.532 287.842 195.196C285.728 194.832 284.776 193.992 284.776 192.508C284.776 190.842 286.078 189.722 287.982 189.722C290.012 189.722 291.37 190.884 291.482 192.704H290.222C290.096 191.556 289.214 190.828 287.982 190.828C286.736 190.828 285.994 191.43 285.994 192.438C285.994 193.362 286.582 193.768 288.514 194.104C290.628 194.454 291.608 195.322 291.608 196.806C291.608 198.5 290.236 199.69 288.262 199.69ZM299.841 196.288H294.297V196.358C294.339 197.716 295.193 198.668 296.551 198.668C297.559 198.668 298.343 198.136 298.581 197.212H299.743C299.463 198.64 298.287 199.69 296.635 199.69C294.493 199.69 293.093 198.22 293.093 196.036C293.093 193.866 294.465 192.382 296.481 192.382C298.497 192.382 299.813 193.656 299.869 195.77C299.869 195.868 299.855 196.12 299.841 196.288ZM296.495 193.39C295.445 193.39 294.479 194.146 294.367 195.308H298.637C298.525 194.076 297.685 193.39 296.495 193.39ZM308.215 193.586H306.899C305.177 193.586 304.659 194.874 304.659 196.008V198.556H307.823V199.606H301.747V198.556H303.511V193.516H301.747V192.466H304.631V193.698C304.953 193.152 305.625 192.466 307.025 192.466H308.215V193.586ZM313.985 199.606H312.599L309.771 192.466H311.003L313.313 198.304L315.609 192.466H316.813L313.985 199.606ZM321.938 191.206C321.42 191.206 321.014 190.814 321.014 190.282C321.014 189.764 321.42 189.372 321.938 189.372C322.456 189.372 322.862 189.764 322.862 190.282C322.862 190.814 322.456 191.206 321.938 191.206ZM322.498 198.556H325.018V199.606H318.83V198.556H321.35V193.516H318.83V192.466H322.498V198.556ZM330.27 199.69C328.184 199.69 326.812 198.276 326.812 196.05C326.812 193.866 328.226 192.382 330.298 192.382C332.048 192.382 333.154 193.362 333.448 194.93H332.244C332.034 193.978 331.334 193.404 330.284 193.404C328.912 193.404 327.988 194.496 327.988 196.05C327.988 197.604 328.912 198.668 330.284 198.668C331.306 198.668 332.006 198.08 332.23 197.17H333.448C333.168 198.71 332.006 199.69 330.27 199.69ZM341.849 196.288H336.305V196.358C336.347 197.716 337.201 198.668 338.559 198.668C339.567 198.668 340.351 198.136 340.589 197.212H341.751C341.471 198.64 340.295 199.69 338.643 199.69C336.501 199.69 335.101 198.22 335.101 196.036C335.101 193.866 336.473 192.382 338.489 192.382C340.505 192.382 341.821 193.656 341.877 195.77C341.877 195.868 341.863 196.12 341.849 196.288ZM338.503 193.39C337.453 193.39 336.487 194.146 336.375 195.308H340.645C340.533 194.076 339.693 193.39 338.503 193.39Z" fill="#F2F0ED" style="fill:#F2F0ED;fill:color(display-p3 0.9490 0.9412 0.9294);fill-opacity:1;"/>
<path d="M128.083 197.441C128.376 197.148 128.376 196.674 128.083 196.381L123.31 191.608C123.017 191.315 122.542 191.315 122.249 191.608C121.956 191.901 121.956 192.375 122.249 192.668L126.492 196.911L122.249 201.154C121.956 201.447 121.956 201.921 122.249 202.214C122.542 202.507 123.017 202.507 123.31 202.214L128.083 197.441ZM52.4456 28.5699C52.1527 28.277 51.6778 28.277 51.385 28.5699L46.612 33.3429C46.3191 33.6358 46.3191 34.1106 46.612 34.4035C46.9049 34.6964 47.3797 34.6964 47.6726 34.4035L51.9153 30.1609L56.1579 34.4035C56.4508 34.6964 56.9257 34.6964 57.2186 34.4035C57.5115 34.1106 57.5115 33.6358 57.2186 33.3429L52.4456 28.5699ZM127.553 196.161H71.9153V197.661H127.553V196.161ZM52.6653 176.911V29.1002H51.1653V176.911H52.6653ZM71.9153 196.161C61.2838 196.161 52.6653 187.542 52.6653 176.911H51.1653C51.1653 188.371 60.4554 197.661 71.9153 197.661V196.161Z" fill="#8C877D" style="fill:#8C877D;fill:color(display-p3 0.5490 0.5294 0.4902);fill-opacity:1;"/>
<path d="M249.743 144.136C250.036 144.429 250.511 144.429 250.803 144.136L255.576 139.363C255.869 139.07 255.869 138.595 255.576 138.302C255.283 138.01 254.809 138.01 254.516 138.302L250.273 142.545L246.03 138.302C245.738 138.01 245.263 138.01 244.97 138.302C244.677 138.595 244.677 139.07 244.97 139.363L249.743 144.136ZM250.803 28.5699C250.511 28.277 250.036 28.277 249.743 28.5699L244.97 33.3429C244.677 33.6358 244.677 34.1106 244.97 34.4035C245.263 34.6964 245.738 34.6964 246.03 34.4035L250.273 30.1609L254.516 34.4035C254.809 34.6964 255.283 34.6964 255.576 34.4035C255.869 34.1106 255.869 33.6358 255.576 33.3429L250.803 28.5699ZM251.023 143.606L251.023 29.1002L249.523 29.1002L249.523 143.606L251.023 143.606Z" fill="#8C877D" style="fill:#8C877D;fill:color(display-p3 0.5490 0.5294 0.4902);fill-opacity:1;"/>
<path d="M249.743 323.348C250.036 323.641 250.511 323.641 250.803 323.348L255.576 318.575C255.869 318.283 255.869 317.808 255.576 317.515C255.283 317.222 254.809 317.222 254.516 317.515L250.273 321.757L246.03 317.515C245.738 317.222 245.263 317.222 244.97 317.515C244.677 317.808 244.677 318.283 244.97 318.575L249.743 323.348ZM250.803 245.21C250.511 244.917 250.036 244.917 249.743 245.21L244.97 249.983C244.677 250.276 244.677 250.751 244.97 251.043C245.263 251.336 245.738 251.336 246.03 251.043L250.273 246.801L254.516 251.043C254.809 251.336 255.283 251.336 255.576 251.043C255.869 250.751 255.869 250.276 255.576 249.983L250.803 245.21ZM251.023 322.818V245.74H249.523V322.818H251.023Z" fill="#8C877D" style="fill:#8C877D;fill:color(display-p3 0.5490 0.5294 0.4902);fill-opacity:1;"/>
<path d="M370.385 196.381C370.092 196.674 370.092 197.148 370.385 197.441L375.158 202.214C375.451 202.507 375.926 202.507 376.219 202.214C376.512 201.921 376.512 201.447 376.219 201.154L371.976 196.911L376.219 192.668C376.512 192.375 376.512 191.901 376.219 191.608C375.926 191.315 375.451 191.315 375.158 191.608L370.385 196.381ZM555.416 197.441C555.709 197.148 555.709 196.674 555.416 196.381L550.643 191.608C550.35 191.315 549.875 191.315 549.583 191.608C549.29 191.901 549.29 192.375 549.583 192.668L553.825 196.911L549.583 201.154C549.29 201.447 549.29 201.921 549.583 202.214C549.875 202.507 550.35 202.507 550.643 202.214L555.416 197.441ZM370.915 197.661H554.886V196.161H370.915V197.661Z" fill="#8C877D" style="fill:#8C877D;fill:color(display-p3 0.5490 0.5294 0.4902);fill-opacity:1;"/>
<path d="M309.887 245.21C309.594 244.917 309.119 244.917 308.826 245.21L304.054 249.983C303.761 250.276 303.761 250.751 304.054 251.043C304.346 251.336 304.821 251.336 305.114 251.043L309.357 246.801L313.599 251.043C313.892 251.336 314.367 251.336 314.66 251.043C314.953 250.751 314.953 250.276 314.66 249.983L309.887 245.21ZM551.41 355.864C551.702 355.571 551.702 355.096 551.41 354.803L546.637 350.03C546.344 349.737 545.869 349.737 545.576 350.03C545.283 350.323 545.283 350.798 545.576 351.091L549.819 355.333L545.576 359.576C545.283 359.869 545.283 360.344 545.576 360.637C545.869 360.93 546.344 360.93 546.637 360.637L551.41 355.864ZM308.607 245.74V269.001H310.107V245.74H308.607ZM329.357 289.751H490.393V288.251H329.357V289.751ZM509.643 309.001V335.333H511.143V309.001H509.643ZM530.393 356.083H550.879V354.583H530.393V356.083ZM509.643 335.333C509.643 346.793 518.933 356.083 530.393 356.083V354.583C519.761 354.583 511.143 345.965 511.143 335.333H509.643ZM490.393 289.751C501.024 289.751 509.643 298.369 509.643 309.001H511.143C511.143 297.541 501.853 288.251 490.393 288.251V289.751ZM308.607 269.001C308.607 280.461 317.897 289.751 329.357 289.751V288.251C318.725 288.251 310.107 279.632 310.107 269.001H308.607Z" fill="#8C877D" style="fill:#8C877D;fill:color(display-p3 0.5490 0.5294 0.4902);fill-opacity:1;"/>
<rect x="18.4744" y="73.853" width="120" height="25" rx="5" fill="#B5ACA1" style="fill:#B5ACA1;fill:color(display-p3 0.7098 0.6745 0.6314);fill-opacity:1;"/>
<path d="M29.1304 90.853H28.1704V82.453H29.3944L31.2064 86.545L33.0304 82.453H34.2184V90.853H33.2584V84.157L31.6504 87.745H30.7504L29.1304 84.157V90.853ZM41.2758 88.009H36.5238V88.069C36.5598 89.233 37.2918 90.049 38.4558 90.049C39.3198 90.049 39.9918 89.593 40.1958 88.801H41.1918C40.9518 90.025 39.9438 90.925 38.5278 90.925C36.6918 90.925 35.4918 89.665 35.4918 87.793C35.4918 85.933 36.6678 84.661 38.3958 84.661C40.1238 84.661 41.2518 85.753 41.2998 87.565C41.2998 87.649 41.2878 87.865 41.2758 88.009ZM38.4078 85.525C37.5078 85.525 36.6798 86.173 36.5838 87.169H40.2438C40.1478 86.113 39.4278 85.525 38.4078 85.525ZM48.3572 90.853H46.2092C45.0332 90.853 44.6132 90.337 44.6132 89.257V85.633H42.6692V84.733H44.6132V83.017H45.5972V84.733H48.2612V85.633H45.5972V89.245C45.5972 89.761 45.7772 89.953 46.3052 89.953H48.3572V90.853ZM55.5226 89.953H55.8346V90.853H55.2946C54.4786 90.853 54.2026 90.505 54.1906 89.905C53.8066 90.457 53.1946 90.925 52.1386 90.925C50.7946 90.925 49.8826 90.253 49.8826 89.137C49.8826 87.913 50.7346 87.229 52.3426 87.229H54.1426V86.809C54.1426 86.017 53.5786 85.537 52.6186 85.537C51.7546 85.537 51.1786 85.945 51.0586 86.569H50.0746C50.2186 85.369 51.1906 84.661 52.6666 84.661C54.2266 84.661 55.1266 85.441 55.1266 86.869V89.545C55.1266 89.869 55.2466 89.953 55.5226 89.953ZM54.1426 88.357V88.057H52.2466C51.3706 88.057 50.8786 88.381 50.8786 89.077C50.8786 89.677 51.3946 90.085 52.2106 90.085C53.4346 90.085 54.1426 89.377 54.1426 88.357ZM61.944 85.669V82.453H62.928V90.853H62.076L61.944 89.869C61.536 90.433 60.876 90.925 59.844 90.925C58.152 90.925 56.904 89.785 56.904 87.793C56.904 85.921 58.152 84.661 59.844 84.661C60.876 84.661 61.572 85.081 61.944 85.669ZM59.94 90.049C61.14 90.049 61.956 89.125 61.956 87.817C61.956 86.473 61.14 85.537 59.94 85.537C58.728 85.537 57.912 86.461 57.912 87.793C57.912 89.125 58.728 90.049 59.94 90.049ZM69.9254 89.953H70.2374V90.853H69.6974C68.8814 90.853 68.6054 90.505 68.5934 89.905C68.2094 90.457 67.5974 90.925 66.5414 90.925C65.1974 90.925 64.2854 90.253 64.2854 89.137C64.2854 87.913 65.1374 87.229 66.7454 87.229H68.5454V86.809C68.5454 86.017 67.9814 85.537 67.0214 85.537C66.1574 85.537 65.5814 85.945 65.4614 86.569H64.4774C64.6214 85.369 65.5934 84.661 67.0694 84.661C68.6294 84.661 69.5294 85.441 69.5294 86.869V89.545C69.5294 89.869 69.6494 89.953 69.9254 89.953ZM68.5454 88.357V88.057H66.6494C65.7734 88.057 65.2814 88.381 65.2814 89.077C65.2814 89.677 65.7974 90.085 66.6134 90.085C67.8374 90.085 68.5454 89.377 68.5454 88.357ZM77.1628 90.853H75.0148C73.8388 90.853 73.4188 90.337 73.4188 89.257V85.633H71.4748V84.733H73.4188V83.017H74.4028V84.733H77.0668V85.633H74.4028V89.245C74.4028 89.761 74.5828 89.953 75.1108 89.953H77.1628V90.853ZM84.3282 89.953H84.6402V90.853H84.1002C83.2842 90.853 83.0082 90.505 82.9962 89.905C82.6122 90.457 82.0002 90.925 80.9442 90.925C79.6002 90.925 78.6882 90.253 78.6882 89.137C78.6882 87.913 79.5402 87.229 81.1482 87.229H82.9482V86.809C82.9482 86.017 82.3842 85.537 81.4242 85.537C80.5602 85.537 79.9842 85.945 79.8642 86.569H78.8802C79.0242 85.369 79.9962 84.661 81.4722 84.661C83.0322 84.661 83.9322 85.441 83.9322 86.869V89.545C83.9322 89.869 84.0522 89.953 84.3282 89.953ZM82.9482 88.357V88.057H81.0522C80.1762 88.057 79.6842 88.381 79.6842 89.077C79.6842 89.677 80.2002 90.085 81.0162 90.085C82.2402 90.085 82.9482 89.377 82.9482 88.357ZM96.319 90.853H95.335V85.633H93.391V84.733H95.335V84.049C95.335 82.969 95.791 82.453 96.931 82.453H98.863V83.353H96.991C96.499 83.353 96.319 83.557 96.319 84.025V84.733H98.863V85.633H96.319V90.853ZM106.088 88.009H101.336V88.069C101.372 89.233 102.104 90.049 103.268 90.049C104.132 90.049 104.804 89.593 105.008 88.801H106.004C105.764 90.025 104.756 90.925 103.34 90.925C101.504 90.925 100.304 89.665 100.304 87.793C100.304 85.933 101.48 84.661 103.208 84.661C104.936 84.661 106.064 85.753 106.112 87.565C106.112 87.649 106.1 87.865 106.088 88.009ZM103.22 85.525C102.32 85.525 101.492 86.173 101.396 87.169H105.056C104.96 86.113 104.24 85.525 103.22 85.525ZM113.17 90.853H111.022C109.846 90.853 109.426 90.337 109.426 89.257V85.633H107.482V84.733H109.426V83.017H110.41V84.733H113.074V85.633H110.41V89.245C110.41 89.761 110.59 89.953 111.118 89.953H113.17V90.853ZM117.767 90.925C115.979 90.925 114.803 89.713 114.803 87.805C114.803 85.933 116.015 84.661 117.791 84.661C119.291 84.661 120.239 85.501 120.491 86.845H119.459C119.279 86.029 118.679 85.537 117.779 85.537C116.603 85.537 115.811 86.473 115.811 87.805C115.811 89.137 116.603 90.049 117.779 90.049C118.655 90.049 119.255 89.545 119.447 88.765H120.491C120.251 90.085 119.255 90.925 117.767 90.925ZM125.101 84.661C126.637 84.661 127.513 85.681 127.513 87.445V90.853H126.529V87.505C126.529 86.257 125.953 85.561 124.933 85.561C123.841 85.561 123.145 86.425 123.145 87.793V90.853H122.161V82.453H123.145V85.561C123.601 84.997 124.309 84.661 125.101 84.661Z" fill="#141312" style="fill:#141312;fill:color(display-p3 0.0784 0.0745 0.0706);fill-opacity:1;"/>
<rect x="212.273" y="73.853" width="76" height="25" rx="5" fill="#B5ACA1" style="fill:#B5ACA1;fill:color(display-p3 0.7098 0.6745 0.6314);fill-opacity:1;"/>
<path d="M223.373 90.853H222.329V82.453H225.173C226.853 82.453 227.969 83.461 227.969 85.033C227.969 86.209 227.261 87.121 226.181 87.421L228.065 90.853H226.889L225.113 87.625H223.373V90.853ZM223.373 83.413V86.665H225.089C226.193 86.665 226.901 86.017 226.901 85.033C226.901 84.049 226.193 83.413 225.101 83.413H223.373ZM235.014 90.853H229.59V82.453H234.858V83.413H230.634V86.101H234.222V87.061H230.634V89.893H235.014V90.853ZM239.552 90.925C237.656 90.925 236.42 89.833 236.36 88.105H237.44C237.524 89.245 238.364 89.977 239.564 89.977C240.668 89.977 241.376 89.425 241.376 88.549C241.376 87.733 240.848 87.361 239.192 87.073C237.38 86.761 236.564 86.041 236.564 84.769C236.564 83.341 237.68 82.381 239.312 82.381C241.052 82.381 242.216 83.377 242.312 84.937H241.232C241.124 83.953 240.368 83.329 239.312 83.329C238.244 83.329 237.608 83.845 237.608 84.709C237.608 85.501 238.112 85.849 239.768 86.137C241.58 86.437 242.42 87.181 242.42 88.453C242.42 89.905 241.244 90.925 239.552 90.925ZM247.125 90.853H246.081V83.413H243.357V82.453H249.849V83.413H247.125V90.853ZM258.6 90.853H257.532L260.352 82.453H261.648L264.468 90.853H263.364L262.608 88.585H259.356L258.6 90.853ZM260.976 83.593L259.656 87.637H262.308L260.976 83.593ZM266.642 90.853H265.598V82.453H268.526C270.206 82.453 271.31 83.461 271.31 85.033C271.31 86.605 270.206 87.625 268.526 87.625H266.642V90.853ZM266.642 83.413V86.665H268.43C269.534 86.665 270.242 86.029 270.242 85.033C270.242 84.037 269.546 83.413 268.442 83.413H266.642ZM278.079 82.453V83.317H275.919V89.989H278.079V90.853H272.715V89.989H274.875V83.317H272.715V82.453H278.079Z" fill="#141312" style="fill:#141312;fill:color(display-p3 0.0784 0.0745 0.0706);fill-opacity:1;"/>
<rect x="406.901" y="184.411" width="112" height="25" rx="5" fill="#B5ACA1" style="fill:#B5ACA1;fill:color(display-p3 0.7098 0.6745 0.6314);fill-opacity:1;"/>
<path d="M418.001 201.411H416.957V193.011H419.801C421.481 193.011 422.597 194.019 422.597 195.591C422.597 196.767 421.889 197.679 420.809 197.979L422.693 201.411H421.517L419.741 198.183H418.001V201.411ZM418.001 193.971V197.223H419.717C420.821 197.223 421.529 196.575 421.529 195.591C421.529 194.607 420.821 193.971 419.729 193.971H418.001ZM429.702 198.567H424.95V198.627C424.986 199.791 425.718 200.607 426.882 200.607C427.746 200.607 428.418 200.151 428.622 199.359H429.618C429.378 200.583 428.37 201.483 426.954 201.483C425.118 201.483 423.918 200.223 423.918 198.351C423.918 196.491 425.094 195.219 426.822 195.219C428.55 195.219 429.678 196.311 429.726 198.123C429.726 198.207 429.714 198.423 429.702 198.567ZM426.834 196.083C425.934 196.083 425.106 196.731 425.01 197.727H428.67C428.574 196.671 427.854 196.083 426.834 196.083ZM436.747 200.511H437.059V201.411H436.519C435.703 201.411 435.427 201.063 435.415 200.463C435.031 201.015 434.419 201.483 433.363 201.483C432.019 201.483 431.107 200.811 431.107 199.695C431.107 198.471 431.959 197.787 433.567 197.787H435.367V197.367C435.367 196.575 434.803 196.095 433.843 196.095C432.979 196.095 432.403 196.503 432.283 197.127H431.299C431.443 195.927 432.415 195.219 433.891 195.219C435.451 195.219 436.351 195.999 436.351 197.427V200.103C436.351 200.427 436.471 200.511 436.747 200.511ZM435.367 198.915V198.615H433.471C432.595 198.615 432.103 198.939 432.103 199.635C432.103 200.235 432.619 200.643 433.435 200.643C434.659 200.643 435.367 199.935 435.367 198.915ZM443.169 196.227V193.011H444.153V201.411H443.301L443.169 200.427C442.761 200.991 442.101 201.483 441.069 201.483C439.377 201.483 438.129 200.343 438.129 198.351C438.129 196.479 439.377 195.219 441.069 195.219C442.101 195.219 442.797 195.639 443.169 196.227ZM441.165 200.607C442.365 200.607 443.181 199.683 443.181 198.375C443.181 197.031 442.365 196.095 441.165 196.095C439.953 196.095 439.137 197.019 439.137 198.351C439.137 199.683 439.953 200.607 441.165 200.607ZM451.15 198.411H445.702V197.583H451.15V198.411ZM455.628 201.483C453.84 201.483 452.592 200.211 452.592 198.351C452.592 196.491 453.84 195.219 455.628 195.219C457.416 195.219 458.664 196.491 458.664 198.351C458.664 200.211 457.416 201.483 455.628 201.483ZM455.628 200.607C456.84 200.607 457.656 199.659 457.656 198.351C457.656 197.043 456.84 196.095 455.628 196.095C454.416 196.095 453.6 197.043 453.6 198.351C453.6 199.659 454.416 200.607 455.628 200.607ZM463.117 195.219C464.413 195.219 465.493 195.951 465.493 197.931V201.411H464.509V197.991C464.509 196.767 463.933 196.119 462.949 196.119C461.881 196.119 461.197 196.947 461.197 198.159V201.411H460.213V195.291H461.065L461.197 196.119C461.557 195.651 462.157 195.219 463.117 195.219ZM470.606 200.511H472.766V201.411H467.462V200.511H469.622V193.911H467.462V193.011H470.606V200.511ZM475.84 203.811H474.424V202.911H475.504C476.068 202.911 476.164 202.767 476.392 202.191L476.692 201.447L474.22 195.291H475.264L477.268 200.175L479.212 195.291H480.256L477.316 202.443C476.92 203.415 476.704 203.811 475.84 203.811ZM491.839 201.483C489.715 201.483 488.515 199.947 488.515 197.211C488.515 194.463 489.715 192.939 491.875 192.939C493.459 192.939 494.527 193.947 494.851 195.759H493.747C493.471 194.499 492.859 193.899 491.875 193.899C490.387 193.899 489.583 195.063 489.583 197.211C489.583 199.395 490.351 200.523 491.839 200.523C492.847 200.523 493.447 199.935 493.735 198.663H494.839C494.515 200.487 493.459 201.483 491.839 201.483ZM499.04 201.483C496.916 201.483 495.716 199.947 495.716 197.211C495.716 194.463 496.916 192.939 499.076 192.939C500.66 192.939 501.728 193.947 502.052 195.759H500.948C500.672 194.499 500.06 193.899 499.076 193.899C497.588 193.899 496.784 195.063 496.784 197.211C496.784 199.395 497.552 200.523 499.04 200.523C500.048 200.523 500.648 199.935 500.936 198.663H502.04C501.716 200.487 500.66 201.483 499.04 201.483ZM506.158 201.483C504.574 201.483 503.482 200.739 503.458 199.395H504.466C504.502 200.115 505.138 200.643 506.158 200.643C507.022 200.643 507.634 200.271 507.634 199.707C507.634 198.939 506.962 198.879 506.05 198.771C504.682 198.603 503.59 198.327 503.59 197.055C503.59 195.939 504.61 195.219 505.99 195.219C507.382 195.219 508.39 195.879 508.486 197.151H507.478C507.406 196.527 506.83 196.059 505.99 196.059C505.138 196.059 504.562 196.419 504.562 196.983C504.562 197.655 505.21 197.739 506.098 197.847C507.49 198.015 508.606 198.279 508.606 199.635C508.606 200.775 507.514 201.483 506.158 201.483Z" fill="#141312" style="fill:#141312;fill:color(display-p3 0.0784 0.0745 0.0706);fill-opacity:1;"/>
<rect x="336.401" y="275.537" width="141" height="25" rx="5" fill="#B5ACA1" style="fill:#B5ACA1;fill:color(display-p3 0.7098 0.6745 0.6314);fill-opacity:1;"/>
<path d="M347.501 292.537H346.457V284.137H349.301C350.981 284.137 352.097 285.145 352.097 286.717C352.097 287.893 351.389 288.805 350.309 289.105L352.193 292.537H351.017L349.241 289.309H347.501V292.537ZM347.501 285.097V288.349H349.217C350.321 288.349 351.029 287.701 351.029 286.717C351.029 285.733 350.321 285.097 349.229 285.097H347.501ZM359.202 289.693H354.45V289.753C354.486 290.917 355.218 291.733 356.382 291.733C357.246 291.733 357.918 291.277 358.122 290.485H359.118C358.878 291.709 357.87 292.609 356.454 292.609C354.618 292.609 353.418 291.349 353.418 289.477C353.418 287.617 354.594 286.345 356.322 286.345C358.05 286.345 359.178 287.437 359.226 289.249C359.226 289.333 359.214 289.549 359.202 289.693ZM356.334 287.209C355.434 287.209 354.606 287.857 354.51 288.853H358.17C358.074 287.797 357.354 287.209 356.334 287.209ZM366.247 291.637H366.559V292.537H366.019C365.203 292.537 364.927 292.189 364.915 291.589C364.531 292.141 363.919 292.609 362.863 292.609C361.519 292.609 360.607 291.937 360.607 290.821C360.607 289.597 361.459 288.913 363.067 288.913H364.867V288.493C364.867 287.701 364.303 287.221 363.343 287.221C362.479 287.221 361.903 287.629 361.783 288.253H360.799C360.943 287.053 361.915 286.345 363.391 286.345C364.951 286.345 365.851 287.125 365.851 288.553V291.229C365.851 291.553 365.971 291.637 366.247 291.637ZM364.867 290.041V289.741H362.971C362.095 289.741 361.603 290.065 361.603 290.761C361.603 291.361 362.119 291.769 362.935 291.769C364.159 291.769 364.867 291.061 364.867 290.041ZM371.301 291.637H373.461V292.537H368.157V291.637H370.317V285.037H368.157V284.137H371.301V291.637ZM380.65 289.537H375.202V288.709H380.65V289.537ZM387.888 292.537H385.74C384.564 292.537 384.144 292.021 384.144 290.941V287.317H382.2V286.417H384.144V284.701H385.128V286.417H387.792V287.317H385.128V290.929C385.128 291.445 385.308 291.637 385.836 291.637H387.888V292.537ZM392.545 285.337C392.101 285.337 391.753 285.001 391.753 284.545C391.753 284.101 392.101 283.765 392.545 283.765C392.989 283.765 393.337 284.101 393.337 284.545C393.337 285.001 392.989 285.337 392.545 285.337ZM393.025 291.637H395.185V292.537H389.881V291.637H392.041V287.317H389.881V286.417H393.025V291.637ZM400.886 286.345C401.882 286.345 402.41 287.053 402.41 288.289V292.537H401.474V288.313C401.474 287.617 401.246 287.281 400.754 287.281C400.262 287.281 400.01 287.641 400.01 288.337V292.537H399.074V288.313C399.074 287.569 398.858 287.281 398.354 287.281C397.862 287.281 397.61 287.653 397.61 288.421V292.537H396.674V286.417H397.49L397.55 286.909C397.79 286.537 398.15 286.345 398.606 286.345C399.11 286.345 399.482 286.573 399.698 286.969C399.962 286.561 400.358 286.345 400.886 286.345ZM409.612 289.693H404.86V289.753C404.896 290.917 405.628 291.733 406.792 291.733C407.656 291.733 408.328 291.277 408.532 290.485H409.528C409.288 291.709 408.28 292.609 406.864 292.609C405.028 292.609 403.828 291.349 403.828 289.477C403.828 287.617 405.004 286.345 406.732 286.345C408.46 286.345 409.588 287.437 409.636 289.249C409.636 289.333 409.624 289.549 409.612 289.693ZM406.744 287.209C405.844 287.209 405.016 287.857 404.92 288.853H408.58C408.484 287.797 407.764 287.209 406.744 287.209ZM422.743 289.645V286.417H423.727V292.537H422.875L422.743 291.721C422.383 292.177 421.795 292.609 420.847 292.609C419.563 292.609 418.495 291.877 418.495 289.897V286.417H419.479V289.837C419.479 291.061 420.055 291.709 421.015 291.709C422.071 291.709 422.743 290.881 422.743 289.645ZM428.492 286.345C430.184 286.345 431.432 287.485 431.432 289.477C431.432 291.349 430.184 292.609 428.492 292.609C427.46 292.609 426.764 292.189 426.392 291.601V294.937H425.408V286.417H426.26L426.392 287.401C426.8 286.837 427.46 286.345 428.492 286.345ZM428.396 291.733C429.608 291.733 430.424 290.809 430.424 289.477C430.424 288.145 429.608 287.221 428.396 287.221C427.196 287.221 426.38 288.145 426.38 289.453C426.38 290.797 427.196 291.733 428.396 291.733ZM437.482 287.353V284.137H438.466V292.537H437.614L437.482 291.553C437.074 292.117 436.414 292.609 435.382 292.609C433.69 292.609 432.442 291.469 432.442 289.477C432.442 287.605 433.69 286.345 435.382 286.345C436.414 286.345 437.11 286.765 437.482 287.353ZM435.478 291.733C436.678 291.733 437.494 290.809 437.494 289.501C437.494 288.157 436.678 287.221 435.478 287.221C434.266 287.221 433.45 288.145 433.45 289.477C433.45 290.809 434.266 291.733 435.478 291.733ZM445.463 291.637H445.775V292.537H445.235C444.419 292.537 444.143 292.189 444.131 291.589C443.747 292.141 443.135 292.609 442.079 292.609C440.735 292.609 439.823 291.937 439.823 290.821C439.823 289.597 440.675 288.913 442.283 288.913H444.083V288.493C444.083 287.701 443.519 287.221 442.559 287.221C441.695 287.221 441.119 287.629 440.999 288.253H440.015C440.159 287.053 441.131 286.345 442.607 286.345C444.167 286.345 445.067 287.125 445.067 288.553V291.229C445.067 291.553 445.187 291.637 445.463 291.637ZM444.083 290.041V289.741H442.187C441.311 289.741 440.819 290.065 440.819 290.761C440.819 291.361 441.335 291.769 442.151 291.769C443.375 291.769 444.083 291.061 444.083 290.041ZM452.7 292.537H450.552C449.376 292.537 448.956 292.021 448.956 290.941V287.317H447.012V286.417H448.956V284.701H449.94V286.417H452.604V287.317H449.94V290.929C449.94 291.445 450.12 291.637 450.648 291.637H452.7V292.537ZM460.022 289.693H455.27V289.753C455.306 290.917 456.038 291.733 457.202 291.733C458.066 291.733 458.738 291.277 458.942 290.485H459.938C459.698 291.709 458.69 292.609 457.274 292.609C455.438 292.609 454.238 291.349 454.238 289.477C454.238 287.617 455.414 286.345 457.142 286.345C458.87 286.345 459.998 287.437 460.046 289.249C460.046 289.333 460.034 289.549 460.022 289.693ZM457.154 287.209C456.254 287.209 455.426 287.857 455.33 288.853H458.99C458.894 287.797 458.174 287.209 457.154 287.209ZM464.463 292.609C462.879 292.609 461.787 291.865 461.763 290.521H462.771C462.807 291.241 463.443 291.769 464.463 291.769C465.327 291.769 465.939 291.397 465.939 290.833C465.939 290.065 465.267 290.005 464.355 289.897C462.987 289.729 461.895 289.453 461.895 288.181C461.895 287.065 462.915 286.345 464.295 286.345C465.687 286.345 466.695 287.005 466.791 288.277H465.783C465.711 287.653 465.135 287.185 464.295 287.185C463.443 287.185 462.867 287.545 462.867 288.109C462.867 288.781 463.515 288.865 464.403 288.973C465.795 289.141 466.911 289.405 466.911 290.761C466.911 291.901 465.819 292.609 464.463 292.609Z" fill="#141312" style="fill:#141312;fill:color(display-p3 0.0784 0.0745 0.0706);fill-opacity:1;"/>
</svg>
