<svg width="253" height="102" viewBox="0 0 253 102" fill="none" xmlns="http://www.w3.org/2000/svg">
<rect width="252.984" height="101.194" rx="8.29457" fill="#171717"/>
<path d="M28.2551 32.907L32.2139 28.9482L28.2551 24.9894L27.5747 25.6698L30.3759 28.4622H23.1211V29.4342H30.3759L27.5747 32.2354L28.2551 32.907Z" fill="#B8F7A8"/>
<path d="M46.2961 31.2688C45.2012 31.2688 44.4547 30.4476 44.4547 29.1537C44.4547 27.8597 45.2012 27.0386 46.2961 27.0386C47.1919 27.0386 47.6149 27.5238 47.8762 28.2454L48.772 27.7975C48.3988 26.9017 47.7269 26.1054 46.2961 26.1054C44.3178 26.1054 43.422 27.6855 43.422 29.1537C43.422 30.6218 44.3178 32.2019 46.2961 32.2019C47.7394 32.2019 48.3863 31.4057 48.772 30.5098L47.8762 30.0619C47.6149 30.7836 47.1919 31.2688 46.2961 31.2688ZM53.7034 31.1444L53.6909 24.3014H53.7034V23.3682H50.9413V24.3014H52.6707L52.6831 31.1444H50.568V32.0775H55.8185V31.1444H53.7034ZM62.4544 31.1568V28.1832C62.4544 26.9266 61.5337 26.1054 60.1651 26.1054C59.2319 26.1054 58.249 26.4911 57.7514 27.698L58.6223 28.1459C58.8711 27.474 59.3315 27.0386 60.1402 27.0386C61.0485 27.0386 61.4217 27.586 61.4217 28.1334V28.1708C61.4217 29.502 57.4652 27.9219 57.4652 30.4103C57.4652 31.5674 58.3112 32.2019 59.5679 32.2019C60.4015 32.2019 61.0485 31.9158 61.4342 31.3559L61.8074 32.0775H63.3378V31.1568H62.4544ZM59.6052 31.2688C59.1448 31.2688 58.4979 31.1817 58.4979 30.4476C58.4979 29.2283 60.4264 29.7011 61.4217 29.191V29.95C61.4217 30.4476 61.0236 31.2688 59.6052 31.2688ZM68.3686 26.1054C67.6097 26.1054 67.0996 26.4787 66.7512 27.0012L66.266 26.2298H64.6485V27.163H65.6314V31.1444H64.5241V32.0775H67.871V31.1444H66.6641V29.4398C66.6641 28.4196 66.8881 27.0386 68.2691 27.0386C68.9285 27.0386 69.1898 27.3496 69.4884 28.1086L70.3718 27.698C69.9488 26.5533 69.2147 26.1054 68.3686 26.1054ZM75.1165 23.3682H73.6732V24.8115H75.1165V23.3682ZM75.0045 31.1444L74.9921 26.2298H71.9812V27.163H73.9594V31.1444H71.7323V32.0775H77.2316V31.1444H75.0045ZM79.0152 30.6094C79.376 31.5674 80.2718 32.2019 81.5658 32.2019C82.9344 32.2019 83.967 31.6918 83.967 30.4352C83.967 29.0417 82.6606 28.8302 81.5782 28.6187C80.6451 28.432 80.3962 28.2952 80.3962 27.8473C80.3962 27.2501 80.8566 27.0386 81.5036 27.0386C82.5113 27.0386 82.8348 27.5487 83.0837 28.1459L83.9546 27.698C83.6062 26.74 82.7851 26.1054 81.5284 26.1054C80.334 26.1054 79.3636 26.6902 79.3636 27.8473C79.3636 29.079 80.4709 29.3652 81.5658 29.5767C82.4491 29.7509 82.9344 29.8007 82.9344 30.4352C82.9344 31.1319 82.362 31.2688 81.7026 31.2688C80.5331 31.2688 80.1972 30.8458 79.8861 30.1615L79.0152 30.6094ZM91.0011 26.2174L90.155 30.5472L88.9979 27.2252H88.3385L87.169 30.572L86.3354 26.2298L85.2654 26.2423L86.5966 32.0775H87.3929L88.662 28.7804L89.9435 32.0775H90.7398L92.0711 26.2298L91.0011 26.2174ZM97.9356 31.1568V28.1832C97.9356 26.9266 97.0149 26.1054 95.6463 26.1054C94.7131 26.1054 93.7302 26.4911 93.2325 27.698L94.1035 28.1459C94.3523 27.474 94.8127 27.0386 95.6214 27.0386C96.5296 27.0386 96.9029 27.586 96.9029 28.1334V28.1708C96.9029 29.502 92.9464 27.9219 92.9464 30.4103C92.9464 31.5674 93.7924 32.2019 95.049 32.2019C95.8827 32.2019 96.5296 31.9158 96.9153 31.3559L97.2886 32.0775H98.8189V31.1568H97.9356ZM95.0864 31.2688C94.626 31.2688 93.979 31.1817 93.979 30.4476C93.979 29.2283 95.9075 29.7011 96.9029 29.191V29.95C96.9029 30.4476 96.5047 31.2688 95.0864 31.2688ZM102.966 26.1054C102.12 26.1054 101.536 26.4289 101.15 26.9141L100.727 26.2298H100.092V34.9391H101.125L101.088 31.331C101.473 31.8411 102.071 32.2019 102.966 32.2019C104.882 32.2019 105.641 30.5347 105.641 29.1537C105.641 27.7602 104.882 26.1054 102.966 26.1054ZM102.879 31.2688C101.784 31.2688 100.988 30.4601 100.988 29.2159C100.988 27.8473 101.784 27.0386 102.879 27.0386C103.974 27.0386 104.609 27.8597 104.609 29.1537C104.609 30.4476 103.974 31.2688 102.879 31.2688Z" fill="#8ACFCB"/>
<path d="M117.258 31.2688C116.164 31.2688 115.417 30.4476 115.417 29.1537C115.417 27.8597 116.164 27.0386 117.258 27.0386C118.154 27.0386 118.577 27.5238 118.839 28.2454L119.734 27.7975C119.361 26.9017 118.689 26.1054 117.258 26.1054C115.28 26.1054 114.384 27.6855 114.384 29.1537C114.384 30.6218 115.28 32.2019 117.258 32.2019C118.702 32.2019 119.349 31.4057 119.734 30.5098L118.839 30.0619C118.577 30.7836 118.154 31.2688 117.258 31.2688ZM124.666 31.1444L124.653 24.3014H124.666V23.3682H121.904V24.3014H123.633L123.645 31.1444H121.53V32.0775H126.781V31.1444H124.666ZM133.417 31.1568V28.1832C133.417 26.9266 132.496 26.1054 131.127 26.1054C130.194 26.1054 129.211 26.4911 128.714 27.698L129.585 28.1459C129.833 27.474 130.294 27.0386 131.103 27.0386C132.011 27.0386 132.384 27.586 132.384 28.1334V28.1708C132.384 29.502 128.428 27.9219 128.428 30.4103C128.428 31.5674 129.274 32.2019 130.53 32.2019C131.364 32.2019 132.011 31.9158 132.396 31.3559L132.77 32.0775H134.3V31.1568H133.417ZM130.568 31.2688C130.107 31.2688 129.46 31.1817 129.46 30.4476C129.46 29.2283 131.389 29.7011 132.384 29.191V29.95C132.384 30.4476 131.986 31.2688 130.568 31.2688ZM139.331 26.1054C138.572 26.1054 138.062 26.4787 137.714 27.0012L137.228 26.2298H135.611V27.163H136.594V31.1444H135.486V32.0775H138.833V31.1444H137.626V29.4398C137.626 28.4196 137.85 27.0386 139.231 27.0386C139.891 27.0386 140.152 27.3496 140.451 28.1086L141.334 27.698C140.911 26.5533 140.177 26.1054 139.331 26.1054ZM146.079 23.3682H144.636V24.8115H146.079V23.3682ZM145.967 31.1444L145.954 26.2298H142.944V27.163H144.922V31.1444H142.695V32.0775H148.194V31.1444H145.967ZM152.852 26.1054C152.18 26.1054 151.57 26.3667 151.147 26.9639L150.687 26.2298H150.052V32.0775H151.048V29.4274C151.048 28.5316 151.147 27.0386 152.665 27.0386C154.009 27.0386 154.009 28.1957 154.009 28.5191V28.7929L153.996 32.0775H155.029L155.041 28.5191C155.041 27.0883 154.17 26.1054 152.852 26.1054ZM159.699 26.1054C157.609 26.1054 156.825 27.6731 156.825 29.1412C156.825 30.6218 157.634 32.2019 159.761 32.2019C161.18 32.2019 161.914 31.4927 162.287 30.6094L161.416 30.1615C161.167 30.9204 160.632 31.2688 159.799 31.2688C158.604 31.2688 157.957 30.5596 157.87 29.415L162.436 29.4274L162.449 29.1537C162.523 27.586 161.739 26.1054 159.699 26.1054ZM159.724 27.0386C160.657 27.0386 161.292 27.4989 161.366 28.5191L157.92 28.5067C158.094 27.5984 158.691 27.0386 159.724 27.0386ZM168.612 30.1615C168.363 30.7836 168.127 31.2688 167.318 31.2688C166.173 31.2688 166.173 30.2734 166.173 29.7882V27.163H169.197V26.2298H166.173V24.1396H165.14V26.2298H163.573V27.163H165.14V29.95C165.14 31.3683 165.937 32.2019 167.305 32.2019C168.438 32.2019 169.122 31.6296 169.483 30.5969L168.612 30.1615ZM181.125 31.2688C180.03 31.2688 179.283 30.4476 179.283 29.1537C179.283 27.8597 180.03 27.0386 181.125 27.0386C182.02 27.0386 182.443 27.5238 182.705 28.2454L183.6 27.7975C183.227 26.9017 182.555 26.1054 181.125 26.1054C179.146 26.1054 178.25 27.6855 178.25 29.1537C178.25 30.6218 179.146 32.2019 181.125 32.2019C182.568 32.2019 183.215 31.4057 183.6 30.5098L182.705 30.0619C182.443 30.7836 182.02 31.2688 181.125 31.2688ZM188.345 26.1054C187.599 26.1054 186.927 26.4289 186.504 27.1754L186.541 23.3682H185.508V32.0775H186.541V29.4274C186.541 28.5316 186.641 27.0386 188.159 27.0386C189.502 27.0386 189.502 28.2205 189.502 28.5191V28.7929L189.49 32.0775H190.523L190.535 28.5191C190.535 27.0883 189.664 26.1054 188.345 26.1054ZM195.18 26.1054C193.09 26.1054 192.306 27.6731 192.306 29.1412C192.306 30.6218 193.115 32.2019 195.242 32.2019C196.661 32.2019 197.395 31.4927 197.768 30.6094L196.897 30.1615C196.648 30.9204 196.113 31.2688 195.28 31.2688C194.085 31.2688 193.438 30.5596 193.351 29.415L197.917 29.4274L197.93 29.1537C198.004 27.586 197.221 26.1054 195.18 26.1054ZM195.205 27.0386C196.138 27.0386 196.773 27.4989 196.847 28.5191L193.401 28.5067C193.575 27.5984 194.172 27.0386 195.205 27.0386ZM202.413 31.2688C201.318 31.2688 200.572 30.4476 200.572 29.1537C200.572 27.8597 201.318 27.0386 202.413 27.0386C203.309 27.0386 203.732 27.5238 203.993 28.2454L204.889 27.7975C204.516 26.9017 203.844 26.1054 202.413 26.1054C200.435 26.1054 199.539 27.6855 199.539 29.1537C199.539 30.6218 200.435 32.2019 202.413 32.2019C203.857 32.2019 204.504 31.4057 204.889 30.5098L203.993 30.0619C203.732 30.7836 203.309 31.2688 202.413 31.2688ZM210.766 32.0775H211.973L209.398 28.4445L211.5 26.2298H210.206L207.681 29.079V23.3682H206.648V32.0775H207.681V30.3605L208.738 29.1537L210.766 32.0775Z" fill="#74777D"/>
<path d="M42.9617 59.5901C43.5464 61.3942 44.8528 61.8919 46.1468 61.8919C47.8638 61.8919 49.2199 61.0707 49.2199 59.3662C49.2199 57.4252 47.6274 56.9525 46.1468 56.7036C45.2261 56.5419 44.3801 56.2806 44.3801 55.3101C44.3801 54.2526 45.2137 53.8918 46.1468 53.8918C47.0675 53.8918 47.7145 54.2526 48.1499 55.5714L49.0831 55.1733C48.6103 53.5185 47.4034 52.9337 46.1468 52.9337C44.604 52.9337 43.3225 53.73 43.3225 55.3101C43.3225 57.1018 44.8404 57.5621 46.1468 57.7487C47.2541 57.898 48.1624 58.234 48.1624 59.3662C48.1624 60.4486 47.391 60.9339 46.1468 60.9339C45.2137 60.9339 44.4547 60.685 43.8948 59.192L42.9617 59.5901ZM55.1466 55.9198L53.1684 60.6726L51.2772 55.9198H50.0952L52.5961 61.6804L51.4016 64.6291H52.4965L56.254 55.9198H55.1466ZM60.6005 55.7954C59.9287 55.7954 59.319 56.0566 58.896 56.6539L58.4357 55.9198H57.8011V61.7675H58.7965V59.1173C58.7965 58.2215 58.896 56.7285 60.4139 56.7285C61.7576 56.7285 61.7576 57.8856 61.7576 58.2091V58.4828L61.7452 61.7675H62.7779L62.7903 58.2091C62.7903 56.7783 61.9194 55.7954 60.6005 55.7954ZM69.2645 59.8514C69.0156 60.4735 68.7792 60.9587 67.9705 60.9587C66.8258 60.9587 66.8258 59.9634 66.8258 59.4782V56.8529H69.8492V55.9198H66.8258V53.8295H65.7932V55.9198H64.2255V56.8529H65.7932V59.6399C65.7932 61.0583 66.5895 61.8919 67.9581 61.8919C69.0903 61.8919 69.7746 61.3195 70.1354 60.2869L69.2645 59.8514ZM76.6469 60.8468V57.8732C76.6469 56.6165 75.7262 55.7954 74.3575 55.7954C73.4244 55.7954 72.4415 56.1811 71.9438 57.3879L72.8148 57.8358C73.0636 57.164 73.5239 56.7285 74.3327 56.7285C75.2409 56.7285 75.6142 57.2759 75.6142 57.8234V57.8607C75.6142 59.192 71.6577 57.6119 71.6577 60.1002C71.6577 61.2573 72.5037 61.8919 73.7603 61.8919C74.5939 61.8919 75.2409 61.6057 75.6266 61.0458L75.9999 61.7675H77.5302V60.8468H76.6469ZM73.7977 60.9587C73.3373 60.9587 72.6903 60.8716 72.6903 60.1376C72.6903 58.9183 74.6188 59.3911 75.6142 58.8809V59.6399C75.6142 60.1376 75.216 60.9587 73.7977 60.9587ZM84.502 55.9198H83.2827L81.6031 58.1718L79.8737 55.9198H78.6544L80.8939 58.7068L78.6544 61.7675H79.8612L81.5658 59.304L83.2952 61.7675H84.502L82.2625 58.7565L84.502 55.9198ZM95.7707 61.8919C97.7365 61.8919 98.5452 60.3366 98.5452 58.7814C98.5452 57.3506 97.7365 55.7954 95.7707 55.7954C93.8049 55.7954 92.9961 57.3506 92.9961 58.7814C92.9961 60.3366 93.8049 61.8919 95.7707 61.8919ZM95.7707 60.9587C94.6509 60.9587 94.0288 60.15 94.0288 58.7814C94.0288 57.5372 94.6509 56.7285 95.7707 56.7285C96.8904 56.7285 97.5125 57.5372 97.5125 58.7814C97.5125 60.15 96.8904 60.9587 95.7707 60.9587ZM103.713 53.8669C104.584 53.8669 104.845 54.2526 105.131 54.8498L106.002 54.4143C105.604 53.3319 104.659 52.9337 103.738 52.9337C102.444 52.9337 101.548 53.7425 101.548 55.0737V55.9198H99.9306V56.8529H101.548V61.7675H102.581V56.8529H105.032V55.9198H102.581V55.2106C102.581 54.4641 102.805 53.8669 103.713 53.8669ZM117.582 60.8094V53.0582H116.611C116.549 53.5558 116.126 54.377 114.695 54.377V55.3101C115.454 55.3101 116.101 55.0613 116.524 54.5885V60.8094H114.322V61.7675H119.797V60.8094H117.582ZM131.451 60.9587C130.356 60.9587 129.61 60.1376 129.61 58.8436C129.61 57.5497 130.356 56.7285 131.451 56.7285C132.347 56.7285 132.77 57.2137 133.031 57.9354L133.927 57.4875C133.554 56.5916 132.882 55.7954 131.451 55.7954C129.473 55.7954 128.577 57.3755 128.577 58.8436C128.577 60.3118 129.473 61.8919 131.451 61.8919C132.894 61.8919 133.541 61.0956 133.927 60.1998L133.031 59.7519C132.77 60.4735 132.347 60.9587 131.451 60.9587ZM138.348 61.8919C140.314 61.8919 141.123 60.3366 141.123 58.7814C141.123 57.3506 140.314 55.7954 138.348 55.7954C136.382 55.7954 135.574 57.3506 135.574 58.7814C135.574 60.3366 136.382 61.8919 138.348 61.8919ZM138.348 60.9587C137.228 60.9587 136.606 60.15 136.606 58.7814C136.606 57.5372 137.228 56.7285 138.348 56.7285C139.468 56.7285 140.09 57.5372 140.09 58.7814C140.09 60.15 139.468 60.9587 138.348 60.9587ZM145.755 55.7954C145.084 55.7954 144.474 56.0566 144.051 56.6539L143.59 55.9198H142.956V61.7675H143.951V59.1173C143.951 58.2215 144.051 56.7285 145.569 56.7285C146.912 56.7285 146.912 57.8856 146.912 58.2091V58.4828L146.9 61.7675H147.933L147.945 58.2091C147.945 56.7783 147.074 55.7954 145.755 55.7954ZM154.419 59.8514C154.17 60.4735 153.934 60.9587 153.125 60.9587C151.981 60.9587 151.981 59.9634 151.981 59.4782V56.8529H155.004V55.9198H151.981V53.8295H150.948V55.9198H149.38V56.8529H150.948V59.6399C150.948 61.0583 151.744 61.8919 153.113 61.8919C154.245 61.8919 154.929 61.3195 155.29 60.2869L154.419 59.8514ZM160.62 55.7954C159.861 55.7954 159.351 56.1686 159.002 56.6912L158.517 55.9198H156.9V56.8529H157.882V60.8343H156.775V61.7675H160.122V60.8343H158.915V59.1298C158.915 58.1095 159.139 56.7285 160.52 56.7285C161.18 56.7285 161.441 57.0395 161.739 57.7985L162.623 57.3879C162.2 56.2433 161.466 55.7954 160.62 55.7954ZM168.898 60.8468V57.8732C168.898 56.6165 167.977 55.7954 166.609 55.7954C165.675 55.7954 164.693 56.1811 164.195 57.3879L165.066 57.8358C165.315 57.164 165.775 56.7285 166.584 56.7285C167.492 56.7285 167.865 57.2759 167.865 57.8234V57.8607C167.865 59.192 163.909 57.6119 163.909 60.1002C163.909 61.2573 164.755 61.8919 166.011 61.8919C166.845 61.8919 167.492 61.6057 167.878 61.0458L168.251 61.7675H169.781V60.8468H168.898ZM166.049 60.9587C165.588 60.9587 164.941 60.8716 164.941 60.1376C164.941 58.9183 166.87 59.3911 167.865 58.8809V59.6399C167.865 60.1376 167.467 60.9587 166.049 60.9587ZM174.028 60.9587C172.933 60.9587 172.187 60.1376 172.187 58.8436C172.187 57.5497 172.933 56.7285 174.028 56.7285C174.924 56.7285 175.347 57.2137 175.608 57.9354L176.504 57.4875C176.131 56.5916 175.459 55.7954 174.028 55.7954C172.05 55.7954 171.154 57.3755 171.154 58.8436C171.154 60.3118 172.05 61.8919 174.028 61.8919C175.472 61.8919 176.119 61.0956 176.504 60.1998L175.608 59.7519C175.347 60.4735 174.924 60.9587 174.028 60.9587ZM182.804 59.8514C182.555 60.4735 182.319 60.9587 181.51 60.9587C180.366 60.9587 180.366 59.9634 180.366 59.4782V56.8529H183.389V55.9198H180.366V53.8295H179.333V55.9198H177.765V56.8529H179.333V59.6399C179.333 61.0583 180.129 61.8919 181.498 61.8919C182.63 61.8919 183.314 61.3195 183.675 60.2869L182.804 59.8514ZM188.333 63.9199L189.191 63.4098C188.594 62.4518 187.773 60.2744 187.773 58.0598C187.773 55.8451 188.594 53.6678 189.191 52.7098L188.333 52.1997C187.487 53.3941 186.715 55.8451 186.715 58.0598C186.715 60.2744 187.487 62.7255 188.333 63.9199ZM192.555 60.2993C192.916 61.2573 193.812 61.8919 195.106 61.8919C196.474 61.8919 197.507 61.3818 197.507 60.1251C197.507 58.7316 196.2 58.5201 195.118 58.3086C194.185 58.122 193.936 57.9851 193.936 57.5372C193.936 56.94 194.396 56.7285 195.043 56.7285C196.051 56.7285 196.375 57.2386 196.623 57.8358L197.494 57.3879C197.146 56.4299 196.325 55.7954 195.068 55.7954C193.874 55.7954 192.903 56.3801 192.903 57.5372C192.903 58.769 194.011 59.0551 195.106 59.2666C195.989 59.4408 196.474 59.4906 196.474 60.1251C196.474 60.8219 195.902 60.9587 195.242 60.9587C194.073 60.9587 193.737 60.5357 193.426 59.8514L192.555 60.2993ZM201.766 63.9199C202.612 62.7255 203.384 60.2744 203.384 58.0598C203.384 55.8451 202.612 53.3941 201.766 52.1997L200.908 52.7098C201.505 53.6678 202.326 55.8451 202.326 58.0598C202.326 60.2744 201.505 62.4518 200.908 63.4098L201.766 63.9199ZM43.534 75.2993C43.8948 76.2573 44.7906 76.8919 46.0846 76.8919C47.4532 76.8919 48.4859 76.3818 48.4859 75.1251C48.4859 73.7316 47.1795 73.5201 46.097 73.3086C45.1639 73.122 44.9151 72.9851 44.9151 72.5372C44.9151 71.94 45.3754 71.7285 46.0224 71.7285C47.0302 71.7285 47.3537 72.2386 47.6025 72.8358L48.4734 72.3879C48.1251 71.4299 47.3039 70.7954 46.0473 70.7954C44.8528 70.7954 43.8824 71.3801 43.8824 72.5372C43.8824 73.769 44.9897 74.0551 46.0846 74.2666C46.968 74.4408 47.4532 74.4906 47.4532 75.1251C47.4532 75.8219 46.8809 75.9587 46.2214 75.9587C45.0519 75.9587 44.716 75.5357 44.4049 74.8514L43.534 75.2993ZM54.6863 70.9198V73.5699C54.6863 74.4533 54.5868 75.9587 53.0688 75.9587C51.974 75.9587 51.7251 75.1625 51.7251 74.4782V70.9198H50.7049L50.6924 74.4782C50.6924 75.6352 51.3394 76.8919 52.8573 76.8919C53.5416 76.8919 54.1637 76.6306 54.5868 76.0334L55.0471 76.7675H55.6816V70.9198H54.6863ZM60.4886 75.9587C59.3937 75.9587 58.6472 75.1376 58.6472 73.8436C58.6472 72.5497 59.3937 71.7285 60.4886 71.7285C61.3844 71.7285 61.8074 72.2137 62.0687 72.9354L62.9645 72.4875C62.5912 71.5916 61.9194 70.7954 60.4886 70.7954C58.5103 70.7954 57.6145 72.3755 57.6145 73.8436C57.6145 75.3118 58.5103 76.8919 60.4886 76.8919C61.9318 76.8919 62.5788 76.0956 62.9645 75.1998L62.0687 74.7519C61.8074 75.4735 61.3844 75.9587 60.4886 75.9587ZM67.5848 75.9587C66.4899 75.9587 65.7434 75.1376 65.7434 73.8436C65.7434 72.5497 66.4899 71.7285 67.5848 71.7285C68.4806 71.7285 68.9036 72.2137 69.1649 72.9354L70.0607 72.4875C69.6875 71.5916 69.0156 70.7954 67.5848 70.7954C65.6065 70.7954 64.7107 72.3755 64.7107 73.8436C64.7107 75.3118 65.6065 76.8919 67.5848 76.8919C69.0281 76.8919 69.675 76.0956 70.0607 75.1998L69.1649 74.7519C68.9036 75.4735 68.4806 75.9587 67.5848 75.9587ZM74.5442 70.7954C72.4539 70.7954 71.6701 72.363 71.6701 73.8312C71.6701 75.3118 72.4788 76.8919 74.6064 76.8919C76.0248 76.8919 76.7588 76.1827 77.1321 75.2993L76.2612 74.8514C76.0123 75.6104 75.4773 75.9587 74.6437 75.9587C73.4493 75.9587 72.8023 75.2495 72.7152 74.1049L77.2814 74.1173L77.2938 73.8436C77.3685 72.2759 76.5846 70.7954 74.5442 70.7954ZM74.5691 71.7285C75.5022 71.7285 76.1367 72.1889 76.2114 73.2091L72.765 73.1966C72.9392 72.2884 73.5364 71.7285 74.5691 71.7285ZM79.0152 75.2993C79.376 76.2573 80.2718 76.8919 81.5658 76.8919C82.9344 76.8919 83.967 76.3818 83.967 75.1251C83.967 73.7316 82.6606 73.5201 81.5782 73.3086C80.6451 73.122 80.3962 72.9851 80.3962 72.5372C80.3962 71.94 80.8566 71.7285 81.5036 71.7285C82.5113 71.7285 82.8348 72.2386 83.0837 72.8358L83.9546 72.3879C83.6062 71.4299 82.7851 70.7954 81.5284 70.7954C80.334 70.7954 79.3636 71.3801 79.3636 72.5372C79.3636 73.769 80.4709 74.0551 81.5658 74.2666C82.4491 74.4408 82.9344 74.4906 82.9344 75.1251C82.9344 75.8219 82.362 75.9587 81.7026 75.9587C80.5331 75.9587 80.1972 75.5357 79.8861 74.8514L79.0152 75.2993ZM86.1114 75.2993C86.4722 76.2573 87.368 76.8919 88.662 76.8919C90.0306 76.8919 91.0633 76.3818 91.0633 75.1251C91.0633 73.7316 89.7569 73.5201 88.6744 73.3086C87.7413 73.122 87.4925 72.9851 87.4925 72.5372C87.4925 71.94 87.9528 71.7285 88.5998 71.7285C89.6076 71.7285 89.9311 72.2386 90.1799 72.8358L91.0508 72.3879C90.7025 71.4299 89.8813 70.7954 88.6247 70.7954C87.4303 70.7954 86.4598 71.3801 86.4598 72.5372C86.4598 73.769 87.5671 74.0551 88.662 74.2666C89.5454 74.4408 90.0306 74.4906 90.0306 75.1251C90.0306 75.8219 89.4583 75.9587 88.7989 75.9587C87.6293 75.9587 87.2934 75.5357 86.9823 74.8514L86.1114 75.2993ZM96.6167 68.8669C97.4877 68.8669 97.7489 69.2526 98.0351 69.8498L98.906 69.4143C98.5079 68.3319 97.5623 67.9337 96.6416 67.9337C95.3477 67.9337 94.4518 68.7425 94.4518 70.0737V70.9198H92.8344V71.8529H94.4518V76.7675H95.4845V71.8529H97.9356V70.9198H95.4845V70.2106C95.4845 69.4641 95.7085 68.8669 96.6167 68.8669ZM104.36 70.9198V73.5699C104.36 74.4533 104.26 75.9587 102.742 75.9587C101.648 75.9587 101.399 75.1625 101.399 74.4782V70.9198H100.379L100.366 74.4782C100.366 75.6352 101.013 76.8919 102.531 76.8919C103.215 76.8919 103.837 76.6306 104.26 76.0334L104.721 76.7675H105.355V70.9198H104.36ZM110.473 75.8343L110.461 68.9913H110.473V68.0582H107.711V68.9913H109.441L109.453 75.8343H107.338V76.7675H112.588V75.8343H110.473ZM117.569 75.8343L117.557 68.9913H117.569V68.0582H114.807V68.9913H116.537L116.549 75.8343H114.434V76.7675H119.685V75.8343H117.569ZM126.109 70.9198L124.131 75.6726L122.24 70.9198H121.058L123.558 76.6804L122.364 79.6291H123.459L127.216 70.9198H126.109ZM138.547 75.9587C137.452 75.9587 136.706 75.1376 136.706 73.8436C136.706 72.5497 137.452 71.7285 138.547 71.7285C139.443 71.7285 139.866 72.2137 140.127 72.9354L141.023 72.4875C140.65 71.5916 139.978 70.7954 138.547 70.7954C136.569 70.7954 135.673 72.3755 135.673 73.8436C135.673 75.3118 136.569 76.8919 138.547 76.8919C139.99 76.8919 140.637 76.0956 141.023 75.1998L140.127 74.7519C139.866 75.4735 139.443 75.9587 138.547 75.9587ZM145.768 70.7954C145.021 70.7954 144.349 71.1189 143.926 71.8654L143.964 68.0582H142.931V76.7675H143.964V74.1173C143.964 73.2215 144.063 71.7285 145.581 71.7285C146.925 71.7285 146.925 72.9105 146.925 73.2091V73.4828L146.912 76.7675H147.945L147.958 73.2091C147.958 71.7783 147.087 70.7954 145.768 70.7954ZM152.603 70.7954C150.513 70.7954 149.729 72.363 149.729 73.8312C149.729 75.3118 150.537 76.8919 152.665 76.8919C154.083 76.8919 154.817 76.1827 155.191 75.2993L154.32 74.8514C154.071 75.6104 153.536 75.9587 152.702 75.9587C151.508 75.9587 150.861 75.2495 150.774 74.1049L155.34 74.1173L155.352 73.8436C155.427 72.2759 154.643 70.7954 152.603 70.7954ZM152.628 71.7285C153.561 71.7285 154.195 72.1889 154.27 73.2091L150.824 73.1966C150.998 72.2884 151.595 71.7285 152.628 71.7285ZM159.836 75.9587C158.741 75.9587 157.994 75.1376 157.994 73.8436C157.994 72.5497 158.741 71.7285 159.836 71.7285C160.732 71.7285 161.155 72.2137 161.416 72.9354L162.312 72.4875C161.939 71.5916 161.267 70.7954 159.836 70.7954C157.858 70.7954 156.962 72.3755 156.962 73.8436C156.962 75.3118 157.858 76.8919 159.836 76.8919C161.279 76.8919 161.926 76.0956 162.312 75.1998L161.416 74.7519C161.155 75.4735 160.732 75.9587 159.836 75.9587ZM168.189 76.7675H169.396L166.82 73.1344L168.923 70.9198H167.629L165.103 73.769V68.0582H164.07V76.7675H165.103V75.0505L166.161 73.8436L168.189 76.7675ZM173.891 70.7954C171.801 70.7954 171.017 72.363 171.017 73.8312C171.017 75.3118 171.826 76.8919 173.954 76.8919C175.372 76.8919 176.106 76.1827 176.479 75.2993L175.608 74.8514C175.36 75.6104 174.825 75.9587 173.991 75.9587C172.797 75.9587 172.15 75.2495 172.063 74.1049L176.629 74.1173L176.641 73.8436C176.716 72.2759 175.932 70.7954 173.891 70.7954ZM173.916 71.7285C174.849 71.7285 175.484 72.1889 175.559 73.2091L172.112 73.1966C172.286 72.2884 172.884 71.7285 173.916 71.7285ZM182.667 68.0582L182.705 71.6663C182.319 71.1562 181.722 70.7954 180.826 70.7954C178.91 70.7954 178.151 72.4626 178.151 73.8436C178.151 75.2371 178.91 76.8919 180.826 76.8919C181.672 76.8919 182.257 76.5684 182.642 76.0832L183.065 76.7675H183.7V68.0582H182.667ZM180.913 75.9587C179.818 75.9587 179.184 75.1376 179.184 73.8436C179.184 72.5497 179.818 71.7285 180.913 71.7285C182.008 71.7285 182.804 72.5372 182.804 73.7814C182.804 75.15 182.008 75.9587 180.913 75.9587Z" fill="#74777D"/>
<path d="M24.0542 58.062L26.5426 60.5503L32.3488 54.7441" stroke="#B8F7A8" stroke-width="1.24419"/>
</svg>
