<svg width="359" height="102" viewBox="0 0 359 102" fill="none" xmlns="http://www.w3.org/2000/svg">
<rect width="358.326" height="101.194" rx="8.29457" fill="#171717"/>
<path d="M25.985 25.291H24.5359L26.6213 28.6843L24.5093 32.0775H25.9585L27.4828 29.5414L29.0116 32.0775H30.4563L28.3223 28.6843L30.4387 25.291H28.9939L27.4828 27.9332L25.985 25.291Z" fill="#B85E5D"/>
<path d="M39.6829 31.1195V27.9717H43.2288V27.0137H39.6829V24.3262H43.8509V23.3682H38.6253V32.0775H43.9753V31.1195H39.6829ZM49.3795 26.1054C48.6205 26.1054 48.1104 26.4787 47.762 27.0012L47.2768 26.2298H45.6594V27.163H46.6423V31.1444H45.5349V32.0775H48.8818V31.1444H47.6749V29.4398C47.6749 28.4196 47.8989 27.0386 49.2799 27.0386C49.9394 27.0386 50.2006 27.3496 50.4992 28.1086L51.3826 27.698C50.9596 26.5533 50.2255 26.1054 49.3795 26.1054ZM56.4757 26.1054C55.7168 26.1054 55.2066 26.4787 54.8583 27.0012L54.373 26.2298H52.7556V27.163H53.7385V31.1444H52.6312V32.0775H55.978V31.1444H54.7712V29.4398C54.7712 28.4196 54.9951 27.0386 56.3762 27.0386C57.0356 27.0386 57.2969 27.3496 57.5955 28.1086L58.4788 27.698C58.0558 26.5533 57.3218 26.1054 56.4757 26.1054ZM62.589 32.2019C64.5549 32.2019 65.3636 30.6467 65.3636 29.0915C65.3636 27.6607 64.5549 26.1054 62.589 26.1054C60.6232 26.1054 59.8145 27.6607 59.8145 29.0915C59.8145 30.6467 60.6232 32.2019 62.589 32.2019ZM62.589 31.2688C61.4693 31.2688 60.8472 30.4601 60.8472 29.0915C60.8472 27.8473 61.4693 27.0386 62.589 27.0386C63.7088 27.0386 64.3309 27.8473 64.3309 29.0915C64.3309 30.4601 63.7088 31.2688 62.589 31.2688ZM70.6682 26.1054C69.9092 26.1054 69.3991 26.4787 69.0507 27.0012L68.5655 26.2298H66.9481V27.163H67.931V31.1444H66.8236V32.0775H70.1705V31.1444H68.9636V29.4398C68.9636 28.4196 69.1876 27.0386 70.5686 27.0386C71.2281 27.0386 71.4893 27.3496 71.7879 28.1086L72.6713 27.698C72.2483 26.5533 71.5142 26.1054 70.6682 26.1054ZM84.7238 24.1769C85.5947 24.1769 85.856 24.5626 86.1422 25.1598L87.0131 24.7244C86.615 23.6419 85.6694 23.2438 84.7487 23.2438C83.4547 23.2438 82.5589 24.0525 82.5589 25.3838V26.2298H80.9415V27.163H82.5589V32.0775H83.5916V27.163H86.0426V26.2298H83.5916V25.5207C83.5916 24.7741 83.8155 24.1769 84.7238 24.1769ZM90.974 32.2019C92.9398 32.2019 93.7485 30.6467 93.7485 29.0915C93.7485 27.6607 92.9398 26.1054 90.974 26.1054C89.0082 26.1054 88.1994 27.6607 88.1994 29.0915C88.1994 30.6467 89.0082 32.2019 90.974 32.2019ZM90.974 31.2688C89.8542 31.2688 89.2321 30.4601 89.2321 29.0915C89.2321 27.8473 89.8542 27.0386 90.974 27.0386C92.0937 27.0386 92.7158 27.8473 92.7158 29.0915C92.7158 30.4601 92.0937 31.2688 90.974 31.2688ZM99.5632 26.2298V28.88C99.5632 29.7633 99.4637 31.2688 97.9458 31.2688C96.8509 31.2688 96.6021 30.4725 96.6021 29.7882V26.2298H95.5818L95.5694 29.7882C95.5694 30.9453 96.2164 32.2019 97.7343 32.2019C98.4186 32.2019 99.0407 31.9407 99.4637 31.3434L99.924 32.0775H100.559V26.2298H99.5632ZM105.477 26.1054C104.806 26.1054 104.196 26.3667 103.773 26.9639L103.313 26.2298H102.678V32.0775H103.673V29.4274C103.673 28.5316 103.773 27.0386 105.291 27.0386C106.635 27.0386 106.635 28.1957 106.635 28.5191V28.7929L106.622 32.0775H107.655L107.667 28.5191C107.667 27.0883 106.796 26.1054 105.477 26.1054ZM114.005 23.3682L114.042 26.9764C113.656 26.4662 113.059 26.1054 112.163 26.1054C110.247 26.1054 109.488 27.7726 109.488 29.1537C109.488 30.5472 110.247 32.2019 112.163 32.2019C113.009 32.2019 113.594 31.8784 113.98 31.3932L114.403 32.0775H115.037V23.3682H114.005ZM112.25 31.2688C111.155 31.2688 110.521 30.4476 110.521 29.1537C110.521 27.8597 111.155 27.0386 112.25 27.0386C113.345 27.0386 114.141 27.8473 114.141 29.0915C114.141 30.4601 113.345 31.2688 112.25 31.2688ZM127.09 23.3682H125.646V24.8115H127.09V23.3682ZM126.978 31.1444L126.965 26.2298H123.954V27.163H125.933V31.1444H123.706V32.0775H129.205V31.1444H126.978ZM133.862 26.1054C133.191 26.1054 132.581 26.3667 132.158 26.9639L131.698 26.2298H131.063V32.0775H132.058V29.4274C132.058 28.5316 132.158 27.0386 133.676 27.0386C135.02 27.0386 135.02 28.1957 135.02 28.5191V28.7929L135.007 32.0775H136.04L136.052 28.5191C136.052 27.0883 135.181 26.1054 133.862 26.1054ZM147.943 31.2688C146.848 31.2688 146.102 30.4476 146.102 29.1537C146.102 27.8597 146.848 27.0386 147.943 27.0386C148.839 27.0386 149.262 27.5238 149.523 28.2454L150.419 27.7975C150.046 26.9017 149.374 26.1054 147.943 26.1054C145.965 26.1054 145.069 27.6855 145.069 29.1537C145.069 30.6218 145.965 32.2019 147.943 32.2019C149.386 32.2019 150.033 31.4057 150.419 30.5098L149.523 30.0619C149.262 30.7836 148.839 31.2688 147.943 31.2688ZM154.84 32.2019C156.806 32.2019 157.615 30.6467 157.615 29.0915C157.615 27.6607 156.806 26.1054 154.84 26.1054C152.874 26.1054 152.066 27.6607 152.066 29.0915C152.066 30.6467 152.874 32.2019 154.84 32.2019ZM154.84 31.2688C153.72 31.2688 153.098 30.4601 153.098 29.0915C153.098 27.8473 153.72 27.0386 154.84 27.0386C155.96 27.0386 156.582 27.8473 156.582 29.0915C156.582 30.4601 155.96 31.2688 154.84 31.2688ZM162.247 26.1054C161.576 26.1054 160.966 26.3667 160.543 26.9639L160.082 26.2298H159.448V32.0775H160.443V29.4274C160.443 28.5316 160.543 27.0386 162.061 27.0386C163.404 27.0386 163.404 28.1957 163.404 28.5191V28.7929L163.392 32.0775H164.425L164.437 28.5191C164.437 27.0883 163.566 26.1054 162.247 26.1054ZM170.911 30.1615C170.662 30.7836 170.426 31.2688 169.617 31.2688C168.473 31.2688 168.473 30.2734 168.473 29.7882V27.163H171.496V26.2298H168.473V24.1396H167.44V26.2298H165.872V27.163H167.44V29.95C167.44 31.3683 168.236 32.2019 169.605 32.2019C170.737 32.2019 171.421 31.6296 171.782 30.5969L170.911 30.1615ZM177.112 26.1054C176.353 26.1054 175.843 26.4787 175.494 27.0012L175.009 26.2298H173.392V27.163H174.374V31.1444H173.267V32.0775H176.614V31.1444H175.407V29.4398C175.407 28.4196 175.631 27.0386 177.012 27.0386C177.672 27.0386 177.933 27.3496 178.231 28.1086L179.115 27.698C178.692 26.5533 177.958 26.1054 177.112 26.1054ZM185.39 31.1568V28.1832C185.39 26.9266 184.469 26.1054 183.101 26.1054C182.167 26.1054 181.185 26.4911 180.687 27.698L181.558 28.1459C181.807 27.474 182.267 27.0386 183.076 27.0386C183.984 27.0386 184.357 27.586 184.357 28.1334V28.1708C184.357 29.502 180.401 27.9219 180.401 30.4103C180.401 31.5674 181.247 32.2019 182.503 32.2019C183.337 32.2019 183.984 31.9158 184.37 31.3559L184.743 32.0775H186.273V31.1568H185.39ZM182.541 31.2688C182.08 31.2688 181.433 31.1817 181.433 30.4476C181.433 29.2283 183.362 29.7011 184.357 29.191V29.95C184.357 30.4476 183.959 31.2688 182.541 31.2688ZM190.52 31.2688C189.425 31.2688 188.679 30.4476 188.679 29.1537C188.679 27.8597 189.425 27.0386 190.52 27.0386C191.416 27.0386 191.839 27.5238 192.1 28.2454L192.996 27.7975C192.623 26.9017 191.951 26.1054 190.52 26.1054C188.542 26.1054 187.646 27.6855 187.646 29.1537C187.646 30.6218 188.542 32.2019 190.52 32.2019C191.964 32.2019 192.611 31.4057 192.996 30.5098L192.1 30.0619C191.839 30.7836 191.416 31.2688 190.52 31.2688ZM199.296 30.1615C199.047 30.7836 198.811 31.2688 198.002 31.2688C196.858 31.2688 196.858 30.2734 196.858 29.7882V27.163H199.881V26.2298H196.858V24.1396H195.825V26.2298H194.257V27.163H195.825V29.95C195.825 31.3683 196.621 32.2019 197.99 32.2019C199.122 32.2019 199.806 31.6296 200.167 30.5969L199.296 30.1615Z" fill="#74777D"/>
<path d="M30.1508 61.7675H31.2705L28.2472 53.0582H27.4633L24.4275 61.7675H25.5473L26.4182 59.1422H29.2798L30.1508 61.7675ZM26.7293 58.1966L27.849 54.8L28.9688 58.1966H26.7293ZM35.2563 55.7954C34.5844 55.7954 33.9748 56.0566 33.5518 56.6539L33.0914 55.9198H32.4569V61.7675H33.4522V59.1173C33.4522 58.2215 33.5518 56.7285 35.0697 56.7285C36.4134 56.7285 36.4134 57.8856 36.4134 58.2091V58.4828L36.401 61.7675H37.4336L37.4461 58.2091C37.4461 56.7783 36.5751 55.7954 35.2563 55.7954ZM44.2064 60.8468V57.8732C44.2064 56.6165 43.2857 55.7954 41.9171 55.7954C40.9839 55.7954 40.001 56.1811 39.5034 57.3879L40.3743 57.8358C40.6231 57.164 41.0835 56.7285 41.8922 56.7285C42.8005 56.7285 43.1737 57.2759 43.1737 57.8234V57.8607C43.1737 59.192 39.2172 57.6119 39.2172 60.1002C39.2172 61.2573 40.0632 61.8919 41.3199 61.8919C42.1535 61.8919 42.8005 61.6057 43.1861 61.0458L43.5594 61.7675H45.0898V60.8468H44.2064ZM41.3572 60.9587C40.8968 60.9587 40.2499 60.8716 40.2499 60.1376C40.2499 58.9183 42.1784 59.3911 43.1737 58.8809V59.6399C43.1737 60.1376 42.7756 60.9587 41.3572 60.9587ZM49.6478 60.8343L49.6354 53.9913H49.6478V53.0582H46.8858V53.9913H48.6152L48.6276 60.8343H46.5125V61.7675H51.763V60.8343H49.6478ZM58.1873 55.9198L56.2091 60.6726L54.3179 55.9198H53.1359L55.6368 61.6804L54.4423 64.6291H55.5372L59.2947 55.9198H58.1873ZM60.7672 60.2993C61.128 61.2573 62.0238 61.8919 63.3178 61.8919C64.6864 61.8919 65.719 61.3818 65.719 60.1251C65.719 58.7316 64.4126 58.5201 63.3302 58.3086C62.3971 58.122 62.1482 57.9851 62.1482 57.5372C62.1482 56.94 62.6086 56.7285 63.2556 56.7285C64.2633 56.7285 64.5868 57.2386 64.8357 57.8358L65.7066 57.3879C65.3582 56.4299 64.5371 55.7954 63.2804 55.7954C62.086 55.7954 61.1156 56.3801 61.1156 57.5372C61.1156 58.769 62.2229 59.0551 63.3178 59.2666C64.2011 59.4408 64.6864 59.4906 64.6864 60.1251C64.6864 60.8219 64.114 60.9587 63.4546 60.9587C62.2851 60.9587 61.9492 60.5357 61.6381 59.8514L60.7672 60.2993ZM72.3798 55.9198L70.4016 60.6726L68.5104 55.9198H67.3284L69.8292 61.6804L68.6348 64.6291H69.7297L73.4871 55.9198H72.3798ZM74.9596 60.2993C75.3205 61.2573 76.2163 61.8919 77.5102 61.8919C78.8788 61.8919 79.9115 61.3818 79.9115 60.1251C79.9115 58.7316 78.6051 58.5201 77.5227 58.3086C76.5895 58.122 76.3407 57.9851 76.3407 57.5372C76.3407 56.94 76.801 56.7285 77.448 56.7285C78.4558 56.7285 78.7793 57.2386 79.0281 57.8358L79.8991 57.3879C79.5507 56.4299 78.7295 55.7954 77.4729 55.7954C76.2785 55.7954 75.308 56.3801 75.308 57.5372C75.308 58.769 76.4153 59.0551 77.5102 59.2666C78.3936 59.4408 78.8788 59.4906 78.8788 60.1251C78.8788 60.8219 78.3065 60.9587 77.6471 60.9587C76.4776 60.9587 76.1416 60.5357 75.8306 59.8514L74.9596 60.2993ZM91.7773 55.7954C89.6871 55.7954 88.9033 57.363 88.9033 58.8312C88.9033 60.3118 89.712 61.8919 91.8396 61.8919C93.2579 61.8919 93.992 61.1827 94.3653 60.2993L93.4943 59.8514C93.2455 60.6104 92.7105 60.9587 91.8769 60.9587C90.6825 60.9587 90.0355 60.2495 89.9484 59.1049L94.5146 59.1173L94.527 58.8436C94.6017 57.2759 93.8178 55.7954 91.7773 55.7954ZM91.8022 56.7285C92.7354 56.7285 93.3699 57.1889 93.4446 58.2091L89.9982 58.1966C90.1723 57.2884 90.7696 56.7285 91.8022 56.7285ZM99.7943 55.7954C99.0353 55.7954 98.5252 56.1686 98.1768 56.6912L97.6916 55.9198H96.0742V56.8529H97.0571V60.8343H95.9497V61.7675H99.2966V60.8343H98.0897V59.1298C98.0897 58.1095 98.3137 56.7285 99.6947 56.7285C100.354 56.7285 100.615 57.0395 100.914 57.7985L101.797 57.3879C101.374 56.2433 100.64 55.7954 99.7943 55.7954ZM106.891 55.7954C106.132 55.7954 105.621 56.1686 105.273 56.6912L104.788 55.9198H103.17V56.8529H104.153V60.8343H103.046V61.7675H106.393V60.8343H105.186V59.1298C105.186 58.1095 105.41 56.7285 106.791 56.7285C107.45 56.7285 107.712 57.0395 108.01 57.7985L108.894 57.3879C108.471 56.2433 107.737 55.7954 106.891 55.7954ZM113.004 61.8919C114.97 61.8919 115.778 60.3366 115.778 58.7814C115.778 57.3506 114.97 55.7954 113.004 55.7954C111.038 55.7954 110.229 57.3506 110.229 58.7814C110.229 60.3366 111.038 61.8919 113.004 61.8919ZM113.004 60.9587C111.884 60.9587 111.262 60.15 111.262 58.7814C111.262 57.5372 111.884 56.7285 113.004 56.7285C114.124 56.7285 114.746 57.5372 114.746 58.7814C114.746 60.15 114.124 60.9587 113.004 60.9587ZM121.083 55.7954C120.324 55.7954 119.814 56.1686 119.466 56.6912L118.98 55.9198H117.363V56.8529H118.346V60.8343H117.238V61.7675H120.585V60.8343H119.378V59.1298C119.378 58.1095 119.602 56.7285 120.983 56.7285C121.643 56.7285 121.904 57.0395 122.203 57.7985L123.086 57.3879C122.663 56.2433 121.929 55.7954 121.083 55.7954ZM126.624 56.2184V57.2511H127.657V56.2184H126.624ZM126.624 59.8639V60.8965H127.657V59.8639H126.624ZM141.488 55.7954C140.642 55.7954 140.058 56.1189 139.672 56.6041L139.249 55.9198H138.614V64.6291H139.647L139.61 61.0209C139.995 61.5311 140.593 61.8919 141.488 61.8919C143.404 61.8919 144.163 60.2247 144.163 58.8436C144.163 57.4501 143.404 55.7954 141.488 55.7954ZM141.401 60.9587C140.306 60.9587 139.51 60.15 139.51 58.9058C139.51 57.5372 140.306 56.7285 141.401 56.7285C142.496 56.7285 143.131 57.5497 143.131 58.8436C143.131 60.1376 142.496 60.9587 141.401 60.9587ZM149.978 55.9198V58.5699C149.978 59.4533 149.879 60.9587 148.361 60.9587C147.266 60.9587 147.017 60.1625 147.017 59.4782V55.9198H145.997L145.984 59.4782C145.984 60.6352 146.631 61.8919 148.149 61.8919C148.833 61.8919 149.455 61.6306 149.879 61.0334L150.339 61.7675H150.973V55.9198H149.978ZM155.681 55.7954C154.785 55.7954 154.188 56.1562 153.802 56.6663L153.839 53.0582H152.807V61.7675H153.441L153.864 61.0832C154.25 61.5684 154.835 61.8919 155.681 61.8919C157.597 61.8919 158.356 60.2371 158.356 58.8436C158.356 57.4626 157.597 55.7954 155.681 55.7954ZM155.594 60.9587C154.499 60.9587 153.703 60.15 153.703 58.7814C153.703 57.5372 154.499 56.7285 155.594 56.7285C156.689 56.7285 157.323 57.5497 157.323 58.8436C157.323 60.1376 156.689 60.9587 155.594 60.9587ZM163.188 60.8343L163.175 53.9913H163.188V53.0582H160.426V53.9913H162.155L162.167 60.8343H160.052V61.7675H165.303V60.8343H163.188ZM170.408 53.0582H168.965V54.5014H170.408V53.0582ZM170.296 60.8343L170.284 55.9198H167.273V56.8529H169.251V60.8343H167.024V61.7675H172.523V60.8343H170.296ZM177.069 60.9587C175.974 60.9587 175.228 60.1376 175.228 58.8436C175.228 57.5497 175.974 56.7285 177.069 56.7285C177.965 56.7285 178.388 57.2137 178.649 57.9354L179.545 57.4875C179.172 56.5916 178.5 55.7954 177.069 55.7954C175.091 55.7954 174.195 57.3755 174.195 58.8436C174.195 60.3118 175.091 61.8919 177.069 61.8919C178.512 61.8919 179.159 61.0956 179.545 60.1998L178.649 59.7519C178.388 60.4735 177.965 60.9587 177.069 60.9587ZM191.908 53.8669C192.779 53.8669 193.041 54.2526 193.327 54.8498L194.198 54.4143C193.8 53.3319 192.854 52.9337 191.933 52.9337C190.639 52.9337 189.744 53.7425 189.744 55.0737V55.9198H188.126V56.8529H189.744V61.7675H190.776V56.8529H193.227V55.9198H190.776V55.2106C190.776 54.4641 191 53.8669 191.908 53.8669ZM199.652 55.9198V58.5699C199.652 59.4533 199.552 60.9587 198.034 60.9587C196.939 60.9587 196.691 60.1625 196.691 59.4782V55.9198H195.67L195.658 59.4782C195.658 60.6352 196.305 61.8919 197.823 61.8919C198.507 61.8919 199.129 61.6306 199.552 61.0334L200.012 61.7675H200.647V55.9198H199.652ZM205.566 55.7954C204.894 55.7954 204.284 56.0566 203.861 56.6539L203.401 55.9198H202.767V61.7675H203.762V59.1173C203.762 58.2215 203.861 56.7285 205.379 56.7285C206.723 56.7285 206.723 57.8856 206.723 58.2091V58.4828L206.711 61.7675H207.743L207.756 58.2091C207.756 56.7783 206.885 55.7954 205.566 55.7954ZM212.55 60.9587C211.455 60.9587 210.709 60.1376 210.709 58.8436C210.709 57.5497 211.455 56.7285 212.55 56.7285C213.446 56.7285 213.869 57.2137 214.13 57.9354L215.026 57.4875C214.653 56.5916 213.981 55.7954 212.55 55.7954C210.572 55.7954 209.676 57.3755 209.676 58.8436C209.676 60.3118 210.572 61.8919 212.55 61.8919C213.993 61.8919 214.64 61.0956 215.026 60.1998L214.13 59.7519C213.869 60.4735 213.446 60.9587 212.55 60.9587ZM221.326 59.8514C221.077 60.4735 220.841 60.9587 220.032 60.9587C218.887 60.9587 218.887 59.9634 218.887 59.4782V56.8529H221.911V55.9198H218.887V53.8295H217.855V55.9198H216.287V56.8529H217.855V59.6399C217.855 61.0583 218.651 61.8919 220.02 61.8919C221.152 61.8919 221.836 61.3195 222.197 60.2869L221.326 59.8514ZM227.178 53.0582H225.735V54.5014H227.178V53.0582ZM227.066 60.8343L227.054 55.9198H224.043V56.8529H226.021V60.8343H223.794V61.7675H229.293V60.8343H227.066ZM233.64 61.8919C235.606 61.8919 236.414 60.3366 236.414 58.7814C236.414 57.3506 235.606 55.7954 233.64 55.7954C231.674 55.7954 230.865 57.3506 230.865 58.7814C230.865 60.3366 231.674 61.8919 233.64 61.8919ZM233.64 60.9587C232.52 60.9587 231.898 60.15 231.898 58.7814C231.898 57.5372 232.52 56.7285 233.64 56.7285C234.76 56.7285 235.382 57.5372 235.382 58.7814C235.382 60.15 234.76 60.9587 233.64 60.9587ZM241.047 55.7954C240.375 55.7954 239.766 56.0566 239.343 56.6539L238.882 55.9198H238.248V61.7675H239.243V59.1173C239.243 58.2215 239.343 56.7285 240.86 56.7285C242.204 56.7285 242.204 57.8856 242.204 58.2091V58.4828L242.192 61.7675H243.224L243.237 58.2091C243.237 56.7783 242.366 55.7954 241.047 55.7954ZM245.269 60.2993C245.63 61.2573 246.526 61.8919 247.82 61.8919C249.188 61.8919 250.221 61.3818 250.221 60.1251C250.221 58.7316 248.915 58.5201 247.832 58.3086C246.899 58.122 246.65 57.9851 246.65 57.5372C246.65 56.94 247.111 56.7285 247.758 56.7285C248.765 56.7285 249.089 57.2386 249.338 57.8358L250.209 57.3879C249.86 56.4299 249.039 55.7954 247.783 55.7954C246.588 55.7954 245.618 56.3801 245.618 57.5372C245.618 58.769 246.725 59.0551 247.82 59.2666C248.703 59.4408 249.188 59.4906 249.188 60.1251C249.188 60.8219 248.616 60.9587 247.957 60.9587C246.787 60.9587 246.451 60.5357 246.14 59.8514L245.269 60.2993ZM263.729 55.7954C262.995 55.7954 262.547 56.2308 262.286 56.7907C262.062 56.2433 261.664 55.7954 260.93 55.7954C260.358 55.7954 259.972 56.0691 259.735 56.4548L259.4 55.9198H258.765V61.7675H259.76V59.08C259.76 57.3257 260.196 56.6912 260.768 56.6912C261.44 56.6912 261.502 57.5497 261.502 58.3833L261.527 61.7675H262.535V59.1173C262.535 57.363 262.97 56.7285 263.543 56.7285C264.277 56.7285 264.277 57.7487 264.277 58.4206V61.8048H265.309V58.4206C265.309 57.6616 265.359 55.7954 263.729 55.7954ZM270.614 55.9198V58.5699C270.614 59.4533 270.515 60.9587 268.997 60.9587C267.902 60.9587 267.653 60.1625 267.653 59.4782V55.9198H266.633L266.62 59.4782C266.62 60.6352 267.267 61.8919 268.785 61.8919C269.469 61.8919 270.091 61.6306 270.515 61.0334L270.975 61.7675H271.609V55.9198H270.614ZM273.654 60.2993C274.015 61.2573 274.911 61.8919 276.205 61.8919C277.573 61.8919 278.606 61.3818 278.606 60.1251C278.606 58.7316 277.3 58.5201 276.217 58.3086C275.284 58.122 275.035 57.9851 275.035 57.5372C275.035 56.94 275.496 56.7285 276.143 56.7285C277.15 56.7285 277.474 57.2386 277.723 57.8358L278.594 57.3879C278.245 56.4299 277.424 55.7954 276.167 55.7954C274.973 55.7954 274.003 56.3801 274.003 57.5372C274.003 58.769 275.11 59.0551 276.205 59.2666C277.088 59.4408 277.573 59.4906 277.573 60.1251C277.573 60.8219 277.001 60.9587 276.342 60.9587C275.172 60.9587 274.836 60.5357 274.525 59.8514L273.654 60.2993ZM285.192 59.8514C284.943 60.4735 284.707 60.9587 283.898 60.9587C282.754 60.9587 282.754 59.9634 282.754 59.4782V56.8529H285.777V55.9198H282.754V53.8295H281.721V55.9198H280.153V56.8529H281.721V59.6399C281.721 61.0583 282.517 61.8919 283.886 61.8919C285.018 61.8919 285.702 61.3195 286.063 60.2869L285.192 59.8514ZM298.489 55.7954C297.73 55.7954 297.22 56.1686 296.871 56.6912L296.386 55.9198H294.769V56.8529H295.752V60.8343H294.644V61.7675H297.991V60.8343H296.784V59.1298C296.784 58.1095 297.008 56.7285 298.389 56.7285C299.049 56.7285 299.31 57.0395 299.609 57.7985L300.492 57.3879C300.069 56.2433 299.335 55.7954 298.489 55.7954ZM304.664 55.7954C302.574 55.7954 301.79 57.363 301.79 58.8312C301.79 60.3118 302.599 61.8919 304.727 61.8919C306.145 61.8919 306.879 61.1827 307.252 60.2993L306.381 59.8514C306.133 60.6104 305.598 60.9587 304.764 60.9587C303.569 60.9587 302.923 60.2495 302.835 59.1049L307.402 59.1173L307.414 58.8436C307.489 57.2759 306.705 55.7954 304.664 55.7954ZM304.689 56.7285C305.622 56.7285 306.257 57.1889 306.332 58.2091L302.885 58.1966C303.059 57.2884 303.657 56.7285 304.689 56.7285ZM313.577 59.8514C313.328 60.4735 313.092 60.9587 312.283 60.9587C311.139 60.9587 311.139 59.9634 311.139 59.4782V56.8529H314.162V55.9198H311.139V53.8295H310.106V55.9198H308.538V56.8529H310.106V59.6399C310.106 61.0583 310.902 61.8919 312.271 61.8919C313.403 61.8919 314.087 61.3195 314.448 60.2869L313.577 59.8514ZM320.288 55.9198V58.5699C320.288 59.4533 320.188 60.9587 318.67 60.9587C317.575 60.9587 317.327 60.1625 317.327 59.4782V55.9198H316.306L316.294 59.4782C316.294 60.6352 316.941 61.8919 318.459 61.8919C319.143 61.8919 319.765 61.6306 320.188 61.0334L320.648 61.7675H321.283V55.9198H320.288ZM326.874 55.7954C326.115 55.7954 325.605 56.1686 325.256 56.6912L324.771 55.9198H323.154V56.8529H324.137V60.8343H323.029V61.7675H326.376V60.8343H325.169V59.1298C325.169 58.1095 325.393 56.7285 326.774 56.7285C327.434 56.7285 327.695 57.0395 327.994 57.7985L328.877 57.3879C328.454 56.2433 327.72 55.7954 326.874 55.7954ZM333.298 55.7954C332.626 55.7954 332.017 56.0566 331.594 56.6539L331.133 55.9198H330.499V61.7675H331.494V59.1173C331.494 58.2215 331.594 56.7285 333.112 56.7285C334.455 56.7285 334.455 57.8856 334.455 58.2091V58.4828L334.443 61.7675H335.475L335.488 58.2091C335.488 56.7783 334.617 55.7954 333.298 55.7954ZM30.0139 75.8468V72.8732C30.0139 71.6165 29.0932 70.7954 27.7246 70.7954C26.7915 70.7954 25.8086 71.1811 25.3109 72.3879L26.1818 72.8358C26.4307 72.164 26.891 71.7285 27.6997 71.7285C28.608 71.7285 28.9812 72.2759 28.9812 72.8234V72.8607C28.9812 74.192 25.0247 72.6119 25.0247 75.1002C25.0247 76.2573 25.8708 76.8919 27.1274 76.8919C27.961 76.8919 28.608 76.6057 28.9937 76.0458L29.3669 76.7675H30.8973V75.8468H30.0139ZM27.1647 75.9587C26.7044 75.9587 26.0574 75.8716 26.0574 75.1376C26.0574 73.9183 27.9859 74.3911 28.9812 73.8809V74.6399C28.9812 75.1376 28.5831 75.9587 27.1647 75.9587ZM35.2563 70.7954C34.5844 70.7954 33.9748 71.0566 33.5518 71.6539L33.0914 70.9198H32.4569V76.7675H33.4522V74.1173C33.4522 73.2215 33.5518 71.7285 35.0697 71.7285C36.4134 71.7285 36.4134 72.8856 36.4134 73.2091V73.4828L36.401 76.7675H37.4336L37.4461 73.2091C37.4461 71.7783 36.5751 70.7954 35.2563 70.7954ZM49.1999 70.7954C47.1097 70.7954 46.3259 72.363 46.3259 73.8312C46.3259 75.3118 47.1346 76.8919 49.2622 76.8919C50.6805 76.8919 51.4146 76.1827 51.7878 75.2993L50.9169 74.8514C50.6681 75.6104 50.1331 75.9587 49.2995 75.9587C48.1051 75.9587 47.4581 75.2495 47.371 74.1049L51.9372 74.1173L51.9496 73.8436C52.0242 72.2759 51.2404 70.7954 49.1999 70.7954ZM49.2248 71.7285C50.158 71.7285 50.7925 72.1889 50.8672 73.2091L47.4208 73.1966C47.5949 72.2884 48.1922 71.7285 49.2248 71.7285ZM59.1578 70.9198H57.9385L56.2589 73.1718L54.5294 70.9198H53.3101L55.5497 73.7068L53.3101 76.7675H54.517L56.2215 74.304L57.9509 76.7675H59.1578L56.9183 73.7565L59.1578 70.9198ZM63.4297 70.7954C62.5837 70.7954 61.9989 71.1189 61.6132 71.6041L61.1902 70.9198H60.5557V79.6291H61.5883L61.551 76.0209C61.9367 76.5311 62.5339 76.8919 63.4297 76.8919C65.3458 76.8919 66.1047 75.2247 66.1047 73.8436C66.1047 72.4501 65.3458 70.7954 63.4297 70.7954ZM63.3426 75.9587C62.2478 75.9587 61.4515 75.15 61.4515 73.9058C61.4515 72.5372 62.2478 71.7285 63.3426 71.7285C64.4375 71.7285 65.0721 72.5497 65.0721 73.8436C65.0721 75.1376 64.4375 75.9587 63.3426 75.9587ZM71.4093 70.7954C70.6504 70.7954 70.1403 71.1686 69.7919 71.6912L69.3067 70.9198H67.6892V71.8529H68.6721V75.8343H67.5648V76.7675H70.9117V75.8343H69.7048V74.1298C69.7048 73.1095 69.9288 71.7285 71.3098 71.7285C71.9692 71.7285 72.2305 72.0395 72.5291 72.7985L73.4125 72.3879C72.9895 71.2433 72.2554 70.7954 71.4093 70.7954ZM77.5849 70.7954C75.4946 70.7954 74.7108 72.363 74.7108 73.8312C74.7108 75.3118 75.5195 76.8919 77.6471 76.8919C79.0655 76.8919 79.7995 76.1827 80.1728 75.2993L79.3019 74.8514C79.053 75.6104 78.518 75.9587 77.6844 75.9587C76.49 75.9587 75.843 75.2495 75.7559 74.1049L80.3221 74.1173L80.3345 73.8436C80.4092 72.2759 79.6253 70.7954 77.5849 70.7954ZM77.6098 71.7285C78.5429 71.7285 79.1774 72.1889 79.2521 73.2091L75.8057 73.1966C75.9799 72.2884 76.5771 71.7285 77.6098 71.7285ZM82.0559 75.2993C82.4167 76.2573 83.3125 76.8919 84.6065 76.8919C85.9751 76.8919 87.0077 76.3818 87.0077 75.1251C87.0077 73.7316 85.7013 73.5201 84.6189 73.3086C83.6858 73.122 83.4369 72.9851 83.4369 72.5372C83.4369 71.94 83.8973 71.7285 84.5443 71.7285C85.552 71.7285 85.8755 72.2386 86.1244 72.8358L86.9953 72.3879C86.6469 71.4299 85.8258 70.7954 84.5691 70.7954C83.3747 70.7954 82.4043 71.3801 82.4043 72.5372C82.4043 73.769 83.5116 74.0551 84.6065 74.2666C85.4898 74.4408 85.9751 74.4906 85.9751 75.1251C85.9751 75.8219 85.4027 75.9587 84.7433 75.9587C83.5738 75.9587 83.2379 75.5357 82.9268 74.8514L82.0559 75.2993ZM89.1521 75.2993C89.5129 76.2573 90.4087 76.8919 91.7027 76.8919C93.0713 76.8919 94.104 76.3818 94.104 75.1251C94.104 73.7316 92.7976 73.5201 91.7151 73.3086C90.782 73.122 90.5332 72.9851 90.5332 72.5372C90.5332 71.94 90.9935 71.7285 91.6405 71.7285C92.6483 71.7285 92.9718 72.2386 93.2206 72.8358L94.0915 72.3879C93.7432 71.4299 92.922 70.7954 91.6654 70.7954C90.471 70.7954 89.5005 71.3801 89.5005 72.5372C89.5005 73.769 90.6078 74.0551 91.7027 74.2666C92.5861 74.4408 93.0713 74.4906 93.0713 75.1251C93.0713 75.8219 92.499 75.9587 91.8396 75.9587C90.67 75.9587 90.3341 75.5357 90.023 74.8514L89.1521 75.2993ZM99.4459 68.0582H98.0027V69.5014H99.4459V68.0582ZM99.3339 75.8343L99.3215 70.9198H96.3106V71.8529H98.2888V75.8343H96.0617V76.7675H101.561V75.8343H99.3339ZM105.908 76.8919C107.873 76.8919 108.682 75.3366 108.682 73.7814C108.682 72.3506 107.873 70.7954 105.908 70.7954C103.942 70.7954 103.133 72.3506 103.133 73.7814C103.133 75.3366 103.942 76.8919 105.908 76.8919ZM105.908 75.9587C104.788 75.9587 104.166 75.15 104.166 73.7814C104.166 72.5372 104.788 71.7285 105.908 71.7285C107.027 71.7285 107.649 72.5372 107.649 73.7814C107.649 75.15 107.027 75.9587 105.908 75.9587ZM113.315 70.7954C112.643 70.7954 112.033 71.0566 111.61 71.6539L111.15 70.9198H110.515V76.7675H111.511V74.1173C111.511 73.2215 111.61 71.7285 113.128 71.7285C114.472 71.7285 114.472 72.8856 114.472 73.2091V73.4828L114.46 76.7675H115.492L115.505 73.2091C115.505 71.7783 114.634 70.7954 113.315 70.7954ZM127.196 76.8919C129.162 76.8919 129.971 75.3366 129.971 73.7814C129.971 72.3506 129.162 70.7954 127.196 70.7954C125.231 70.7954 124.422 72.3506 124.422 73.7814C124.422 75.3366 125.231 76.8919 127.196 76.8919ZM127.196 75.9587C126.077 75.9587 125.454 75.15 125.454 73.7814C125.454 72.5372 126.077 71.7285 127.196 71.7285C128.316 71.7285 128.938 72.5372 128.938 73.7814C128.938 75.15 128.316 75.9587 127.196 75.9587ZM135.139 68.8669C136.01 68.8669 136.271 69.2526 136.557 69.8498L137.428 69.4143C137.03 68.3319 136.084 67.9337 135.163 67.9337C133.87 67.9337 132.974 68.7425 132.974 70.0737V70.9198H131.356V71.8529H132.974V76.7675H134.006V71.8529H136.457V70.9198H134.006V70.2106C134.006 69.4641 134.23 68.8669 135.139 68.8669ZM150.364 74.8514C150.115 75.4735 149.879 75.9587 149.07 75.9587C147.925 75.9587 147.925 74.9634 147.925 74.4782V71.8529H150.949V70.9198H147.925V68.8295H146.892V70.9198H145.325V71.8529H146.892V74.6399C146.892 76.0583 147.689 76.8919 149.057 76.8919C150.19 76.8919 150.874 76.3195 151.235 75.2869L150.364 74.8514ZM157.535 70.9198L155.556 75.6726L153.665 70.9198H152.483L154.984 76.6804L153.79 79.6291H154.885L158.642 70.9198H157.535ZM162.777 70.7954C161.931 70.7954 161.346 71.1189 160.961 71.6041L160.537 70.9198H159.903V79.6291H160.936L160.898 76.0209C161.284 76.5311 161.881 76.8919 162.777 76.8919C164.693 76.8919 165.452 75.2247 165.452 73.8436C165.452 72.4501 164.693 70.7954 162.777 70.7954ZM162.69 75.9587C161.595 75.9587 160.799 75.15 160.799 73.9058C160.799 72.5372 161.595 71.7285 162.69 71.7285C163.785 71.7285 164.419 72.5497 164.419 73.8436C164.419 75.1376 163.785 75.9587 162.69 75.9587ZM169.836 70.7954C167.746 70.7954 166.962 72.363 166.962 73.8312C166.962 75.3118 167.771 76.8919 169.898 76.8919C171.317 76.8919 172.051 76.1827 172.424 75.2993L171.553 74.8514C171.304 75.6104 170.769 75.9587 169.935 75.9587C168.741 75.9587 168.094 75.2495 168.007 74.1049L172.573 74.1173L172.586 73.8436C172.66 72.2759 171.876 70.7954 169.836 70.7954ZM169.861 71.7285C170.794 71.7285 171.428 72.1889 171.503 73.2091L168.057 73.1966C168.231 72.2884 168.828 71.7285 169.861 71.7285ZM184.651 67.772L184.004 67.0628C182.909 67.6725 182.672 68.9913 183.145 70.2852H184.588V69.2526H183.879C183.879 68.6927 184.116 68.195 184.651 67.772ZM192.045 70.7954C191.286 70.7954 190.776 71.1686 190.428 71.6912L189.943 70.9198H188.325V71.8529H189.308V75.8343H188.201V76.7675H191.548V75.8343H190.341V74.1298C190.341 73.1095 190.565 71.7285 191.946 71.7285C192.605 71.7285 192.866 72.0395 193.165 72.7985L194.048 72.3879C193.625 71.2433 192.891 70.7954 192.045 70.7954ZM198.221 70.7954C196.131 70.7954 195.347 72.363 195.347 73.8312C195.347 75.3118 196.156 76.8919 198.283 76.8919C199.701 76.8919 200.436 76.1827 200.809 75.2993L199.938 74.8514C199.689 75.6104 199.154 75.9587 198.32 75.9587C197.126 75.9587 196.479 75.2495 196.392 74.1049L200.958 74.1173L200.971 73.8436C201.045 72.2759 200.261 70.7954 198.221 70.7954ZM198.246 71.7285C199.179 71.7285 199.813 72.1889 199.888 73.2091L196.442 73.1966C196.616 72.2884 197.213 71.7285 198.246 71.7285ZM202.692 75.2993C203.053 76.2573 203.949 76.8919 205.242 76.8919C206.611 76.8919 207.644 76.3818 207.644 75.1251C207.644 73.7316 206.337 73.5201 205.255 73.3086C204.322 73.122 204.073 72.9851 204.073 72.5372C204.073 71.94 204.533 71.7285 205.18 71.7285C206.188 71.7285 206.512 72.2386 206.76 72.8358L207.631 72.3879C207.283 71.4299 206.462 70.7954 205.205 70.7954C204.011 70.7954 203.04 71.3801 203.04 72.5372C203.04 73.769 204.148 74.0551 205.242 74.2666C206.126 74.4408 206.611 74.4906 206.611 75.1251C206.611 75.8219 206.039 75.9587 205.379 75.9587C204.21 75.9587 203.874 75.5357 203.563 74.8514L202.692 75.2993ZM212.451 70.7954C211.605 70.7954 211.02 71.1189 210.634 71.6041L210.211 70.9198H209.577V79.6291H210.609L210.572 76.0209C210.958 76.5311 211.555 76.8919 212.451 76.8919C214.367 76.8919 215.126 75.2247 215.126 73.8436C215.126 72.4501 214.367 70.7954 212.451 70.7954ZM212.364 75.9587C211.269 75.9587 210.472 75.15 210.472 73.9058C210.472 72.5372 211.269 71.7285 212.364 71.7285C213.458 71.7285 214.093 72.5497 214.093 73.8436C214.093 75.1376 213.458 75.9587 212.364 75.9587ZM219.447 76.8919C221.413 76.8919 222.222 75.3366 222.222 73.7814C222.222 72.3506 221.413 70.7954 219.447 70.7954C217.482 70.7954 216.673 72.3506 216.673 73.7814C216.673 75.3366 217.482 76.8919 219.447 76.8919ZM219.447 75.9587C218.328 75.9587 217.706 75.15 217.706 73.7814C217.706 72.5372 218.328 71.7285 219.447 71.7285C220.567 71.7285 221.189 72.5372 221.189 73.7814C221.189 75.15 220.567 75.9587 219.447 75.9587ZM226.855 70.7954C226.183 70.7954 225.573 71.0566 225.15 71.6539L224.69 70.9198H224.055V76.7675H225.051V74.1173C225.051 73.2215 225.15 71.7285 226.668 71.7285C228.012 71.7285 228.012 72.8856 228.012 73.2091V73.4828L227.999 76.7675H229.032L229.044 73.2091C229.044 71.7783 228.173 70.7954 226.855 70.7954ZM231.077 75.2993C231.438 76.2573 232.333 76.8919 233.627 76.8919C234.996 76.8919 236.029 76.3818 236.029 75.1251C236.029 73.7316 234.722 73.5201 233.64 73.3086C232.707 73.122 232.458 72.9851 232.458 72.5372C232.458 71.94 232.918 71.7285 233.565 71.7285C234.573 71.7285 234.896 72.2386 235.145 72.8358L236.016 72.3879C235.668 71.4299 234.847 70.7954 233.59 70.7954C232.396 70.7954 231.425 71.3801 231.425 72.5372C231.425 73.769 232.533 74.0551 233.627 74.2666C234.511 74.4408 234.996 74.4906 234.996 75.1251C234.996 75.8219 234.424 75.9587 233.764 75.9587C232.595 75.9587 232.259 75.5357 231.948 74.8514L231.077 75.2993ZM240.798 70.7954C238.708 70.7954 237.924 72.363 237.924 73.8312C237.924 75.3118 238.733 76.8919 240.86 76.8919C242.279 76.8919 243.013 76.1827 243.386 75.2993L242.515 74.8514C242.266 75.6104 241.731 75.9587 240.898 75.9587C239.703 75.9587 239.056 75.2495 238.969 74.1049L243.535 74.1173L243.548 73.8436C243.623 72.2759 242.839 70.7954 240.798 70.7954ZM240.823 71.7285C241.756 71.7285 242.391 72.1889 242.465 73.2091L239.019 73.1966C239.193 72.2884 239.79 71.7285 240.823 71.7285ZM248.517 67.0379H247.073V68.0706H247.783C247.783 68.6305 247.546 69.1282 247.011 69.5512L247.658 70.2604C248.753 69.6507 248.989 68.3319 248.517 67.0379Z" fill="#B85E5D"/>
</svg>
