<svg width="251" height="169" viewBox="0 0 251 169" fill="none" xmlns="http://www.w3.org/2000/svg">
<g clip-path="url(#clip0_511_3259)">
<path d="M59.2084 4.39578V3.37085H65.2019V4.39578H59.2084ZM59.2084 7.63001V6.60508H65.2019V7.63001H59.2084Z" fill="#CFC9C2" style="fill:#CFC9C2;fill:color(display-p3 0.8118 0.7882 0.7608);fill-opacity:1;"/>
<path d="M68.176 9.56589L68.5278 7.27687H67.2224V6.33165H68.6641L68.9251 4.53233H67.5289V3.58711H69.0614L69.4132 1.2981H70.3441L69.9922 3.58711H71.8538L72.2057 1.2981H73.1251L72.7732 3.58711H74.0786V4.53233H72.637L72.3759 6.33165H73.7721V7.27687H72.2284L71.8765 9.56589H70.9457L71.2976 7.27687H69.4359L69.0841 9.56589H68.1532H68.176ZM69.5949 6.32027H71.4565L71.7176 4.52094H69.8559L69.5949 6.32027Z" fill="#CFC9C2" style="fill:#CFC9C2;fill:color(display-p3 0.8118 0.7882 0.7608);fill-opacity:1;"/>
<path d="M76.6213 9.56589L76.9732 7.27687H75.6678V6.33165H77.1094L77.3705 4.53233H75.9743V3.58711H77.518L77.8699 1.2981H78.7894L78.4375 3.58711H80.2991L80.651 1.2981H81.5818L81.2299 3.58711H82.5353V4.53233H81.0937L80.8326 6.33165H82.2402V7.27687H80.6964L80.3445 9.56589H79.4251L79.777 7.27687H77.9153L77.5635 9.56589H76.644H76.6213ZM78.0402 6.32027H79.9018L80.1629 4.52094H78.3013L78.0402 6.32027Z" fill="#CFC9C2" style="fill:#CFC9C2;fill:color(display-p3 0.8118 0.7882 0.7608);fill-opacity:1;"/>
<path d="M85.0667 9.56589L85.4186 7.27687H84.1132V6.33165H85.5548L85.8159 4.53233H84.4196V3.58711H85.9634L86.3153 1.2981H87.2348L86.8829 3.58711H88.7445L89.0964 1.2981H90.0272L89.6753 3.58711H90.9807V4.53233H89.5391L89.278 6.33165H90.6856V7.27687H89.1418L88.7899 9.56589H87.8704L88.2223 7.27687H86.3607L86.0088 9.56589H85.0894H85.0667ZM86.4856 6.32027H88.3472L88.6083 4.52094H86.7467L86.4856 6.32027Z" fill="#CFC9C2" style="fill:#CFC9C2;fill:color(display-p3 0.8118 0.7882 0.7608);fill-opacity:1;"/>
<path d="M93.512 9.56589L93.8639 7.27687H92.5585V6.33165H94.0001L94.2612 4.53233H92.865V3.58711H94.4088L94.7607 1.2981H95.6801L95.3283 3.58711H97.1899L97.5418 1.2981H98.4726L98.1207 3.58711H99.4261V4.53233H97.9845L97.7234 6.33165H99.1309V7.27687H97.5872L97.2353 9.56589H96.3158L96.6677 7.27687H94.8061L94.4542 9.56589H93.5347H93.512ZM94.9196 6.32027H96.7812L97.0423 4.52094H95.1807L94.9196 6.32027Z" fill="#CFC9C2" style="fill:#CFC9C2;fill:color(display-p3 0.8118 0.7882 0.7608);fill-opacity:1;"/>
<path d="M103.581 8.78022C103.581 8.27914 103.944 7.9375 104.443 7.9375C104.943 7.9375 105.306 8.27914 105.306 8.78022C105.306 9.2813 104.943 9.62294 104.443 9.62294C103.944 9.62294 103.581 9.2813 103.581 8.78022Z" fill="#CFC9C2" style="fill:#CFC9C2;fill:color(display-p3 0.8118 0.7882 0.7608);fill-opacity:1;"/>
<path d="M212.712 5.61435L211.952 4.94245L213.507 3.15452L211.27 2.32318L211.679 1.36658L213.768 2.33457L213.734 0H214.71L214.664 2.34596L216.776 1.36658L217.173 2.33457L214.948 3.1659L216.469 4.94245L215.709 5.61435L214.199 3.68976L212.701 5.61435H212.712Z" fill="#CFC9C2" style="fill:#CFC9C2;fill:color(display-p3 0.8118 0.7882 0.7608);fill-opacity:1;"/>
<path d="M220.193 9.56589L220.544 7.27687H219.239V6.33165H220.681L220.942 4.53233H219.546V3.58711H221.089L221.441 1.2981H222.361L222.009 3.58711H223.87L224.222 1.2981H225.153L224.801 3.58711H226.107V4.53233H224.665L224.404 6.33165H225.811V7.27687H224.268L223.916 9.56589H222.996L223.348 7.27687H221.487L221.135 9.56589H220.215H220.193ZM221.6 6.32027H223.462L223.723 4.52094H221.861L221.6 6.32027Z" fill="#CFC9C2" style="fill:#CFC9C2;fill:color(display-p3 0.8118 0.7882 0.7608);fill-opacity:1;"/>
<path d="M228.638 9.56589L228.99 7.27687H227.684V6.33165H229.126L229.387 4.53233H227.991V3.58711H229.535L229.887 1.2981H230.806L230.454 3.58711H232.316L232.668 1.2981H233.598L233.247 3.58711H234.552V4.53233H233.11L232.849 6.33165H234.257V7.27687H232.713L232.361 9.56589H231.442L231.794 7.27687H229.932L229.58 9.56589H228.661H228.638ZM230.046 6.32027H231.907L232.168 4.52094H230.307L230.046 6.32027Z" fill="#CFC9C2" style="fill:#CFC9C2;fill:color(display-p3 0.8118 0.7882 0.7608);fill-opacity:1;"/>
<path d="M237.083 9.56589L237.435 7.27687H236.13V6.33165H237.571L237.833 4.53233H236.436V3.58711H237.969L238.321 1.2981H239.251L238.9 3.58711H240.761L241.113 1.2981H242.032L241.681 3.58711H242.986V4.53233H241.544L241.283 6.33165H242.68V7.27687H241.136L240.784 9.56589H239.853L240.205 7.27687H238.343L237.991 9.56589H237.061H237.083ZM238.502 6.32027H240.364L240.625 4.52094H238.763L238.502 6.32027Z" fill="#CFC9C2" style="fill:#CFC9C2;fill:color(display-p3 0.8118 0.7882 0.7608);fill-opacity:1;"/>
<path d="M246.494 5.61435L245.733 4.94245L247.288 3.15452L245.052 2.32318L245.461 1.36658L247.549 2.33457L247.515 0H248.491L248.446 2.34596L250.557 1.36658L250.955 2.33457L248.73 3.1659L250.251 4.94245L249.49 5.61435L247.981 3.68976L246.482 5.61435H246.494Z" fill="#CFC9C2" style="fill:#CFC9C2;fill:color(display-p3 0.8118 0.7882 0.7608);fill-opacity:1;"/>
<path d="M52.9084 19.5991C52.9084 19.098 53.2717 18.7563 53.7711 18.7563C54.2706 18.7563 54.6338 19.098 54.6338 19.5991C54.6338 20.1001 54.2706 20.4418 53.7711 20.4418C53.2717 20.4418 52.9084 20.1001 52.9084 19.5991ZM52.9084 24.7237C52.9084 24.2227 53.2717 23.881 53.7711 23.881C54.2706 23.881 54.6338 24.2227 54.6338 24.7237C54.6338 25.2248 54.2706 25.5665 53.7711 25.5665C53.2717 25.5665 52.9084 25.2248 52.9084 24.7237Z" fill="#CFC9C2" style="fill:#CFC9C2;fill:color(display-p3 0.8118 0.7882 0.7608);fill-opacity:1;"/>
<path d="M59.7306 25.5092L60.0825 23.2202H58.7771V22.275H60.2187L60.4798 20.4757H59.0836V19.5305H60.6273L60.9792 17.2415H61.8987L61.5468 19.5305H63.4084L63.7603 17.2415H64.6911L64.3392 19.5305H65.6446V20.4757H64.203L63.9419 22.275H65.3495V23.2202H63.8057L63.4538 25.5092H62.5344L62.8862 23.2202H61.0246L60.6727 25.5092H59.7533H59.7306ZM61.1495 22.2636H63.0111L63.2722 20.4643H61.4106L61.1495 22.2636Z" fill="#CFC9C2" style="fill:#CFC9C2;fill:color(display-p3 0.8118 0.7882 0.7608);fill-opacity:1;"/>
<path d="M68.176 25.5092L68.5278 23.2202H67.2224V22.275H68.6641L68.9251 20.4757H67.5289V19.5305H69.0614L69.4132 17.2415H70.3441L69.9922 19.5305H71.8538L72.2057 17.2415H73.1251L72.7732 19.5305H74.0786V20.4757H72.637L72.3759 22.275H73.7721V23.2202H72.2284L71.8765 25.5092H70.9457L71.2976 23.2202H69.4359L69.0841 25.5092H68.1532H68.176ZM69.5949 22.2636H71.4565L71.7176 20.4643H69.8559L69.5949 22.2636Z" fill="#CFC9C2" style="fill:#CFC9C2;fill:color(display-p3 0.8118 0.7882 0.7608);fill-opacity:1;"/>
<path d="M76.6213 25.5092L76.9732 23.2202H75.6678V22.275H77.1094L77.3705 20.4757H75.9743V19.5305H77.518L77.8699 17.2415H78.7894L78.4375 19.5305H80.2991L80.651 17.2415H81.5818L81.2299 19.5305H82.5353V20.4757H81.0937L80.8326 22.275H82.2402V23.2202H80.6964L80.3445 25.5092H79.4251L79.777 23.2202H77.9153L77.5635 25.5092H76.644H76.6213ZM78.0402 22.2636H79.9018L80.1629 20.4643H78.3013L78.0402 22.2636Z" fill="#CFC9C2" style="fill:#CFC9C2;fill:color(display-p3 0.8118 0.7882 0.7608);fill-opacity:1;"/>
<path d="M85.0667 25.5092L85.4186 23.2202H84.1132V22.275H85.5548L85.8159 20.4757H84.4196V19.5305H85.9634L86.3153 17.2415H87.2348L86.8829 19.5305H88.7445L89.0964 17.2415H90.0272L89.6753 19.5305H90.9807V20.4757H89.5391L89.278 22.275H90.6856V23.2202H89.1418L88.7899 25.5092H87.8704L88.2223 23.2202H86.3607L86.0088 25.5092H85.0894H85.0667ZM86.4856 22.2636H88.3472L88.6083 20.4643H86.7467L86.4856 22.2636Z" fill="#CFC9C2" style="fill:#CFC9C2;fill:color(display-p3 0.8118 0.7882 0.7608);fill-opacity:1;"/>
<path d="M94.4769 21.5577L93.7164 20.8858L95.2715 19.0979L93.0353 18.2665L93.4439 17.3099L95.5326 18.2779L95.4985 15.9434H96.4747L96.4293 18.2893L98.5407 17.3099L98.938 18.2779L96.7131 19.1093L98.2342 20.8858L97.4736 21.5577L95.9639 19.6331L94.4655 21.5577H94.4769Z" fill="#CFC9C2" style="fill:#CFC9C2;fill:color(display-p3 0.8118 0.7882 0.7608);fill-opacity:1;"/>
<path d="M202.78 20.3391V19.3142H208.773V20.3391H202.78ZM202.78 23.5734V22.5484H208.773V23.5734H202.78Z" fill="#CFC9C2" style="fill:#CFC9C2;fill:color(display-p3 0.8118 0.7882 0.7608);fill-opacity:1;"/>
<path d="M211.747 25.5092L212.099 23.2202H210.794V22.275H212.235L212.496 20.4757H211.1V19.5305H212.644L212.996 17.2415H213.915L213.563 19.5305H215.425L215.777 17.2415H216.708L216.356 19.5305H217.661V20.4757H216.22L215.959 22.275H217.366V23.2202H215.822L215.47 25.5092H214.551L214.903 23.2202H213.041L212.689 25.5092H211.77H211.747ZM213.166 22.2636H215.028L215.289 20.4643H213.427L213.166 22.2636Z" fill="#CFC9C2" style="fill:#CFC9C2;fill:color(display-p3 0.8118 0.7882 0.7608);fill-opacity:1;"/>
<path d="M220.193 25.5092L220.544 23.2202H219.239V22.275H220.681L220.942 20.4757H219.546V19.5305H221.089L221.441 17.2415H222.361L222.009 19.5305H223.87L224.222 17.2415H225.153L224.801 19.5305H226.107V20.4757H224.665L224.404 22.275H225.811V23.2202H224.268L223.916 25.5092H222.996L223.348 23.2202H221.487L221.135 25.5092H220.215H220.193ZM221.6 22.2636H223.462L223.723 20.4643H221.861L221.6 22.2636Z" fill="#CFC9C2" style="fill:#CFC9C2;fill:color(display-p3 0.8118 0.7882 0.7608);fill-opacity:1;"/>
<path d="M228.638 25.5092L228.99 23.2202H227.684V22.275H229.126L229.387 20.4757H227.991V19.5305H229.535L229.887 17.2415H230.806L230.454 19.5305H232.316L232.668 17.2415H233.598L233.247 19.5305H234.552V20.4757H233.11L232.849 22.275H234.257V23.2202H232.713L232.361 25.5092H231.442L231.794 23.2202H229.932L229.58 25.5092H228.661H228.638ZM230.046 22.2636H231.907L232.168 20.4643H230.307L230.046 22.2636Z" fill="#CFC9C2" style="fill:#CFC9C2;fill:color(display-p3 0.8118 0.7882 0.7608);fill-opacity:1;"/>
<path d="M237.083 25.5092L237.435 23.2202H236.13V22.275H237.571L237.833 20.4757H236.436V19.5305H237.969L238.321 17.2415H239.251L238.9 19.5305H240.761L241.113 17.2415H242.032L241.681 19.5305H242.986V20.4757H241.544L241.283 22.275H242.68V23.2202H241.136L240.784 25.5092H239.853L240.205 23.2202H238.343L237.991 25.5092H237.061H237.083ZM238.502 22.2636H240.364L240.625 20.4643H238.763L238.502 22.2636Z" fill="#CFC9C2" style="fill:#CFC9C2;fill:color(display-p3 0.8118 0.7882 0.7608);fill-opacity:1;"/>
<path d="M245.006 20.3391V19.3142H251V20.3391H245.006ZM245.006 23.5734V22.5484H251V23.5734H245.006Z" fill="#CFC9C2" style="fill:#CFC9C2;fill:color(display-p3 0.8118 0.7882 0.7608);fill-opacity:1;"/>
<path d="M51.2852 41.4526L51.6371 39.1636H50.3317V38.2184H51.7733L52.0344 36.419H50.6382V35.4738H52.182L52.5338 33.1848H53.4533L53.1014 35.4738H54.963L55.3149 33.1848H56.2457L55.8938 35.4738H57.1992V36.419H55.7576L55.4965 38.2184H56.9041V39.1636H55.3603L55.0084 41.4526H54.089L54.4409 39.1636H52.5793L52.2274 41.4526H51.3079H51.2852ZM52.7041 38.207H54.5657L54.8268 36.4077H52.9652L52.7041 38.207Z" fill="#CFC9C2" style="fill:#CFC9C2;fill:color(display-p3 0.8118 0.7882 0.7608);fill-opacity:1;"/>
<path d="M59.7306 41.4526L60.0825 39.1636H58.7771V38.2184H60.2187L60.4798 36.419H59.0836V35.4738H60.6273L60.9792 33.1848H61.8987L61.5468 35.4738H63.4084L63.7603 33.1848H64.6911L64.3392 35.4738H65.6446V36.419H64.203L63.9419 38.2184H65.3495V39.1636H63.8057L63.4538 41.4526H62.5344L62.8862 39.1636H61.0246L60.6727 41.4526H59.7533H59.7306ZM61.1495 38.207H63.0111L63.2722 36.4077H61.4106L61.1495 38.207Z" fill="#CFC9C2" style="fill:#CFC9C2;fill:color(display-p3 0.8118 0.7882 0.7608);fill-opacity:1;"/>
<path d="M68.176 41.4526L68.5278 39.1636H67.2224V38.2184H68.6641L68.9251 36.419H67.5289V35.4738H69.0614L69.4132 33.1848H70.3441L69.9922 35.4738H71.8538L72.2057 33.1848H73.1251L72.7732 35.4738H74.0786V36.419H72.637L72.3759 38.2184H73.7721V39.1636H72.2284L71.8765 41.4526H70.9457L71.2976 39.1636H69.4359L69.0841 41.4526H68.1532H68.176ZM69.5949 38.207H71.4565L71.7176 36.4077H69.8559L69.5949 38.207Z" fill="#CFC9C2" style="fill:#CFC9C2;fill:color(display-p3 0.8118 0.7882 0.7608);fill-opacity:1;"/>
<path d="M76.6213 41.4526L76.9732 39.1636H75.6678V38.2184H77.1094L77.3705 36.419H75.9743V35.4738H77.518L77.8699 33.1848H78.7894L78.4375 35.4738H80.2991L80.651 33.1848H81.5818L81.2299 35.4738H82.5353V36.419H81.0937L80.8326 38.2184H82.2402V39.1636H80.6964L80.3445 41.4526H79.4251L79.777 39.1636H77.9153L77.5635 41.4526H76.644H76.6213ZM78.0402 38.207H79.9018L80.1629 36.4077H78.3013L78.0402 38.207Z" fill="#CFC9C2" style="fill:#CFC9C2;fill:color(display-p3 0.8118 0.7882 0.7608);fill-opacity:1;"/>
<path d="M85.0667 41.4526L85.4186 39.1636H84.1132V38.2184H85.5548L85.8159 36.419H84.4196V35.4738H85.9634L86.3153 33.1848H87.2348L86.8829 35.4738H88.7445L89.0964 33.1848H90.0272L89.6753 35.4738H90.9807V36.419H89.5391L89.278 38.2184H90.6856V39.1636H89.1418L88.7899 41.4526H87.8704L88.2223 39.1636H86.3607L86.0088 41.4526H85.0894H85.0667ZM86.4856 38.207H88.3472L88.6083 36.4077H86.7467L86.4856 38.207Z" fill="#CFC9C2" style="fill:#CFC9C2;fill:color(display-p3 0.8118 0.7882 0.7608);fill-opacity:1;"/>
<path d="M95.1239 40.6669C95.1239 40.1659 95.4871 39.8242 95.9866 39.8242C96.4861 39.8242 96.8493 40.1659 96.8493 40.6669C96.8493 41.168 96.4861 41.5097 95.9866 41.5097C95.4871 41.5097 95.1239 41.168 95.1239 40.6669Z" fill="#CFC9C2" style="fill:#CFC9C2;fill:color(display-p3 0.8118 0.7882 0.7608);fill-opacity:1;"/>
<path d="M196.468 35.5424C196.468 35.0414 196.832 34.6997 197.331 34.6997C197.831 34.6997 198.194 35.0414 198.194 35.5424C198.194 36.0435 197.831 36.3852 197.331 36.3852C196.832 36.3852 196.468 36.0435 196.468 35.5424ZM196.468 40.6671C196.468 40.166 196.832 39.8244 197.331 39.8244C197.831 39.8244 198.194 40.166 198.194 40.6671C198.194 41.1682 197.831 41.5098 197.331 41.5098C196.832 41.5098 196.468 41.1682 196.468 40.6671Z" fill="#CFC9C2" style="fill:#CFC9C2;fill:color(display-p3 0.8118 0.7882 0.7608);fill-opacity:1;"/>
<path d="M203.302 41.4526L203.654 39.1636H202.348V38.2184H203.79L204.051 36.419H202.655V35.4738H204.187L204.539 33.1848H205.47L205.118 35.4738H206.98L207.332 33.1848H208.251L207.899 35.4738H209.205V36.419H207.763L207.502 38.2184H208.898V39.1636H207.354L207.002 41.4526H206.072L206.423 39.1636H204.562L204.21 41.4526H203.279H203.302ZM204.721 38.207H206.582L206.843 36.4077H204.982L204.721 38.207Z" fill="#CFC9C2" style="fill:#CFC9C2;fill:color(display-p3 0.8118 0.7882 0.7608);fill-opacity:1;"/>
<path d="M211.747 41.4526L212.099 39.1636H210.794V38.2184H212.235L212.496 36.419H211.1V35.4738H212.644L212.996 33.1848H213.915L213.563 35.4738H215.425L215.777 33.1848H216.708L216.356 35.4738H217.661V36.419H216.22L215.959 38.2184H217.366V39.1636H215.822L215.47 41.4526H214.551L214.903 39.1636H213.041L212.689 41.4526H211.77H211.747ZM213.166 38.207H215.028L215.289 36.4077H213.427L213.166 38.207Z" fill="#CFC9C2" style="fill:#CFC9C2;fill:color(display-p3 0.8118 0.7882 0.7608);fill-opacity:1;"/>
<path d="M220.193 41.4526L220.544 39.1636H219.239V38.2184H220.681L220.942 36.419H219.546V35.4738H221.089L221.441 33.1848H222.361L222.009 35.4738H223.87L224.222 33.1848H225.153L224.801 35.4738H226.107V36.419H224.665L224.404 38.2184H225.811V39.1636H224.268L223.916 41.4526H222.996L223.348 39.1636H221.487L221.135 41.4526H220.215H220.193ZM221.6 38.207H223.462L223.723 36.4077H221.861L221.6 38.207Z" fill="#CFC9C2" style="fill:#CFC9C2;fill:color(display-p3 0.8118 0.7882 0.7608);fill-opacity:1;"/>
<path d="M228.638 41.4526L228.99 39.1636H227.684V38.2184H229.126L229.387 36.419H227.991V35.4738H229.535L229.887 33.1848H230.806L230.454 35.4738H232.316L232.668 33.1848H233.598L233.247 35.4738H234.552V36.419H233.11L232.849 38.2184H234.257V39.1636H232.713L232.361 41.4526H231.442L231.794 39.1636H229.932L229.58 41.4526H228.661H228.638ZM230.046 38.207H231.907L232.168 36.4077H230.307L230.046 38.207Z" fill="#CFC9C2" style="fill:#CFC9C2;fill:color(display-p3 0.8118 0.7882 0.7608);fill-opacity:1;"/>
<path d="M238.048 37.5011L237.288 36.8292L238.843 35.0412L236.607 34.2099L237.015 33.2533L239.093 34.2213L239.07 31.8867H240.046L240.001 34.2327L242.112 33.2533L242.509 34.2213L240.284 35.0526L241.805 36.8292L241.045 37.5011L239.535 35.5765L238.037 37.5011H238.048Z" fill="#CFC9C2" style="fill:#CFC9C2;fill:color(display-p3 0.8118 0.7882 0.7608);fill-opacity:1;"/>
<path d="M44.7582 56.4397V53.6838H42.1701V52.6588H44.7582V49.9143H45.8706V52.6588H48.4701V53.6838H45.8706V56.4397H44.7582Z" fill="#CFC9C2" style="fill:#CFC9C2;fill:color(display-p3 0.8118 0.7882 0.7608);fill-opacity:1;"/>
<path d="M51.2852 57.3962L51.6371 55.1072H50.3317V54.162H51.7733L52.0344 52.3627H50.6382V51.4174H52.182L52.5338 49.1284H53.4533L53.1014 51.4174H54.963L55.3149 49.1284H56.2457L55.8938 51.4174H57.1992V52.3627H55.7576L55.4965 54.162H56.9041V55.1072H55.3603L55.0084 57.3962H54.089L54.4409 55.1072H52.5793L52.2274 57.3962H51.3079H51.2852ZM52.7041 54.1506H54.5657L54.8268 52.3513H52.9652L52.7041 54.1506Z" fill="#CFC9C2" style="fill:#CFC9C2;fill:color(display-p3 0.8118 0.7882 0.7608);fill-opacity:1;"/>
<path d="M59.7306 57.3962L60.0825 55.1072H58.7771V54.162H60.2187L60.4798 52.3627H59.0836V51.4174H60.6273L60.9792 49.1284H61.8987L61.5468 51.4174H63.4084L63.7603 49.1284H64.6911L64.3392 51.4174H65.6446V52.3627H64.203L63.9419 54.162H65.3495V55.1072H63.8057L63.4538 57.3962H62.5344L62.8862 55.1072H61.0246L60.6727 57.3962H59.7533H59.7306ZM61.1495 54.1506H63.0111L63.2722 52.3513H61.4106L61.1495 54.1506Z" fill="#CFC9C2" style="fill:#CFC9C2;fill:color(display-p3 0.8118 0.7882 0.7608);fill-opacity:1;"/>
<path d="M68.176 57.3962L68.5278 55.1072H67.2224V54.162H68.6641L68.9251 52.3627H67.5289V51.4174H69.0614L69.4132 49.1284H70.3441L69.9922 51.4174H71.8538L72.2057 49.1284H73.1251L72.7732 51.4174H74.0786V52.3627H72.637L72.3759 54.162H73.7721V55.1072H72.2284L71.8765 57.3962H70.9457L71.2976 55.1072H69.4359L69.0841 57.3962H68.1532H68.176ZM69.5949 54.1506H71.4565L71.7176 52.3513H69.8559L69.5949 54.1506Z" fill="#CFC9C2" style="fill:#CFC9C2;fill:color(display-p3 0.8118 0.7882 0.7608);fill-opacity:1;"/>
<path d="M76.6213 57.3962L76.9732 55.1072H75.6678V54.162H77.1094L77.3705 52.3627H75.9743V51.4174H77.518L77.8699 49.1284H78.7894L78.4375 51.4174H80.2991L80.651 49.1284H81.5818L81.2299 51.4174H82.5353V52.3627H81.0937L80.8326 54.162H82.2402V55.1072H80.6964L80.3445 57.3962H79.4251L79.777 55.1072H77.9153L77.5635 57.3962H76.644H76.6213ZM78.0402 54.1506H79.9018L80.1629 52.3513H78.3013L78.0402 54.1506Z" fill="#CFC9C2" style="fill:#CFC9C2;fill:color(display-p3 0.8118 0.7882 0.7608);fill-opacity:1;"/>
<path d="M84.4537 53.9799V53.0347H90.6402V53.9799H84.4537Z" fill="#CFC9C2" style="fill:#CFC9C2;fill:color(display-p3 0.8118 0.7882 0.7608);fill-opacity:1;"/>
<path d="M194.856 57.3962L195.208 55.1072H193.903V54.162H195.345L195.606 52.3627H194.209V51.4174H195.753L196.105 49.1284H197.025L196.673 51.4174H198.534L198.886 49.1284H199.817L199.465 51.4174H200.77V52.3627H199.329L199.068 54.162H200.475V55.1072H198.932L198.58 57.3962H197.66L198.012 55.1072H196.151L195.799 57.3962H194.879H194.856ZM196.264 54.1506H198.126L198.387 52.3513H196.525L196.264 54.1506Z" fill="#CFC9C2" style="fill:#CFC9C2;fill:color(display-p3 0.8118 0.7882 0.7608);fill-opacity:1;"/>
<path d="M203.302 57.3962L203.654 55.1072H202.348V54.162H203.79L204.051 52.3627H202.655V51.4174H204.187L204.539 49.1284H205.47L205.118 51.4174H206.98L207.332 49.1284H208.251L207.899 51.4174H209.205V52.3627H207.763L207.502 54.162H208.898V55.1072H207.354L207.002 57.3962H206.072L206.423 55.1072H204.562L204.21 57.3962H203.279H203.302ZM204.721 54.1506H206.582L206.843 52.3513H204.982L204.721 54.1506Z" fill="#CFC9C2" style="fill:#CFC9C2;fill:color(display-p3 0.8118 0.7882 0.7608);fill-opacity:1;"/>
<path d="M211.747 57.3962L212.099 55.1072H210.794V54.162H212.235L212.496 52.3627H211.1V51.4174H212.644L212.996 49.1284H213.915L213.563 51.4174H215.425L215.777 49.1284H216.708L216.356 51.4174H217.661V52.3627H216.22L215.959 54.162H217.366V55.1072H215.822L215.47 57.3962H214.551L214.903 55.1072H213.041L212.689 57.3962H211.77H211.747ZM213.166 54.1506H215.028L215.289 52.3513H213.427L213.166 54.1506Z" fill="#CFC9C2" style="fill:#CFC9C2;fill:color(display-p3 0.8118 0.7882 0.7608);fill-opacity:1;"/>
<path d="M220.193 57.3962L220.544 55.1072H219.239V54.162H220.681L220.942 52.3627H219.546V51.4174H221.089L221.441 49.1284H222.361L222.009 51.4174H223.87L224.222 49.1284H225.153L224.801 51.4174H226.107V52.3627H224.665L224.404 54.162H225.811V55.1072H224.268L223.916 57.3962H222.996L223.348 55.1072H221.487L221.135 57.3962H220.215H220.193ZM221.6 54.1506H223.462L223.723 52.3513H221.861L221.6 54.1506Z" fill="#CFC9C2" style="fill:#CFC9C2;fill:color(display-p3 0.8118 0.7882 0.7608);fill-opacity:1;"/>
<path d="M228.638 57.3962L228.99 55.1072H227.684V54.162H229.126L229.387 52.3627H227.991V51.4174H229.535L229.887 49.1284H230.806L230.454 51.4174H232.316L232.668 49.1284H233.598L233.247 51.4174H234.552V52.3627H233.11L232.849 54.162H234.257V55.1072H232.713L232.361 57.3962H231.442L231.794 55.1072H229.932L229.58 57.3962H228.661H228.638ZM230.046 54.1506H231.907L232.168 52.3513H230.307L230.046 54.1506Z" fill="#CFC9C2" style="fill:#CFC9C2;fill:color(display-p3 0.8118 0.7882 0.7608);fill-opacity:1;"/>
<path d="M238.707 56.6103C238.707 56.1092 239.07 55.7676 239.569 55.7676C240.069 55.7676 240.432 56.1092 240.432 56.6103C240.432 57.1114 240.069 57.453 239.569 57.453C239.07 57.453 238.707 57.1114 238.707 56.6103Z" fill="#CFC9C2" style="fill:#CFC9C2;fill:color(display-p3 0.8118 0.7882 0.7608);fill-opacity:1;"/>
<path d="M36.0177 67.4291C36.0177 66.9281 36.3809 66.5864 36.8804 66.5864C37.3799 66.5864 37.7431 66.9281 37.7431 67.4291C37.7431 67.9302 37.3799 68.2719 36.8804 68.2719C36.3809 68.2719 36.0177 67.9302 36.0177 67.4291ZM36.0177 72.5538C36.0177 72.0527 36.3809 71.7111 36.8804 71.7111C37.3799 71.7111 37.7431 72.0527 37.7431 72.5538C37.7431 73.0549 37.3799 73.3965 36.8804 73.3965C36.3809 73.3965 36.0177 73.0549 36.0177 72.5538Z" fill="#CFC9C2" style="fill:#CFC9C2;fill:color(display-p3 0.8118 0.7882 0.7608);fill-opacity:1;"/>
<path d="M42.8398 73.3396L43.1917 71.0506H41.8863V70.1053H43.3279L43.589 68.306H42.1928V67.3608H43.7366L44.0885 65.0718H45.0079L44.656 67.3608H46.5177L46.8695 65.0718H47.8003L47.4485 67.3608H48.7539V68.306H47.3122L47.0512 70.1053H48.4587V71.0506H46.9149L46.5631 73.3396H45.6436L45.9955 71.0506H44.1339L43.782 73.3396H42.8625H42.8398ZM44.2587 70.0939H46.1204L46.3814 68.2946H44.5198L44.2587 70.0939Z" fill="#CFC9C2" style="fill:#CFC9C2;fill:color(display-p3 0.8118 0.7882 0.7608);fill-opacity:1;"/>
<path d="M51.2852 73.3396L51.6371 71.0506H50.3317V70.1053H51.7733L52.0344 68.306H50.6382V67.3608H52.182L52.5338 65.0718H53.4533L53.1014 67.3608H54.963L55.3149 65.0718H56.2457L55.8938 67.3608H57.1992V68.306H55.7576L55.4965 70.1053H56.9041V71.0506H55.3603L55.0084 73.3396H54.089L54.4409 71.0506H52.5793L52.2274 73.3396H51.3079H51.2852ZM52.7041 70.0939H54.5657L54.8268 68.2946H52.9652L52.7041 70.0939Z" fill="#CFC9C2" style="fill:#CFC9C2;fill:color(display-p3 0.8118 0.7882 0.7608);fill-opacity:1;"/>
<path d="M59.7306 73.3396L60.0825 71.0506H58.7771V70.1053H60.2187L60.4798 68.306H59.0836V67.3608H60.6273L60.9792 65.0718H61.8987L61.5468 67.3608H63.4084L63.7603 65.0718H64.6911L64.3392 67.3608H65.6446V68.306H64.203L63.9419 70.1053H65.3495V71.0506H63.8057L63.4538 73.3396H62.5344L62.8862 71.0506H61.0246L60.6727 73.3396H59.7533H59.7306ZM61.1495 70.0939H63.0111L63.2722 68.2946H61.4106L61.1495 70.0939Z" fill="#CFC9C2" style="fill:#CFC9C2;fill:color(display-p3 0.8118 0.7882 0.7608);fill-opacity:1;"/>
<path d="M68.176 73.3396L68.5278 71.0506H67.2224V70.1053H68.6641L68.9251 68.306H67.5289V67.3608H69.0614L69.4132 65.0718H70.3441L69.9922 67.3608H71.8538L72.2057 65.0718H73.1251L72.7732 67.3608H74.0786V68.306H72.637L72.3759 70.1053H73.7721V71.0506H72.2284L71.8765 73.3396H70.9457L71.2976 71.0506H69.4359L69.0841 73.3396H68.1532H68.176ZM69.5949 70.0939H71.4565L71.7176 68.2946H69.8559L69.5949 70.0939Z" fill="#CFC9C2" style="fill:#CFC9C2;fill:color(display-p3 0.8118 0.7882 0.7608);fill-opacity:1;"/>
<path d="M78.5397 72.3831V69.6271H75.9516V68.6022H78.5397V65.8577H79.6521V68.6022H82.2516V69.6271H79.6521V72.3831H78.5397Z" fill="#CFC9C2" style="fill:#CFC9C2;fill:color(display-p3 0.8118 0.7882 0.7608);fill-opacity:1;"/>
<path d="M95.1239 72.5539C95.1239 72.0528 95.4871 71.7112 95.9866 71.7112C96.4861 71.7112 96.8493 72.0528 96.8493 72.5539C96.8493 73.055 96.4861 73.3966 95.9866 73.3966C95.4871 73.3966 95.1239 73.055 95.1239 72.5539Z" fill="#CFC9C2" style="fill:#CFC9C2;fill:color(display-p3 0.8118 0.7882 0.7608);fill-opacity:1;"/>
<path d="M185.889 68.1695V67.1445H191.882V68.1695H185.889ZM185.889 71.4037V70.3788H191.882V71.4037H185.889Z" fill="#CFC9C2" style="fill:#CFC9C2;fill:color(display-p3 0.8118 0.7882 0.7608);fill-opacity:1;"/>
<path d="M194.856 73.3396L195.208 71.0506H193.903V70.1053H195.345L195.606 68.306H194.209V67.3608H195.753L196.105 65.0718H197.025L196.673 67.3608H198.534L198.886 65.0718H199.817L199.465 67.3608H200.77V68.306H199.329L199.068 70.1053H200.475V71.0506H198.932L198.58 73.3396H197.66L198.012 71.0506H196.151L195.799 73.3396H194.879H194.856ZM196.264 70.0939H198.126L198.387 68.2946H196.525L196.264 70.0939Z" fill="#CFC9C2" style="fill:#CFC9C2;fill:color(display-p3 0.8118 0.7882 0.7608);fill-opacity:1;"/>
<path d="M203.302 73.3396L203.654 71.0506H202.348V70.1053H203.79L204.051 68.306H202.655V67.3608H204.187L204.539 65.0718H205.47L205.118 67.3608H206.98L207.332 65.0718H208.251L207.899 67.3608H209.205V68.306H207.763L207.502 70.1053H208.898V71.0506H207.354L207.002 73.3396H206.072L206.423 71.0506H204.562L204.21 73.3396H203.279H203.302ZM204.721 70.0939H206.582L206.843 68.2946H204.982L204.721 70.0939Z" fill="#CFC9C2" style="fill:#CFC9C2;fill:color(display-p3 0.8118 0.7882 0.7608);fill-opacity:1;"/>
<path d="M211.747 73.3396L212.099 71.0506H210.794V70.1053H212.235L212.496 68.306H211.1V67.3608H212.644L212.996 65.0718H213.915L213.563 67.3608H215.425L215.777 65.0718H216.708L216.356 67.3608H217.661V68.306H216.22L215.959 70.1053H217.366V71.0506H215.822L215.47 73.3396H214.551L214.903 71.0506H213.041L212.689 73.3396H211.77H211.747ZM213.166 70.0939H215.028L215.289 68.2946H213.427L213.166 70.0939Z" fill="#CFC9C2" style="fill:#CFC9C2;fill:color(display-p3 0.8118 0.7882 0.7608);fill-opacity:1;"/>
<path d="M220.193 73.3396L220.544 71.0506H219.239V70.1053H220.681L220.942 68.306H219.546V67.3608H221.089L221.441 65.0718H222.361L222.009 67.3608H223.87L224.222 65.0718H225.153L224.801 67.3608H226.107V68.306H224.665L224.404 70.1053H225.811V71.0506H224.268L223.916 73.3396H222.996L223.348 71.0506H221.487L221.135 73.3396H220.215H220.193ZM221.6 70.0939H223.462L223.723 68.2946H221.861L221.6 70.0939Z" fill="#CFC9C2" style="fill:#CFC9C2;fill:color(display-p3 0.8118 0.7882 0.7608);fill-opacity:1;"/>
<path d="M228.025 69.9232V68.978H234.211V69.9232H228.025Z" fill="#CFC9C2" style="fill:#CFC9C2;fill:color(display-p3 0.8118 0.7882 0.7608);fill-opacity:1;"/>
<path d="M34.3945 89.2829L34.7464 86.9939H33.4409V86.0487H34.8826L35.1436 84.2494H33.7474V83.3042H35.2799L35.6318 81.0151H36.5626L36.2107 83.3042H38.0723L38.4242 81.0151H39.3436L38.9917 83.3042H40.2971V84.2494H38.8555L38.5944 86.0487H39.9907V86.9939H38.4469L38.095 89.2829H37.1642L37.5161 86.9939H35.6545L35.3026 89.2829H34.3718H34.3945ZM35.8134 86.0373H37.675L37.9361 84.238H36.0745L35.8134 86.0373Z" fill="#CFC9C2" style="fill:#CFC9C2;fill:color(display-p3 0.8118 0.7882 0.7608);fill-opacity:1;"/>
<path d="M42.8398 89.2829L43.1917 86.9939H41.8863V86.0487H43.3279L43.589 84.2494H42.1928V83.3042H43.7366L44.0885 81.0151H45.0079L44.656 83.3042H46.5177L46.8695 81.0151H47.8003L47.4485 83.3042H48.7539V84.2494H47.3122L47.0512 86.0487H48.4587V86.9939H46.9149L46.5631 89.2829H45.6436L45.9955 86.9939H44.1339L43.782 89.2829H42.8625H42.8398ZM44.2587 86.0373H46.1204L46.3814 84.238H44.5198L44.2587 86.0373Z" fill="#CFC9C2" style="fill:#CFC9C2;fill:color(display-p3 0.8118 0.7882 0.7608);fill-opacity:1;"/>
<path d="M51.2852 89.2829L51.6371 86.9939H50.3317V86.0487H51.7733L52.0344 84.2494H50.6382V83.3042H52.182L52.5338 81.0151H53.4533L53.1014 83.3042H54.963L55.3149 81.0151H56.2457L55.8938 83.3042H57.1992V84.2494H55.7576L55.4965 86.0487H56.9041V86.9939H55.3603L55.0084 89.2829H54.089L54.4409 86.9939H52.5793L52.2274 89.2829H51.3079H51.2852ZM52.7041 86.0373H54.5657L54.8268 84.238H52.9652L52.7041 86.0373Z" fill="#CFC9C2" style="fill:#CFC9C2;fill:color(display-p3 0.8118 0.7882 0.7608);fill-opacity:1;"/>
<path d="M59.7306 89.2829L60.0825 86.9939H58.7771V86.0487H60.2187L60.4798 84.2494H59.0836V83.3042H60.6273L60.9792 81.0151H61.8987L61.5468 83.3042H63.4084L63.7603 81.0151H64.6911L64.3392 83.3042H65.6446V84.2494H64.203L63.9419 86.0487H65.3495V86.9939H63.8057L63.4538 89.2829H62.5344L62.8862 86.9939H61.0246L60.6727 89.2829H59.7533H59.7306ZM61.1495 86.0373H63.0111L63.2722 84.238H61.4106L61.1495 86.0373Z" fill="#CFC9C2" style="fill:#CFC9C2;fill:color(display-p3 0.8118 0.7882 0.7608);fill-opacity:1;"/>
<path d="M68.176 89.2829L68.5278 86.9939H67.2224V86.0487H68.6641L68.9251 84.2494H67.5289V83.3042H69.0614L69.4132 81.0151H70.3441L69.9922 83.3042H71.8538L72.2057 81.0151H73.1251L72.7732 83.3042H74.0786V84.2494H72.637L72.3759 86.0487H73.7721V86.9939H72.2284L71.8765 89.2829H70.9457L71.2976 86.9939H69.4359L69.0841 89.2829H68.1532H68.176ZM69.5949 86.0373H71.4565L71.7176 84.238H69.8559L69.5949 86.0373Z" fill="#CFC9C2" style="fill:#CFC9C2;fill:color(display-p3 0.8118 0.7882 0.7608);fill-opacity:1;"/>
<path d="M78.2445 88.4973C78.2445 87.9962 78.6078 87.6545 79.1072 87.6545C79.6067 87.6545 79.9699 87.9962 79.9699 88.4973C79.9699 88.9983 79.6067 89.34 79.1072 89.34C78.6078 89.34 78.2445 88.9983 78.2445 88.4973Z" fill="#CFC9C2" style="fill:#CFC9C2;fill:color(display-p3 0.8118 0.7882 0.7608);fill-opacity:1;"/>
<path d="M84.4537 85.8666V84.9214H90.6402V85.8666H84.4537Z" fill="#CFC9C2" style="fill:#CFC9C2;fill:color(display-p3 0.8118 0.7882 0.7608);fill-opacity:1;"/>
<path d="M93.512 89.2829L93.8639 86.9939H92.5585V86.0487H94.0001L94.2612 84.2494H92.865V83.3042H94.4088L94.7607 81.0151H95.6801L95.3283 83.3042H97.1899L97.5418 81.0151H98.4726L98.1207 83.3042H99.4261V84.2494H97.9845L97.7234 86.0487H99.1309V86.9939H97.5872L97.2353 89.2829H96.3158L96.6677 86.9939H94.8061L94.4542 89.2829H93.5347H93.512ZM94.9196 86.0373H96.7812L97.0423 84.238H95.1807L94.9196 86.0373Z" fill="#CFC9C2" style="fill:#CFC9C2;fill:color(display-p3 0.8118 0.7882 0.7608);fill-opacity:1;"/>
<path d="M101.957 89.2829L102.309 86.9939H101.004V86.0487H102.446L102.707 84.2494H101.31V83.3042H102.843L103.195 81.0151H104.126L103.774 83.3042H105.635L105.987 81.0151H106.907L106.555 83.3042H107.86V84.2494H106.418L106.157 86.0487H107.554V86.9939H106.01L105.658 89.2829H104.727L105.079 86.9939H103.217L102.866 89.2829H101.935H101.957ZM103.376 86.0373H105.238L105.499 84.238H103.637L103.376 86.0373Z" fill="#CFC9C2" style="fill:#CFC9C2;fill:color(display-p3 0.8118 0.7882 0.7608);fill-opacity:1;"/>
<path d="M110.403 89.2829L110.755 86.9939H109.449V86.0487H110.891L111.152 84.2494H109.756V83.3042H111.3L111.651 81.0151H112.571L112.219 83.3042H114.081L114.432 81.0151H115.363L115.011 83.3042H116.317V84.2494H114.875L114.614 86.0487H116.022V86.9939H114.478L114.126 89.2829H113.207L113.558 86.9939H111.697L111.345 89.2829H110.425H110.403ZM111.822 86.0373H113.683L113.944 84.238H112.083L111.822 86.0373Z" fill="#CFC9C2" style="fill:#CFC9C2;fill:color(display-p3 0.8118 0.7882 0.7608);fill-opacity:1;"/>
<path d="M118.848 89.2829L119.2 86.9939H117.895V86.0487H119.336L119.597 84.2494H118.201V83.3042H119.745L120.097 81.0151H121.016L120.664 83.3042H122.526L122.878 81.0151H123.809L123.457 83.3042H124.762V84.2494H123.321L123.059 86.0487H124.467V86.9939H122.923L122.571 89.2829H121.652L122.004 86.9939H120.142L119.79 89.2829H118.871H118.848ZM120.267 86.0373H122.129L122.39 84.238H120.528L120.267 86.0373Z" fill="#CFC9C2" style="fill:#CFC9C2;fill:color(display-p3 0.8118 0.7882 0.7608);fill-opacity:1;"/>
<path d="M127.294 89.2829L127.645 86.9939H126.34V86.0487H127.782L128.043 84.2494H126.646V83.3042H128.19L128.542 81.0151H129.462L129.11 83.3042H130.971L131.323 81.0151H132.254L131.902 83.3042H133.208V84.2494H131.766L131.505 86.0487H132.912V86.9939H131.369L131.017 89.2829H130.097L130.449 86.9939H128.588L128.236 89.2829H127.316H127.294ZM128.701 86.0373H130.563L130.824 84.238H128.962L128.701 86.0373Z" fill="#CFC9C2" style="fill:#CFC9C2;fill:color(display-p3 0.8118 0.7882 0.7608);fill-opacity:1;"/>
<path d="M135.739 89.2829L136.091 86.9939H134.785V86.0487H136.227L136.488 84.2494H135.092V83.3042H136.624L136.976 81.0151H137.907L137.555 83.3042H139.417L139.769 81.0151H140.688L140.336 83.3042H141.642V84.2494H140.2L139.939 86.0487H141.335V86.9939H139.791L139.439 89.2829H138.509L138.861 86.9939H136.999L136.647 89.2829H135.716H135.739ZM137.158 86.0373H139.019L139.281 84.238H137.419L137.158 86.0373Z" fill="#CFC9C2" style="fill:#CFC9C2;fill:color(display-p3 0.8118 0.7882 0.7608);fill-opacity:1;"/>
<path d="M144.184 89.2829L144.536 86.9939H143.231V86.0487H144.672L144.933 84.2494H143.537V83.3042H145.081L145.433 81.0151H146.352L146 83.3042H147.862L148.214 81.0151H149.145L148.793 83.3042H150.098V84.2494H148.657L148.396 86.0487H149.803V86.9939H148.259L147.907 89.2829H146.988L147.34 86.9939H145.478L145.126 89.2829H144.207H144.184ZM145.603 86.0373H147.465L147.726 84.238H145.864L145.603 86.0373Z" fill="#CFC9C2" style="fill:#CFC9C2;fill:color(display-p3 0.8118 0.7882 0.7608);fill-opacity:1;"/>
<path d="M152.63 89.2829L152.982 86.9939H151.676V86.0487H153.118L153.379 84.2494H151.983V83.3042H153.526L153.878 81.0151H154.798L154.446 83.3042H156.307L156.659 81.0151H157.59L157.238 83.3042H158.544V84.2494H157.102L156.841 86.0487H158.249V86.9939H156.705L156.353 89.2829H155.433L155.785 86.9939H153.924L153.572 89.2829H152.652H152.63ZM154.049 86.0373H155.91L156.171 84.238H154.31L154.049 86.0373Z" fill="#CFC9C2" style="fill:#CFC9C2;fill:color(display-p3 0.8118 0.7882 0.7608);fill-opacity:1;"/>
<path d="M161.075 89.2829L161.427 86.9939H160.121V86.0487H161.563L161.824 84.2494H160.428V83.3042H161.972L162.324 81.0151H163.243L162.891 83.3042H164.753L165.105 81.0151H166.036L165.684 83.3042H166.989V84.2494H165.547L165.286 86.0487H166.694V86.9939H165.15L164.798 89.2829H163.879L164.231 86.9939H162.369L162.017 89.2829H161.098H161.075ZM162.483 86.0373H164.344L164.605 84.238H162.744L162.483 86.0373Z" fill="#CFC9C2" style="fill:#CFC9C2;fill:color(display-p3 0.8118 0.7882 0.7608);fill-opacity:1;"/>
<path d="M171.144 88.4973C171.144 87.9962 171.507 87.6545 172.006 87.6545C172.506 87.6545 172.869 87.9962 172.869 88.4973C172.869 88.9983 172.506 89.34 172.006 89.34C171.507 89.34 171.144 88.9983 171.144 88.4973Z" fill="#CFC9C2" style="fill:#CFC9C2;fill:color(display-p3 0.8118 0.7882 0.7608);fill-opacity:1;"/>
<path d="M179.589 83.3725C179.589 82.8714 179.952 82.5298 180.452 82.5298C180.951 82.5298 181.314 82.8714 181.314 83.3725C181.314 83.8736 180.951 84.2152 180.452 84.2152C179.952 84.2152 179.589 83.8736 179.589 83.3725ZM179.589 88.4972C179.589 87.9961 179.952 87.6544 180.452 87.6544C180.951 87.6544 181.314 87.9961 181.314 88.4972C181.314 88.9982 180.951 89.3399 180.452 89.3399C179.952 89.3399 179.589 88.9982 179.589 88.4972Z" fill="#CFC9C2" style="fill:#CFC9C2;fill:color(display-p3 0.8118 0.7882 0.7608);fill-opacity:1;"/>
<path d="M186.411 89.2829L186.763 86.9939H185.458V86.0487H186.899L187.16 84.2494H185.764V83.3042H187.308L187.66 81.0151H188.579L188.227 83.3042H190.089L190.441 81.0151H191.372L191.02 83.3042H192.325V84.2494H190.884L190.622 86.0487H192.03V86.9939H190.486L190.134 89.2829H189.215L189.567 86.9939H187.705L187.353 89.2829H186.434H186.411ZM187.819 86.0373H189.68L189.941 84.238H188.08L187.819 86.0373Z" fill="#CFC9C2" style="fill:#CFC9C2;fill:color(display-p3 0.8118 0.7882 0.7608);fill-opacity:1;"/>
<path d="M194.856 89.2829L195.208 86.9939H193.903V86.0487H195.345L195.606 84.2494H194.209V83.3042H195.753L196.105 81.0151H197.025L196.673 83.3042H198.534L198.886 81.0151H199.817L199.465 83.3042H200.77V84.2494H199.329L199.068 86.0487H200.475V86.9939H198.932L198.58 89.2829H197.66L198.012 86.9939H196.151L195.799 89.2829H194.879H194.856ZM196.264 86.0373H198.126L198.387 84.238H196.525L196.264 86.0373Z" fill="#CFC9C2" style="fill:#CFC9C2;fill:color(display-p3 0.8118 0.7882 0.7608);fill-opacity:1;"/>
<path d="M203.302 89.2829L203.654 86.9939H202.348V86.0487H203.79L204.051 84.2494H202.655V83.3042H204.187L204.539 81.0151H205.47L205.118 83.3042H206.98L207.332 81.0151H208.251L207.899 83.3042H209.205V84.2494H207.763L207.502 86.0487H208.898V86.9939H207.354L207.002 89.2829H206.072L206.423 86.9939H204.562L204.21 89.2829H203.279H203.302ZM204.721 86.0373H206.582L206.843 84.238H204.982L204.721 86.0373Z" fill="#CFC9C2" style="fill:#CFC9C2;fill:color(display-p3 0.8118 0.7882 0.7608);fill-opacity:1;"/>
<path d="M211.747 89.2829L212.099 86.9939H210.794V86.0487H212.235L212.496 84.2494H211.1V83.3042H212.644L212.996 81.0151H213.915L213.563 83.3042H215.425L215.777 81.0151H216.708L216.356 83.3042H217.661V84.2494H216.22L215.959 86.0487H217.366V86.9939H215.822L215.47 89.2829H214.551L214.903 86.9939H213.041L212.689 89.2829H211.77H211.747ZM213.166 86.0373H215.028L215.289 84.238H213.427L213.166 86.0373Z" fill="#CFC9C2" style="fill:#CFC9C2;fill:color(display-p3 0.8118 0.7882 0.7608);fill-opacity:1;"/>
<path d="M221.157 85.3314L220.397 84.6595L221.952 82.8716L219.716 82.0402L220.124 81.0836L222.213 82.0516L222.179 79.717H223.155L223.11 82.063L225.221 81.0836L225.618 82.0516L223.394 82.8829L224.915 84.6595L224.154 85.3314L222.644 83.4068L221.146 85.3314H221.157Z" fill="#CFC9C2" style="fill:#CFC9C2;fill:color(display-p3 0.8118 0.7882 0.7608);fill-opacity:1;"/>
<path d="M27.8675 104.27V101.514H25.2794V100.489H27.8675V97.7444H28.9799V100.489H31.5793V101.514H28.9799V104.27H27.8675Z" fill="#CFC9C2" style="fill:#CFC9C2;fill:color(display-p3 0.8118 0.7882 0.7608);fill-opacity:1;"/>
<path d="M34.3945 105.226L34.7464 102.937H33.4409V101.992H34.8826L35.1436 100.193H33.7474V99.2475H35.2799L35.6318 96.9585H36.5626L36.2107 99.2475H38.0723L38.4242 96.9585H39.3436L38.9917 99.2475H40.2971V100.193H38.8555L38.5944 101.992H39.9907V102.937H38.4469L38.095 105.226H37.1642L37.5161 102.937H35.6545L35.3026 105.226H34.3718H34.3945ZM35.8134 101.981H37.675L37.9361 100.181H36.0745L35.8134 101.981Z" fill="#CFC9C2" style="fill:#CFC9C2;fill:color(display-p3 0.8118 0.7882 0.7608);fill-opacity:1;"/>
<path d="M42.8398 105.226L43.1917 102.937H41.8863V101.992H43.3279L43.589 100.193H42.1928V99.2475H43.7366L44.0885 96.9585H45.0079L44.656 99.2475H46.5177L46.8695 96.9585H47.8003L47.4485 99.2475H48.7539V100.193H47.3122L47.0512 101.992H48.4587V102.937H46.9149L46.5631 105.226H45.6436L45.9955 102.937H44.1339L43.782 105.226H42.8625H42.8398ZM44.2587 101.981H46.1204L46.3814 100.181H44.5198L44.2587 101.981Z" fill="#CFC9C2" style="fill:#CFC9C2;fill:color(display-p3 0.8118 0.7882 0.7608);fill-opacity:1;"/>
<path d="M51.2852 105.226L51.6371 102.937H50.3317V101.992H51.7733L52.0344 100.193H50.6382V99.2475H52.182L52.5338 96.9585H53.4533L53.1014 99.2475H54.963L55.3149 96.9585H56.2457L55.8938 99.2475H57.1992V100.193H55.7576L55.4965 101.992H56.9041V102.937H55.3603L55.0084 105.226H54.089L54.4409 102.937H52.5793L52.2274 105.226H51.3079H51.2852ZM52.7041 101.981H54.5657L54.8268 100.181H52.9652L52.7041 101.981Z" fill="#CFC9C2" style="fill:#CFC9C2;fill:color(display-p3 0.8118 0.7882 0.7608);fill-opacity:1;"/>
<path d="M59.7306 105.226L60.0825 102.937H58.7771V101.992H60.2187L60.4798 100.193H59.0836V99.2475H60.6273L60.9792 96.9585H61.8987L61.5468 99.2475H63.4084L63.7603 96.9585H64.6911L64.3392 99.2475H65.6446V100.193H64.203L63.9419 101.992H65.3495V102.937H63.8057L63.4538 105.226H62.5344L62.8862 102.937H61.0246L60.6727 105.226H59.7533H59.7306ZM61.1495 101.981H63.0111L63.2722 100.181H61.4106L61.1495 101.981Z" fill="#CFC9C2" style="fill:#CFC9C2;fill:color(display-p3 0.8118 0.7882 0.7608);fill-opacity:1;"/>
<path d="M67.563 101.81V100.865H73.7494V101.81H67.563Z" fill="#CFC9C2" style="fill:#CFC9C2;fill:color(display-p3 0.8118 0.7882 0.7608);fill-opacity:1;"/>
<path d="M85.0667 105.226L85.4186 102.937H84.1132V101.992H85.5548L85.8159 100.193H84.4196V99.2475H85.9634L86.3153 96.9585H87.2348L86.8829 99.2475H88.7445L89.0964 96.9585H90.0272L89.6753 99.2475H90.9807V100.193H89.5391L89.278 101.992H90.6856V102.937H89.1418L88.7899 105.226H87.8704L88.2223 102.937H86.3607L86.0088 105.226H85.0894H85.0667ZM86.4856 101.981H88.3472L88.6083 100.181H86.7467L86.4856 101.981Z" fill="#CFC9C2" style="fill:#CFC9C2;fill:color(display-p3 0.8118 0.7882 0.7608);fill-opacity:1;"/>
<path d="M93.512 105.226L93.8639 102.937H92.5585V101.992H94.0001L94.2612 100.193H92.865V99.2475H94.4088L94.7607 96.9585H95.6801L95.3283 99.2475H97.1899L97.5418 96.9585H98.4726L98.1207 99.2475H99.4261V100.193H97.9845L97.7234 101.992H99.1309V102.937H97.5872L97.2353 105.226H96.3158L96.6677 102.937H94.8061L94.4542 105.226H93.5347H93.512ZM94.9196 101.981H96.7812L97.0423 100.181H95.1807L94.9196 101.981Z" fill="#CFC9C2" style="fill:#CFC9C2;fill:color(display-p3 0.8118 0.7882 0.7608);fill-opacity:1;"/>
<path d="M101.957 105.226L102.309 102.937H101.004V101.992H102.446L102.707 100.193H101.31V99.2475H102.843L103.195 96.9585H104.126L103.774 99.2475H105.635L105.987 96.9585H106.907L106.555 99.2475H107.86V100.193H106.418L106.157 101.992H107.554V102.937H106.01L105.658 105.226H104.727L105.079 102.937H103.217L102.866 105.226H101.935H101.957ZM103.376 101.981H105.238L105.499 100.181H103.637L103.376 101.981Z" fill="#CFC9C2" style="fill:#CFC9C2;fill:color(display-p3 0.8118 0.7882 0.7608);fill-opacity:1;"/>
<path d="M110.403 105.226L110.755 102.937H109.449V101.992H110.891L111.152 100.193H109.756V99.2475H111.3L111.651 96.9585H112.571L112.219 99.2475H114.081L114.432 96.9585H115.363L115.011 99.2475H116.317V100.193H114.875L114.614 101.992H116.022V102.937H114.478L114.126 105.226H113.207L113.558 102.937H111.697L111.345 105.226H110.425H110.403ZM111.822 101.981H113.683L113.944 100.181H112.083L111.822 101.981Z" fill="#CFC9C2" style="fill:#CFC9C2;fill:color(display-p3 0.8118 0.7882 0.7608);fill-opacity:1;"/>
<path d="M118.848 105.226L119.2 102.937H117.895V101.992H119.336L119.597 100.193H118.201V99.2475H119.745L120.097 96.9585H121.016L120.664 99.2475H122.526L122.878 96.9585H123.809L123.457 99.2475H124.762V100.193H123.321L123.059 101.992H124.467V102.937H122.923L122.571 105.226H121.652L122.004 102.937H120.142L119.79 105.226H118.871H118.848ZM120.267 101.981H122.129L122.39 100.181H120.528L120.267 101.981Z" fill="#CFC9C2" style="fill:#CFC9C2;fill:color(display-p3 0.8118 0.7882 0.7608);fill-opacity:1;"/>
<path d="M127.294 105.226L127.645 102.937H126.34V101.992H127.782L128.043 100.193H126.646V99.2475H128.19L128.542 96.9585H129.462L129.11 99.2475H130.971L131.323 96.9585H132.254L131.902 99.2475H133.208V100.193H131.766L131.505 101.992H132.912V102.937H131.369L131.017 105.226H130.097L130.449 102.937H128.588L128.236 105.226H127.316H127.294ZM128.701 101.981H130.563L130.824 100.181H128.962L128.701 101.981Z" fill="#CFC9C2" style="fill:#CFC9C2;fill:color(display-p3 0.8118 0.7882 0.7608);fill-opacity:1;"/>
<path d="M135.739 105.226L136.091 102.937H134.785V101.992H136.227L136.488 100.193H135.092V99.2475H136.624L136.976 96.9585H137.907L137.555 99.2475H139.417L139.769 96.9585H140.688L140.336 99.2475H141.642V100.193H140.2L139.939 101.992H141.335V102.937H139.791L139.439 105.226H138.509L138.861 102.937H136.999L136.647 105.226H135.716H135.739ZM137.158 101.981H139.019L139.281 100.181H137.419L137.158 101.981Z" fill="#CFC9C2" style="fill:#CFC9C2;fill:color(display-p3 0.8118 0.7882 0.7608);fill-opacity:1;"/>
<path d="M144.184 105.226L144.536 102.937H143.231V101.992H144.672L144.933 100.193H143.537V99.2475H145.081L145.433 96.9585H146.352L146 99.2475H147.862L148.214 96.9585H149.145L148.793 99.2475H150.098V100.193H148.657L148.396 101.992H149.803V102.937H148.259L147.907 105.226H146.988L147.34 102.937H145.478L145.126 105.226H144.207H144.184ZM145.603 101.981H147.465L147.726 100.181H145.864L145.603 101.981Z" fill="#CFC9C2" style="fill:#CFC9C2;fill:color(display-p3 0.8118 0.7882 0.7608);fill-opacity:1;"/>
<path d="M152.63 105.226L152.982 102.937H151.676V101.992H153.118L153.379 100.193H151.983V99.2475H153.526L153.878 96.9585H154.798L154.446 99.2475H156.307L156.659 96.9585H157.59L157.238 99.2475H158.544V100.193H157.102L156.841 101.992H158.249V102.937H156.705L156.353 105.226H155.433L155.785 102.937H153.924L153.572 105.226H152.652H152.63ZM154.049 101.981H155.91L156.171 100.181H154.31L154.049 101.981Z" fill="#CFC9C2" style="fill:#CFC9C2;fill:color(display-p3 0.8118 0.7882 0.7608);fill-opacity:1;"/>
<path d="M160.553 100.056V99.0312H166.546V100.056H160.553ZM160.553 103.29V102.265H166.546V103.29H160.553Z" fill="#CFC9C2" style="fill:#CFC9C2;fill:color(display-p3 0.8118 0.7882 0.7608);fill-opacity:1;"/>
<path d="M177.966 105.226L178.318 102.937H177.012V101.992H178.454L178.715 100.193H177.319V99.2475H178.863L179.214 96.9585H180.134L179.782 99.2475H181.644L181.995 96.9585H182.926L182.574 99.2475H183.88V100.193H182.438L182.177 101.992H183.585V102.937H182.041L181.689 105.226H180.77L181.121 102.937H179.26L178.908 105.226H177.988H177.966ZM179.385 101.981H181.246L181.507 100.181H179.646L179.385 101.981Z" fill="#CFC9C2" style="fill:#CFC9C2;fill:color(display-p3 0.8118 0.7882 0.7608);fill-opacity:1;"/>
<path d="M186.411 105.226L186.763 102.937H185.458V101.992H186.899L187.16 100.193H185.764V99.2475H187.308L187.66 96.9585H188.579L188.227 99.2475H190.089L190.441 96.9585H191.372L191.02 99.2475H192.325V100.193H190.884L190.622 101.992H192.03V102.937H190.486L190.134 105.226H189.215L189.567 102.937H187.705L187.353 105.226H186.434H186.411ZM187.819 101.981H189.68L189.941 100.181H188.08L187.819 101.981Z" fill="#CFC9C2" style="fill:#CFC9C2;fill:color(display-p3 0.8118 0.7882 0.7608);fill-opacity:1;"/>
<path d="M194.856 105.226L195.208 102.937H193.903V101.992H195.345L195.606 100.193H194.209V99.2475H195.753L196.105 96.9585H197.025L196.673 99.2475H198.534L198.886 96.9585H199.817L199.465 99.2475H200.77V100.193H199.329L199.068 101.992H200.475V102.937H198.932L198.58 105.226H197.66L198.012 102.937H196.151L195.799 105.226H194.879H194.856ZM196.264 101.981H198.126L198.387 100.181H196.525L196.264 101.981Z" fill="#CFC9C2" style="fill:#CFC9C2;fill:color(display-p3 0.8118 0.7882 0.7608);fill-opacity:1;"/>
<path d="M203.302 105.226L203.654 102.937H202.348V101.992H203.79L204.051 100.193H202.655V99.2475H204.187L204.539 96.9585H205.47L205.118 99.2475H206.98L207.332 96.9585H208.251L207.899 99.2475H209.205V100.193H207.763L207.502 101.992H208.898V102.937H207.354L207.002 105.226H206.072L206.423 102.937H204.562L204.21 105.226H203.279H203.302ZM204.721 101.981H206.582L206.843 100.181H204.982L204.721 101.981Z" fill="#CFC9C2" style="fill:#CFC9C2;fill:color(display-p3 0.8118 0.7882 0.7608);fill-opacity:1;"/>
<path d="M211.747 105.226L212.099 102.937H210.794V101.992H212.235L212.496 100.193H211.1V99.2475H212.644L212.996 96.9585H213.915L213.563 99.2475H215.425L215.777 96.9585H216.708L216.356 99.2475H217.661V100.193H216.22L215.959 101.992H217.366V102.937H215.822L215.47 105.226H214.551L214.903 102.937H213.041L212.689 105.226H211.77H211.747ZM213.166 101.981H215.028L215.289 100.181H213.427L213.166 101.981Z" fill="#CFC9C2" style="fill:#CFC9C2;fill:color(display-p3 0.8118 0.7882 0.7608);fill-opacity:1;"/>
<path d="M221.805 104.441C221.805 103.94 222.168 103.598 222.667 103.598C223.167 103.598 223.53 103.94 223.53 104.441C223.53 104.942 223.167 105.283 222.667 105.283C222.168 105.283 221.805 104.942 221.805 104.441Z" fill="#CFC9C2" style="fill:#CFC9C2;fill:color(display-p3 0.8118 0.7882 0.7608);fill-opacity:1;"/>
<path d="M19.127 115.259C19.127 114.758 19.4902 114.417 19.9897 114.417C20.4891 114.417 20.8524 114.758 20.8524 115.259C20.8524 115.76 20.4891 116.102 19.9897 116.102C19.4902 116.102 19.127 115.76 19.127 115.259ZM19.127 120.384C19.127 119.883 19.4902 119.541 19.9897 119.541C20.4891 119.541 20.8524 119.883 20.8524 120.384C20.8524 120.885 20.4891 121.227 19.9897 121.227C19.4902 121.227 19.127 120.885 19.127 120.384Z" fill="#CFC9C2" style="fill:#CFC9C2;fill:color(display-p3 0.8118 0.7882 0.7608);fill-opacity:1;"/>
<path d="M25.9491 121.17L26.301 118.881H24.9956V117.935H26.4372L26.6983 116.136H25.3021V115.191H26.8458L27.1977 112.902H28.1172L27.7653 115.191H29.6269L29.9788 112.902H30.9096L30.5577 115.191H31.8631V116.136H30.4215L30.1604 117.935H31.568V118.881H30.0242L29.6723 121.17H28.7529L29.1047 118.881H27.2431L26.8912 121.17H25.9718H25.9491ZM27.368 117.924H29.2296L29.4907 116.125H27.6291L27.368 117.924Z" fill="#CFC9C2" style="fill:#CFC9C2;fill:color(display-p3 0.8118 0.7882 0.7608);fill-opacity:1;"/>
<path d="M34.3945 121.17L34.7464 118.881H33.4409V117.935H34.8826L35.1436 116.136H33.7474V115.191H35.2799L35.6318 112.902H36.5626L36.2107 115.191H38.0723L38.4242 112.902H39.3436L38.9917 115.191H40.2971V116.136H38.8555L38.5944 117.935H39.9907V118.881H38.4469L38.095 121.17H37.1642L37.5161 118.881H35.6545L35.3026 121.17H34.3718H34.3945ZM35.8134 117.924H37.675L37.9361 116.125H36.0745L35.8134 117.924Z" fill="#CFC9C2" style="fill:#CFC9C2;fill:color(display-p3 0.8118 0.7882 0.7608);fill-opacity:1;"/>
<path d="M42.8398 121.17L43.1917 118.881H41.8863V117.935H43.3279L43.589 116.136H42.1928V115.191H43.7366L44.0885 112.902H45.0079L44.656 115.191H46.5177L46.8695 112.902H47.8003L47.4485 115.191H48.7539V116.136H47.3122L47.0512 117.935H48.4587V118.881H46.9149L46.5631 121.17H45.6436L45.9955 118.881H44.1339L43.782 121.17H42.8625H42.8398ZM44.2587 117.924H46.1204L46.3814 116.125H44.5198L44.2587 117.924Z" fill="#CFC9C2" style="fill:#CFC9C2;fill:color(display-p3 0.8118 0.7882 0.7608);fill-opacity:1;"/>
<path d="M51.2852 121.17L51.6371 118.881H50.3317V117.935H51.7733L52.0344 116.136H50.6382V115.191H52.182L52.5338 112.902H53.4533L53.1014 115.191H54.963L55.3149 112.902H56.2457L55.8938 115.191H57.1992V116.136H55.7576L55.4965 117.935H56.9041V118.881H55.3603L55.0084 121.17H54.089L54.4409 118.881H52.5793L52.2274 121.17H51.3079H51.2852ZM52.7041 117.924H54.5657L54.8268 116.125H52.9652L52.7041 117.924Z" fill="#CFC9C2" style="fill:#CFC9C2;fill:color(display-p3 0.8118 0.7882 0.7608);fill-opacity:1;"/>
<path d="M61.649 120.213V117.457H59.0609V116.433H61.649V113.688H62.7614V116.433H65.3608V117.457H62.7614V120.213H61.649Z" fill="#CFC9C2" style="fill:#CFC9C2;fill:color(display-p3 0.8118 0.7882 0.7608);fill-opacity:1;"/>
<path d="M171.439 120.213V117.457H168.851V116.433H171.439V113.688H172.551V116.433H175.151V117.457H172.551V120.213H171.439Z" fill="#CFC9C2" style="fill:#CFC9C2;fill:color(display-p3 0.8118 0.7882 0.7608);fill-opacity:1;"/>
<path d="M177.966 121.17L178.318 118.881H177.012V117.935H178.454L178.715 116.136H177.319V115.191H178.863L179.214 112.902H180.134L179.782 115.191H181.644L181.995 112.902H182.926L182.574 115.191H183.88V116.136H182.438L182.177 117.935H183.585V118.881H182.041L181.689 121.17H180.77L181.121 118.881H179.26L178.908 121.17H177.988H177.966ZM179.385 117.924H181.246L181.507 116.125H179.646L179.385 117.924Z" fill="#CFC9C2" style="fill:#CFC9C2;fill:color(display-p3 0.8118 0.7882 0.7608);fill-opacity:1;"/>
<path d="M186.411 121.17L186.763 118.881H185.458V117.935H186.899L187.16 116.136H185.764V115.191H187.308L187.66 112.902H188.579L188.227 115.191H190.089L190.441 112.902H191.372L191.02 115.191H192.325V116.136H190.884L190.622 117.935H192.03V118.881H190.486L190.134 121.17H189.215L189.567 118.881H187.705L187.353 121.17H186.434H186.411ZM187.819 117.924H189.68L189.941 116.125H188.08L187.819 117.924Z" fill="#CFC9C2" style="fill:#CFC9C2;fill:color(display-p3 0.8118 0.7882 0.7608);fill-opacity:1;"/>
<path d="M194.856 121.17L195.208 118.881H193.903V117.935H195.345L195.606 116.136H194.209V115.191H195.753L196.105 112.902H197.025L196.673 115.191H198.534L198.886 112.902H199.817L199.465 115.191H200.77V116.136H199.329L199.068 117.935H200.475V118.881H198.932L198.58 121.17H197.66L198.012 118.881H196.151L195.799 121.17H194.879H194.856ZM196.264 117.924H198.126L198.387 116.125H196.525L196.264 117.924Z" fill="#CFC9C2" style="fill:#CFC9C2;fill:color(display-p3 0.8118 0.7882 0.7608);fill-opacity:1;"/>
<path d="M203.302 121.17L203.654 118.881H202.348V117.935H203.79L204.051 116.136H202.655V115.191H204.187L204.539 112.902H205.47L205.118 115.191H206.98L207.332 112.902H208.251L207.899 115.191H209.205V116.136H207.763L207.502 117.935H208.898V118.881H207.354L207.002 121.17H206.072L206.423 118.881H204.562L204.21 121.17H203.279H203.302ZM204.721 117.924H206.582L206.843 116.125H204.982L204.721 117.924Z" fill="#CFC9C2" style="fill:#CFC9C2;fill:color(display-p3 0.8118 0.7882 0.7608);fill-opacity:1;"/>
<path d="M211.134 117.754V116.808H217.321V117.754H211.134Z" fill="#CFC9C2" style="fill:#CFC9C2;fill:color(display-p3 0.8118 0.7882 0.7608);fill-opacity:1;"/>
<path d="M17.5037 137.113L17.8556 134.824H16.5502V133.879H17.9918L18.2529 132.079H16.8567V131.134H18.4005L18.7524 128.845H19.6718L19.3199 131.134H21.1815L21.5334 128.845H22.4642L22.1123 131.134H23.4177V132.079H21.9761L21.715 133.879H23.1226V134.824H21.5788L21.2269 137.113H20.3075L20.6594 134.824H18.7978L18.4459 137.113H17.5264H17.5037ZM18.9226 133.867H20.7842L21.0453 132.068H19.1837L18.9226 133.867Z" fill="#CFC9C2" style="fill:#CFC9C2;fill:color(display-p3 0.8118 0.7882 0.7608);fill-opacity:1;"/>
<path d="M25.9491 137.113L26.301 134.824H24.9956V133.879H26.4372L26.6983 132.079H25.3021V131.134H26.8458L27.1977 128.845H28.1172L27.7653 131.134H29.6269L29.9788 128.845H30.9096L30.5577 131.134H31.8631V132.079H30.4215L30.1604 133.879H31.568V134.824H30.0242L29.6723 137.113H28.7529L29.1047 134.824H27.2431L26.8912 137.113H25.9718H25.9491ZM27.368 133.867H29.2296L29.4907 132.068H27.6291L27.368 133.867Z" fill="#CFC9C2" style="fill:#CFC9C2;fill:color(display-p3 0.8118 0.7882 0.7608);fill-opacity:1;"/>
<path d="M34.3945 137.113L34.7464 134.824H33.4409V133.879H34.8826L35.1436 132.079H33.7474V131.134H35.2799L35.6318 128.845H36.5626L36.2107 131.134H38.0723L38.4242 128.845H39.3436L38.9917 131.134H40.2971V132.079H38.8555L38.5944 133.879H39.9907V134.824H38.4469L38.095 137.113H37.1642L37.5161 134.824H35.6545L35.3026 137.113H34.3718H34.3945ZM35.8134 133.867H37.675L37.9361 132.068H36.0745L35.8134 133.867Z" fill="#CFC9C2" style="fill:#CFC9C2;fill:color(display-p3 0.8118 0.7882 0.7608);fill-opacity:1;"/>
<path d="M42.8398 137.113L43.1917 134.824H41.8863V133.879H43.3279L43.589 132.079H42.1928V131.134H43.7366L44.0885 128.845H45.0079L44.656 131.134H46.5177L46.8695 128.845H47.8003L47.4485 131.134H48.7539V132.079H47.3122L47.0512 133.879H48.4587V134.824H46.9149L46.5631 137.113H45.6436L45.9955 134.824H44.1339L43.782 137.113H42.8625H42.8398ZM44.2587 133.867H46.1204L46.3814 132.068H44.5198L44.2587 133.867Z" fill="#CFC9C2" style="fill:#CFC9C2;fill:color(display-p3 0.8118 0.7882 0.7608);fill-opacity:1;"/>
<path d="M51.2852 137.113L51.6371 134.824H50.3317V133.879H51.7733L52.0344 132.079H50.6382V131.134H52.182L52.5338 128.845H53.4533L53.1014 131.134H54.963L55.3149 128.845H56.2457L55.8938 131.134H57.1992V132.079H55.7576L55.4965 133.879H56.9041V134.824H55.3603L55.0084 137.113H54.089L54.4409 134.824H52.5793L52.2274 137.113H51.3079H51.2852ZM52.7041 133.867H54.5657L54.8268 132.068H52.9652L52.7041 133.867Z" fill="#CFC9C2" style="fill:#CFC9C2;fill:color(display-p3 0.8118 0.7882 0.7608);fill-opacity:1;"/>
<path d="M162.687 131.203C162.687 130.702 163.05 130.36 163.55 130.36C164.049 130.36 164.412 130.702 164.412 131.203C164.412 131.704 164.049 132.046 163.55 132.046C163.05 132.046 162.687 131.704 162.687 131.203ZM162.687 136.327C162.687 135.826 163.05 135.485 163.55 135.485C164.049 135.485 164.412 135.826 164.412 136.327C164.412 136.829 164.049 137.17 163.55 137.17C163.05 137.17 162.687 136.829 162.687 136.327Z" fill="#CFC9C2" style="fill:#CFC9C2;fill:color(display-p3 0.8118 0.7882 0.7608);fill-opacity:1;"/>
<path d="M169.52 137.113L169.872 134.824H168.567V133.879H170.008L170.27 132.079H168.873V131.134H170.406L170.758 128.845H171.688L171.337 131.134H173.198L173.55 128.845H174.47L174.118 131.134H175.423V132.079H173.981L173.72 133.879H175.117V134.824H173.573L173.221 137.113H172.29L172.642 134.824H170.78L170.428 137.113H169.498H169.52ZM170.939 133.867H172.801L173.062 132.068H171.2L170.939 133.867Z" fill="#CFC9C2" style="fill:#CFC9C2;fill:color(display-p3 0.8118 0.7882 0.7608);fill-opacity:1;"/>
<path d="M177.966 137.113L178.318 134.824H177.012V133.879H178.454L178.715 132.079H177.319V131.134H178.863L179.214 128.845H180.134L179.782 131.134H181.644L181.995 128.845H182.926L182.574 131.134H183.88V132.079H182.438L182.177 133.879H183.585V134.824H182.041L181.689 137.113H180.77L181.121 134.824H179.26L178.908 137.113H177.988H177.966ZM179.385 133.867H181.246L181.507 132.068H179.646L179.385 133.867Z" fill="#CFC9C2" style="fill:#CFC9C2;fill:color(display-p3 0.8118 0.7882 0.7608);fill-opacity:1;"/>
<path d="M186.411 137.113L186.763 134.824H185.458V133.879H186.899L187.16 132.079H185.764V131.134H187.308L187.66 128.845H188.579L188.227 131.134H190.089L190.441 128.845H191.372L191.02 131.134H192.325V132.079H190.884L190.622 133.879H192.03V134.824H190.486L190.134 137.113H189.215L189.567 134.824H187.705L187.353 137.113H186.434H186.411ZM187.819 133.867H189.68L189.941 132.068H188.08L187.819 133.867Z" fill="#CFC9C2" style="fill:#CFC9C2;fill:color(display-p3 0.8118 0.7882 0.7608);fill-opacity:1;"/>
<path d="M194.856 137.113L195.208 134.824H193.903V133.879H195.345L195.606 132.079H194.209V131.134H195.753L196.105 128.845H197.025L196.673 131.134H198.534L198.886 128.845H199.817L199.465 131.134H200.77V132.079H199.329L199.068 133.879H200.475V134.824H198.932L198.58 137.113H197.66L198.012 134.824H196.151L195.799 137.113H194.879H194.856ZM196.264 133.867H198.126L198.387 132.068H196.525L196.264 133.867Z" fill="#CFC9C2" style="fill:#CFC9C2;fill:color(display-p3 0.8118 0.7882 0.7608);fill-opacity:1;"/>
<path d="M204.267 133.161L203.506 132.49L205.061 130.702L202.825 129.87L203.234 128.914L205.311 129.882L205.288 127.547H206.265L206.219 129.893L208.33 128.914L208.728 129.882L206.503 130.713L208.024 132.49L207.263 133.161L205.754 131.237L204.255 133.161H204.267Z" fill="#CFC9C2" style="fill:#CFC9C2;fill:color(display-p3 0.8118 0.7882 0.7608);fill-opacity:1;"/>
<path d="M10.9767 152.1V149.344H8.38864V148.319H10.9767V145.575H12.0892V148.319H14.6886V149.344H12.0892V152.1H10.9767Z" fill="#CFC9C2" style="fill:#CFC9C2;fill:color(display-p3 0.8118 0.7882 0.7608);fill-opacity:1;"/>
<path d="M17.5037 153.056L17.8556 150.767H16.5502V149.822H17.9918L18.2529 148.023H16.8567V147.078H18.4005L18.7524 144.789H19.6718L19.3199 147.078H21.1815L21.5334 144.789H22.4642L22.1123 147.078H23.4177V148.023H21.9761L21.715 149.822H23.1226V150.767H21.5788L21.2269 153.056H20.3075L20.6594 150.767H18.7978L18.4459 153.056H17.5264H17.5037ZM18.9226 149.811H20.7842L21.0453 148.011H19.1837L18.9226 149.811Z" fill="#CFC9C2" style="fill:#CFC9C2;fill:color(display-p3 0.8118 0.7882 0.7608);fill-opacity:1;"/>
<path d="M25.9491 153.056L26.301 150.767H24.9956V149.822H26.4372L26.6983 148.023H25.3021V147.078H26.8458L27.1977 144.789H28.1172L27.7653 147.078H29.6269L29.9788 144.789H30.9096L30.5577 147.078H31.8631V148.023H30.4215L30.1604 149.822H31.568V150.767H30.0242L29.6723 153.056H28.7529L29.1047 150.767H27.2431L26.8912 153.056H25.9718H25.9491ZM27.368 149.811H29.2296L29.4907 148.011H27.6291L27.368 149.811Z" fill="#CFC9C2" style="fill:#CFC9C2;fill:color(display-p3 0.8118 0.7882 0.7608);fill-opacity:1;"/>
<path d="M34.3945 153.056L34.7464 150.767H33.4409V149.822H34.8826L35.1436 148.023H33.7474V147.078H35.2799L35.6318 144.789H36.5626L36.2107 147.078H38.0723L38.4242 144.789H39.3436L38.9917 147.078H40.2971V148.023H38.8555L38.5944 149.822H39.9907V150.767H38.4469L38.095 153.056H37.1642L37.5161 150.767H35.6545L35.3026 153.056H34.3718H34.3945ZM35.8134 149.811H37.675L37.9361 148.011H36.0745L35.8134 149.811Z" fill="#CFC9C2" style="fill:#CFC9C2;fill:color(display-p3 0.8118 0.7882 0.7608);fill-opacity:1;"/>
<path d="M42.8398 153.056L43.1917 150.767H41.8863V149.822H43.3279L43.589 148.023H42.1928V147.078H43.7366L44.0885 144.789H45.0079L44.656 147.078H46.5177L46.8695 144.789H47.8003L47.4485 147.078H48.7539V148.023H47.3122L47.0512 149.822H48.4587V150.767H46.9149L46.5631 153.056H45.6436L45.9955 150.767H44.1339L43.782 153.056H42.8625H42.8398ZM44.2587 149.811H46.1204L46.3814 148.011H44.5198L44.2587 149.811Z" fill="#CFC9C2" style="fill:#CFC9C2;fill:color(display-p3 0.8118 0.7882 0.7608);fill-opacity:1;"/>
<path d="M50.6722 149.64V148.695H56.8587V149.64H50.6722Z" fill="#CFC9C2" style="fill:#CFC9C2;fill:color(display-p3 0.8118 0.7882 0.7608);fill-opacity:1;"/>
<path d="M161.075 153.056L161.427 150.767H160.121V149.822H161.563L161.824 148.023H160.428V147.078H161.972L162.324 144.789H163.243L162.891 147.078H164.753L165.105 144.789H166.036L165.684 147.078H166.989V148.023H165.547L165.286 149.822H166.694V150.767H165.15L164.798 153.056H163.879L164.231 150.767H162.369L162.017 153.056H161.098H161.075ZM162.483 149.811H164.344L164.605 148.011H162.744L162.483 149.811Z" fill="#CFC9C2" style="fill:#CFC9C2;fill:color(display-p3 0.8118 0.7882 0.7608);fill-opacity:1;"/>
<path d="M169.52 153.056L169.872 150.767H168.567V149.822H170.008L170.27 148.023H168.873V147.078H170.406L170.758 144.789H171.688L171.337 147.078H173.198L173.55 144.789H174.47L174.118 147.078H175.423V148.023H173.981L173.72 149.822H175.117V150.767H173.573L173.221 153.056H172.29L172.642 150.767H170.78L170.428 153.056H169.498H169.52ZM170.939 149.811H172.801L173.062 148.011H171.2L170.939 149.811Z" fill="#CFC9C2" style="fill:#CFC9C2;fill:color(display-p3 0.8118 0.7882 0.7608);fill-opacity:1;"/>
<path d="M177.966 153.056L178.318 150.767H177.012V149.822H178.454L178.715 148.023H177.319V147.078H178.863L179.214 144.789H180.134L179.782 147.078H181.644L181.995 144.789H182.926L182.574 147.078H183.88V148.023H182.438L182.177 149.822H183.585V150.767H182.041L181.689 153.056H180.77L181.121 150.767H179.26L178.908 153.056H177.988H177.966ZM179.385 149.811H181.246L181.507 148.011H179.646L179.385 149.811Z" fill="#CFC9C2" style="fill:#CFC9C2;fill:color(display-p3 0.8118 0.7882 0.7608);fill-opacity:1;"/>
<path d="M186.411 153.056L186.763 150.767H185.458V149.822H186.899L187.16 148.023H185.764V147.078H187.308L187.66 144.789H188.579L188.227 147.078H190.089L190.441 144.789H191.372L191.02 147.078H192.325V148.023H190.884L190.622 149.822H192.03V150.767H190.486L190.134 153.056H189.215L189.567 150.767H187.705L187.353 153.056H186.434H186.411ZM187.819 149.811H189.68L189.941 148.011H188.08L187.819 149.811Z" fill="#CFC9C2" style="fill:#CFC9C2;fill:color(display-p3 0.8118 0.7882 0.7608);fill-opacity:1;"/>
<path d="M194.856 153.056L195.208 150.767H193.903V149.822H195.345L195.606 148.023H194.209V147.078H195.753L196.105 144.789H197.025L196.673 147.078H198.534L198.886 144.789H199.817L199.465 147.078H200.77V148.023H199.329L199.068 149.822H200.475V150.767H198.932L198.58 153.056H197.66L198.012 150.767H196.151L195.799 153.056H194.879H194.856ZM196.264 149.811H198.126L198.387 148.011H196.525L196.264 149.811Z" fill="#CFC9C2" style="fill:#CFC9C2;fill:color(display-p3 0.8118 0.7882 0.7608);fill-opacity:1;"/>
<path d="M204.925 152.271C204.925 151.77 205.288 151.428 205.788 151.428C206.287 151.428 206.651 151.77 206.651 152.271C206.651 152.772 206.287 153.113 205.788 153.113C205.288 153.113 204.925 152.772 204.925 152.271Z" fill="#CFC9C2" style="fill:#CFC9C2;fill:color(display-p3 0.8118 0.7882 0.7608);fill-opacity:1;"/>
<path d="M0 165.584V164.638H6.18646V165.584H0Z" fill="#CFC9C2" style="fill:#CFC9C2;fill:color(display-p3 0.8118 0.7882 0.7608);fill-opacity:1;"/>
<path d="M9.05837 169L9.41026 166.711H8.10486V165.766H9.54647L9.80755 163.966H8.41134V163.021H9.95512L10.307 160.732H11.2265L10.8746 163.021H12.7362L13.0881 160.732H14.0189L13.667 163.021H14.9724V163.966H13.5308L13.2697 165.766H14.6773V166.711H13.1335L12.7816 169H11.8621L12.214 166.711H10.3524L10.0005 169H9.08107H9.05837ZM10.4773 165.754H12.3389L12.6 163.955H10.7384L10.4773 165.754Z" fill="#CFC9C2" style="fill:#CFC9C2;fill:color(display-p3 0.8118 0.7882 0.7608);fill-opacity:1;"/>
<path d="M17.5037 169L17.8556 166.711H16.5502V165.766H17.9918L18.2529 163.966H16.8567V163.021H18.4005L18.7524 160.732H19.6718L19.3199 163.021H21.1815L21.5334 160.732H22.4642L22.1123 163.021H23.4177V163.966H21.9761L21.715 165.766H23.1226V166.711H21.5788L21.2269 169H20.3075L20.6594 166.711H18.7978L18.4459 169H17.5264H17.5037ZM18.9226 165.754H20.7842L21.0453 163.955H19.1837L18.9226 165.754Z" fill="#CFC9C2" style="fill:#CFC9C2;fill:color(display-p3 0.8118 0.7882 0.7608);fill-opacity:1;"/>
<path d="M25.9491 169L26.301 166.711H24.9956V165.766H26.4372L26.6983 163.966H25.3021V163.021H26.8458L27.1977 160.732H28.1172L27.7653 163.021H29.6269L29.9788 160.732H30.9096L30.5577 163.021H31.8631V163.966H30.4215L30.1604 165.766H31.568V166.711H30.0242L29.6723 169H28.7529L29.1047 166.711H27.2431L26.8912 169H25.9718H25.9491ZM27.368 165.754H29.2296L29.4907 163.955H27.6291L27.368 165.754Z" fill="#CFC9C2" style="fill:#CFC9C2;fill:color(display-p3 0.8118 0.7882 0.7608);fill-opacity:1;"/>
<path d="M34.3945 169L34.7464 166.711H33.4409V165.766H34.8826L35.1436 163.966H33.7474V163.021H35.2799L35.6318 160.732H36.5626L36.2107 163.021H38.0723L38.4242 160.732H39.3436L38.9917 163.021H40.2971V163.966H38.8555L38.5944 165.766H39.9907V166.711H38.4469L38.095 169H37.1642L37.5161 166.711H35.6545L35.3026 169H34.3718H34.3945ZM35.8134 165.754H37.675L37.9361 163.955H36.0745L35.8134 165.754Z" fill="#CFC9C2" style="fill:#CFC9C2;fill:color(display-p3 0.8118 0.7882 0.7608);fill-opacity:1;"/>
<path d="M44.7582 168.043V165.288H42.1701V164.263H44.7582V161.518H45.8706V164.263H48.4701V165.288H45.8706V168.043H44.7582Z" fill="#CFC9C2" style="fill:#CFC9C2;fill:color(display-p3 0.8118 0.7882 0.7608);fill-opacity:1;"/>
<path d="M154.548 168.043V165.288H151.96V164.263H154.548V161.518H155.66V164.263H158.26V165.288H155.66V168.043H154.548Z" fill="#CFC9C2" style="fill:#CFC9C2;fill:color(display-p3 0.8118 0.7882 0.7608);fill-opacity:1;"/>
<path d="M161.075 169L161.427 166.711H160.121V165.766H161.563L161.824 163.966H160.428V163.021H161.972L162.324 160.732H163.243L162.891 163.021H164.753L165.105 160.732H166.036L165.684 163.021H166.989V163.966H165.547L165.286 165.766H166.694V166.711H165.15L164.798 169H163.879L164.231 166.711H162.369L162.017 169H161.098H161.075ZM162.483 165.754H164.344L164.605 163.955H162.744L162.483 165.754Z" fill="#CFC9C2" style="fill:#CFC9C2;fill:color(display-p3 0.8118 0.7882 0.7608);fill-opacity:1;"/>
<path d="M169.52 169L169.872 166.711H168.567V165.766H170.008L170.27 163.966H168.873V163.021H170.406L170.758 160.732H171.688L171.337 163.021H173.198L173.55 160.732H174.47L174.118 163.021H175.423V163.966H173.981L173.72 165.766H175.117V166.711H173.573L173.221 169H172.29L172.642 166.711H170.78L170.428 169H169.498H169.52ZM170.939 165.754H172.801L173.062 163.955H171.2L170.939 165.754Z" fill="#CFC9C2" style="fill:#CFC9C2;fill:color(display-p3 0.8118 0.7882 0.7608);fill-opacity:1;"/>
<path d="M177.966 169L178.318 166.711H177.012V165.766H178.454L178.715 163.966H177.319V163.021H178.863L179.214 160.732H180.134L179.782 163.021H181.644L181.995 160.732H182.926L182.574 163.021H183.88V163.966H182.438L182.177 165.766H183.585V166.711H182.041L181.689 169H180.77L181.121 166.711H179.26L178.908 169H177.988H177.966ZM179.385 165.754H181.246L181.507 163.955H179.646L179.385 165.754Z" fill="#CFC9C2" style="fill:#CFC9C2;fill:color(display-p3 0.8118 0.7882 0.7608);fill-opacity:1;"/>
<path d="M186.411 169L186.763 166.711H185.458V165.766H186.899L187.16 163.966H185.764V163.021H187.308L187.66 160.732H188.579L188.227 163.021H190.089L190.441 160.732H191.372L191.02 163.021H192.325V163.966H190.884L190.622 165.766H192.03V166.711H190.486L190.134 169H189.215L189.567 166.711H187.705L187.353 169H186.434H186.411ZM187.819 165.754H189.68L189.941 163.955H188.08L187.819 165.754Z" fill="#CFC9C2" style="fill:#CFC9C2;fill:color(display-p3 0.8118 0.7882 0.7608);fill-opacity:1;"/>
<path d="M194.244 165.584V164.638H200.43V165.584H194.244Z" fill="#CFC9C2" style="fill:#CFC9C2;fill:color(display-p3 0.8118 0.7882 0.7608);fill-opacity:1;"/>
</g>
<defs>
<clipPath id="clip0_511_3259">
<rect width="251" height="169" fill="white" style="fill:white;fill-opacity:1;"/>
</clipPath>
</defs>
</svg>
