<svg width="477" height="58" viewBox="0 0 477 58" fill="none" xmlns="http://www.w3.org/2000/svg">
<g clip-path="url(#clip0_738_11606)">
<path d="M74.9269 1.28278V0H83.8601V1.28278H74.9269Z" fill="#7A756B" style="fill:#7A756B;fill:color(display-p3 0.4784 0.4588 0.4196);fill-opacity:1;"/>
<path d="M86.4256 1.28278V0H95.3587V1.28278H86.4256Z" fill="#7A756B" style="fill:#7A756B;fill:color(display-p3 0.4784 0.4588 0.4196);fill-opacity:1;"/>
<path d="M97.9243 1.28278V0H106.857V1.28278H97.9243Z" fill="#7A756B" style="fill:#7A756B;fill:color(display-p3 0.4784 0.4588 0.4196);fill-opacity:1;"/>
<path d="M109.423 1.28278V0H118.356V1.28278H109.423Z" fill="#7A756B" style="fill:#7A756B;fill:color(display-p3 0.4784 0.4588 0.4196);fill-opacity:1;"/>
<path d="M132.42 1.28278V0H141.353V1.28278H132.42Z" fill="#7A756B" style="fill:#7A756B;fill:color(display-p3 0.4784 0.4588 0.4196);fill-opacity:1;"/>
<path d="M143.919 1.28278V0H152.852V1.28278H143.919Z" fill="#7A756B" style="fill:#7A756B;fill:color(display-p3 0.4784 0.4588 0.4196);fill-opacity:1;"/>
<path d="M155.418 1.28278V0H164.351V1.28278H155.418Z" fill="#7A756B" style="fill:#7A756B;fill:color(display-p3 0.4784 0.4588 0.4196);fill-opacity:1;"/>
<path d="M166.916 1.28278V0H175.85V1.28278H166.916Z" fill="#7A756B" style="fill:#7A756B;fill:color(display-p3 0.4784 0.4588 0.4196);fill-opacity:1;"/>
<path d="M189.914 1.28278V0H198.847V1.28278H189.914Z" fill="#7A756B" style="fill:#7A756B;fill:color(display-p3 0.4784 0.4588 0.4196);fill-opacity:1;"/>
<path d="M201.412 1.28278V0H210.346V1.28278H201.412Z" fill="#7A756B" style="fill:#7A756B;fill:color(display-p3 0.4784 0.4588 0.4196);fill-opacity:1;"/>
<path d="M212.911 1.28278V0H221.844V1.28278H212.911Z" fill="#7A756B" style="fill:#7A756B;fill:color(display-p3 0.4784 0.4588 0.4196);fill-opacity:1;"/>
<path d="M224.41 1.28278V0H233.343V1.28278H224.41Z" fill="#7A756B" style="fill:#7A756B;fill:color(display-p3 0.4784 0.4588 0.4196);fill-opacity:1;"/>
<path d="M247.407 1.28278V0H256.34V1.28278H247.407Z" fill="#7A756B" style="fill:#7A756B;fill:color(display-p3 0.4784 0.4588 0.4196);fill-opacity:1;"/>
<path d="M258.906 1.28278V0H267.839V1.28278H258.906Z" fill="#7A756B" style="fill:#7A756B;fill:color(display-p3 0.4784 0.4588 0.4196);fill-opacity:1;"/>
<path d="M270.405 1.28278V0H279.338V1.28278H270.405Z" fill="#7A756B" style="fill:#7A756B;fill:color(display-p3 0.4784 0.4588 0.4196);fill-opacity:1;"/>
<path d="M281.903 1.28278V0H290.836V1.28278H281.903Z" fill="#7A756B" style="fill:#7A756B;fill:color(display-p3 0.4784 0.4588 0.4196);fill-opacity:1;"/>
<path d="M304.901 1.28278V0H313.834V1.28278H304.901Z" fill="#7A756B" style="fill:#7A756B;fill:color(display-p3 0.4784 0.4588 0.4196);fill-opacity:1;"/>
<path d="M316.399 1.28278V0H325.332V1.28278H316.399Z" fill="#7A756B" style="fill:#7A756B;fill:color(display-p3 0.4784 0.4588 0.4196);fill-opacity:1;"/>
<path d="M327.898 1.28278V0H336.831V1.28278H327.898Z" fill="#7A756B" style="fill:#7A756B;fill:color(display-p3 0.4784 0.4588 0.4196);fill-opacity:1;"/>
<path d="M339.397 1.28278V0H348.33V1.28278H339.397Z" fill="#7A756B" style="fill:#7A756B;fill:color(display-p3 0.4784 0.4588 0.4196);fill-opacity:1;"/>
<path d="M362.394 1.28278V0H371.327V1.28278H362.394Z" fill="#7A756B" style="fill:#7A756B;fill:color(display-p3 0.4784 0.4588 0.4196);fill-opacity:1;"/>
<path d="M373.893 1.28278V0H382.826V1.28278H373.893Z" fill="#7A756B" style="fill:#7A756B;fill:color(display-p3 0.4784 0.4588 0.4196);fill-opacity:1;"/>
<path d="M385.391 1.28278V0H394.325V1.28278H385.391Z" fill="#7A756B" style="fill:#7A756B;fill:color(display-p3 0.4784 0.4588 0.4196);fill-opacity:1;"/>
<path d="M396.89 1.28278V0H405.823V1.28278H396.89Z" fill="#7A756B" style="fill:#7A756B;fill:color(display-p3 0.4784 0.4588 0.4196);fill-opacity:1;"/>
<path d="M67.1375 20.2928V4.89941H68.6521V20.2774H67.1375V20.2928Z" fill="#7A756B" style="fill:#7A756B;fill:color(display-p3 0.4784 0.4588 0.4196);fill-opacity:1;"/>
<path d="M78.6362 20.2928V4.89941H80.1508V20.2774H78.6362V20.2928Z" fill="#7A756B" style="fill:#7A756B;fill:color(display-p3 0.4784 0.4588 0.4196);fill-opacity:1;"/>
<path d="M94.0914 8.97952H95.4051V17.9745C95.4051 20.6946 93.9523 22.2556 90.7222 22.2556C88.3111 22.2556 86.6265 21.1273 86.3792 19.0409H87.9402C88.203 20.2309 89.2539 20.8955 90.8303 20.8955C92.8086 20.8955 93.8905 19.9682 93.8905 17.9126V16.7999C93.2568 17.8817 92.2368 18.5463 90.6449 18.5463C88.033 18.5463 86.101 16.7844 86.101 13.7088C86.101 10.8187 88.033 8.87134 90.6449 8.87134C92.2368 8.87134 93.2877 9.55137 93.8905 10.6178L94.0914 8.99498V8.97952ZM93.9059 13.7397C93.9059 11.6687 92.6386 10.2159 90.7994 10.2159C88.9603 10.2159 87.662 11.6378 87.662 13.6934C87.662 15.7489 88.9294 17.1708 90.7994 17.1708C92.6695 17.1708 93.9059 15.7489 93.9059 13.7243V13.7397Z" fill="#7A756B" style="fill:#7A756B;fill:color(display-p3 0.4784 0.4588 0.4196);fill-opacity:1;"/>
<path d="M113.132 20.2928V4.89941H114.647V20.2774H113.132V20.2928Z" fill="#7A756B" style="fill:#7A756B;fill:color(display-p3 0.4784 0.4588 0.4196);fill-opacity:1;"/>
<path d="M124.631 20.2928V4.89941H126.146V20.2774H124.631V20.2928Z" fill="#7A756B" style="fill:#7A756B;fill:color(display-p3 0.4784 0.4588 0.4196);fill-opacity:1;"/>
<path d="M136.13 20.2928V4.89941H137.644V20.2774H136.13V20.2928Z" fill="#7A756B" style="fill:#7A756B;fill:color(display-p3 0.4784 0.4588 0.4196);fill-opacity:1;"/>
<path d="M150.874 8.97961H152.388V18.4382H151.075L150.874 17.1709C150.318 17.8818 149.406 18.5464 147.937 18.5464C145.959 18.5464 144.305 17.4182 144.305 14.358V8.97961H145.82V14.2653C145.82 16.1508 146.716 17.1554 148.2 17.1554C149.838 17.1554 150.874 15.8726 150.874 13.9717V8.97961Z" fill="#7A756B" style="fill:#7A756B;fill:color(display-p3 0.4784 0.4588 0.4196);fill-opacity:1;"/>
<path d="M170.626 20.2928V4.89941H172.14V20.2774H170.626V20.2928Z" fill="#7A756B" style="fill:#7A756B;fill:color(display-p3 0.4784 0.4588 0.4196);fill-opacity:1;"/>
<path d="M182.124 20.2928V4.89941H183.639V20.2774H182.124V20.2928Z" fill="#7A756B" style="fill:#7A756B;fill:color(display-p3 0.4784 0.4588 0.4196);fill-opacity:1;"/>
<path d="M193.623 20.2928V4.89941H195.138V20.2774H193.623V20.2928Z" fill="#7A756B" style="fill:#7A756B;fill:color(display-p3 0.4784 0.4588 0.4196);fill-opacity:1;"/>
<path d="M210.284 17.0472V18.4381H202.092V17.0472H205.431V10.3705H202.092V8.97955H206.945V17.0472H210.284ZM204.983 6.08942C204.983 5.40939 205.524 4.88391 206.204 4.88391C206.884 4.88391 207.425 5.40939 207.425 6.08942C207.425 6.76945 206.884 7.31038 206.204 7.31038C205.524 7.31038 204.983 6.7849 204.983 6.08942Z" fill="#7A756B" style="fill:#7A756B;fill:color(display-p3 0.4784 0.4588 0.4196);fill-opacity:1;"/>
<path d="M228.119 20.2928V4.89941H229.634V20.2774H228.119V20.2928Z" fill="#7A756B" style="fill:#7A756B;fill:color(display-p3 0.4784 0.4588 0.4196);fill-opacity:1;"/>
<path d="M239.618 20.2928V4.89941H241.132V20.2774H239.618V20.2928Z" fill="#7A756B" style="fill:#7A756B;fill:color(display-p3 0.4784 0.4588 0.4196);fill-opacity:1;"/>
<path d="M251.116 20.2928V4.89941H252.631V20.2774H251.116V20.2928Z" fill="#7A756B" style="fill:#7A756B;fill:color(display-p3 0.4784 0.4588 0.4196);fill-opacity:1;"/>
<path d="M266.371 5.45581H267.885V18.4382H266.572L266.371 16.9236C265.737 17.7891 264.717 18.5618 263.125 18.5618C260.513 18.5618 258.581 16.7999 258.581 13.7244C258.581 10.8342 260.513 8.88687 263.125 8.88687C264.717 8.88687 265.799 9.53599 266.371 10.4478V5.48672V5.45581ZM266.386 13.7398C266.386 11.6688 265.119 10.216 263.28 10.216C261.441 10.216 260.142 11.6379 260.142 13.6934C260.142 15.749 261.41 17.1709 263.28 17.1709C265.15 17.1709 266.386 15.749 266.386 13.7244V13.7398Z" fill="#7A756B" style="fill:#7A756B;fill:color(display-p3 0.4784 0.4588 0.4196);fill-opacity:1;"/>
<path d="M285.613 20.2928V4.89941H287.127V20.2774H285.613V20.2928Z" fill="#7A756B" style="fill:#7A756B;fill:color(display-p3 0.4784 0.4588 0.4196);fill-opacity:1;"/>
<path d="M297.111 20.2928V4.89941H298.626V20.2774H297.111V20.2928Z" fill="#7A756B" style="fill:#7A756B;fill:color(display-p3 0.4784 0.4588 0.4196);fill-opacity:1;"/>
<path d="M308.61 20.2928V4.89941H310.125V20.2774H308.61V20.2928Z" fill="#7A756B" style="fill:#7A756B;fill:color(display-p3 0.4784 0.4588 0.4196);fill-opacity:1;"/>
<path d="M317.976 14.0333V14.1261C318.038 15.9189 319.166 17.1862 320.959 17.1862C322.288 17.1862 323.339 16.4753 323.648 15.2543H325.193C324.822 17.1398 323.261 18.5308 321.082 18.5308C318.254 18.5308 316.399 16.5834 316.399 13.6933C316.399 10.8032 318.223 8.85583 320.881 8.85583C323.54 8.85583 325.286 10.5405 325.363 13.3379C325.363 13.4615 325.348 13.8015 325.332 14.0179H317.991L317.976 14.0333ZM318.069 12.7506H323.725C323.571 11.1123 322.458 10.2159 320.881 10.2159C319.49 10.2159 318.208 11.2205 318.069 12.7506Z" fill="#7A756B" style="fill:#7A756B;fill:color(display-p3 0.4784 0.4588 0.4196);fill-opacity:1;"/>
<path d="M343.106 20.2928V4.89941H344.621V20.2774H343.106V20.2928Z" fill="#7A756B" style="fill:#7A756B;fill:color(display-p3 0.4784 0.4588 0.4196);fill-opacity:1;"/>
<path d="M354.605 20.2928V4.89941H356.119V20.2774H354.605V20.2928Z" fill="#7A756B" style="fill:#7A756B;fill:color(display-p3 0.4784 0.4588 0.4196);fill-opacity:1;"/>
<path d="M366.103 20.2928V4.89941H367.618V20.2774H366.103V20.2928Z" fill="#7A756B" style="fill:#7A756B;fill:color(display-p3 0.4784 0.4588 0.4196);fill-opacity:1;"/>
<path d="M374.372 15.3162H375.933C375.995 16.4289 376.968 17.2481 378.545 17.2481C379.874 17.2481 380.832 16.6762 380.832 15.7953C380.832 14.6052 379.797 14.5125 378.39 14.3425C376.273 14.0797 374.588 13.6625 374.588 11.6996C374.588 9.96866 376.165 8.87134 378.298 8.87134C380.43 8.87134 382.007 9.89138 382.161 11.8542H380.6C380.492 10.896 379.596 10.1696 378.298 10.1696C376.999 10.1696 376.087 10.726 376.087 11.5915C376.087 12.627 377.092 12.7661 378.468 12.9206C380.616 13.1833 382.347 13.5852 382.347 15.6871C382.347 17.449 380.662 18.5463 378.56 18.5463C376.118 18.5463 374.434 17.4026 374.387 15.3162H374.372Z" fill="#7A756B" style="fill:#7A756B;fill:color(display-p3 0.4784 0.4588 0.4196);fill-opacity:1;"/>
<path d="M400.599 20.2928V4.89941H402.114V20.2774H400.599V20.2928Z" fill="#7A756B" style="fill:#7A756B;fill:color(display-p3 0.4784 0.4588 0.4196);fill-opacity:1;"/>
<path d="M412.098 20.2928V4.89941H413.613V20.2774H412.098V20.2928Z" fill="#7A756B" style="fill:#7A756B;fill:color(display-p3 0.4784 0.4588 0.4196);fill-opacity:1;"/>
<path d="M67.1375 38.8391V23.4612H68.6521V38.8391H67.1375Z" fill="#7A756B" style="fill:#7A756B;fill:color(display-p3 0.4784 0.4588 0.4196);fill-opacity:1;"/>
<path d="M78.6362 38.8391V23.4612H80.1508V38.8391H78.6362Z" fill="#7A756B" style="fill:#7A756B;fill:color(display-p3 0.4784 0.4588 0.4196);fill-opacity:1;"/>
<path d="M86.4256 38.3753V37.0925H95.3587V38.3753H86.4256Z" fill="#7A756B" style="fill:#7A756B;fill:color(display-p3 0.4784 0.4588 0.4196);fill-opacity:1;"/>
<path d="M97.9243 38.3753V37.0925H106.857V38.3753H97.9243Z" fill="#7A756B" style="fill:#7A756B;fill:color(display-p3 0.4784 0.4588 0.4196);fill-opacity:1;"/>
<path d="M113.132 38.8391V23.4612H114.647V38.8391H113.132Z" fill="#7A756B" style="fill:#7A756B;fill:color(display-p3 0.4784 0.4588 0.4196);fill-opacity:1;"/>
<path d="M124.631 38.8391V23.4612H126.146V38.8391H124.631Z" fill="#7A756B" style="fill:#7A756B;fill:color(display-p3 0.4784 0.4588 0.4196);fill-opacity:1;"/>
<path d="M136.13 38.8391V23.4612H137.644V38.8391H136.13Z" fill="#7A756B" style="fill:#7A756B;fill:color(display-p3 0.4784 0.4588 0.4196);fill-opacity:1;"/>
<path d="M143.919 38.3753V37.0925H152.852V38.3753H143.919Z" fill="#7A756B" style="fill:#7A756B;fill:color(display-p3 0.4784 0.4588 0.4196);fill-opacity:1;"/>
<path d="M155.418 38.3753V37.0925H164.351V38.3753H155.418Z" fill="#7A756B" style="fill:#7A756B;fill:color(display-p3 0.4784 0.4588 0.4196);fill-opacity:1;"/>
<path d="M170.626 38.8391V23.4612H172.14V38.8391H170.626Z" fill="#7A756B" style="fill:#7A756B;fill:color(display-p3 0.4784 0.4588 0.4196);fill-opacity:1;"/>
<path d="M182.124 38.8391V23.4612H183.639V38.8391H182.124Z" fill="#7A756B" style="fill:#7A756B;fill:color(display-p3 0.4784 0.4588 0.4196);fill-opacity:1;"/>
<path d="M193.623 38.8391V23.4612H195.138V38.8391H193.623Z" fill="#7A756B" style="fill:#7A756B;fill:color(display-p3 0.4784 0.4588 0.4196);fill-opacity:1;"/>
<path d="M201.412 38.3753V37.0925H210.346V38.3753H201.412Z" fill="#7A756B" style="fill:#7A756B;fill:color(display-p3 0.4784 0.4588 0.4196);fill-opacity:1;"/>
<path d="M212.911 38.3753V37.0925H221.844V38.3753H212.911Z" fill="#7A756B" style="fill:#7A756B;fill:color(display-p3 0.4784 0.4588 0.4196);fill-opacity:1;"/>
<path d="M228.119 38.8391V23.4612H229.634V38.8391H228.119Z" fill="#7A756B" style="fill:#7A756B;fill:color(display-p3 0.4784 0.4588 0.4196);fill-opacity:1;"/>
<path d="M239.618 38.8391V23.4612H241.132V38.8391H239.618Z" fill="#7A756B" style="fill:#7A756B;fill:color(display-p3 0.4784 0.4588 0.4196);fill-opacity:1;"/>
<path d="M251.116 38.8391V23.4612H252.631V38.8391H251.116Z" fill="#7A756B" style="fill:#7A756B;fill:color(display-p3 0.4784 0.4588 0.4196);fill-opacity:1;"/>
<path d="M258.906 38.3753V37.0925H267.839V38.3753H258.906Z" fill="#7A756B" style="fill:#7A756B;fill:color(display-p3 0.4784 0.4588 0.4196);fill-opacity:1;"/>
<path d="M270.405 38.3753V37.0925H279.338V38.3753H270.405Z" fill="#7A756B" style="fill:#7A756B;fill:color(display-p3 0.4784 0.4588 0.4196);fill-opacity:1;"/>
<path d="M285.613 38.8391V23.4612H287.127V38.8391H285.613Z" fill="#7A756B" style="fill:#7A756B;fill:color(display-p3 0.4784 0.4588 0.4196);fill-opacity:1;"/>
<path d="M297.111 38.8391V23.4612H298.626V38.8391H297.111Z" fill="#7A756B" style="fill:#7A756B;fill:color(display-p3 0.4784 0.4588 0.4196);fill-opacity:1;"/>
<path d="M308.61 38.8391V23.4612H310.125V38.8391H308.61Z" fill="#7A756B" style="fill:#7A756B;fill:color(display-p3 0.4784 0.4588 0.4196);fill-opacity:1;"/>
<path d="M316.399 38.3753V37.0925H325.332V38.3753H316.399Z" fill="#7A756B" style="fill:#7A756B;fill:color(display-p3 0.4784 0.4588 0.4196);fill-opacity:1;"/>
<path d="M327.898 38.3753V37.0925H336.831V38.3753H327.898Z" fill="#7A756B" style="fill:#7A756B;fill:color(display-p3 0.4784 0.4588 0.4196);fill-opacity:1;"/>
<path d="M343.106 38.8391V23.4612H344.621V38.8391H343.106Z" fill="#7A756B" style="fill:#7A756B;fill:color(display-p3 0.4784 0.4588 0.4196);fill-opacity:1;"/>
<path d="M354.605 38.8391V23.4612H356.119V38.8391H354.605Z" fill="#7A756B" style="fill:#7A756B;fill:color(display-p3 0.4784 0.4588 0.4196);fill-opacity:1;"/>
<path d="M366.103 38.8391V23.4612H367.618V38.8391H366.103Z" fill="#7A756B" style="fill:#7A756B;fill:color(display-p3 0.4784 0.4588 0.4196);fill-opacity:1;"/>
<path d="M373.893 38.3753V37.0925H382.826V38.3753H373.893Z" fill="#7A756B" style="fill:#7A756B;fill:color(display-p3 0.4784 0.4588 0.4196);fill-opacity:1;"/>
<path d="M385.391 38.3753V37.0925H394.325V38.3753H385.391Z" fill="#7A756B" style="fill:#7A756B;fill:color(display-p3 0.4784 0.4588 0.4196);fill-opacity:1;"/>
<path d="M400.599 38.8391V23.4612H402.114V38.8391H400.599Z" fill="#7A756B" style="fill:#7A756B;fill:color(display-p3 0.4784 0.4588 0.4196);fill-opacity:1;"/>
<path d="M412.098 38.8391V23.4612H413.613V38.8391H412.098Z" fill="#7A756B" style="fill:#7A756B;fill:color(display-p3 0.4784 0.4588 0.4196);fill-opacity:1;"/>
<path d="M67.1375 57.3853V42.0073H68.6521V57.3853H67.1375Z" fill="#7A756B" style="fill:#7A756B;fill:color(display-p3 0.4784 0.4588 0.4196);fill-opacity:1;"/>
<path d="M76.0242 57.3853L81.2636 42.0073H82.7627L77.5234 57.3853H76.0242Z" fill="#7A756B" style="fill:#7A756B;fill:color(display-p3 0.4784 0.4588 0.4196);fill-opacity:1;"/>
<path d="M86.4256 56.9216V55.6388H95.3587V56.9216H86.4256Z" fill="#7A756B" style="fill:#7A756B;fill:color(display-p3 0.4784 0.4588 0.4196);fill-opacity:1;"/>
<path d="M97.9243 56.9216V55.6388H106.857V56.9216H97.9243Z" fill="#7A756B" style="fill:#7A756B;fill:color(display-p3 0.4784 0.4588 0.4196);fill-opacity:1;"/>
<path d="M117.259 57.3853H115.76L110.52 42.0073H112.019L117.259 57.3853Z" fill="#7A756B" style="fill:#7A756B;fill:color(display-p3 0.4784 0.4588 0.4196);fill-opacity:1;"/>
<path d="M124.631 57.3853V42.0073H126.146V57.3853H124.631Z" fill="#7A756B" style="fill:#7A756B;fill:color(display-p3 0.4784 0.4588 0.4196);fill-opacity:1;"/>
<path d="M133.518 57.3853L138.757 42.0073H140.256L135.017 57.3853H133.518Z" fill="#7A756B" style="fill:#7A756B;fill:color(display-p3 0.4784 0.4588 0.4196);fill-opacity:1;"/>
<path d="M143.919 56.9216V55.6388H152.852V56.9216H143.919Z" fill="#7A756B" style="fill:#7A756B;fill:color(display-p3 0.4784 0.4588 0.4196);fill-opacity:1;"/>
<path d="M155.418 56.9216V55.6388H164.351V56.9216H155.418Z" fill="#7A756B" style="fill:#7A756B;fill:color(display-p3 0.4784 0.4588 0.4196);fill-opacity:1;"/>
<path d="M174.752 57.3853H173.253L168.014 42.0073H169.513L174.752 57.3853Z" fill="#7A756B" style="fill:#7A756B;fill:color(display-p3 0.4784 0.4588 0.4196);fill-opacity:1;"/>
<path d="M182.124 57.3853V42.0073H183.639V57.3853H182.124Z" fill="#7A756B" style="fill:#7A756B;fill:color(display-p3 0.4784 0.4588 0.4196);fill-opacity:1;"/>
<path d="M191.011 57.3853L196.25 42.0073H197.75L192.51 57.3853H191.011Z" fill="#7A756B" style="fill:#7A756B;fill:color(display-p3 0.4784 0.4588 0.4196);fill-opacity:1;"/>
<path d="M201.412 56.9216V55.6388H210.346V56.9216H201.412Z" fill="#7A756B" style="fill:#7A756B;fill:color(display-p3 0.4784 0.4588 0.4196);fill-opacity:1;"/>
<path d="M212.911 56.9216V55.6388H221.844V56.9216H212.911Z" fill="#7A756B" style="fill:#7A756B;fill:color(display-p3 0.4784 0.4588 0.4196);fill-opacity:1;"/>
<path d="M232.246 57.3853H230.746L225.507 42.0073H227.006L232.246 57.3853Z" fill="#7A756B" style="fill:#7A756B;fill:color(display-p3 0.4784 0.4588 0.4196);fill-opacity:1;"/>
<path d="M239.618 57.3853V42.0073H241.132V57.3853H239.618Z" fill="#7A756B" style="fill:#7A756B;fill:color(display-p3 0.4784 0.4588 0.4196);fill-opacity:1;"/>
<path d="M248.505 57.3853L253.744 42.0073H255.243L250.004 57.3853H248.505Z" fill="#7A756B" style="fill:#7A756B;fill:color(display-p3 0.4784 0.4588 0.4196);fill-opacity:1;"/>
<path d="M258.906 56.9216V55.6388H267.839V56.9216H258.906Z" fill="#7A756B" style="fill:#7A756B;fill:color(display-p3 0.4784 0.4588 0.4196);fill-opacity:1;"/>
<path d="M270.405 56.9216V55.6388H279.338V56.9216H270.405Z" fill="#7A756B" style="fill:#7A756B;fill:color(display-p3 0.4784 0.4588 0.4196);fill-opacity:1;"/>
<path d="M289.739 57.3853H288.24L283.001 42.0073H284.5L289.739 57.3853Z" fill="#7A756B" style="fill:#7A756B;fill:color(display-p3 0.4784 0.4588 0.4196);fill-opacity:1;"/>
<path d="M297.111 57.3853V42.0073H298.626V57.3853H297.111Z" fill="#7A756B" style="fill:#7A756B;fill:color(display-p3 0.4784 0.4588 0.4196);fill-opacity:1;"/>
<path d="M305.998 57.3853L311.237 42.0073H312.736L307.497 57.3853H305.998Z" fill="#7A756B" style="fill:#7A756B;fill:color(display-p3 0.4784 0.4588 0.4196);fill-opacity:1;"/>
<path d="M316.399 56.9216V55.6388H325.332V56.9216H316.399Z" fill="#7A756B" style="fill:#7A756B;fill:color(display-p3 0.4784 0.4588 0.4196);fill-opacity:1;"/>
<path d="M327.898 56.9216V55.6388H336.831V56.9216H327.898Z" fill="#7A756B" style="fill:#7A756B;fill:color(display-p3 0.4784 0.4588 0.4196);fill-opacity:1;"/>
<path d="M347.233 57.3853H345.733L340.494 42.0073H341.993L347.233 57.3853Z" fill="#7A756B" style="fill:#7A756B;fill:color(display-p3 0.4784 0.4588 0.4196);fill-opacity:1;"/>
<path d="M354.605 57.3853V42.0073H356.119V57.3853H354.605Z" fill="#7A756B" style="fill:#7A756B;fill:color(display-p3 0.4784 0.4588 0.4196);fill-opacity:1;"/>
<path d="M363.491 57.3853L368.731 42.0073H370.23L364.991 57.3853H363.491Z" fill="#7A756B" style="fill:#7A756B;fill:color(display-p3 0.4784 0.4588 0.4196);fill-opacity:1;"/>
<path d="M373.893 56.9216V55.6388H382.826V56.9216H373.893Z" fill="#7A756B" style="fill:#7A756B;fill:color(display-p3 0.4784 0.4588 0.4196);fill-opacity:1;"/>
<path d="M385.391 56.9216V55.6388H394.325V56.9216H385.391Z" fill="#7A756B" style="fill:#7A756B;fill:color(display-p3 0.4784 0.4588 0.4196);fill-opacity:1;"/>
<path d="M404.726 57.3853H403.227L397.987 42.0073H399.487L404.726 57.3853Z" fill="#7A756B" style="fill:#7A756B;fill:color(display-p3 0.4784 0.4588 0.4196);fill-opacity:1;"/>
<path d="M412.098 57.3853V42.0073H413.613V57.3853H412.098Z" fill="#7A756B" style="fill:#7A756B;fill:color(display-p3 0.4784 0.4588 0.4196);fill-opacity:1;"/>
<path d="M429.779 54.8198L431.324 56.6435L430.505 57.3853L428.944 55.438L427.399 57.3853L426.595 56.6435L428.156 54.8043L425.9 53.9697L426.332 52.9342L428.481 53.9234L428.45 51.5433H429.501L429.439 53.9388L431.603 52.9342L432.035 53.9852L429.779 54.8198ZM434.23 46.0567L435.775 47.8804L434.956 48.6222L433.395 46.6749L431.85 48.6222L431.046 47.8804L432.607 46.0412L430.351 45.2066L430.783 44.1711L432.932 45.1603L432.901 42.7802H433.952L433.89 45.1757L436.054 44.1711L436.486 45.2221L434.23 46.0567ZM438.867 54.8198L440.412 56.6435L439.593 57.3853L438.032 55.438L436.486 57.3853L435.683 56.6435L437.244 54.8043L434.987 53.9697L435.42 52.9342L437.568 53.9234L437.537 51.5433H438.588L438.526 53.9388L440.69 52.9342L441.123 53.9852L438.867 54.8198Z" fill="#7A756B" style="fill:#7A756B;fill:color(display-p3 0.4784 0.4588 0.4196);fill-opacity:1;"/>
<path d="M44.7583 12.5188L43.7228 11.607L45.8402 9.18051L42.7955 8.05228L43.3519 6.75404L46.1802 8.06773L46.1493 4.89941H47.4785L47.4166 8.08319L50.2913 6.75404L50.8322 8.06773L47.803 9.19597L49.874 11.607L48.8385 12.5188L46.783 9.90691L44.7429 12.5188H44.7583Z" fill="#7A756B" style="fill:#7A756B;fill:color(display-p3 0.4784 0.4588 0.4196);fill-opacity:1;"/>
<path d="M426.92 12.5188L425.884 11.607L428.001 9.18051L424.957 8.05228L425.513 6.75404L428.342 8.06773L428.311 4.89941H429.64L429.578 8.08319L432.453 6.75404L432.994 8.06773L429.964 9.19597L432.035 11.607L431 12.5188L428.944 9.90691L426.904 12.5188H426.92Z" fill="#7A756B" style="fill:#7A756B;fill:color(display-p3 0.4784 0.4588 0.4196);fill-opacity:1;"/>
<path d="M11.3441 56.1952V52.455H7.82034V51.0641H11.3441V47.3394H12.8587V51.0641H16.398V52.455H12.8587V56.1952H11.3441Z" fill="#7A756B" style="fill:#7A756B;fill:color(display-p3 0.4784 0.4588 0.4196);fill-opacity:1;"/>
<path d="M29.4113 35.8716L26.6757 31.1423L29.4113 26.413H30.7868L33.5224 31.1423L30.7868 35.8716H29.4113ZM30.0913 34.9597L32.2241 31.1423L30.0913 27.3248L27.9585 31.1423L30.0913 34.9597Z" fill="#7A756B" style="fill:#7A756B;fill:color(display-p3 0.4784 0.4588 0.4196);fill-opacity:1;"/>
<path d="M51.6204 56.4116C51.1413 56.8134 50.6004 57.0916 49.9976 57.2462C49.5958 57.3544 49.2094 57.4007 48.8076 57.3853C48.4058 57.4007 48.0194 57.3698 47.6175 57.2462C47.0148 57.0916 46.4738 56.8134 45.9947 56.4116C45.4847 56.0407 45.0829 55.577 44.7738 55.0516C44.3719 54.3715 44.171 53.5988 44.171 52.7333V50.0904C44.171 48.8076 44.6192 47.7103 45.5311 46.8139C46.4429 45.9175 47.5248 45.4539 48.8076 45.4539C50.0904 45.4539 51.1877 45.9021 52.0841 46.8139C52.996 47.7258 53.4442 48.8076 53.4442 50.0904V52.7333C53.4442 53.5988 53.2432 54.3715 52.8414 55.0516C52.5323 55.577 52.1305 56.0407 51.6204 56.4116ZM51.1568 55.0979C51.3113 54.9279 51.4504 54.7424 51.5895 54.5724C51.7595 54.2788 51.9141 53.9697 52.0223 53.6142C52.0223 53.5678 52.0223 53.5369 52.0532 53.5215C52.0996 53.2742 52.115 53.0269 52.115 52.7642V50.1213C52.115 49.2095 51.7904 48.4367 51.1413 47.7876C50.4922 47.1385 49.7194 46.8139 48.8076 46.8139C47.8957 46.8139 47.123 47.1385 46.4738 47.7876C45.8247 48.4367 45.5002 49.2095 45.5002 50.1213V52.7642C45.5002 53.0269 45.5156 53.2897 45.562 53.5215C45.5774 53.5369 45.5929 53.5833 45.5929 53.6142C45.7011 53.9697 45.8402 54.2942 46.0256 54.5724C46.1647 54.7424 46.3038 54.9279 46.4584 55.0979C46.5202 55.1443 46.5975 55.1906 46.6593 55.2679L46.783 55.3916C47.1539 55.6543 47.5403 55.8398 47.9421 55.948C48.0039 55.948 48.0812 55.948 48.143 55.9789C48.2976 55.9943 48.4521 56.0252 48.6067 56.0407H49.0085C49.1631 56.0252 49.3176 55.9943 49.4722 55.9789C49.534 55.9634 49.6113 55.948 49.6731 55.948C50.0749 55.8398 50.4613 55.6543 50.8322 55.3916L50.9559 55.2679C50.9559 55.2679 51.095 55.1443 51.1568 55.0979ZM48.143 50.755C48.143 50.9405 48.0812 51.0796 47.9421 51.2187C47.803 51.3578 47.6484 51.4196 47.4784 51.4196C47.3084 51.4196 47.1539 51.3578 47.0148 51.2187C46.8757 51.0796 46.8139 50.925 46.8139 50.755V49.4258C46.8139 49.2558 46.8757 49.1013 47.0148 48.9622C47.1539 48.8231 47.3084 48.7613 47.4784 48.7613C47.6484 48.7613 47.803 48.8231 47.9421 48.9622C48.0812 49.0858 48.143 49.2558 48.143 49.4258V50.755ZM48.8076 53.3978C48.9776 53.3978 49.1321 53.336 49.2712 53.1969C49.4103 53.0578 49.4722 52.9033 49.4722 52.7333C49.4722 52.5633 49.534 52.4087 49.6731 52.2696C49.7967 52.1305 49.9513 52.0687 50.1367 52.0687C50.3222 52.0687 50.4613 52.1305 50.6004 52.2696C50.7395 52.4087 50.8013 52.5633 50.8013 52.7333C50.8013 53.2897 50.6004 53.7533 50.214 54.1397C49.8276 54.5261 49.364 54.727 48.8076 54.727C48.2512 54.727 47.7875 54.5415 47.4012 54.1397C47.0148 53.7379 46.8139 53.2897 46.8139 52.7333C46.8139 52.5633 46.8757 52.4087 47.0148 52.2696C47.1539 52.1305 47.3084 52.0687 47.4784 52.0687C47.6484 52.0687 47.803 52.1305 47.9421 52.2696C48.0812 52.4087 48.143 52.5633 48.143 52.7333C48.143 52.9033 48.2048 53.0578 48.3439 53.1969C48.483 53.336 48.6376 53.3978 48.8076 53.3978ZM50.8013 50.755C50.8013 50.9405 50.7395 51.0796 50.6004 51.2187C50.4613 51.3423 50.3067 51.4196 50.1367 51.4196C49.9667 51.4196 49.8122 51.3578 49.6731 51.2187C49.534 51.0796 49.4722 50.925 49.4722 50.755V49.4258C49.4722 49.2558 49.534 49.1013 49.6731 48.9622C49.7967 48.8231 49.9513 48.7613 50.1367 48.7613C50.3222 48.7613 50.4613 48.8231 50.6004 48.9622C50.7395 49.0858 50.8013 49.2558 50.8013 49.4258V50.755Z" fill="#7A756B" style="fill:#7A756B;fill:color(display-p3 0.4784 0.4588 0.4196);fill-opacity:1;"/>
<path d="M468.463 55.2989L468.942 52.1924H467.165V50.9096H469.128L469.483 48.4677H467.567V47.1849H469.669L470.148 44.0784H471.415L470.936 47.1849H473.471L473.95 44.0784H475.217L474.738 47.1849H476.515V48.4677H474.553L474.197 50.9096H476.114V52.1924H474.012L473.533 55.2989H472.265L472.744 52.1924H470.21L469.731 55.2989H468.463ZM470.38 50.9096H472.914L473.27 48.4677H470.735L470.38 50.9096Z" fill="#7A756B" style="fill:#7A756B;fill:color(display-p3 0.4784 0.4588 0.4196);fill-opacity:1;"/>
<path d="M0 18.5309C0 17.4027 0.942769 16.4753 2.14828 16.4753C3.35378 16.4753 4.29655 17.4027 4.29655 18.5309C4.29655 19.6591 3.35378 20.6019 2.14828 20.6019C0.942769 20.6019 0 19.6746 0 18.5309ZM3.32287 18.5309C3.32287 17.8509 2.7974 17.3408 2.14828 17.3408C1.49916 17.3408 0.973679 17.8354 0.973679 18.5309C0.973679 19.2264 1.49916 19.7364 2.14828 19.7364C2.7974 19.7364 3.32287 19.2418 3.32287 18.5309Z" fill="#7A756B" style="fill:#7A756B;fill:color(display-p3 0.4784 0.4588 0.4196);fill-opacity:1;"/>
<path d="M447.506 25.5011C447.506 24.3729 448.449 23.4456 449.654 23.4456C450.86 23.4456 451.803 24.3729 451.803 25.5011C451.803 26.6293 450.86 27.5721 449.654 27.5721C448.449 27.5721 447.506 26.6448 447.506 25.5011ZM450.813 25.5011C450.813 24.8211 450.288 24.311 449.639 24.311C448.99 24.311 448.464 24.8056 448.464 25.5011C448.464 26.1966 448.99 26.7066 449.639 26.7066C450.288 26.7066 450.813 26.212 450.813 25.5011Z" fill="#7A756B" style="fill:#7A756B;fill:color(display-p3 0.4784 0.4588 0.4196);fill-opacity:1;"/>
<path d="M456.099 2.05554C456.099 0.927314 457.042 0 458.247 0C459.453 0 460.396 0.927314 460.396 2.05554C460.396 3.18378 459.453 4.12654 458.247 4.12654C457.042 4.12654 456.099 3.19923 456.099 2.05554ZM459.422 2.05554C459.422 1.37552 458.897 0.865493 458.247 0.865493C457.598 0.865493 457.073 1.36006 457.073 2.05554C457.073 2.75103 457.598 3.26105 458.247 3.26105C458.897 3.26105 459.422 2.76649 459.422 2.05554Z" fill="#7A756B" style="fill:#7A756B;fill:color(display-p3 0.4784 0.4588 0.4196);fill-opacity:1;"/>
</g>
<defs>
<clipPath id="clip0_738_11606">
<rect width="476.5" height="57.3853" fill="white" style="fill:white;fill-opacity:1;"/>
</clipPath>
</defs>
</svg>
