<svg width="27" height="26" viewBox="0 0 27 26" fill="none" xmlns="http://www.w3.org/2000/svg">
<rect x="0.910339" width="26" height="26" rx="4" fill="#141312" style="fill:#141312;fill:color(display-p3 0.0784 0.0745 0.0706);fill-opacity:1;"/>
<g clip-path="url(#clip0_484_458)">
<path d="M19.2911 10.9669C19.2796 10.9637 19.2674 10.962 19.2548 10.962H16.1189C16.0356 10.962 15.9628 10.9186 15.9246 10.847C15.8865 10.7755 15.8902 10.6911 15.9363 10.6197L17.9847 7.57554L17.9851 7.57505C18.044 7.48664 18.0488 7.3765 18 7.28375C17.95 7.18865 17.8537 7.13355 17.7504 7.13355L16.9489 7.13355C16.8588 7.13355 16.7671 7.17605 16.7136 7.25981L14.3153 10.8247L14.315 10.8252C14.2576 10.9114 14.1627 10.962 14.0568 10.962H13.7586C13.6527 10.962 13.5578 10.9114 13.5004 10.8252L13.5001 10.8248L11.1071 7.26247C11.0536 7.17867 10.9618 7.13614 10.8716 7.13614H10.0702C9.96509 7.13614 9.86721 7.1954 9.81798 7.28894C9.76755 7.38475 9.77879 7.49401 9.8319 7.57609L9.83188 7.57611L9.83325 7.57813L11.8824 10.6233L11.8823 10.6233L11.8833 10.6246C11.9284 10.69 11.9328 10.773 11.8934 10.847L11.8928 10.8481C11.8542 10.9221 11.7841 10.9646 11.6991 10.9646H8.56575C8.40638 10.9646 8.28241 11.0943 8.28241 11.2479V11.912C8.28241 12.0713 8.41207 12.1953 8.56575 12.1953H19.2548C19.4142 12.1953 19.5382 12.0656 19.5382 11.912V11.2479C19.5382 11.1013 19.4284 10.9846 19.2911 10.9669Z" fill="#EBE9E6" stroke="#EBE9E6" style="fill:#EBE9E6;fill:color(display-p3 0.9216 0.9137 0.9020);fill-opacity:1;stroke:#EBE9E6;stroke:color(display-p3 0.9216 0.9137 0.9020);stroke-opacity:1;" stroke-width="0.270991" stroke-linejoin="round"/>
<path d="M9.83324 18.4245L9.83292 18.425C9.77398 18.5134 9.76916 18.6236 9.81798 18.7163C9.86803 18.8114 9.96428 18.8665 10.0676 18.8665H10.8691C10.9592 18.8665 11.0509 18.824 11.1044 18.7403L13.5027 15.1753L13.503 15.1749C13.5604 15.0887 13.6553 15.0381 13.7611 15.0381H14.0594C14.1653 15.0381 14.2601 15.0887 14.3176 15.1749L14.3179 15.1753L16.7146 18.7418L16.7154 18.743C16.7687 18.8205 16.8542 18.8665 16.9489 18.8665H17.7504C17.8555 18.8665 17.9534 18.8073 18.0026 18.7137C18.053 18.6179 18.0418 18.5087 17.9887 18.4266L17.9887 18.4266L17.9873 18.4245L15.9382 15.3794L15.9382 15.3794L15.9373 15.3781C15.8922 15.3127 15.8878 15.2297 15.9272 15.1557L15.9278 15.1546C15.9664 15.0806 16.0365 15.0381 16.1215 15.0381H19.2548C19.4142 15.0381 19.5382 14.9084 19.5382 14.7547V14.0907C19.5382 13.9313 19.4085 13.8074 19.2548 13.8074C19.2458 13.8074 19.2369 13.8083 19.2283 13.81H8.56575C8.40638 13.81 8.28241 13.9396 8.28241 14.0933V14.7573C8.28241 14.9167 8.41207 15.0407 8.56575 15.0407H11.6991C11.7824 15.0407 11.8552 15.0841 11.8934 15.1557C11.9318 15.2278 11.9273 15.3118 11.8822 15.3797C11.8821 15.3797 11.8821 15.3798 11.882 15.3799L9.83324 18.4245Z" fill="#EBE9E6" stroke="#EBE9E6" style="fill:#EBE9E6;fill:color(display-p3 0.9216 0.9137 0.9020);fill-opacity:1;stroke:#EBE9E6;stroke:color(display-p3 0.9216 0.9137 0.9020);stroke-opacity:1;" stroke-width="0.270991" stroke-linejoin="round"/>
</g>
<defs>
<clipPath id="clip0_484_458">
<rect width="15.4911" height="15.4911" fill="white" style="fill:white;fill-opacity:1;" transform="translate(6.16479 5.25439)"/>
</clipPath>
</defs>
</svg>
