<svg width="148" height="152" viewBox="0 0 148 152" fill="none" xmlns="http://www.w3.org/2000/svg">
<g clip-path="url(#clip0_814_2363)">
<path d="M23.1874 1.63638C23.2929 1.53081 23.4102 1.48389 23.5393 1.48389C23.7622 1.48389 23.9147 1.58946 24.0085 1.8006C24.1024 2.01174 24.0672 2.18769 23.8912 2.34018L21.8852 4.34602C21.7796 4.45159 21.6623 4.49851 21.5333 4.49851C21.3104 4.49851 21.1579 4.39294 21.0641 4.1818C20.9702 3.97066 21.0054 3.79471 21.1814 3.64222L23.1874 1.63638Z" fill="#7A756B" style="fill:#7A756B;fill:color(display-p3 0.4784 0.4588 0.4196);fill-opacity:1;"/>
<path d="M51.3415 1.63638C51.4471 1.53081 51.5644 1.48389 51.6934 1.48389C51.9163 1.48389 52.0688 1.58946 52.1626 1.8006C52.2565 2.01174 52.2213 2.18769 52.0453 2.34018L50.0393 4.34602C49.9338 4.45159 49.8165 4.49851 49.6874 4.49851C49.4645 4.49851 49.312 4.39294 49.2182 4.1818C49.1243 3.97066 49.1595 3.79471 49.3355 3.64222L51.3415 1.63638Z" fill="#7A756B" style="fill:#7A756B;fill:color(display-p3 0.4784 0.4588 0.4196);fill-opacity:1;"/>
<path d="M12.4184 23.1256C12.3128 23.3133 12.172 23.4071 11.9609 23.4071C11.7732 23.4071 11.6324 23.325 11.5385 23.1725C11.433 23.0083 11.433 22.8558 11.5151 22.6799L18.5536 8.60379C18.6592 8.41611 18.8 8.32227 19.0111 8.32227C19.1988 8.32227 19.3396 8.40438 19.4334 8.55687C19.539 8.72109 19.539 8.87358 19.4569 9.04953L12.4184 23.1256Z" fill="#7A756B" style="fill:#7A756B;fill:color(display-p3 0.4784 0.4588 0.4196);fill-opacity:1;"/>
<path d="M19.4569 23.1256C19.3513 23.3133 19.2106 23.4071 18.9994 23.4071C18.8117 23.4071 18.6709 23.325 18.5771 23.1725C18.4715 23.0083 18.4715 22.8558 18.5536 22.6799L25.5922 8.60379C25.6977 8.41611 25.8385 8.32227 26.0497 8.32227C26.2374 8.32227 26.3781 8.40438 26.472 8.55687C26.5776 8.72109 26.5776 8.87358 26.4954 9.04953L19.4569 23.1256Z" fill="#7A756B" style="fill:#7A756B;fill:color(display-p3 0.4784 0.4588 0.4196);fill-opacity:1;"/>
<path d="M26.4954 23.1256C26.3899 23.3133 26.2491 23.4071 26.0379 23.4071C25.8502 23.4071 25.7095 23.325 25.6156 23.1725C25.51 23.0083 25.51 22.8558 25.5922 22.6799L32.6307 8.60379C32.7363 8.41611 32.877 8.32227 33.0882 8.32227C33.2759 8.32227 33.4167 8.40438 33.5105 8.55687C33.6161 8.72109 33.6161 8.87358 33.534 9.04953L26.4954 23.1256Z" fill="#7A756B" style="fill:#7A756B;fill:color(display-p3 0.4784 0.4588 0.4196);fill-opacity:1;"/>
<path d="M33.534 23.1256C33.4284 23.3133 33.2876 23.4071 33.0765 23.4071C32.8888 23.4071 32.748 23.325 32.6542 23.1725C32.5486 23.0083 32.5486 22.8558 32.6307 22.6799L39.6692 8.60379C39.7748 8.41611 39.9156 8.32227 40.1267 8.32227C40.3144 8.32227 40.4552 8.40438 40.5491 8.55687C40.6546 8.72109 40.6546 8.87358 40.5725 9.04953L33.534 23.1256Z" fill="#7A756B" style="fill:#7A756B;fill:color(display-p3 0.4784 0.4588 0.4196);fill-opacity:1;"/>
<path d="M40.5725 23.1256C40.467 23.3133 40.3262 23.4071 40.115 23.4071C39.9273 23.4071 39.7866 23.325 39.6927 23.1725C39.5871 23.0083 39.5871 22.8558 39.6693 22.6799L46.7078 8.60379C46.8134 8.41611 46.9541 8.32227 47.1653 8.32227C47.353 8.32227 47.4938 8.40438 47.5876 8.55687C47.6932 8.72109 47.6932 8.87358 47.6111 9.04953L40.5725 23.1256Z" fill="#7A756B" style="fill:#7A756B;fill:color(display-p3 0.4784 0.4588 0.4196);fill-opacity:1;"/>
<path d="M51.1889 22.9027C51.1889 23.0318 51.142 23.1491 51.0364 23.2546C50.9309 23.3602 50.8136 23.4071 50.6845 23.4071C50.5555 23.4071 50.4382 23.3602 50.3326 23.2546C50.227 23.1491 50.1801 23.0318 50.1801 22.9027V8.82666C50.1801 8.69763 50.227 8.58033 50.3326 8.47476C50.4382 8.36919 50.5555 8.32227 50.6845 8.32227C50.8136 8.32227 50.9309 8.36919 51.0364 8.47476C51.142 8.58033 51.1889 8.69763 51.1889 8.82666V22.9027Z" fill="#7A756B" style="fill:#7A756B;fill:color(display-p3 0.4784 0.4588 0.4196);fill-opacity:1;"/>
<path d="M5.37984 40.017C5.27426 40.2046 5.13349 40.2985 4.92234 40.2985C4.73464 40.2985 4.59387 40.2164 4.50002 40.0639C4.39445 39.8997 4.39445 39.7472 4.47656 39.5712L11.5151 25.4951C11.6207 25.3075 11.7614 25.2136 11.9726 25.2136C12.1603 25.2136 12.3011 25.2957 12.3949 25.4482C12.5005 25.6124 12.5005 25.7649 12.4184 25.9409L5.37984 40.017Z" fill="#7A756B" style="fill:#7A756B;fill:color(display-p3 0.4784 0.4588 0.4196);fill-opacity:1;"/>
<path d="M12.4184 40.017C12.3128 40.2046 12.172 40.2985 11.9609 40.2985C11.7732 40.2985 11.6324 40.2164 11.5385 40.0639C11.433 39.8997 11.433 39.7472 11.5151 39.5712L18.5536 25.4951C18.6592 25.3075 18.8 25.2136 19.0111 25.2136C19.1988 25.2136 19.3396 25.2957 19.4334 25.4482C19.539 25.6124 19.539 25.7649 19.4569 25.9409L12.4184 40.017Z" fill="#7A756B" style="fill:#7A756B;fill:color(display-p3 0.4784 0.4588 0.4196);fill-opacity:1;"/>
<path d="M19.4569 40.017C19.3513 40.2046 19.2106 40.2985 18.9994 40.2985C18.8117 40.2985 18.6709 40.2164 18.5771 40.0639C18.4715 39.8997 18.4715 39.7472 18.5536 39.5712L25.5922 25.4951C25.6977 25.3075 25.8385 25.2136 26.0497 25.2136C26.2374 25.2136 26.3781 25.2957 26.472 25.4482C26.5776 25.6124 26.5776 25.7649 26.4954 25.9409L19.4569 40.017Z" fill="#7A756B" style="fill:#7A756B;fill:color(display-p3 0.4784 0.4588 0.4196);fill-opacity:1;"/>
<path d="M26.4954 40.017C26.3899 40.2046 26.2491 40.2985 26.0379 40.2985C25.8502 40.2985 25.7095 40.2164 25.6156 40.0639C25.51 39.8997 25.51 39.7472 25.5922 39.5712L32.6307 25.4951C32.7363 25.3075 32.877 25.2136 33.0882 25.2136C33.2759 25.2136 33.4167 25.2957 33.5105 25.4482C33.6161 25.6124 33.6161 25.7649 33.534 25.9409L26.4954 40.017Z" fill="#7A756B" style="fill:#7A756B;fill:color(display-p3 0.4784 0.4588 0.4196);fill-opacity:1;"/>
<path d="M33.534 40.017C33.4284 40.2046 33.2876 40.2985 33.0765 40.2985C32.8888 40.2985 32.748 40.2164 32.6542 40.0639C32.5486 39.8997 32.5486 39.7472 32.6307 39.5712L39.6692 25.4951C39.7748 25.3075 39.9156 25.2136 40.1267 25.2136C40.3144 25.2136 40.4552 25.2957 40.5491 25.4482C40.6546 25.6124 40.6546 25.7649 40.5725 25.9409L33.534 40.017Z" fill="#7A756B" style="fill:#7A756B;fill:color(display-p3 0.4784 0.4588 0.4196);fill-opacity:1;"/>
<path d="M51.1889 39.7941C51.1889 39.9231 51.142 40.0404 51.0364 40.146C50.9309 40.2516 50.8136 40.2985 50.6845 40.2985C50.5555 40.2985 50.4382 40.2516 50.3326 40.146C50.227 40.0404 50.1801 39.9231 50.1801 39.7941V25.718C50.1801 25.589 50.227 25.4717 50.3326 25.3661C50.4382 25.2605 50.5555 25.2136 50.6845 25.2136C50.8136 25.2136 50.9309 25.2605 51.0364 25.3661C51.142 25.4717 51.1889 25.589 51.1889 25.718V39.7941Z" fill="#7A756B" style="fill:#7A756B;fill:color(display-p3 0.4784 0.4588 0.4196);fill-opacity:1;"/>
<path d="M1.9192 56.6855C1.9192 56.8145 1.87227 56.9318 1.76669 57.0374C1.66112 57.1429 1.54381 57.1898 1.41477 57.1898C1.28573 57.1898 1.16842 57.1429 1.06284 57.0374C0.957263 56.9318 0.910339 56.8145 0.910339 56.6855V42.6094C0.910339 42.4803 0.957263 42.363 1.06284 42.2575C1.16842 42.1519 1.28573 42.105 1.41477 42.105C1.54381 42.105 1.66112 42.1519 1.76669 42.2575C1.87227 42.363 1.9192 42.4803 1.9192 42.6094V56.6855Z" fill="#7A756B" style="fill:#7A756B;fill:color(display-p3 0.4784 0.4588 0.4196);fill-opacity:1;"/>
<path d="M6.37696 45.5654C6.67023 45.2721 7.02216 45.1196 7.44447 45.1196C7.86678 45.1196 8.21871 45.2721 8.51198 45.5654C8.80525 45.8586 8.95775 46.2105 8.95775 46.6328C8.95775 46.7618 9.00468 46.8791 9.11026 46.9847C9.21583 47.0903 9.33314 47.1372 9.46218 47.1372C9.59122 47.1372 9.70853 47.0903 9.81411 46.9847C9.91969 46.8791 9.96661 46.7618 9.96661 46.6328C9.96661 46.5038 10.0135 46.3865 10.1191 46.2809C10.2247 46.1753 10.342 46.1284 10.471 46.1284C10.6001 46.1284 10.7174 46.1753 10.823 46.2809C10.9285 46.3865 10.9755 46.5038 10.9755 46.6328C10.9755 47.0551 10.823 47.407 10.5297 47.7002C10.2364 47.9935 9.88449 48.146 9.46218 48.146C9.03987 48.146 8.68794 48.0052 8.39467 47.7002C8.1014 47.407 7.9489 47.0551 7.9489 46.6328C7.9489 46.5038 7.90197 46.3865 7.79639 46.2809C7.69082 46.1753 7.57351 46.1284 7.44447 46.1284C7.31543 46.1284 7.19812 46.1753 7.09254 46.2809C6.98696 46.3865 6.94004 46.5038 6.94004 46.6328C6.94004 46.7618 6.89312 46.8791 6.78754 46.9847C6.68196 47.0903 6.56465 47.1372 6.43561 47.1372C6.30657 47.1372 6.18926 47.0903 6.08368 46.9847C5.97811 46.8791 5.93118 46.7618 5.93118 46.6328C5.93118 46.2105 6.07195 45.8586 6.37696 45.5654Z" fill="#7A756B" style="fill:#7A756B;fill:color(display-p3 0.4784 0.4588 0.4196);fill-opacity:1;"/>
<path d="M13.4155 45.5654C13.7088 45.2721 14.0607 45.1196 14.483 45.1196C14.9053 45.1196 15.2573 45.2721 15.5505 45.5654C15.8438 45.8586 15.9963 46.2105 15.9963 46.6328C15.9963 46.7618 16.0432 46.8791 16.1488 46.9847C16.2544 47.0903 16.3717 47.1372 16.5007 47.1372C16.6298 47.1372 16.7471 47.0903 16.8527 46.9847C16.9582 46.8791 17.0052 46.7618 17.0052 46.6328C17.0052 46.5038 17.0521 46.3865 17.1577 46.2809C17.2632 46.1753 17.3805 46.1284 17.5096 46.1284C17.6386 46.1284 17.7559 46.1753 17.8615 46.2809C17.9671 46.3865 18.014 46.5038 18.014 46.6328C18.014 47.0551 17.8615 47.407 17.5682 47.7002C17.275 47.9935 16.923 48.146 16.5007 48.146C16.0784 48.146 15.7265 48.0052 15.4332 47.7002C15.1399 47.407 14.9874 47.0551 14.9874 46.6328C14.9874 46.5038 14.9405 46.3865 14.8349 46.2809C14.7294 46.1753 14.6121 46.1284 14.483 46.1284C14.354 46.1284 14.2367 46.1753 14.1311 46.2809C14.0255 46.3865 13.9786 46.5038 13.9786 46.6328C13.9786 46.7618 13.9317 46.8791 13.8261 46.9847C13.7205 47.0903 13.6032 47.1372 13.4742 47.1372C13.3451 47.1372 13.2278 47.0903 13.1222 46.9847C13.0167 46.8791 12.9697 46.7618 12.9697 46.6328C12.9697 46.2105 13.1105 45.8586 13.4155 45.5654Z" fill="#7A756B" style="fill:#7A756B;fill:color(display-p3 0.4784 0.4588 0.4196);fill-opacity:1;"/>
<path d="M20.454 45.5654C20.7473 45.2721 21.0992 45.1196 21.5215 45.1196C21.9438 45.1196 22.2957 45.2721 22.589 45.5654C22.8823 45.8586 23.0348 46.2105 23.0348 46.6328C23.0348 46.7618 23.0817 46.8791 23.1873 46.9847C23.2929 47.0903 23.4102 47.1372 23.5392 47.1372C23.6682 47.1372 23.7856 47.0903 23.8911 46.9847C23.9967 46.8791 24.0436 46.7618 24.0436 46.6328C24.0436 46.5038 24.0906 46.3865 24.1961 46.2809C24.3017 46.1753 24.419 46.1284 24.5481 46.1284C24.6771 46.1284 24.7944 46.1753 24.9 46.2809C25.0056 46.3865 25.0525 46.5038 25.0525 46.6328C25.0525 47.0551 24.9 47.407 24.6067 47.7002C24.3134 47.9935 23.9615 48.146 23.5392 48.146C23.1169 48.146 22.765 48.0052 22.4717 47.7002C22.1784 47.407 22.0259 47.0551 22.0259 46.6328C22.0259 46.5038 21.979 46.3865 21.8734 46.2809C21.7678 46.1753 21.6505 46.1284 21.5215 46.1284C21.3925 46.1284 21.2751 46.1753 21.1696 46.2809C21.064 46.3865 21.0171 46.5038 21.0171 46.6328C21.0171 46.7618 20.9701 46.8791 20.8646 46.9847C20.759 47.0903 20.6417 47.1372 20.5126 47.1372C20.3836 47.1372 20.2663 47.0903 20.1607 46.9847C20.0551 46.8791 20.0082 46.7618 20.0082 46.6328C20.0082 46.2105 20.149 45.8586 20.454 45.5654Z" fill="#7A756B" style="fill:#7A756B;fill:color(display-p3 0.4784 0.4588 0.4196);fill-opacity:1;"/>
<path d="M30.0734 56.6855C30.0734 56.8145 30.0264 56.9318 29.9209 57.0374C29.8153 57.1429 29.698 57.1898 29.5689 57.1898C29.4399 57.1898 29.3226 57.1429 29.217 57.0374C29.1114 56.9318 29.0645 56.8145 29.0645 56.6855V42.6094C29.0645 42.4803 29.1114 42.363 29.217 42.2575C29.3226 42.1519 29.4399 42.105 29.5689 42.105C29.698 42.105 29.8153 42.1519 29.9209 42.2575C30.0264 42.363 30.0734 42.4803 30.0734 42.6094V56.6855Z" fill="#7A756B" style="fill:#7A756B;fill:color(display-p3 0.4784 0.4588 0.4196);fill-opacity:1;"/>
<path d="M51.1889 56.6855C51.1889 56.8145 51.142 56.9318 51.0364 57.0374C50.9309 57.1429 50.8136 57.1898 50.6845 57.1898C50.5555 57.1898 50.4382 57.1429 50.3326 57.0374C50.227 56.9318 50.1801 56.8145 50.1801 56.6855V42.6094C50.1801 42.4803 50.227 42.363 50.3326 42.2575C50.4382 42.1519 50.5555 42.105 50.6845 42.105C50.8136 42.105 50.9309 42.1519 51.0364 42.2575C51.142 42.363 51.1889 42.4803 51.1889 42.6094V56.6855Z" fill="#7A756B" style="fill:#7A756B;fill:color(display-p3 0.4784 0.4588 0.4196);fill-opacity:1;"/>
<path d="M1.9192 73.5768C1.9192 73.7058 1.87227 73.8231 1.76669 73.9287C1.66112 74.0343 1.54381 74.0812 1.41477 74.0812C1.28573 74.0812 1.16842 74.0343 1.06284 73.9287C0.957263 73.8231 0.910339 73.7058 0.910339 73.5768V59.5007C0.910339 59.3717 0.957263 59.2544 1.06284 59.1488C1.16842 59.0433 1.28573 58.9963 1.41477 58.9963C1.54381 58.9963 1.66112 59.0433 1.76669 59.1488C1.87227 59.2544 1.9192 59.3717 1.9192 59.5007V73.5768Z" fill="#7A756B" style="fill:#7A756B;fill:color(display-p3 0.4784 0.4588 0.4196);fill-opacity:1;"/>
<path d="M11.9726 62.011C12.1016 62.011 12.2189 62.0579 12.3245 62.1635C12.4301 62.269 12.477 62.3863 12.477 62.5154C12.477 62.6444 12.4301 62.7617 12.3245 62.8673C12.2189 62.9729 12.1016 63.0198 11.9726 63.0198H4.93402C4.80498 63.0198 4.68768 62.9729 4.5821 62.8673C4.47652 62.7617 4.4296 62.6444 4.4296 62.5154C4.4296 62.3863 4.47652 62.269 4.5821 62.1635C4.68768 62.0579 4.80498 62.011 4.93402 62.011H11.9726ZM11.9726 70.0578C12.1016 70.0578 12.2189 70.1047 12.3245 70.2103C12.4301 70.3159 12.477 70.4332 12.477 70.5622C12.477 70.6912 12.4301 70.8085 12.3245 70.9141C12.2189 71.0197 12.1016 71.0666 11.9726 71.0666H4.93402C4.80498 71.0666 4.68768 71.0197 4.5821 70.9141C4.47652 70.8085 4.4296 70.6912 4.4296 70.5622C4.4296 70.4332 4.47652 70.3159 4.5821 70.2103C4.68768 70.1047 4.80498 70.0578 4.93402 70.0578H11.9726Z" fill="#7A756B" style="fill:#7A756B;fill:color(display-p3 0.4784 0.4588 0.4196);fill-opacity:1;"/>
<path d="M19.0111 62.011C19.1401 62.011 19.2575 62.0579 19.363 62.1635C19.4686 62.269 19.5155 62.3863 19.5155 62.5154C19.5155 62.6444 19.4686 62.7617 19.363 62.8673C19.2575 62.9729 19.1401 63.0198 19.0111 63.0198H11.9726C11.8435 63.0198 11.7262 62.9729 11.6206 62.8673C11.5151 62.7617 11.4681 62.6444 11.4681 62.5154C11.4681 62.3863 11.5151 62.269 11.6206 62.1635C11.7262 62.0579 11.8435 62.011 11.9726 62.011H19.0111ZM19.0111 70.0578C19.1401 70.0578 19.2575 70.1047 19.363 70.2103C19.4686 70.3159 19.5155 70.4332 19.5155 70.5622C19.5155 70.6912 19.4686 70.8085 19.363 70.9141C19.2575 71.0197 19.1401 71.0666 19.0111 71.0666H11.9726C11.8435 71.0666 11.7262 71.0197 11.6206 70.9141C11.5151 70.8085 11.4681 70.6912 11.4681 70.5622C11.4681 70.4332 11.5151 70.3159 11.6206 70.2103C11.7262 70.1047 11.8435 70.0578 11.9726 70.0578H19.0111Z" fill="#7A756B" style="fill:#7A756B;fill:color(display-p3 0.4784 0.4588 0.4196);fill-opacity:1;"/>
<path d="M26.0497 62.011C26.1787 62.011 26.296 62.0579 26.4016 62.1635C26.5072 62.269 26.5541 62.3863 26.5541 62.5154C26.5541 62.6444 26.5072 62.7617 26.4016 62.8673C26.296 62.9729 26.1787 63.0198 26.0497 63.0198H19.0111C18.8821 63.0198 18.7648 62.9729 18.6592 62.8673C18.5536 62.7617 18.5067 62.6444 18.5067 62.5154C18.5067 62.3863 18.5536 62.269 18.6592 62.1635C18.7648 62.0579 18.8821 62.011 19.0111 62.011H26.0497ZM26.0497 70.0578C26.1787 70.0578 26.296 70.1047 26.4016 70.2103C26.5072 70.3159 26.5541 70.4332 26.5541 70.5622C26.5541 70.6912 26.5072 70.8085 26.4016 70.9141C26.296 71.0197 26.1787 71.0666 26.0497 71.0666H19.0111C18.8821 71.0666 18.7648 71.0197 18.6592 70.9141C18.5536 70.8085 18.5067 70.6912 18.5067 70.5622C18.5067 70.4332 18.5536 70.3159 18.6592 70.2103C18.7648 70.1047 18.8821 70.0578 19.0111 70.0578H26.0497Z" fill="#7A756B" style="fill:#7A756B;fill:color(display-p3 0.4784 0.4588 0.4196);fill-opacity:1;"/>
<path d="M30.0734 73.5768C30.0734 73.7058 30.0264 73.8231 29.9209 73.9287C29.8153 74.0343 29.698 74.0812 29.5689 74.0812C29.4399 74.0812 29.3226 74.0343 29.217 73.9287C29.1114 73.8231 29.0645 73.7058 29.0645 73.5768V59.5007C29.0645 59.3717 29.1114 59.2544 29.217 59.1488C29.3226 59.0433 29.4399 58.9963 29.5689 58.9963C29.698 58.9963 29.8153 59.0433 29.9209 59.1488C30.0264 59.2544 30.0734 59.3717 30.0734 59.5007V73.5768Z" fill="#7A756B" style="fill:#7A756B;fill:color(display-p3 0.4784 0.4588 0.4196);fill-opacity:1;"/>
<path d="M51.1889 73.5768C51.1889 73.7058 51.142 73.8231 51.0364 73.9287C50.9309 74.0343 50.8136 74.0812 50.6845 74.0812C50.5555 74.0812 50.4382 74.0343 50.3326 73.9287C50.227 73.8231 50.1801 73.7058 50.1801 73.5768V59.5007C50.1801 59.3717 50.227 59.2544 50.3326 59.1488C50.4382 59.0433 50.5555 58.9963 50.6845 58.9963C50.8136 58.9963 50.9309 59.0433 51.0364 59.1488C51.142 59.2544 51.1889 59.3717 51.1889 59.5007V73.5768Z" fill="#7A756B" style="fill:#7A756B;fill:color(display-p3 0.4784 0.4588 0.4196);fill-opacity:1;"/>
<path d="M1.9192 90.4682C1.9192 90.5972 1.87227 90.7145 1.76669 90.8201C1.66112 90.9256 1.54381 90.9726 1.41477 90.9726C1.28573 90.9726 1.16842 90.9256 1.06284 90.8201C0.957263 90.7145 0.910339 90.5972 0.910339 90.4682V76.3921C0.910339 76.2631 0.957263 76.1458 1.06284 76.0402C1.16842 75.9346 1.28573 75.8877 1.41477 75.8877C1.54381 75.8877 1.66112 75.9346 1.76669 76.0402C1.87227 76.1458 1.9192 76.2631 1.9192 76.3921V90.4682Z" fill="#7A756B" style="fill:#7A756B;fill:color(display-p3 0.4784 0.4588 0.4196);fill-opacity:1;"/>
<path d="M30.0734 90.4682C30.0734 90.5972 30.0264 90.7145 29.9209 90.8201C29.8153 90.9256 29.698 90.9726 29.5689 90.9726C29.4399 90.9726 29.3226 90.9256 29.217 90.8201C29.1114 90.7145 29.0645 90.5972 29.0645 90.4682V76.3921C29.0645 76.2631 29.1114 76.1458 29.217 76.0402C29.3226 75.9346 29.4399 75.8877 29.5689 75.8877C29.698 75.8877 29.8153 75.9346 29.9209 76.0402C30.0264 76.1458 30.0734 76.2631 30.0734 76.3921V90.4682Z" fill="#7A756B" style="fill:#7A756B;fill:color(display-p3 0.4784 0.4588 0.4196);fill-opacity:1;"/>
<path d="M51.1889 90.4682C51.1889 90.5972 51.142 90.7145 51.0364 90.8201C50.9309 90.9256 50.8136 90.9726 50.6845 90.9726C50.5555 90.9726 50.4382 90.9256 50.3326 90.8201C50.227 90.7145 50.1801 90.5972 50.1801 90.4682V76.3921C50.1801 76.2631 50.227 76.1458 50.3326 76.0402C50.4382 75.9346 50.5555 75.8877 50.6845 75.8877C50.8136 75.8877 50.9309 75.9346 51.0364 76.0402C51.142 76.1458 51.1889 76.2631 51.1889 76.3921V90.4682Z" fill="#7A756B" style="fill:#7A756B;fill:color(display-p3 0.4784 0.4588 0.4196);fill-opacity:1;"/>
<path d="M1.9192 107.359C1.9192 107.488 1.87227 107.606 1.76669 107.711C1.66112 107.817 1.54381 107.864 1.41477 107.864C1.28573 107.864 1.16842 107.817 1.06284 107.711C0.957263 107.606 0.910339 107.488 0.910339 107.359V93.2832C0.910339 93.1542 0.957263 93.0369 1.06284 92.9313C1.16842 92.8257 1.28573 92.7788 1.41477 92.7788C1.54381 92.7788 1.66112 92.8257 1.76669 92.9313C1.87227 93.0369 1.9192 93.1542 1.9192 93.2832V107.359Z" fill="#7A756B" style="fill:#7A756B;fill:color(display-p3 0.4784 0.4588 0.4196);fill-opacity:1;"/>
<path d="M5.37984 107.582C5.27426 107.77 5.13349 107.864 4.92234 107.864C4.73464 107.864 4.59387 107.782 4.50002 107.629C4.39445 107.465 4.39445 107.312 4.47656 107.136L11.5151 93.0603C11.6207 92.8726 11.7614 92.7788 11.9726 92.7788C12.1603 92.7788 12.3011 92.8609 12.3949 93.0134C12.5005 93.1776 12.5005 93.3301 12.4184 93.5061L5.37984 107.582Z" fill="#7A756B" style="fill:#7A756B;fill:color(display-p3 0.4784 0.4588 0.4196);fill-opacity:1;"/>
<path d="M19.0111 99.8169C19.1401 99.8169 19.2575 99.8638 19.363 99.9694C19.4686 100.075 19.5155 100.192 19.5155 100.321C19.5155 100.45 19.4686 100.568 19.363 100.673C19.2575 100.779 19.1401 100.826 19.0111 100.826H11.9726C11.8435 100.826 11.7262 100.779 11.6206 100.673C11.5151 100.568 11.4681 100.45 11.4681 100.321C11.4681 100.192 11.5151 100.075 11.6206 99.9694C11.7262 99.8638 11.8435 99.8169 11.9726 99.8169H19.0111Z" fill="#7A756B" style="fill:#7A756B;fill:color(display-p3 0.4784 0.4588 0.4196);fill-opacity:1;"/>
<path d="M19.4569 107.582C19.3513 107.77 19.2106 107.864 18.9994 107.864C18.8117 107.864 18.6709 107.782 18.5771 107.629C18.4715 107.465 18.4715 107.312 18.5536 107.136L25.5922 93.0603C25.6977 92.8726 25.8385 92.7788 26.0497 92.7788C26.2374 92.7788 26.3781 92.8609 26.472 93.0134C26.5776 93.1776 26.5776 93.3301 26.4954 93.5061L19.4569 107.582Z" fill="#7A756B" style="fill:#7A756B;fill:color(display-p3 0.4784 0.4588 0.4196);fill-opacity:1;"/>
<path d="M30.0734 107.359C30.0734 107.488 30.0264 107.606 29.9209 107.711C29.8153 107.817 29.698 107.864 29.5689 107.864C29.4399 107.864 29.3226 107.817 29.217 107.711C29.1114 107.606 29.0645 107.488 29.0645 107.359V93.2832C29.0645 93.1542 29.1114 93.0369 29.217 92.9313C29.3226 92.8257 29.4399 92.7788 29.5689 92.7788C29.698 92.7788 29.8153 92.8257 29.9209 92.9313C30.0264 93.0369 30.0734 93.1542 30.0734 93.2832V107.359Z" fill="#7A756B" style="fill:#7A756B;fill:color(display-p3 0.4784 0.4588 0.4196);fill-opacity:1;"/>
<path d="M51.1889 107.359C51.1889 107.488 51.142 107.606 51.0364 107.711C50.9309 107.817 50.8136 107.864 50.6845 107.864C50.5555 107.864 50.4382 107.817 50.3326 107.711C50.227 107.606 50.1801 107.488 50.1801 107.359V93.2832C50.1801 93.1542 50.227 93.0369 50.3326 92.9313C50.4382 92.8257 50.5555 92.7788 50.6845 92.7788C50.8136 92.7788 50.9309 92.8257 51.0364 92.9313C51.142 93.0369 51.1889 93.1542 51.1889 93.2832V107.359Z" fill="#7A756B" style="fill:#7A756B;fill:color(display-p3 0.4784 0.4588 0.4196);fill-opacity:1;"/>
<path d="M1.9192 124.251C1.9192 124.38 1.87227 124.497 1.76669 124.603C1.66112 124.708 1.54381 124.755 1.41477 124.755C1.28573 124.755 1.16842 124.708 1.06284 124.603C0.957263 124.497 0.910339 124.38 0.910339 124.251V110.175C0.910339 110.046 0.957263 109.928 1.06284 109.823C1.16842 109.717 1.28573 109.67 1.41477 109.67C1.54381 109.67 1.66112 109.717 1.76669 109.823C1.87227 109.928 1.9192 110.046 1.9192 110.175V124.251Z" fill="#7A756B" style="fill:#7A756B;fill:color(display-p3 0.4784 0.4588 0.4196);fill-opacity:1;"/>
<path d="M30.0734 124.251C30.0734 124.38 30.0264 124.497 29.9209 124.603C29.8153 124.708 29.698 124.755 29.5689 124.755C29.4399 124.755 29.3226 124.708 29.217 124.603C29.1114 124.497 29.0645 124.38 29.0645 124.251V110.175C29.0645 110.046 29.1114 109.928 29.217 109.823C29.3226 109.717 29.4399 109.67 29.5689 109.67C29.698 109.67 29.8153 109.717 29.9209 109.823C30.0264 109.928 30.0734 110.046 30.0734 110.175V124.251Z" fill="#7A756B" style="fill:#7A756B;fill:color(display-p3 0.4784 0.4588 0.4196);fill-opacity:1;"/>
<path d="M40.5725 124.474C40.467 124.661 40.3262 124.755 40.115 124.755C39.9273 124.755 39.7866 124.673 39.6927 124.521C39.5871 124.356 39.5871 124.204 39.6693 124.028L46.7078 109.952C46.8134 109.764 46.9541 109.67 47.1653 109.67C47.353 109.67 47.4938 109.753 47.5876 109.905C47.6932 110.069 47.6932 110.222 47.6111 110.398L40.5725 124.474Z" fill="#7A756B" style="fill:#7A756B;fill:color(display-p3 0.4784 0.4588 0.4196);fill-opacity:1;"/>
<path d="M1.9192 141.142C1.9192 141.271 1.87227 141.389 1.76669 141.494C1.66112 141.6 1.54381 141.647 1.41477 141.647C1.28573 141.647 1.16842 141.6 1.06284 141.494C0.957263 141.389 0.910339 141.271 0.910339 141.142V127.066C0.910339 126.937 0.957263 126.82 1.06284 126.714C1.16842 126.609 1.28573 126.562 1.41477 126.562C1.54381 126.562 1.66112 126.609 1.76669 126.714C1.87227 126.82 1.9192 126.937 1.9192 127.066V141.142Z" fill="#7A756B" style="fill:#7A756B;fill:color(display-p3 0.4784 0.4588 0.4196);fill-opacity:1;"/>
<path d="M11.9726 129.576C12.1016 129.576 12.2189 129.623 12.3245 129.729C12.4301 129.834 12.477 129.952 12.477 130.081C12.477 130.21 12.4301 130.327 12.3245 130.432C12.2189 130.538 12.1016 130.585 11.9726 130.585H4.93402C4.80498 130.585 4.68768 130.538 4.5821 130.432C4.47652 130.327 4.4296 130.21 4.4296 130.081C4.4296 129.952 4.47652 129.834 4.5821 129.729C4.68768 129.623 4.80498 129.576 4.93402 129.576H11.9726ZM11.9726 137.623C12.1016 137.623 12.2189 137.67 12.3245 137.775C12.4301 137.881 12.477 137.998 12.477 138.127C12.477 138.256 12.4301 138.374 12.3245 138.479C12.2189 138.585 12.1016 138.632 11.9726 138.632H4.93402C4.80498 138.632 4.68768 138.585 4.5821 138.479C4.47652 138.374 4.4296 138.256 4.4296 138.127C4.4296 137.998 4.47652 137.881 4.5821 137.775C4.68768 137.67 4.80498 137.623 4.93402 137.623H11.9726Z" fill="#7A756B" style="fill:#7A756B;fill:color(display-p3 0.4784 0.4588 0.4196);fill-opacity:1;"/>
<path d="M19.0111 129.576C19.1401 129.576 19.2575 129.623 19.363 129.729C19.4686 129.834 19.5155 129.952 19.5155 130.081C19.5155 130.21 19.4686 130.327 19.363 130.432C19.2575 130.538 19.1401 130.585 19.0111 130.585H11.9726C11.8435 130.585 11.7262 130.538 11.6206 130.432C11.5151 130.327 11.4681 130.21 11.4681 130.081C11.4681 129.952 11.5151 129.834 11.6206 129.729C11.7262 129.623 11.8435 129.576 11.9726 129.576H19.0111ZM19.0111 137.623C19.1401 137.623 19.2575 137.67 19.363 137.775C19.4686 137.881 19.5155 137.998 19.5155 138.127C19.5155 138.256 19.4686 138.374 19.363 138.479C19.2575 138.585 19.1401 138.632 19.0111 138.632H11.9726C11.8435 138.632 11.7262 138.585 11.6206 138.479C11.5151 138.374 11.4681 138.256 11.4681 138.127C11.4681 137.998 11.5151 137.881 11.6206 137.775C11.7262 137.67 11.8435 137.623 11.9726 137.623H19.0111Z" fill="#7A756B" style="fill:#7A756B;fill:color(display-p3 0.4784 0.4588 0.4196);fill-opacity:1;"/>
<path d="M26.0497 129.576C26.1787 129.576 26.296 129.623 26.4016 129.729C26.5072 129.834 26.5541 129.952 26.5541 130.081C26.5541 130.21 26.5072 130.327 26.4016 130.432C26.296 130.538 26.1787 130.585 26.0497 130.585H19.0111C18.8821 130.585 18.7648 130.538 18.6592 130.432C18.5536 130.327 18.5067 130.21 18.5067 130.081C18.5067 129.952 18.5536 129.834 18.6592 129.729C18.7648 129.623 18.8821 129.576 19.0111 129.576H26.0497ZM26.0497 137.623C26.1787 137.623 26.296 137.67 26.4016 137.775C26.5072 137.881 26.5541 137.998 26.5541 138.127C26.5541 138.256 26.5072 138.374 26.4016 138.479C26.296 138.585 26.1787 138.632 26.0497 138.632H19.0111C18.8821 138.632 18.7648 138.585 18.6592 138.479C18.5536 138.374 18.5067 138.256 18.5067 138.127C18.5067 137.998 18.5536 137.881 18.6592 137.775C18.7648 137.67 18.8821 137.623 19.0111 137.623H26.0497Z" fill="#7A756B" style="fill:#7A756B;fill:color(display-p3 0.4784 0.4588 0.4196);fill-opacity:1;"/>
<path d="M30.0734 141.142C30.0734 141.271 30.0264 141.389 29.9209 141.494C29.8153 141.6 29.698 141.647 29.5689 141.647C29.4399 141.647 29.3226 141.6 29.217 141.494C29.1114 141.389 29.0645 141.271 29.0645 141.142V127.066C29.0645 126.937 29.1114 126.82 29.217 126.714C29.3226 126.609 29.4399 126.562 29.5689 126.562C29.698 126.562 29.8153 126.609 29.9209 126.714C30.0264 126.82 30.0734 126.937 30.0734 127.066V141.142Z" fill="#7A756B" style="fill:#7A756B;fill:color(display-p3 0.4784 0.4588 0.4196);fill-opacity:1;"/>
<path d="M33.534 141.365C33.4284 141.553 33.2876 141.647 33.0765 141.647C32.8888 141.647 32.748 141.565 32.6542 141.412C32.5486 141.248 32.5486 141.095 32.6307 140.919L39.6692 126.843C39.7748 126.656 39.9156 126.562 40.1267 126.562C40.3144 126.562 40.4552 126.644 40.5491 126.796C40.6546 126.961 40.6546 127.113 40.5725 127.289L33.534 141.365Z" fill="#7A756B" style="fill:#7A756B;fill:color(display-p3 0.4784 0.4588 0.4196);fill-opacity:1;"/>
<path d="M1.9192 148.978C1.9192 149.107 1.87227 149.224 1.76669 149.33C1.66112 149.435 1.54381 149.482 1.41477 149.482C1.28573 149.482 1.16842 149.435 1.06284 149.33C0.957263 149.224 0.910339 149.107 0.910339 148.978V146.972C0.910339 146.843 0.957263 146.726 1.06284 146.62C1.16842 146.514 1.28573 146.468 1.41477 146.468C1.54381 146.468 1.66112 146.514 1.76669 146.62C1.87227 146.726 1.9192 146.843 1.9192 146.972V148.978Z" fill="#7A756B" style="fill:#7A756B;fill:color(display-p3 0.4784 0.4588 0.4196);fill-opacity:1;"/>
<path d="M11.9726 150.491C12.1016 150.491 12.2189 150.538 12.3245 150.643C12.4301 150.749 12.477 150.866 12.477 150.995C12.477 151.124 12.4301 151.241 12.3245 151.347C12.2189 151.453 12.1016 151.5 11.9726 151.5H4.93402C4.80498 151.5 4.68768 151.453 4.5821 151.347C4.47652 151.241 4.4296 151.124 4.4296 150.995C4.4296 150.866 4.47652 150.749 4.5821 150.643C4.68768 150.538 4.80498 150.491 4.93402 150.491H11.9726Z" fill="#7A756B" style="fill:#7A756B;fill:color(display-p3 0.4784 0.4588 0.4196);fill-opacity:1;"/>
<path d="M19.0111 150.491C19.1401 150.491 19.2575 150.538 19.363 150.643C19.4686 150.749 19.5155 150.866 19.5155 150.995C19.5155 151.124 19.4686 151.241 19.363 151.347C19.2575 151.453 19.1401 151.5 19.0111 151.5H11.9726C11.8435 151.5 11.7262 151.453 11.6206 151.347C11.5151 151.241 11.4681 151.124 11.4681 150.995C11.4681 150.866 11.5151 150.749 11.6206 150.643C11.7262 150.538 11.8435 150.491 11.9726 150.491H19.0111Z" fill="#7A756B" style="fill:#7A756B;fill:color(display-p3 0.4784 0.4588 0.4196);fill-opacity:1;"/>
<path d="M26.0497 150.491C26.1787 150.491 26.296 150.538 26.4016 150.643C26.5072 150.749 26.5541 150.866 26.5541 150.995C26.5541 151.124 26.5072 151.241 26.4016 151.347C26.296 151.453 26.1787 151.5 26.0497 151.5H19.0111C18.8821 151.5 18.7648 151.453 18.6592 151.347C18.5536 151.241 18.5067 151.124 18.5067 150.995C18.5067 150.866 18.5536 150.749 18.6592 150.643C18.7648 150.538 18.8821 150.491 19.0111 150.491H26.0497Z" fill="#7A756B" style="fill:#7A756B;fill:color(display-p3 0.4784 0.4588 0.4196);fill-opacity:1;"/>
<path d="M30.0734 148.978C30.0734 149.107 30.0264 149.224 29.9209 149.33C29.8153 149.435 29.698 149.482 29.5689 149.482C29.4399 149.482 29.3226 149.435 29.217 149.33C29.1114 149.224 29.0645 149.107 29.0645 148.978V146.972C29.0645 146.843 29.1114 146.726 29.217 146.62C29.3226 146.514 29.4399 146.468 29.5689 146.468C29.698 146.468 29.8153 146.514 29.9209 146.62C30.0264 146.726 30.0734 146.843 30.0734 146.972V148.978Z" fill="#7A756B" style="fill:#7A756B;fill:color(display-p3 0.4784 0.4588 0.4196);fill-opacity:1;"/>
</g>
<path d="M76.0883 1.09274C76.1942 0.986788 76.312 0.939697 76.4415 0.939697C76.6651 0.939697 76.8182 1.04565 76.9124 1.25756C77.0065 1.46947 76.9712 1.64605 76.7946 1.7991L74.7815 3.81222C74.6756 3.91817 74.5578 3.96526 74.4283 3.96526C74.2047 3.96526 74.0516 3.85931 73.9574 3.6474C73.8633 3.43549 73.8986 3.2589 74.0752 3.10586L76.0883 1.09274Z" fill="#7A756B" style="fill:#7A756B;fill:color(display-p3 0.4784 0.4588 0.4196);fill-opacity:1;"/>
<path d="M146.724 1.09274C146.83 0.986788 146.948 0.939697 147.077 0.939697C147.301 0.939697 147.454 1.04565 147.548 1.25756C147.642 1.46947 147.607 1.64605 147.43 1.7991L145.417 3.81222C145.311 3.91817 145.194 3.96526 145.064 3.96526C144.84 3.96526 144.687 3.85931 144.593 3.6474C144.499 3.43549 144.534 3.2589 144.711 3.10586L146.724 1.09274Z" fill="#7A756B" style="fill:#7A756B;fill:color(display-p3 0.4784 0.4588 0.4196);fill-opacity:1;"/>
<path d="M75.9352 22.4366C75.9352 22.5661 75.8881 22.6838 75.7822 22.7898C75.6762 22.8957 75.5585 22.9428 75.429 22.9428C75.2995 22.9428 75.1818 22.8957 75.0758 22.7898C74.9699 22.6838 74.9228 22.5661 74.9228 22.4366V8.30945C74.9228 8.17995 74.9699 8.06222 75.0758 7.95627C75.1818 7.85031 75.2995 7.80322 75.429 7.80322C75.5585 7.80322 75.6762 7.85031 75.7822 7.95627C75.8881 8.06222 75.9352 8.17995 75.9352 8.30945V22.4366Z" fill="#7A756B" style="fill:#7A756B;fill:color(display-p3 0.4784 0.4588 0.4196);fill-opacity:1;"/>
<path d="M86.4835 22.201C86.5188 22.2716 86.5306 22.3422 86.5306 22.4246C86.5306 22.6954 86.4011 22.8602 86.1421 22.9191C85.8831 22.9779 85.6947 22.8955 85.577 22.6601L78.5134 8.53295C78.4781 8.46231 78.4663 8.39168 78.4663 8.30927C78.4663 8.0385 78.5958 7.87368 78.8548 7.81482C79.1138 7.75595 79.3022 7.83836 79.4199 8.08559L86.4835 22.2127V22.201Z" fill="#7A756B" style="fill:#7A756B;fill:color(display-p3 0.4784 0.4588 0.4196);fill-opacity:1;"/>
<path d="M93.5471 22.201C93.5824 22.2716 93.5941 22.3422 93.5941 22.4246C93.5941 22.6954 93.4647 22.8602 93.2057 22.9191C92.9467 22.9779 92.7583 22.8955 92.6406 22.6601L85.577 8.53295C85.5417 8.46231 85.5299 8.39168 85.5299 8.30927C85.5299 8.0385 85.6594 7.87368 85.9184 7.81482C86.1774 7.75595 86.3658 7.83836 86.4835 8.08559L93.5471 22.2127V22.201Z" fill="#7A756B" style="fill:#7A756B;fill:color(display-p3 0.4784 0.4588 0.4196);fill-opacity:1;"/>
<path d="M100.611 22.201C100.646 22.2716 100.658 22.3422 100.658 22.4246C100.658 22.6954 100.528 22.8602 100.269 22.9191C100.01 22.9779 99.8219 22.8955 99.7041 22.6601L92.6406 8.53295C92.6052 8.46231 92.5935 8.39168 92.5935 8.30927C92.5935 8.0385 92.723 7.87368 92.982 7.81482C93.241 7.75595 93.4293 7.83836 93.5471 8.08559L100.611 22.2127V22.201Z" fill="#7A756B" style="fill:#7A756B;fill:color(display-p3 0.4784 0.4588 0.4196);fill-opacity:1;"/>
<path d="M107.674 22.201C107.71 22.2716 107.721 22.3422 107.721 22.4246C107.721 22.6954 107.592 22.8602 107.333 22.9191C107.074 22.9779 106.885 22.8955 106.768 22.6601L99.7042 8.53295C99.6688 8.46231 99.6571 8.39168 99.6571 8.30927C99.6571 8.0385 99.7866 7.87368 100.046 7.81482C100.305 7.75595 100.493 7.83836 100.611 8.08559L107.674 22.2127V22.201Z" fill="#7A756B" style="fill:#7A756B;fill:color(display-p3 0.4784 0.4588 0.4196);fill-opacity:1;"/>
<path d="M114.738 22.6603C114.632 22.8486 114.491 22.9428 114.279 22.9428C114.09 22.9428 113.949 22.8604 113.855 22.7074C113.749 22.5425 113.749 22.3895 113.831 22.2129L120.895 8.08577C121.001 7.8974 121.142 7.80322 121.354 7.80322C121.542 7.80322 121.684 7.88563 121.778 8.03868C121.884 8.20349 121.884 8.35654 121.801 8.53312L114.738 22.6603Z" fill="#7A756B" style="fill:#7A756B;fill:color(display-p3 0.4784 0.4588 0.4196);fill-opacity:1;"/>
<path d="M121.801 22.6603C121.695 22.8486 121.554 22.9428 121.342 22.9428C121.154 22.9428 121.013 22.8604 120.918 22.7074C120.812 22.5425 120.812 22.3895 120.895 22.2129L127.958 8.08577C128.064 7.8974 128.206 7.80322 128.418 7.80322C128.606 7.80322 128.747 7.88563 128.841 8.03868C128.947 8.20349 128.947 8.35654 128.865 8.53312L121.801 22.6603Z" fill="#7A756B" style="fill:#7A756B;fill:color(display-p3 0.4784 0.4588 0.4196);fill-opacity:1;"/>
<path d="M128.865 22.6603C128.759 22.8486 128.618 22.9428 128.406 22.9428C128.217 22.9428 128.076 22.8604 127.982 22.7074C127.876 22.5425 127.876 22.3895 127.958 22.2129L135.022 8.08577C135.128 7.8974 135.269 7.80322 135.481 7.80322C135.669 7.80322 135.811 7.88563 135.905 8.03868C136.011 8.20349 136.011 8.35654 135.928 8.53312L128.865 22.6603Z" fill="#7A756B" style="fill:#7A756B;fill:color(display-p3 0.4784 0.4588 0.4196);fill-opacity:1;"/>
<path d="M135.928 22.6603C135.823 22.8486 135.681 22.9428 135.469 22.9428C135.281 22.9428 135.14 22.8604 135.046 22.7074C134.94 22.5425 134.94 22.3895 135.022 22.2129L142.086 8.08577C142.192 7.8974 142.333 7.80322 142.545 7.80322C142.733 7.80322 142.874 7.88563 142.969 8.03868C143.074 8.20349 143.074 8.35654 142.992 8.53312L135.928 22.6603Z" fill="#7A756B" style="fill:#7A756B;fill:color(display-p3 0.4784 0.4588 0.4196);fill-opacity:1;"/>
<path d="M146.571 22.4366C146.571 22.5661 146.524 22.6838 146.418 22.7898C146.312 22.8957 146.194 22.9428 146.065 22.9428C145.935 22.9428 145.818 22.8957 145.712 22.7898C145.606 22.6838 145.559 22.5661 145.559 22.4366V8.30945C145.559 8.17995 145.606 8.06222 145.712 7.95627C145.818 7.85031 145.935 7.80322 146.065 7.80322C146.194 7.80322 146.312 7.85031 146.418 7.95627C146.524 8.06222 146.571 8.17995 146.571 8.30945V22.4366Z" fill="#7A756B" style="fill:#7A756B;fill:color(display-p3 0.4784 0.4588 0.4196);fill-opacity:1;"/>
<path d="M75.9352 39.389C75.9352 39.5185 75.8881 39.6362 75.7822 39.7422C75.6762 39.8481 75.5585 39.8952 75.429 39.8952C75.2995 39.8952 75.1818 39.8481 75.0758 39.7422C74.9699 39.6362 74.9228 39.5185 74.9228 39.389V25.2618C74.9228 25.1323 74.9699 25.0146 75.0758 24.9087C75.1818 24.8027 75.2995 24.7556 75.429 24.7556C75.5585 24.7556 75.6762 24.8027 75.7822 24.9087C75.8881 25.0146 75.9352 25.1323 75.9352 25.2618V39.389Z" fill="#7A756B" style="fill:#7A756B;fill:color(display-p3 0.4784 0.4588 0.4196);fill-opacity:1;"/>
<path d="M93.5471 39.1536C93.5824 39.2242 93.5941 39.2949 93.5941 39.3773C93.5941 39.648 93.4647 39.8129 93.2057 39.8717C92.9467 39.9306 92.7583 39.8482 92.6406 39.6127L85.577 25.4856C85.5417 25.4149 85.5299 25.3443 85.5299 25.2619C85.5299 24.9911 85.6594 24.8263 85.9184 24.7675C86.1774 24.7086 86.3658 24.791 86.4835 25.0382L93.5471 39.1654V39.1536Z" fill="#7A756B" style="fill:#7A756B;fill:color(display-p3 0.4784 0.4588 0.4196);fill-opacity:1;"/>
<path d="M100.611 39.1536C100.646 39.2242 100.658 39.2949 100.658 39.3773C100.658 39.648 100.528 39.8129 100.269 39.8717C100.01 39.9306 99.8219 39.8482 99.7041 39.6127L92.6406 25.4856C92.6052 25.4149 92.5935 25.3443 92.5935 25.2619C92.5935 24.9911 92.723 24.8263 92.982 24.7675C93.241 24.7086 93.4293 24.791 93.5471 25.0382L100.611 39.1654V39.1536Z" fill="#7A756B" style="fill:#7A756B;fill:color(display-p3 0.4784 0.4588 0.4196);fill-opacity:1;"/>
<path d="M107.674 39.1536C107.71 39.2242 107.721 39.2949 107.721 39.3773C107.721 39.648 107.592 39.8129 107.333 39.8717C107.074 39.9306 106.885 39.8482 106.768 39.6127L99.7042 25.4856C99.6688 25.4149 99.6571 25.3443 99.6571 25.2619C99.6571 24.9911 99.7866 24.8263 100.046 24.7675C100.305 24.7086 100.493 24.791 100.611 25.0382L107.674 39.1654V39.1536Z" fill="#7A756B" style="fill:#7A756B;fill:color(display-p3 0.4784 0.4588 0.4196);fill-opacity:1;"/>
<path d="M112.795 27.7812C112.795 27.7812 112.866 27.7813 112.901 27.8048C113.148 27.8519 113.278 28.0167 113.278 28.2875C113.278 28.3228 113.278 28.3581 113.254 28.417L111.241 36.493C111.194 36.7402 111.029 36.8697 110.759 36.8697C110.488 36.8697 110.335 36.7402 110.276 36.493L108.263 28.417C108.263 28.417 108.239 28.3228 108.239 28.2875C108.239 28.0167 108.369 27.8637 108.616 27.8048C108.651 27.793 108.687 27.7812 108.746 27.7812C109.016 27.7812 109.169 27.9108 109.228 28.158L110.77 34.2915C110.841 34.0207 110.923 33.6793 111.018 33.2555C111.124 32.8317 111.288 32.1842 111.512 31.2895C111.736 30.3948 112.007 29.3588 112.301 28.158C112.348 27.9108 112.513 27.7812 112.784 27.7812H112.807H112.795Z" fill="#7A756B" style="fill:#7A756B;fill:color(display-p3 0.4784 0.4588 0.4196);fill-opacity:1;"/>
<path d="M114.738 39.6127C114.632 39.801 114.491 39.8952 114.279 39.8952C114.09 39.8952 113.949 39.8128 113.855 39.6597C113.749 39.4949 113.749 39.3419 113.831 39.1653L120.895 25.0382C121.001 24.8498 121.142 24.7556 121.354 24.7556C121.542 24.7556 121.684 24.838 121.778 24.9911C121.884 25.1559 121.884 25.3089 121.801 25.4855L114.738 39.6127Z" fill="#7A756B" style="fill:#7A756B;fill:color(display-p3 0.4784 0.4588 0.4196);fill-opacity:1;"/>
<path d="M121.801 39.6127C121.695 39.801 121.554 39.8952 121.342 39.8952C121.154 39.8952 121.013 39.8128 120.918 39.6597C120.812 39.4949 120.812 39.3419 120.895 39.1653L127.958 25.0382C128.064 24.8498 128.206 24.7556 128.418 24.7556C128.606 24.7556 128.747 24.838 128.841 24.9911C128.947 25.1559 128.947 25.3089 128.865 25.4855L121.801 39.6127Z" fill="#7A756B" style="fill:#7A756B;fill:color(display-p3 0.4784 0.4588 0.4196);fill-opacity:1;"/>
<path d="M128.865 39.6127C128.759 39.801 128.618 39.8952 128.406 39.8952C128.217 39.8952 128.076 39.8128 127.982 39.6597C127.876 39.4949 127.876 39.3419 127.958 39.1653L135.022 25.0382C135.128 24.8498 135.269 24.7556 135.481 24.7556C135.669 24.7556 135.811 24.838 135.905 24.9911C136.011 25.1559 136.011 25.3089 135.928 25.4855L128.865 39.6127Z" fill="#7A756B" style="fill:#7A756B;fill:color(display-p3 0.4784 0.4588 0.4196);fill-opacity:1;"/>
<path d="M146.571 39.389C146.571 39.5185 146.524 39.6362 146.418 39.7422C146.312 39.8481 146.194 39.8952 146.065 39.8952C145.935 39.8952 145.818 39.8481 145.712 39.7422C145.606 39.6362 145.559 39.5185 145.559 39.389V25.2618C145.559 25.1323 145.606 25.0146 145.712 24.9087C145.818 24.8027 145.935 24.7556 146.065 24.7556C146.194 24.7556 146.312 24.8027 146.418 24.9087C146.524 25.0146 146.571 25.1323 146.571 25.2618V39.389Z" fill="#7A756B" style="fill:#7A756B;fill:color(display-p3 0.4784 0.4588 0.4196);fill-opacity:1;"/>
<path d="M75.9352 56.3416C75.9352 56.4711 75.8881 56.5888 75.7822 56.6948C75.6762 56.8007 75.5585 56.8478 75.429 56.8478C75.2995 56.8478 75.1818 56.8007 75.0758 56.6948C74.9699 56.5888 74.9228 56.4711 74.9228 56.3416V42.2145C74.9228 42.085 74.9699 41.9672 75.0758 41.8613C75.1818 41.7553 75.2995 41.7083 75.429 41.7083C75.5585 41.7083 75.6762 41.7553 75.7822 41.8613C75.8881 41.9672 75.9352 42.085 75.9352 42.2145V56.3416Z" fill="#7A756B" style="fill:#7A756B;fill:color(display-p3 0.4784 0.4588 0.4196);fill-opacity:1;"/>
<path d="M97.1259 56.3416C97.1259 56.4711 97.0788 56.5888 96.9729 56.6948C96.8669 56.8007 96.7492 56.8478 96.6197 56.8478C96.4902 56.8478 96.3725 56.8007 96.2665 56.6948C96.1606 56.5888 96.1135 56.4711 96.1135 56.3416V42.2145C96.1135 42.085 96.1606 41.9672 96.2665 41.8613C96.3725 41.7553 96.4902 41.7083 96.6197 41.7083C96.7492 41.7083 96.8669 41.7553 96.9729 41.8613C97.0788 41.9672 97.1259 42.085 97.1259 42.2145V56.3416Z" fill="#7A756B" style="fill:#7A756B;fill:color(display-p3 0.4784 0.4588 0.4196);fill-opacity:1;"/>
<path d="M101.611 45.1812C101.906 44.8869 102.259 44.7339 102.683 44.7339C103.106 44.7339 103.46 44.8869 103.754 45.1812C104.048 45.4756 104.201 45.8287 104.201 46.2526C104.201 46.3821 104.248 46.4998 104.354 46.6057C104.46 46.7117 104.578 46.7588 104.707 46.7588C104.837 46.7588 104.955 46.7117 105.061 46.6057C105.167 46.4998 105.214 46.3821 105.214 46.2526C105.214 46.1231 105.261 46.0053 105.367 45.8994C105.473 45.7934 105.59 45.7463 105.72 45.7463C105.849 45.7463 105.967 45.7934 106.073 45.8994C106.179 46.0053 106.226 46.1231 106.226 46.2526C106.226 46.6764 106.073 47.0295 105.779 47.3239C105.484 47.6182 105.131 47.7712 104.707 47.7712C104.284 47.7712 103.931 47.63 103.636 47.3239C103.342 47.0295 103.189 46.6764 103.189 46.2526C103.189 46.1231 103.142 46.0053 103.036 45.8994C102.93 45.7934 102.812 45.7463 102.683 45.7463C102.553 45.7463 102.435 45.7934 102.329 45.8994C102.223 46.0053 102.176 46.1231 102.176 46.2526C102.176 46.3821 102.129 46.4998 102.023 46.6057C101.917 46.7117 101.8 46.7588 101.67 46.7588C101.541 46.7588 101.423 46.7117 101.317 46.6057C101.211 46.4998 101.164 46.3821 101.164 46.2526C101.164 45.8287 101.305 45.4756 101.611 45.1812Z" fill="#7A756B" style="fill:#7A756B;fill:color(display-p3 0.4784 0.4588 0.4196);fill-opacity:1;"/>
<path d="M108.675 45.1812C108.969 44.8869 109.322 44.7339 109.746 44.7339C110.17 44.7339 110.523 44.8869 110.818 45.1812C111.112 45.4756 111.265 45.8287 111.265 46.2526C111.265 46.3821 111.312 46.4998 111.418 46.6057C111.524 46.7117 111.642 46.7588 111.771 46.7588C111.901 46.7588 112.018 46.7117 112.124 46.6057C112.23 46.4998 112.277 46.3821 112.277 46.2526C112.277 46.1231 112.324 46.0053 112.43 45.8994C112.536 45.7934 112.654 45.7463 112.784 45.7463C112.913 45.7463 113.031 45.7934 113.137 45.8994C113.243 46.0053 113.29 46.1231 113.29 46.2526C113.29 46.6764 113.137 47.0295 112.842 47.3239C112.548 47.6182 112.195 47.7712 111.771 47.7712C111.347 47.7712 110.994 47.63 110.7 47.3239C110.405 47.0295 110.252 46.6764 110.252 46.2526C110.252 46.1231 110.205 46.0053 110.099 45.8994C109.993 45.7934 109.876 45.7463 109.746 45.7463C109.617 45.7463 109.499 45.7934 109.393 45.8994C109.287 46.0053 109.24 46.1231 109.24 46.2526C109.24 46.3821 109.193 46.4998 109.087 46.6057C108.981 46.7117 108.863 46.7588 108.734 46.7588C108.604 46.7588 108.487 46.7117 108.381 46.6057C108.275 46.4998 108.228 46.3821 108.228 46.2526C108.228 45.8287 108.369 45.4756 108.675 45.1812Z" fill="#7A756B" style="fill:#7A756B;fill:color(display-p3 0.4784 0.4588 0.4196);fill-opacity:1;"/>
<path d="M115.738 45.1812C116.033 44.8869 116.386 44.7339 116.81 44.7339C117.234 44.7339 117.587 44.8869 117.881 45.1812C118.175 45.4756 118.328 45.8287 118.328 46.2526C118.328 46.3821 118.376 46.4998 118.481 46.6057C118.587 46.7117 118.705 46.7588 118.835 46.7588C118.964 46.7588 119.082 46.7117 119.188 46.6057C119.294 46.4998 119.341 46.3821 119.341 46.2526C119.341 46.1231 119.388 46.0053 119.494 45.8994C119.6 45.7934 119.718 45.7463 119.847 45.7463C119.977 45.7463 120.094 45.7934 120.2 45.8994C120.306 46.0053 120.353 46.1231 120.353 46.2526C120.353 46.6764 120.2 47.0295 119.906 47.3239C119.612 47.6182 119.258 47.7712 118.835 47.7712C118.411 47.7712 118.058 47.63 117.763 47.3239C117.469 47.0295 117.316 46.6764 117.316 46.2526C117.316 46.1231 117.269 46.0053 117.163 45.8994C117.057 45.7934 116.939 45.7463 116.81 45.7463C116.68 45.7463 116.563 45.7934 116.457 45.8994C116.351 46.0053 116.304 46.1231 116.304 46.2526C116.304 46.3821 116.256 46.4998 116.151 46.6057C116.045 46.7117 115.927 46.7588 115.797 46.7588C115.668 46.7588 115.55 46.7117 115.444 46.6057C115.338 46.4998 115.291 46.3821 115.291 46.2526C115.291 45.8287 115.432 45.4756 115.738 45.1812Z" fill="#7A756B" style="fill:#7A756B;fill:color(display-p3 0.4784 0.4588 0.4196);fill-opacity:1;"/>
<path d="M125.38 56.3416C125.38 56.4711 125.333 56.5888 125.227 56.6948C125.121 56.8007 125.004 56.8478 124.874 56.8478C124.745 56.8478 124.627 56.8007 124.521 56.6948C124.415 56.5888 124.368 56.4711 124.368 56.3416V42.2145C124.368 42.085 124.415 41.9672 124.521 41.8613C124.627 41.7553 124.745 41.7083 124.874 41.7083C125.004 41.7083 125.121 41.7553 125.227 41.8613C125.333 41.9672 125.38 42.085 125.38 42.2145V56.3416Z" fill="#7A756B" style="fill:#7A756B;fill:color(display-p3 0.4784 0.4588 0.4196);fill-opacity:1;"/>
<path d="M146.571 56.3416C146.571 56.4711 146.524 56.5888 146.418 56.6948C146.312 56.8007 146.194 56.8478 146.065 56.8478C145.935 56.8478 145.818 56.8007 145.712 56.6948C145.606 56.5888 145.559 56.4711 145.559 56.3416V42.2145C145.559 42.085 145.606 41.9672 145.712 41.8613C145.818 41.7553 145.935 41.7083 146.065 41.7083C146.194 41.7083 146.312 41.7553 146.418 41.8613C146.524 41.9672 146.571 42.085 146.571 42.2145V56.3416Z" fill="#7A756B" style="fill:#7A756B;fill:color(display-p3 0.4784 0.4588 0.4196);fill-opacity:1;"/>
<path d="M75.9352 73.2943C75.9352 73.4238 75.8881 73.5415 75.7822 73.6474C75.6762 73.7534 75.5585 73.8005 75.429 73.8005C75.2995 73.8005 75.1818 73.7534 75.0758 73.6474C74.9699 73.5415 74.9228 73.4238 74.9228 73.2943V59.1671C74.9228 59.0376 74.9699 58.9199 75.0758 58.8139C75.1818 58.708 75.2995 58.6609 75.429 58.6609C75.5585 58.6609 75.6762 58.708 75.7822 58.8139C75.8881 58.9199 75.9352 59.0376 75.9352 59.1671V73.2943Z" fill="#7A756B" style="fill:#7A756B;fill:color(display-p3 0.4784 0.4588 0.4196);fill-opacity:1;"/>
<path d="M97.1259 73.2943C97.1259 73.4238 97.0788 73.5415 96.9729 73.6474C96.8669 73.7534 96.7492 73.8005 96.6197 73.8005C96.4902 73.8005 96.3725 73.7534 96.2665 73.6474C96.1606 73.5415 96.1135 73.4238 96.1135 73.2943V59.1671C96.1135 59.0376 96.1606 58.9199 96.2665 58.8139C96.3725 58.708 96.4902 58.6609 96.6197 58.6609C96.7492 58.6609 96.8669 58.708 96.9729 58.8139C97.0788 58.9199 97.1259 59.0376 97.1259 59.1671V73.2943Z" fill="#7A756B" style="fill:#7A756B;fill:color(display-p3 0.4784 0.4588 0.4196);fill-opacity:1;"/>
<path d="M107.227 61.6863C107.356 61.6863 107.474 61.7334 107.58 61.8393C107.686 61.9453 107.733 62.063 107.733 62.1925C107.733 62.322 107.686 62.4397 107.58 62.5457C107.474 62.6516 107.356 62.6987 107.227 62.6987H100.163C100.034 62.6987 99.9161 62.6516 99.8101 62.5457C99.7042 62.4397 99.6571 62.322 99.6571 62.1925C99.6571 62.063 99.7042 61.9453 99.8101 61.8393C99.9161 61.7334 100.034 61.6863 100.163 61.6863H107.227ZM107.227 69.7623C107.356 69.7623 107.474 69.8094 107.58 69.9153C107.686 70.0213 107.733 70.139 107.733 70.2685C107.733 70.398 107.686 70.5157 107.58 70.6217C107.474 70.7276 107.356 70.7747 107.227 70.7747H100.163C100.034 70.7747 99.9161 70.7276 99.8101 70.6217C99.7042 70.5157 99.6571 70.398 99.6571 70.2685C99.6571 70.139 99.7042 70.0213 99.8101 69.9153C99.9161 69.8094 100.034 69.7623 100.163 69.7623H107.227Z" fill="#7A756B" style="fill:#7A756B;fill:color(display-p3 0.4784 0.4588 0.4196);fill-opacity:1;"/>
<path d="M114.29 61.6863C114.42 61.6863 114.538 61.7334 114.644 61.8393C114.75 61.9453 114.797 62.063 114.797 62.1925C114.797 62.322 114.75 62.4397 114.644 62.5457C114.538 62.6516 114.42 62.6987 114.29 62.6987H107.227C107.097 62.6987 106.98 62.6516 106.874 62.5457C106.768 62.4397 106.721 62.322 106.721 62.1925C106.721 62.063 106.768 61.9453 106.874 61.8393C106.98 61.7334 107.097 61.6863 107.227 61.6863H114.29ZM114.29 69.7623C114.42 69.7623 114.538 69.8094 114.644 69.9153C114.75 70.0213 114.797 70.139 114.797 70.2685C114.797 70.398 114.75 70.5157 114.644 70.6217C114.538 70.7276 114.42 70.7747 114.29 70.7747H107.227C107.097 70.7747 106.98 70.7276 106.874 70.6217C106.768 70.5157 106.721 70.398 106.721 70.2685C106.721 70.139 106.768 70.0213 106.874 69.9153C106.98 69.8094 107.097 69.7623 107.227 69.7623H114.29Z" fill="#7A756B" style="fill:#7A756B;fill:color(display-p3 0.4784 0.4588 0.4196);fill-opacity:1;"/>
<path d="M121.354 61.6863C121.484 61.6863 121.601 61.7334 121.707 61.8393C121.813 61.9453 121.86 62.063 121.86 62.1925C121.86 62.322 121.813 62.4397 121.707 62.5457C121.601 62.6516 121.484 62.6987 121.354 62.6987H114.29C114.161 62.6987 114.043 62.6516 113.937 62.5457C113.831 62.4397 113.784 62.322 113.784 62.1925C113.784 62.063 113.831 61.9453 113.937 61.8393C114.043 61.7334 114.161 61.6863 114.29 61.6863H121.354ZM121.354 69.7623C121.484 69.7623 121.601 69.8094 121.707 69.9153C121.813 70.0213 121.86 70.139 121.86 70.2685C121.86 70.398 121.813 70.5157 121.707 70.6217C121.601 70.7276 121.484 70.7747 121.354 70.7747H114.29C114.161 70.7747 114.043 70.7276 113.937 70.6217C113.831 70.5157 113.784 70.398 113.784 70.2685C113.784 70.139 113.831 70.0213 113.937 69.9153C114.043 69.8094 114.161 69.7623 114.29 69.7623H121.354Z" fill="#7A756B" style="fill:#7A756B;fill:color(display-p3 0.4784 0.4588 0.4196);fill-opacity:1;"/>
<path d="M125.38 73.2943C125.38 73.4238 125.333 73.5415 125.227 73.6474C125.121 73.7534 125.004 73.8005 124.874 73.8005C124.745 73.8005 124.627 73.7534 124.521 73.6474C124.415 73.5415 124.368 73.4238 124.368 73.2943V59.1671C124.368 59.0376 124.415 58.9199 124.521 58.8139C124.627 58.708 124.745 58.6609 124.874 58.6609C125.004 58.6609 125.121 58.708 125.227 58.8139C125.333 58.9199 125.38 59.0376 125.38 59.1671V73.2943Z" fill="#7A756B" style="fill:#7A756B;fill:color(display-p3 0.4784 0.4588 0.4196);fill-opacity:1;"/>
<path d="M146.571 73.2943C146.571 73.4238 146.524 73.5415 146.418 73.6474C146.312 73.7534 146.194 73.8005 146.065 73.8005C145.935 73.8005 145.818 73.7534 145.712 73.6474C145.606 73.5415 145.559 73.4238 145.559 73.2943V59.1671C145.559 59.0376 145.606 58.9199 145.712 58.8139C145.818 58.708 145.935 58.6609 146.065 58.6609C146.194 58.6609 146.312 58.708 146.418 58.8139C146.524 58.9199 146.571 59.0376 146.571 59.1671V73.2943Z" fill="#7A756B" style="fill:#7A756B;fill:color(display-p3 0.4784 0.4588 0.4196);fill-opacity:1;"/>
<path d="M75.9352 90.2466C75.9352 90.3761 75.8881 90.4939 75.7822 90.5998C75.6762 90.7058 75.5585 90.7529 75.429 90.7529C75.2995 90.7529 75.1818 90.7058 75.0758 90.5998C74.9699 90.4939 74.9228 90.3761 74.9228 90.2466V76.1195C74.9228 75.99 74.9699 75.8723 75.0758 75.7663C75.1818 75.6604 75.2995 75.6133 75.429 75.6133C75.5585 75.6133 75.6762 75.6604 75.7822 75.7663C75.8881 75.8723 75.9352 75.99 75.9352 76.1195V90.2466Z" fill="#7A756B" style="fill:#7A756B;fill:color(display-p3 0.4784 0.4588 0.4196);fill-opacity:1;"/>
<path d="M97.1259 90.2466C97.1259 90.3761 97.0788 90.4939 96.9729 90.5998C96.8669 90.7058 96.7492 90.7529 96.6197 90.7529C96.4902 90.7529 96.3725 90.7058 96.2665 90.5998C96.1606 90.4939 96.1135 90.3761 96.1135 90.2466V76.1195C96.1135 75.99 96.1606 75.8723 96.2665 75.7663C96.3725 75.6604 96.4902 75.6133 96.6197 75.6133C96.7492 75.6133 96.8669 75.6604 96.9729 75.7663C97.0788 75.8723 97.1259 75.99 97.1259 76.1195V90.2466Z" fill="#7A756B" style="fill:#7A756B;fill:color(display-p3 0.4784 0.4588 0.4196);fill-opacity:1;"/>
<path d="M125.38 90.2466C125.38 90.3761 125.333 90.4939 125.227 90.5998C125.121 90.7058 125.004 90.7529 124.874 90.7529C124.745 90.7529 124.627 90.7058 124.521 90.5998C124.415 90.4939 124.368 90.3761 124.368 90.2466V76.1195C124.368 75.99 124.415 75.8723 124.521 75.7663C124.627 75.6604 124.745 75.6133 124.874 75.6133C125.004 75.6133 125.121 75.6604 125.227 75.7663C125.333 75.8723 125.38 75.99 125.38 76.1195V90.2466Z" fill="#7A756B" style="fill:#7A756B;fill:color(display-p3 0.4784 0.4588 0.4196);fill-opacity:1;"/>
<path d="M146.571 90.2466C146.571 90.3761 146.524 90.4939 146.418 90.5998C146.312 90.7058 146.194 90.7529 146.065 90.7529C145.935 90.7529 145.818 90.7058 145.712 90.5998C145.606 90.4939 145.559 90.3761 145.559 90.2466V76.1195C145.559 75.99 145.606 75.8723 145.712 75.7663C145.818 75.6604 145.935 75.6133 146.065 75.6133C146.194 75.6133 146.312 75.6604 146.418 75.7663C146.524 75.8723 146.571 75.99 146.571 76.1195V90.2466Z" fill="#7A756B" style="fill:#7A756B;fill:color(display-p3 0.4784 0.4588 0.4196);fill-opacity:1;"/>
<path d="M75.9352 107.199C75.9352 107.329 75.8881 107.447 75.7822 107.552C75.6762 107.658 75.5585 107.706 75.429 107.706C75.2995 107.706 75.1818 107.658 75.0758 107.552C74.9699 107.447 74.9228 107.329 74.9228 107.199V93.0721C74.9228 92.9426 74.9699 92.8249 75.0758 92.719C75.1818 92.613 75.2995 92.5659 75.429 92.5659C75.5585 92.5659 75.6762 92.613 75.7822 92.719C75.8881 92.8249 75.9352 92.9426 75.9352 93.0721V107.199Z" fill="#7A756B" style="fill:#7A756B;fill:color(display-p3 0.4784 0.4588 0.4196);fill-opacity:1;"/>
<path d="M97.1259 107.199C97.1259 107.329 97.0788 107.447 96.9729 107.552C96.8669 107.658 96.7492 107.706 96.6197 107.706C96.4902 107.706 96.3725 107.658 96.2665 107.552C96.1606 107.447 96.1135 107.329 96.1135 107.199V93.0721C96.1135 92.9426 96.1606 92.8249 96.2665 92.719C96.3725 92.613 96.4902 92.5659 96.6197 92.5659C96.7492 92.5659 96.8669 92.613 96.9729 92.719C97.0788 92.8249 97.1259 92.9426 97.1259 93.0721V107.199Z" fill="#7A756B" style="fill:#7A756B;fill:color(display-p3 0.4784 0.4588 0.4196);fill-opacity:1;"/>
<path d="M125.38 107.199C125.38 107.329 125.333 107.447 125.227 107.552C125.121 107.658 125.004 107.706 124.874 107.706C124.745 107.706 124.627 107.658 124.521 107.552C124.415 107.447 124.368 107.329 124.368 107.199V93.0721C124.368 92.9426 124.415 92.8249 124.521 92.719C124.627 92.613 124.745 92.5659 124.874 92.5659C125.004 92.5659 125.121 92.613 125.227 92.719C125.333 92.8249 125.38 92.9426 125.38 93.0721V107.199Z" fill="#7A756B" style="fill:#7A756B;fill:color(display-p3 0.4784 0.4588 0.4196);fill-opacity:1;"/>
<path d="M146.571 107.199C146.571 107.329 146.524 107.447 146.418 107.552C146.312 107.658 146.194 107.706 146.065 107.706C145.935 107.706 145.818 107.658 145.712 107.552C145.606 107.447 145.559 107.329 145.559 107.199V93.0721C145.559 92.9426 145.606 92.8249 145.712 92.719C145.818 92.613 145.935 92.5659 146.065 92.5659C146.194 92.5659 146.312 92.613 146.418 92.719C146.524 92.8249 146.571 92.9426 146.571 93.0721V107.199Z" fill="#7A756B" style="fill:#7A756B;fill:color(display-p3 0.4784 0.4588 0.4196);fill-opacity:1;"/>
<path d="M86.4835 123.917C86.5188 123.987 86.5306 124.058 86.5306 124.14C86.5306 124.411 86.4011 124.576 86.1421 124.635C85.8831 124.694 85.6947 124.611 85.577 124.376L78.5134 110.249C78.4781 110.178 78.4663 110.107 78.4663 110.025C78.4663 109.754 78.5958 109.589 78.8548 109.53C79.1138 109.472 79.3022 109.554 79.4199 109.801L86.4835 123.928V123.917Z" fill="#7A756B" style="fill:#7A756B;fill:color(display-p3 0.4784 0.4588 0.4196);fill-opacity:1;"/>
<path d="M97.1259 124.152C97.1259 124.281 97.0788 124.399 96.9729 124.505C96.8669 124.611 96.7492 124.658 96.6197 124.658C96.4902 124.658 96.3725 124.611 96.2665 124.505C96.1606 124.399 96.1135 124.281 96.1135 124.152V110.025C96.1135 109.895 96.1606 109.778 96.2665 109.672C96.3725 109.566 96.4902 109.519 96.6197 109.519C96.7492 109.519 96.8669 109.566 96.9729 109.672C97.0788 109.778 97.1259 109.895 97.1259 110.025V124.152Z" fill="#7A756B" style="fill:#7A756B;fill:color(display-p3 0.4784 0.4588 0.4196);fill-opacity:1;"/>
<path d="M125.38 124.152C125.38 124.281 125.333 124.399 125.227 124.505C125.121 124.611 125.004 124.658 124.874 124.658C124.745 124.658 124.627 124.611 124.521 124.505C124.415 124.399 124.368 124.281 124.368 124.152V110.025C124.368 109.895 124.415 109.778 124.521 109.672C124.627 109.566 124.745 109.519 124.874 109.519C125.004 109.519 125.121 109.566 125.227 109.672C125.333 109.778 125.38 109.895 125.38 110.025V124.152Z" fill="#7A756B" style="fill:#7A756B;fill:color(display-p3 0.4784 0.4588 0.4196);fill-opacity:1;"/>
<path d="M135.928 124.376C135.823 124.564 135.681 124.658 135.469 124.658C135.281 124.658 135.14 124.576 135.046 124.423C134.94 124.258 134.94 124.105 135.022 123.928L142.086 109.801C142.192 109.613 142.333 109.519 142.545 109.519C142.733 109.519 142.874 109.601 142.969 109.754C143.074 109.919 143.074 110.072 142.992 110.248L135.928 124.376Z" fill="#7A756B" style="fill:#7A756B;fill:color(display-p3 0.4784 0.4588 0.4196);fill-opacity:1;"/>
<path d="M93.5471 140.869C93.5824 140.94 93.5941 141.01 93.5941 141.093C93.5941 141.363 93.4647 141.528 93.2057 141.587C92.9467 141.646 92.7583 141.564 92.6406 141.328L85.577 127.201C85.5417 127.13 85.5299 127.06 85.5299 126.977C85.5299 126.706 85.6594 126.542 85.9184 126.483C86.1774 126.424 86.3658 126.506 86.4835 126.754L93.5471 140.881V140.869Z" fill="#7A756B" style="fill:#7A756B;fill:color(display-p3 0.4784 0.4588 0.4196);fill-opacity:1;"/>
<path d="M97.1259 141.105C97.1259 141.234 97.0788 141.352 96.9729 141.458C96.8669 141.564 96.7492 141.611 96.6197 141.611C96.4902 141.611 96.3725 141.564 96.2665 141.458C96.1606 141.352 96.1135 141.234 96.1135 141.105V126.977C96.1135 126.848 96.1606 126.73 96.2665 126.624C96.3725 126.518 96.4902 126.471 96.6197 126.471C96.7492 126.471 96.8669 126.518 96.9729 126.624C97.0788 126.73 97.1259 126.848 97.1259 126.977V141.105Z" fill="#7A756B" style="fill:#7A756B;fill:color(display-p3 0.4784 0.4588 0.4196);fill-opacity:1;"/>
<path d="M107.227 129.497C107.356 129.497 107.474 129.544 107.58 129.65C107.686 129.756 107.733 129.873 107.733 130.003C107.733 130.132 107.686 130.25 107.58 130.356C107.474 130.462 107.356 130.509 107.227 130.509H100.163C100.034 130.509 99.9161 130.462 99.8101 130.356C99.7042 130.25 99.6571 130.132 99.6571 130.003C99.6571 129.873 99.7042 129.756 99.8101 129.65C99.9161 129.544 100.034 129.497 100.163 129.497H107.227ZM107.227 137.573C107.356 137.573 107.474 137.62 107.58 137.726C107.686 137.832 107.733 137.949 107.733 138.079C107.733 138.208 107.686 138.326 107.58 138.432C107.474 138.538 107.356 138.585 107.227 138.585H100.163C100.034 138.585 99.9161 138.538 99.8101 138.432C99.7042 138.326 99.6571 138.208 99.6571 138.079C99.6571 137.949 99.7042 137.832 99.8101 137.726C99.9161 137.62 100.034 137.573 100.163 137.573H107.227Z" fill="#7A756B" style="fill:#7A756B;fill:color(display-p3 0.4784 0.4588 0.4196);fill-opacity:1;"/>
<path d="M114.29 129.497C114.42 129.497 114.538 129.544 114.644 129.65C114.75 129.756 114.797 129.873 114.797 130.003C114.797 130.132 114.75 130.25 114.644 130.356C114.538 130.462 114.42 130.509 114.29 130.509H107.227C107.097 130.509 106.98 130.462 106.874 130.356C106.768 130.25 106.721 130.132 106.721 130.003C106.721 129.873 106.768 129.756 106.874 129.65C106.98 129.544 107.097 129.497 107.227 129.497H114.29ZM114.29 137.573C114.42 137.573 114.538 137.62 114.644 137.726C114.75 137.832 114.797 137.949 114.797 138.079C114.797 138.208 114.75 138.326 114.644 138.432C114.538 138.538 114.42 138.585 114.29 138.585H107.227C107.097 138.585 106.98 138.538 106.874 138.432C106.768 138.326 106.721 138.208 106.721 138.079C106.721 137.949 106.768 137.832 106.874 137.726C106.98 137.62 107.097 137.573 107.227 137.573H114.29Z" fill="#7A756B" style="fill:#7A756B;fill:color(display-p3 0.4784 0.4588 0.4196);fill-opacity:1;"/>
<path d="M121.354 129.497C121.484 129.497 121.601 129.544 121.707 129.65C121.813 129.756 121.86 129.873 121.86 130.003C121.86 130.132 121.813 130.25 121.707 130.356C121.601 130.462 121.484 130.509 121.354 130.509H114.29C114.161 130.509 114.043 130.462 113.937 130.356C113.831 130.25 113.784 130.132 113.784 130.003C113.784 129.873 113.831 129.756 113.937 129.65C114.043 129.544 114.161 129.497 114.29 129.497H121.354ZM121.354 137.573C121.484 137.573 121.601 137.62 121.707 137.726C121.813 137.832 121.86 137.949 121.86 138.079C121.86 138.208 121.813 138.326 121.707 138.432C121.601 138.538 121.484 138.585 121.354 138.585H114.29C114.161 138.585 114.043 138.538 113.937 138.432C113.831 138.326 113.784 138.208 113.784 138.079C113.784 137.949 113.831 137.832 113.937 137.726C114.043 137.62 114.161 137.573 114.29 137.573H121.354Z" fill="#7A756B" style="fill:#7A756B;fill:color(display-p3 0.4784 0.4588 0.4196);fill-opacity:1;"/>
<path d="M125.38 141.105C125.38 141.234 125.333 141.352 125.227 141.458C125.121 141.564 125.004 141.611 124.874 141.611C124.745 141.611 124.627 141.564 124.521 141.458C124.415 141.352 124.368 141.234 124.368 141.105V126.977C124.368 126.848 124.415 126.73 124.521 126.624C124.627 126.518 124.745 126.471 124.874 126.471C125.004 126.471 125.121 126.518 125.227 126.624C125.333 126.73 125.38 126.848 125.38 126.977V141.105Z" fill="#7A756B" style="fill:#7A756B;fill:color(display-p3 0.4784 0.4588 0.4196);fill-opacity:1;"/>
<path d="M128.865 141.328C128.759 141.517 128.618 141.611 128.406 141.611C128.217 141.611 128.076 141.528 127.982 141.375C127.876 141.211 127.876 141.057 127.958 140.881L135.022 126.754C135.128 126.565 135.269 126.471 135.481 126.471C135.669 126.471 135.811 126.554 135.905 126.707C136.011 126.871 136.011 127.025 135.928 127.201L128.865 141.328Z" fill="#7A756B" style="fill:#7A756B;fill:color(display-p3 0.4784 0.4588 0.4196);fill-opacity:1;"/>
<path d="M97.1259 148.969C97.1259 149.098 97.0788 149.216 96.9729 149.322C96.8669 149.428 96.7492 149.475 96.6197 149.475C96.4902 149.475 96.3725 149.428 96.2665 149.322C96.1606 149.216 96.1135 149.098 96.1135 148.969V146.955C96.1135 146.826 96.1606 146.708 96.2665 146.602C96.3725 146.496 96.4902 146.449 96.6197 146.449C96.7492 146.449 96.8669 146.496 96.9729 146.602C97.0788 146.708 97.1259 146.826 97.1259 146.955V148.969Z" fill="#7A756B" style="fill:#7A756B;fill:color(display-p3 0.4784 0.4588 0.4196);fill-opacity:1;"/>
<path d="M107.227 150.487C107.356 150.487 107.474 150.534 107.58 150.64C107.686 150.746 107.733 150.864 107.733 150.994C107.733 151.123 107.686 151.241 107.58 151.347C107.474 151.453 107.356 151.5 107.227 151.5H100.163C100.034 151.5 99.9161 151.453 99.8101 151.347C99.7042 151.241 99.6571 151.123 99.6571 150.994C99.6571 150.864 99.7042 150.746 99.8101 150.64C99.9161 150.534 100.034 150.487 100.163 150.487H107.227Z" fill="#7A756B" style="fill:#7A756B;fill:color(display-p3 0.4784 0.4588 0.4196);fill-opacity:1;"/>
<path d="M114.29 150.487C114.42 150.487 114.538 150.534 114.644 150.64C114.75 150.746 114.797 150.864 114.797 150.994C114.797 151.123 114.75 151.241 114.644 151.347C114.538 151.453 114.42 151.5 114.29 151.5H107.227C107.097 151.5 106.98 151.453 106.874 151.347C106.768 151.241 106.721 151.123 106.721 150.994C106.721 150.864 106.768 150.746 106.874 150.64C106.98 150.534 107.097 150.487 107.227 150.487H114.29Z" fill="#7A756B" style="fill:#7A756B;fill:color(display-p3 0.4784 0.4588 0.4196);fill-opacity:1;"/>
<path d="M121.354 150.487C121.484 150.487 121.601 150.534 121.707 150.64C121.813 150.746 121.86 150.864 121.86 150.994C121.86 151.123 121.813 151.241 121.707 151.347C121.601 151.453 121.484 151.5 121.354 151.5H114.29C114.161 151.5 114.043 151.453 113.937 151.347C113.831 151.241 113.784 151.123 113.784 150.994C113.784 150.864 113.831 150.746 113.937 150.64C114.043 150.534 114.161 150.487 114.29 150.487H121.354Z" fill="#7A756B" style="fill:#7A756B;fill:color(display-p3 0.4784 0.4588 0.4196);fill-opacity:1;"/>
<path d="M125.38 148.969C125.38 149.098 125.333 149.216 125.227 149.322C125.121 149.428 125.004 149.475 124.874 149.475C124.745 149.475 124.627 149.428 124.521 149.322C124.415 149.216 124.368 149.098 124.368 148.969V146.955C124.368 146.826 124.415 146.708 124.521 146.602C124.627 146.496 124.745 146.449 124.874 146.449C125.004 146.449 125.121 146.496 125.227 146.602C125.333 146.708 125.38 146.826 125.38 146.955V148.969Z" fill="#7A756B" style="fill:#7A756B;fill:color(display-p3 0.4784 0.4588 0.4196);fill-opacity:1;"/>
<path d="M104.412 90.3295L109.319 97.7785H100.923" stroke="#7A756B" style="stroke:#7A756B;stroke:color(display-p3 0.4784 0.4588 0.4196);stroke-opacity:1;" stroke-linecap="round"/>
<path d="M117.106 90.3295L112.198 97.7785H120.594" stroke="#7A756B" style="stroke:#7A756B;stroke:color(display-p3 0.4784 0.4588 0.4196);stroke-opacity:1;" stroke-linecap="round"/>
<path d="M102.66 97.7783H117.14" stroke="#7A756B" style="stroke:#7A756B;stroke:color(display-p3 0.4784 0.4588 0.4196);stroke-opacity:1;" stroke-linecap="round"/>
<path d="M117.106 109.512L112.198 102.063L120.594 102.063" stroke="#7A756B" style="stroke:#7A756B;stroke:color(display-p3 0.4784 0.4588 0.4196);stroke-opacity:1;" stroke-linecap="round"/>
<path d="M104.412 109.512L109.319 102.063L100.923 102.063" stroke="#7A756B" style="stroke:#7A756B;stroke:color(display-p3 0.4784 0.4588 0.4196);stroke-opacity:1;" stroke-linecap="round"/>
<path d="M118.858 102.063L104.378 102.063" stroke="#7A756B" style="stroke:#7A756B;stroke:color(display-p3 0.4784 0.4588 0.4196);stroke-opacity:1;" stroke-linecap="round"/>
<defs>
<clipPath id="clip0_814_2363">
<rect width="51.2875" height="150.016" fill="white" style="fill:white;fill-opacity:1;" transform="translate(0.910339 1.48389)"/>
</clipPath>
</defs>
</svg>
