<svg width="717" height="504" viewBox="0 0 717 504" fill="none" xmlns="http://www.w3.org/2000/svg">
<rect x="540.189" y="335.598" width="176" height="44" rx="22" fill="#FFC59E" style="fill:#FFC59E;fill:color(display-p3 1.0000 0.7718 0.6196);fill-opacity:1;"/>
<path d="M693.694 362.598H692.546V352.798H693.694V359.252L697.572 355.458H699.042L695.962 358.468L699.168 362.598H697.754L695.164 359.238L693.694 360.68V362.598Z" fill="#141312" style="fill:#141312;fill:color(display-p3 0.0784 0.0745 0.0706);fill-opacity:1;"/>
<path d="M690.332 356.578H689.016C687.294 356.578 686.776 357.866 686.776 359V361.548H689.94V362.598H683.864V361.548H685.628V356.508H683.864V355.458H686.748V356.69C687.07 356.144 687.742 355.458 689.142 355.458H690.332V356.578Z" fill="#141312" style="fill:#141312;fill:color(display-p3 0.0784 0.0745 0.0706);fill-opacity:1;"/>
<path d="M678.599 362.682C676.513 362.682 675.057 361.198 675.057 359.028C675.057 356.858 676.513 355.374 678.599 355.374C680.685 355.374 682.141 356.858 682.141 359.028C682.141 361.198 680.685 362.682 678.599 362.682ZM678.599 361.66C680.013 361.66 680.965 360.554 680.965 359.028C680.965 357.502 680.013 356.396 678.599 356.396C677.185 356.396 676.233 357.502 676.233 359.028C676.233 360.554 677.185 361.66 678.599 361.66Z" fill="#141312" style="fill:#141312;fill:color(display-p3 0.0784 0.0745 0.0706);fill-opacity:1;"/>
<path d="M668.965 362.598H667.565L666.235 355.458H667.369L668.377 361.268L669.721 356.718H670.743L672.045 361.268L673.095 355.458H674.159L672.815 362.598H671.415L670.211 358.384L668.965 362.598Z" fill="#141312" style="fill:#141312;fill:color(display-p3 0.0784 0.0745 0.0706);fill-opacity:1;"/>
<path d="M665.015 362.598H662.509C661.137 362.598 660.647 361.996 660.647 360.736V356.508H658.379V355.458H660.647V353.456H661.795V355.458H664.903V356.508H661.795V360.722C661.795 361.324 662.005 361.548 662.621 361.548H665.015V362.598Z" fill="#141312" style="fill:#141312;fill:color(display-p3 0.0784 0.0745 0.0706);fill-opacity:1;"/>
<path d="M656.754 359.28H651.21V359.35C651.252 360.708 652.106 361.66 653.464 361.66C654.472 361.66 655.256 361.128 655.494 360.204H656.656C656.376 361.632 655.2 362.682 653.548 362.682C651.406 362.682 650.006 361.212 650.006 359.028C650.006 356.858 651.378 355.374 653.394 355.374C655.41 355.374 656.726 356.648 656.782 358.762C656.782 358.86 656.768 359.112 656.754 359.28ZM653.408 356.382C652.358 356.382 651.392 357.138 651.28 358.3H655.55C655.438 357.068 654.598 356.382 653.408 356.382Z" fill="#141312" style="fill:#141312;fill:color(display-p3 0.0784 0.0745 0.0706);fill-opacity:1;"/>
<path d="M642.906 362.598H641.744V352.798H642.934L647.078 360.316V352.798H648.24V362.598H647.05L642.906 355.066V362.598Z" fill="#141312" style="fill:#141312;fill:color(display-p3 0.0784 0.0745 0.0706);fill-opacity:1;"/>
<path d="M628.189 362.682C626.103 362.682 624.647 361.198 624.647 359.028C624.647 356.858 626.103 355.374 628.189 355.374C630.275 355.374 631.731 356.858 631.731 359.028C631.731 361.198 630.275 362.682 628.189 362.682ZM628.189 361.66C629.603 361.66 630.555 360.554 630.555 359.028C630.555 357.502 629.603 356.396 628.189 356.396C626.775 356.396 625.823 357.502 625.823 359.028C625.823 360.554 626.775 361.66 628.189 361.66Z" fill="#141312" style="fill:#141312;fill:color(display-p3 0.0784 0.0745 0.0706);fill-opacity:1;"/>
<path d="M623.007 362.598H620.501C619.129 362.598 618.639 361.996 618.639 360.736V356.508H616.371V355.458H618.639V353.456H619.787V355.458H622.895V356.508H619.787V360.722C619.787 361.324 619.997 361.548 620.613 361.548H623.007V362.598Z" fill="#141312" style="fill:#141312;fill:color(display-p3 0.0784 0.0745 0.0706);fill-opacity:1;"/>
<path d="M601.36 365.398H599.708V364.348H600.968C601.626 364.348 601.738 364.18 602.004 363.508L602.354 362.64L599.47 355.458H600.688L603.026 361.156L605.294 355.458H606.512L603.082 363.802C602.62 364.936 602.368 365.398 601.36 365.398Z" fill="#141312" style="fill:#141312;fill:color(display-p3 0.0784 0.0745 0.0706);fill-opacity:1;"/>
<path d="M594.582 362.682C592.496 362.682 591.04 361.198 591.04 359.028C591.04 356.858 592.496 355.374 594.582 355.374C596.668 355.374 598.124 356.858 598.124 359.028C598.124 361.198 596.668 362.682 594.582 362.682ZM594.582 361.66C595.996 361.66 596.948 360.554 596.948 359.028C596.948 357.502 595.996 356.396 594.582 356.396C593.168 356.396 592.216 357.502 592.216 359.028C592.216 360.554 593.168 361.66 594.582 361.66Z" fill="#141312" style="fill:#141312;fill:color(display-p3 0.0784 0.0745 0.0706);fill-opacity:1;"/>
<path d="M586.852 361.548H589.372V362.598H583.184V361.548H585.704V353.848H583.184V352.798H586.852V361.548Z" fill="#141312" style="fill:#141312;fill:color(display-p3 0.0784 0.0745 0.0706);fill-opacity:1;"/>
<path d="M577.961 355.374C579.935 355.374 581.391 356.704 581.391 359.028C581.391 361.212 579.935 362.682 577.961 362.682C576.757 362.682 575.945 362.192 575.511 361.506V365.398H574.363V355.458H575.357L575.511 356.606C575.987 355.948 576.757 355.374 577.961 355.374ZM577.849 361.66C579.263 361.66 580.215 360.582 580.215 359.028C580.215 357.474 579.263 356.396 577.849 356.396C576.449 356.396 575.497 357.474 575.497 359C575.497 360.568 576.449 361.66 577.849 361.66Z" fill="#141312" style="fill:#141312;fill:color(display-p3 0.0784 0.0745 0.0706);fill-opacity:1;"/>
<path d="M572.737 359.28H567.193V359.35C567.235 360.708 568.089 361.66 569.447 361.66C570.455 361.66 571.239 361.128 571.477 360.204H572.639C572.359 361.632 571.183 362.682 569.531 362.682C567.389 362.682 565.989 361.212 565.989 359.028C565.989 356.858 567.361 355.374 569.377 355.374C571.393 355.374 572.709 356.648 572.765 358.762C572.765 358.86 572.751 359.112 572.737 359.28ZM569.391 356.382C568.341 356.382 567.375 357.138 567.263 358.3H571.533C571.421 357.068 570.581 356.382 569.391 356.382Z" fill="#141312" style="fill:#141312;fill:color(display-p3 0.0784 0.0745 0.0706);fill-opacity:1;"/>
<path d="M560.416 362.598H557.728V352.798H560.416C563.202 352.798 564.616 354.758 564.616 357.698C564.616 360.624 563.202 362.598 560.416 362.598ZM558.946 353.918V361.478H560.416C562.516 361.478 563.37 359.98 563.37 357.698C563.37 355.402 562.516 353.918 560.416 353.918H558.946Z" fill="#141312" style="fill:#141312;fill:color(display-p3 0.0784 0.0745 0.0706);fill-opacity:1;"/>
<rect x="39.9419" y="1.53543" width="166.597" height="89.4068" rx="9.22443" fill="#0D0C0C" style="fill:#0D0C0C;fill:color(display-p3 0.0510 0.0471 0.0471);fill-opacity:1;"/>
<rect x="39.9419" y="1.53543" width="166.597" height="89.4068" rx="9.22443" stroke="#E2F480" style="stroke:#E2F480;stroke:color(display-p3 0.8863 0.9569 0.5020);stroke-opacity:1;" stroke-width="2"/>
<g clip-path="url(#clip0_68_302)">
<mask id="path-18-outside-1_68_302" maskUnits="userSpaceOnUse" x="115.842" y="16.2891" width="14" height="17" fill="black">
<rect fill="white" x="115.842" y="16.2891" width="14" height="17"/>
<path d="M125.032 17.294V18.5137C124.713 18.4962 124.393 18.5463 124.095 18.6612C123.797 18.776 123.527 18.9536 123.302 19.1807C122.874 19.7878 122.669 20.5251 122.723 21.2666V28.126C122.669 28.8677 122.874 29.6058 123.302 30.2129C123.525 30.4561 123.798 30.647 124.102 30.7725C124.407 30.8981 124.736 30.9556 125.065 30.9395V32.1319C124.575 32.1603 124.084 32.0914 123.622 31.9278C123.159 31.7641 122.734 31.509 122.371 31.1788C122.018 30.7807 121.75 30.3148 121.584 29.8096C121.417 29.3042 121.354 28.7697 121.4 28.2393V21.1807C121.354 20.6503 121.417 20.1157 121.584 19.6104C121.75 19.1051 122.018 18.6387 122.371 18.2403C123.097 17.5841 124.055 17.2438 125.032 17.294ZM129.58 17.2959V18.5157C129.26 18.4976 128.939 18.5474 128.64 18.6622C128.341 18.777 128.069 18.955 127.843 19.1827C127.421 19.8013 127.227 20.5486 127.297 21.295V28.128C127.243 28.8695 127.448 29.6068 127.876 30.2139C128.099 30.457 128.373 30.6489 128.677 30.7745C128.982 30.8999 129.31 30.9561 129.639 30.9405V32.1338C128.661 32.1808 127.704 31.8382 126.978 31.1807C126.62 30.7849 126.345 30.3197 126.171 29.8145C125.998 29.3094 125.928 28.7741 125.967 28.2413V21.1817C125.921 20.653 125.981 20.1202 126.144 19.6153C126.307 19.1102 126.571 18.6431 126.918 18.2422C127.646 17.5866 128.603 17.2464 129.58 17.2959ZM120.458 17.295V18.5147C120.14 18.4973 119.822 18.5473 119.525 18.6622C119.228 18.7771 118.959 18.9537 118.735 19.1807C118.304 19.787 118.097 20.5252 118.15 21.2676V28.127C118.098 28.8693 118.304 29.6068 118.735 30.2129C118.957 30.457 119.23 30.6488 119.535 30.7745C119.839 30.9001 120.168 30.9565 120.498 30.9395V32.1329C120.013 32.1575 119.529 32.0855 119.073 31.9219C118.616 31.7584 118.196 31.5064 117.837 31.1797C117.484 30.7821 117.215 30.316 117.046 29.8106C116.878 29.3053 116.814 28.771 116.859 28.2403V21.1807C116.809 20.6528 116.868 20.1204 117.029 19.6153C117.19 19.1101 117.451 18.6425 117.797 18.2413C118.157 17.9157 118.577 17.6644 119.034 17.502C119.49 17.3397 119.974 17.2694 120.458 17.295Z"/>
</mask>
<path d="M125.032 17.294V18.5137C124.713 18.4962 124.393 18.5463 124.095 18.6612C123.797 18.776 123.527 18.9536 123.302 19.1807C122.874 19.7878 122.669 20.5251 122.723 21.2666V28.126C122.669 28.8677 122.874 29.6058 123.302 30.2129C123.525 30.4561 123.798 30.647 124.102 30.7725C124.407 30.8981 124.736 30.9556 125.065 30.9395V32.1319C124.575 32.1603 124.084 32.0914 123.622 31.9278C123.159 31.7641 122.734 31.509 122.371 31.1788C122.018 30.7807 121.75 30.3148 121.584 29.8096C121.417 29.3042 121.354 28.7697 121.4 28.2393V21.1807C121.354 20.6503 121.417 20.1157 121.584 19.6104C121.75 19.1051 122.018 18.6387 122.371 18.2403C123.097 17.5841 124.055 17.2438 125.032 17.294ZM129.58 17.2959V18.5157C129.26 18.4976 128.939 18.5474 128.64 18.6622C128.341 18.777 128.069 18.955 127.843 19.1827C127.421 19.8013 127.227 20.5486 127.297 21.295V28.128C127.243 28.8695 127.448 29.6068 127.876 30.2139C128.099 30.457 128.373 30.6489 128.677 30.7745C128.982 30.8999 129.31 30.9561 129.639 30.9405V32.1338C128.661 32.1808 127.704 31.8382 126.978 31.1807C126.62 30.7849 126.345 30.3197 126.171 29.8145C125.998 29.3094 125.928 28.7741 125.967 28.2413V21.1817C125.921 20.653 125.981 20.1202 126.144 19.6153C126.307 19.1102 126.571 18.6431 126.918 18.2422C127.646 17.5866 128.603 17.2464 129.58 17.2959ZM120.458 17.295V18.5147C120.14 18.4973 119.822 18.5473 119.525 18.6622C119.228 18.7771 118.959 18.9537 118.735 19.1807C118.304 19.787 118.097 20.5252 118.15 21.2676V28.127C118.098 28.8693 118.304 29.6068 118.735 30.2129C118.957 30.457 119.23 30.6488 119.535 30.7745C119.839 30.9001 120.168 30.9565 120.498 30.9395V32.1329C120.013 32.1575 119.529 32.0855 119.073 31.9219C118.616 31.7584 118.196 31.5064 117.837 31.1797C117.484 30.7821 117.215 30.316 117.046 29.8106C116.878 29.3053 116.814 28.771 116.859 28.2403V21.1807C116.809 20.6528 116.868 20.1204 117.029 19.6153C117.19 19.1101 117.451 18.6425 117.797 18.2413C118.157 17.9157 118.577 17.6644 119.034 17.502C119.49 17.3397 119.974 17.2694 120.458 17.295Z" fill="#F2F0ED" style="fill:#F2F0ED;fill:color(display-p3 0.9490 0.9412 0.9294);fill-opacity:1;"/>
<path d="M125.032 17.294H125.188V17.1455L125.04 17.1379L125.032 17.294ZM125.032 18.5137L125.023 18.6698L125.188 18.6789V18.5137H125.032ZM124.095 18.6612L124.039 18.5153L124.039 18.5153L124.095 18.6612ZM123.302 19.1807L123.191 19.0707L123.182 19.08L123.175 19.0906L123.302 19.1807ZM122.723 21.2666H122.88L122.879 21.2552L122.723 21.2666ZM122.723 28.126L122.879 28.1375V28.126H122.723ZM123.302 30.2129L123.175 30.3031L123.18 30.3111L123.187 30.3184L123.302 30.2129ZM124.102 30.7725L124.042 30.917L124.043 30.917L124.102 30.7725ZM125.065 30.9395H125.221V30.7753L125.057 30.7834L125.065 30.9395ZM125.065 32.1319L125.074 32.2879L125.221 32.2794V32.1319H125.065ZM123.622 31.9278L123.569 32.0751L123.569 32.0751L123.622 31.9278ZM122.371 31.1788L122.254 31.2824L122.259 31.2887L122.265 31.2944L122.371 31.1788ZM121.584 29.8096L121.435 29.8586L121.435 29.8587L121.584 29.8096ZM121.4 28.2393L121.556 28.2528V28.2393H121.4ZM121.4 21.1807H121.557L121.556 21.1674L121.4 21.1807ZM121.584 19.6104L121.435 19.5614L121.435 19.5614L121.584 19.6104ZM122.371 18.2403L122.266 18.1243L122.259 18.1302L122.254 18.1367L122.371 18.2403ZM129.58 17.2959H129.736V17.1474L129.588 17.1398L129.58 17.2959ZM129.58 18.5157L129.571 18.6717L129.736 18.6811V18.5157H129.58ZM128.64 18.6622L128.584 18.5162L128.584 18.5162L128.64 18.6622ZM127.843 19.1827L127.732 19.0726L127.722 19.0827L127.714 19.0945L127.843 19.1827ZM127.297 21.295H127.454V21.2876L127.453 21.2803L127.297 21.295ZM127.297 28.128L127.454 28.1394V28.128H127.297ZM127.876 30.2139L127.749 30.304L127.755 30.3122L127.761 30.3195L127.876 30.2139ZM128.677 30.7745L128.618 30.919L128.618 30.919L128.677 30.7745ZM129.639 30.9405H129.795V30.7765L129.632 30.7843L129.639 30.9405ZM129.639 32.1338L129.647 32.29L129.795 32.2828V32.1338H129.639ZM126.978 31.1807L126.862 31.2856L126.867 31.2914L126.873 31.2966L126.978 31.1807ZM126.171 29.8145L126.024 29.8653L126.024 29.8653L126.171 29.8145ZM125.967 28.2413L126.124 28.2527V28.2413H125.967ZM125.967 21.1817H126.124L126.123 21.168L125.967 21.1817ZM126.144 19.6153L125.995 19.5672L125.995 19.5672L126.144 19.6153ZM126.918 18.2422L126.814 18.1261L126.807 18.1326L126.8 18.1399L126.918 18.2422ZM120.458 17.295H120.614V17.1467L120.466 17.1389L120.458 17.295ZM120.458 18.5147L120.449 18.6708L120.614 18.6798V18.5147H120.458ZM119.525 18.6622L119.469 18.5164L119.469 18.5164L119.525 18.6622ZM118.735 19.1807L118.624 19.071L118.615 19.0799L118.607 19.0902L118.735 19.1807ZM118.15 21.2676H118.307L118.306 21.2566L118.15 21.2676ZM118.15 28.127L118.306 28.138V28.127H118.15ZM118.735 30.2129L118.607 30.3035L118.613 30.3111L118.619 30.3181L118.735 30.2129ZM119.535 30.7745L119.475 30.919L119.475 30.919L119.535 30.7745ZM120.498 30.9395H120.654V30.7749L120.49 30.7834L120.498 30.9395ZM120.498 32.1329L120.506 32.289L120.654 32.2814V32.1329H120.498ZM119.073 31.9219L119.02 32.0691L119.02 32.0691L119.073 31.9219ZM117.837 31.1797L117.721 31.2836L117.726 31.2898L117.732 31.2953L117.837 31.1797ZM117.046 29.8106L116.898 29.8599L116.898 29.8599L117.046 29.8106ZM116.859 28.2403L117.015 28.2535V28.2403H116.859ZM116.859 21.1807H117.015V21.1734L117.015 21.1661L116.859 21.1807ZM117.029 19.6153L116.88 19.5678L116.88 19.5678L117.029 19.6153ZM117.797 18.2413L117.692 18.1254L117.685 18.1319L117.679 18.1392L117.797 18.2413ZM119.034 17.502L118.981 17.3547L118.981 17.3547L119.034 17.502ZM125.032 17.294H124.875V18.5137H125.032H125.188V17.294H125.032ZM125.032 18.5137L125.04 18.3576C124.699 18.3389 124.358 18.3925 124.039 18.5153L124.095 18.6612L124.151 18.807C124.429 18.7001 124.726 18.6534 125.023 18.6698L125.032 18.5137ZM124.095 18.6612L124.039 18.5153C123.72 18.6382 123.431 18.8281 123.191 19.0707L123.302 19.1807L123.413 19.2907C123.623 19.0791 123.874 18.9138 124.151 18.807L124.095 18.6612ZM123.302 19.1807L123.175 19.0906C122.725 19.7272 122.51 20.5004 122.567 21.2781L122.723 21.2666L122.879 21.2552C122.827 20.5498 123.022 19.8484 123.43 19.2708L123.302 19.1807ZM122.723 21.2666H122.567V28.126H122.723H122.879V21.2666H122.723ZM122.723 28.126L122.567 28.1146C122.51 28.8924 122.725 29.6663 123.175 30.3031L123.302 30.2129L123.43 30.1228C123.022 29.5452 122.827 28.843 122.879 28.1375L122.723 28.126ZM123.302 30.2129L123.187 30.3184C123.425 30.5786 123.717 30.7828 124.042 30.917L124.102 30.7725L124.162 30.628C123.878 30.5112 123.624 30.3336 123.418 30.1075L123.302 30.2129ZM124.102 30.7725L124.043 30.917C124.368 31.0513 124.72 31.1129 125.073 31.0956L125.065 30.9395L125.057 30.7834C124.751 30.7984 124.445 30.7449 124.162 30.628L124.102 30.7725ZM125.065 30.9395H124.909V32.1319H125.065H125.221V30.9395H125.065ZM125.065 32.1319L125.056 31.9758C124.587 32.0031 124.117 31.9371 123.674 31.7804L123.622 31.9278L123.569 32.0751C124.052 32.2458 124.564 32.3176 125.074 32.2879L125.065 32.1319ZM123.622 31.9278L123.674 31.7804C123.231 31.6237 122.824 31.3795 122.476 31.0631L122.371 31.1788L122.265 31.2944C122.644 31.6385 123.087 31.9045 123.569 32.0751L123.622 31.9278ZM122.371 31.1788L122.488 31.0751C122.149 30.693 121.892 30.2457 121.732 29.7606L121.584 29.8096L121.435 29.8587C121.609 30.384 121.887 30.8684 122.254 31.2824L122.371 31.1788ZM121.584 29.8096L121.732 29.7606C121.572 29.2753 121.512 28.7621 121.556 28.2528L121.4 28.2393L121.244 28.2258C121.197 28.7773 121.261 29.3331 121.435 29.8586L121.584 29.8096ZM121.4 28.2393H121.556V21.1807H121.4H121.244V28.2393H121.4ZM121.4 21.1807L121.556 21.1674C121.512 20.6579 121.572 20.1446 121.732 19.6594L121.584 19.6104L121.435 19.5614C121.261 20.0869 121.197 20.6427 121.244 21.1941L121.4 21.1807ZM121.584 19.6104L121.732 19.6594C121.892 19.1742 122.149 18.7263 122.488 18.3438L122.371 18.2403L122.254 18.1367C121.887 18.551 121.609 19.036 121.435 19.5614L121.584 19.6104ZM122.371 18.2403L122.475 18.3563C123.171 17.7279 124.088 17.402 125.024 17.4501L125.032 17.294L125.04 17.1379C124.021 17.0855 123.023 17.4403 122.266 18.1243L122.371 18.2403ZM129.58 17.2959H129.423V18.5157H129.58H129.736V17.2959H129.58ZM129.58 18.5157L129.588 18.3596C129.247 18.3403 128.904 18.3935 128.584 18.5162L128.64 18.6622L128.696 18.8081C128.975 18.7013 129.273 18.6549 129.571 18.6717L129.58 18.5157ZM128.64 18.6622L128.584 18.5162C128.264 18.6391 127.974 18.8293 127.732 19.0726L127.843 19.1827L127.954 19.2928C128.165 19.0806 128.418 18.915 128.696 18.8081L128.64 18.6622ZM127.843 19.1827L127.714 19.0945C127.271 19.7432 127.068 20.5268 127.142 21.3096L127.297 21.295L127.453 21.2803C127.386 20.5703 127.57 19.8594 127.972 19.2708L127.843 19.1827ZM127.297 21.295H127.141V28.128H127.297H127.454V21.295H127.297ZM127.297 28.128L127.141 28.1165C127.085 28.8943 127.3 29.6674 127.749 30.304L127.876 30.2139L128.004 30.1238C127.597 29.5462 127.402 28.8448 127.453 28.1394L127.297 28.128ZM127.876 30.2139L127.761 30.3195C127.999 30.5793 128.292 30.7846 128.618 30.919L128.677 30.7745L128.737 30.6299C128.454 30.5132 128.199 30.3347 127.992 30.1083L127.876 30.2139ZM128.677 30.7745L128.618 30.919C128.944 31.0532 129.295 31.1133 129.647 31.0966L129.639 30.9405L129.632 30.7843C129.326 30.7989 129.02 30.7466 128.737 30.6299L128.677 30.7745ZM129.639 30.9405H129.483V32.1338H129.639H129.795V30.9405H129.639ZM129.639 32.1338L129.632 31.9777C128.695 32.0227 127.779 31.6946 127.083 31.0648L126.978 31.1807L126.873 31.2966C127.63 31.9818 128.628 32.3389 129.647 32.29L129.639 32.1338ZM126.978 31.1807L127.094 31.0758C126.75 30.6957 126.486 30.2489 126.319 29.7637L126.171 29.8145L126.024 29.8653C126.204 30.3905 126.49 30.8741 126.862 31.2856L126.978 31.1807ZM126.171 29.8145L126.319 29.7637C126.152 29.2786 126.086 28.7645 126.123 28.2526L125.967 28.2413L125.811 28.2299C125.771 28.7838 125.843 29.3402 126.024 29.8653L126.171 29.8145ZM125.967 28.2413H126.124V21.1817H125.967H125.811V28.2413H125.967ZM125.967 21.1817L126.123 21.168C126.078 20.6601 126.136 20.1483 126.293 19.6634L126.144 19.6153L125.995 19.5672C125.826 20.0921 125.763 20.6459 125.812 21.1954L125.967 21.1817ZM126.144 19.6153L126.293 19.6634C126.45 19.1783 126.703 18.7296 127.037 18.3446L126.918 18.2422L126.8 18.1399C126.439 18.5566 126.165 19.0421 125.995 19.5672L126.144 19.6153ZM126.918 18.2422L127.023 18.3583C127.719 17.7304 128.636 17.4046 129.572 17.452L129.58 17.2959L129.588 17.1398C128.569 17.0882 127.572 17.4428 126.814 18.1261L126.918 18.2422ZM120.458 17.295H120.301V18.5147H120.458H120.614V17.295H120.458ZM120.458 18.5147L120.466 18.3586C120.126 18.34 119.786 18.3935 119.469 18.5164L119.525 18.6622L119.581 18.8079C119.857 18.7011 120.153 18.6546 120.449 18.6708L120.458 18.5147ZM119.525 18.6622L119.469 18.5164C119.151 18.6393 118.863 18.8282 118.624 19.071L118.735 19.1807L118.846 19.2904C119.054 19.0793 119.305 18.9148 119.581 18.8079L119.525 18.6622ZM118.735 19.1807L118.607 19.0902C118.156 19.7261 117.939 20.5001 117.994 21.2786L118.15 21.2676L118.306 21.2566C118.256 20.5502 118.452 19.8479 118.862 19.2713L118.735 19.1807ZM118.15 21.2676H117.994V28.127H118.15H118.306V21.2676H118.15ZM118.15 28.127L117.994 28.116C117.939 28.8943 118.156 29.6677 118.607 30.3035L118.735 30.2129L118.862 30.1224C118.453 29.5458 118.256 28.8442 118.306 28.138L118.15 28.127ZM118.735 30.2129L118.619 30.3181C118.857 30.5793 119.149 30.7845 119.475 30.919L119.535 30.7745L119.594 30.63C119.311 30.5131 119.057 30.3348 118.851 30.1078L118.735 30.2129ZM119.535 30.7745L119.475 30.919C119.801 31.0534 120.153 31.1138 120.506 31.0956L120.498 30.9395L120.49 30.7834C120.184 30.7992 119.878 30.7467 119.594 30.6299L119.535 30.7745ZM120.498 30.9395H120.341V32.1329H120.498H120.654V30.9395H120.498ZM120.498 32.1329L120.49 31.9768C120.026 32.0004 119.563 31.9314 119.125 31.7748L119.073 31.9219L119.02 32.0691C119.496 32.2395 120.001 32.3147 120.506 32.289L120.498 32.1329ZM119.073 31.9219L119.125 31.7748C118.688 31.6181 118.286 31.3769 117.943 31.0641L117.837 31.1797L117.732 31.2953C118.106 31.6359 118.544 31.8986 119.02 32.0691L119.073 31.9219ZM117.837 31.1797L117.954 31.0758C117.615 30.6941 117.356 30.2466 117.195 29.7613L117.046 29.8106L116.898 29.8599C117.073 30.3854 117.353 30.8701 117.721 31.2836L117.837 31.1797ZM117.046 29.8106L117.195 29.7613C117.033 29.2759 116.972 28.7629 117.015 28.2534L116.859 28.2403L116.703 28.2271C116.656 28.7791 116.723 29.3346 116.898 29.8599L117.046 29.8106ZM116.859 28.2403H117.015V21.1807H116.859H116.703V28.2403H116.859ZM116.859 21.1807L117.015 21.1661C116.967 20.6593 117.023 20.148 117.178 19.6628L117.029 19.6153L116.88 19.5678C116.712 20.0927 116.652 20.6463 116.703 21.1953L116.859 21.1807ZM117.029 19.6153L117.178 19.6628C117.333 19.1776 117.584 18.7286 117.916 18.3433L117.797 18.2413L117.679 18.1392C117.319 18.5565 117.047 19.0426 116.88 19.5678L117.029 19.6153ZM117.797 18.2413L117.902 18.3571C118.246 18.0454 118.649 17.8048 119.086 17.6493L119.034 17.502L118.981 17.3547C118.505 17.5241 118.067 17.786 117.692 18.1254L117.797 18.2413ZM119.034 17.502L119.086 17.6493C119.523 17.4939 119.986 17.4266 120.449 17.4511L120.458 17.295L120.466 17.1389C119.962 17.1122 119.457 17.1855 118.981 17.3547L119.034 17.502Z" fill="#F2F0ED" style="fill:#F2F0ED;fill:color(display-p3 0.9490 0.9412 0.9294);fill-opacity:1;" mask="url(#path-18-outside-1_68_302)"/>
</g>
<path d="M182.191 72.2263C180.343 72.2263 179.069 71.3583 179.041 69.7903H180.217C180.259 70.6303 181.001 71.2463 182.191 71.2463C183.199 71.2463 183.913 70.8123 183.913 70.1543C183.913 69.2583 183.129 69.1883 182.065 69.0623C180.469 68.8663 179.195 68.5443 179.195 67.0603C179.195 65.7583 180.385 64.9183 181.995 64.9183C183.619 64.9183 184.795 65.6883 184.907 67.1723H183.731C183.647 66.4443 182.975 65.8983 181.995 65.8983C181.001 65.8983 180.329 66.3183 180.329 66.9763C180.329 67.7603 181.085 67.8583 182.121 67.9843C183.745 68.1803 185.047 68.4883 185.047 70.0703C185.047 71.4003 183.773 72.2263 182.191 72.2263Z" fill="#F2F0ED" style="fill:#F2F0ED;fill:color(display-p3 0.9490 0.9412 0.9294);fill-opacity:1;"/>
<path d="M176.87 72.1423H174.364C172.992 72.1423 172.502 71.5403 172.502 70.2803V66.0523H170.234V65.0023H172.502V63.0003H173.65V65.0023H176.758V66.0523H173.65V70.2663C173.65 70.8683 173.86 71.0923 174.476 71.0923H176.87V72.1423Z" fill="#F2F0ED" style="fill:#F2F0ED;fill:color(display-p3 0.9490 0.9412 0.9294);fill-opacity:1;"/>
<path d="M165.43 72.2263C163.344 72.2263 161.972 70.8123 161.972 68.5863C161.972 66.4023 163.386 64.9183 165.458 64.9183C167.208 64.9183 168.314 65.8983 168.608 67.4663H167.404C167.194 66.5143 166.494 65.9403 165.444 65.9403C164.072 65.9403 163.148 67.0323 163.148 68.5863C163.148 70.1403 164.072 71.2043 165.444 71.2043C166.466 71.2043 167.166 70.6163 167.39 69.7063H168.608C168.328 71.2463 167.166 72.2263 165.43 72.2263Z" fill="#F2F0ED" style="fill:#F2F0ED;fill:color(display-p3 0.9490 0.9412 0.9294);fill-opacity:1;"/>
<path d="M160.024 71.0923H160.388V72.1423H159.758C158.806 72.1423 158.484 71.7363 158.47 71.0363C158.022 71.6803 157.308 72.2263 156.076 72.2263C154.508 72.2263 153.444 71.4423 153.444 70.1403C153.444 68.7123 154.438 67.9143 156.314 67.9143H158.414V67.4243C158.414 66.5003 157.756 65.9403 156.636 65.9403C155.628 65.9403 154.956 66.4163 154.816 67.1443H153.668C153.836 65.7443 154.97 64.9183 156.692 64.9183C158.512 64.9183 159.562 65.8283 159.562 67.4943V70.6163C159.562 70.9943 159.702 71.0923 160.024 71.0923ZM158.414 69.2303V68.8803H156.202C155.18 68.8803 154.606 69.2583 154.606 70.0703C154.606 70.7703 155.208 71.2463 156.16 71.2463C157.588 71.2463 158.414 70.4203 158.414 69.2303Z" fill="#F2F0ED" style="fill:#F2F0ED;fill:color(display-p3 0.9490 0.9412 0.9294);fill-opacity:1;"/>
<path d="M151.777 66.1223H150.461C148.739 66.1223 148.221 67.4103 148.221 68.5443V71.0923H151.385V72.1423H145.309V71.0923H147.073V66.0523H145.309V65.0023H148.193V66.2343C148.515 65.6883 149.187 65.0023 150.587 65.0023H151.777V66.1223Z" fill="#F2F0ED" style="fill:#F2F0ED;fill:color(display-p3 0.9490 0.9412 0.9294);fill-opacity:1;"/>
<path d="M143.263 72.1423H140.757C139.385 72.1423 138.895 71.5403 138.895 70.2803V66.0523H136.627V65.0023H138.895V63.0003H140.043V65.0023H143.151V66.0523H140.043V70.2663C140.043 70.8683 140.253 71.0923 140.869 71.0923H143.263V72.1423Z" fill="#F2F0ED" style="fill:#F2F0ED;fill:color(display-p3 0.9490 0.9412 0.9294);fill-opacity:1;"/>
<path d="M131.977 64.9183C133.489 64.9183 134.749 65.7723 134.749 68.0823V72.1423H133.601V68.1523C133.601 66.7243 132.929 65.9683 131.781 65.9683C130.535 65.9683 129.737 66.9343 129.737 68.3483V72.1423H128.589V65.0023H129.583L129.737 65.9683C130.157 65.4223 130.857 64.9183 131.977 64.9183Z" fill="#F2F0ED" style="fill:#F2F0ED;fill:color(display-p3 0.9490 0.9412 0.9294);fill-opacity:1;"/>
<path d="M123.24 72.2263C121.154 72.2263 119.698 70.7423 119.698 68.5723C119.698 66.4023 121.154 64.9183 123.24 64.9183C125.326 64.9183 126.782 66.4023 126.782 68.5723C126.782 70.7423 125.326 72.2263 123.24 72.2263ZM123.24 71.2043C124.654 71.2043 125.606 70.0983 125.606 68.5723C125.606 67.0463 124.654 65.9403 123.24 65.9403C121.826 65.9403 120.874 67.0463 120.874 68.5723C120.874 70.0983 121.826 71.2043 123.24 71.2043Z" fill="#F2F0ED" style="fill:#F2F0ED;fill:color(display-p3 0.9490 0.9412 0.9294);fill-opacity:1;"/>
<path d="M115.076 72.2263C112.598 72.2263 111.198 70.4343 111.198 67.2423C111.198 64.0363 112.598 62.2583 115.118 62.2583C116.966 62.2583 118.212 63.4343 118.59 65.5483H117.302C116.98 64.0783 116.266 63.3783 115.118 63.3783C113.382 63.3783 112.444 64.7363 112.444 67.2423C112.444 69.7903 113.34 71.1063 115.076 71.1063C116.252 71.1063 116.952 70.4203 117.288 68.9363H118.576C118.198 71.0643 116.966 72.2263 115.076 72.2263Z" fill="#F2F0ED" style="fill:#F2F0ED;fill:color(display-p3 0.9490 0.9412 0.9294);fill-opacity:1;"/>
<path d="M101.255 72.1423H98.7488C97.3768 72.1423 96.8868 71.5403 96.8868 70.2803V66.0523H94.6188V65.0023H96.8868V63.0003H98.0348V65.0023H101.143V66.0523H98.0348V70.2663C98.0348 70.8683 98.2448 71.0923 98.8608 71.0923H101.255V72.1423Z" fill="#F2F0ED" style="fill:#F2F0ED;fill:color(display-p3 0.9490 0.9412 0.9294);fill-opacity:1;"/>
<path d="M92.9652 66.1223H91.6492C89.9272 66.1223 89.4092 67.4103 89.4092 68.5443V71.0923H92.5732V72.1423H86.4972V71.0923H88.2612V66.0523H86.4972V65.0023H89.3812V66.2343C89.7032 65.6883 90.3752 65.0023 91.7752 65.0023H92.9652V66.1223Z" fill="#F2F0ED" style="fill:#F2F0ED;fill:color(display-p3 0.9490 0.9412 0.9294);fill-opacity:1;"/>
<path d="M84.4096 71.0923H84.7736V72.1423H84.1436C83.1916 72.1423 82.8696 71.7363 82.8556 71.0363C82.4076 71.6803 81.6936 72.2263 80.4616 72.2263C78.8936 72.2263 77.8296 71.4423 77.8296 70.1403C77.8296 68.7123 78.8236 67.9143 80.6996 67.9143H82.7996V67.4243C82.7996 66.5003 82.1416 65.9403 81.0216 65.9403C80.0136 65.9403 79.3416 66.4163 79.2016 67.1443H78.0536C78.2216 65.7443 79.3556 64.9183 81.0776 64.9183C82.8976 64.9183 83.9476 65.8283 83.9476 67.4943V70.6163C83.9476 70.9943 84.0876 71.0923 84.4096 71.0923ZM82.7996 69.2303V68.8803H80.5876C79.5656 68.8803 78.9916 69.2583 78.9916 70.0703C78.9916 70.7703 79.5936 71.2463 80.5456 71.2463C81.9736 71.2463 82.7996 70.4203 82.7996 69.2303Z" fill="#F2F0ED" style="fill:#F2F0ED;fill:color(display-p3 0.9490 0.9412 0.9294);fill-opacity:1;"/>
<path d="M74.4119 64.9183C75.5739 64.9183 76.1899 65.7443 76.1899 67.1863V72.1423H75.0979V67.2143C75.0979 66.4023 74.8319 66.0103 74.2579 66.0103C73.6839 66.0103 73.3899 66.4303 73.3899 67.2423V72.1423H72.2979V67.2143C72.2979 66.3463 72.0459 66.0103 71.4579 66.0103C70.8839 66.0103 70.5899 66.4443 70.5899 67.3403V72.1423H69.4979V65.0023H70.4499L70.5199 65.5763C70.7999 65.1423 71.2199 64.9183 71.7519 64.9183C72.3399 64.9183 72.7739 65.1843 73.0259 65.6463C73.3339 65.1703 73.7959 64.9183 74.4119 64.9183Z" fill="#F2F0ED" style="fill:#F2F0ED;fill:color(display-p3 0.9490 0.9412 0.9294);fill-opacity:1;"/>
<path d="M64.6103 72.2263C62.3983 72.2263 60.9563 70.9523 60.8863 68.9363H62.1463C62.2443 70.2663 63.2243 71.1203 64.6243 71.1203C65.9123 71.1203 66.7383 70.4763 66.7383 69.4543C66.7383 68.5023 66.1223 68.0683 64.1903 67.7323C62.0763 67.3683 61.1243 66.5283 61.1243 65.0443C61.1243 63.3783 62.4263 62.2583 64.3303 62.2583C66.3603 62.2583 67.7183 63.4203 67.8303 65.2403H66.5703C66.4443 64.0923 65.5623 63.3643 64.3303 63.3643C63.0843 63.3643 62.3423 63.9663 62.3423 64.9743C62.3423 65.8983 62.9303 66.3043 64.8623 66.6403C66.9763 66.9903 67.9563 67.8583 67.9563 69.3423C67.9563 71.0363 66.5843 72.2263 64.6103 72.2263Z" fill="#F2F0ED" style="fill:#F2F0ED;fill:color(display-p3 0.9490 0.9412 0.9294);fill-opacity:1;"/>
<path d="M172.026 54.9423H170.374V53.8923H171.634C172.292 53.8923 172.404 53.7243 172.67 53.0523L173.02 52.1843L170.136 45.0023H171.354L173.692 50.7003L175.96 45.0023H177.178L173.748 53.3463C173.286 54.4803 173.034 54.9423 172.026 54.9423Z" fill="#F2F0ED" style="fill:#F2F0ED;fill:color(display-p3 0.9490 0.9412 0.9294);fill-opacity:1;"/>
<path d="M168.468 52.1423H165.962C164.59 52.1423 164.1 51.5403 164.1 50.2803V46.0523H161.832V45.0023H164.1V43.0003H165.248V45.0023H168.356V46.0523H165.248V50.2663C165.248 50.8683 165.458 51.0923 166.074 51.0923H168.468V52.1423Z" fill="#F2F0ED" style="fill:#F2F0ED;fill:color(display-p3 0.9490 0.9412 0.9294);fill-opacity:1;"/>
<path d="M157.098 43.7423C156.58 43.7423 156.174 43.3503 156.174 42.8183C156.174 42.3003 156.58 41.9083 157.098 41.9083C157.616 41.9083 158.022 42.3003 158.022 42.8183C158.022 43.3503 157.616 43.7423 157.098 43.7423ZM157.658 51.0923H160.178V52.1423H153.99V51.0923H156.51V46.0523H153.99V45.0023H157.658V51.0923Z" fill="#F2F0ED" style="fill:#F2F0ED;fill:color(display-p3 0.9490 0.9412 0.9294);fill-opacity:1;"/>
<path d="M151.777 46.1223H150.461C148.739 46.1223 148.221 47.4103 148.221 48.5443V51.0923H151.385V52.1423H145.309V51.0923H147.073V46.0523H145.309V45.0023H148.193V46.2343C148.515 45.6883 149.187 45.0023 150.587 45.0023H151.777V46.1223Z" fill="#F2F0ED" style="fill:#F2F0ED;fill:color(display-p3 0.9490 0.9412 0.9294);fill-opacity:1;"/>
<path d="M143.221 51.0923H143.585V52.1423H142.955C142.003 52.1423 141.681 51.7363 141.667 51.0363C141.219 51.6803 140.505 52.2263 139.273 52.2263C137.705 52.2263 136.641 51.4423 136.641 50.1403C136.641 48.7123 137.635 47.9143 139.511 47.9143H141.611V47.4243C141.611 46.5003 140.953 45.9403 139.833 45.9403C138.825 45.9403 138.153 46.4163 138.013 47.1443H136.865C137.033 45.7443 138.167 44.9183 139.889 44.9183C141.709 44.9183 142.759 45.8283 142.759 47.4943V50.6163C142.759 50.9943 142.899 51.0923 143.221 51.0923ZM141.611 49.2303V48.8803H139.399C138.377 48.8803 137.803 49.2583 137.803 50.0703C137.803 50.7703 138.405 51.2463 139.357 51.2463C140.785 51.2463 141.611 50.4203 141.611 49.2303Z" fill="#F2F0ED" style="fill:#F2F0ED;fill:color(display-p3 0.9490 0.9412 0.9294);fill-opacity:1;"/>
<path d="M132.313 51.0923H134.833V52.1423H128.645V51.0923H131.165V43.3923H128.645V42.3423H132.313V51.0923Z" fill="#F2F0ED" style="fill:#F2F0ED;fill:color(display-p3 0.9490 0.9412 0.9294);fill-opacity:1;"/>
<path d="M123.478 52.2263C121 52.2263 119.6 50.4343 119.6 47.2423C119.6 44.0363 121 42.2583 123.52 42.2583C125.368 42.2583 126.614 43.4343 126.992 45.5483H125.704C125.382 44.0783 124.668 43.3783 123.52 43.3783C121.784 43.3783 120.846 44.7363 120.846 47.2423C120.846 49.7903 121.742 51.1063 123.478 51.1063C124.654 51.1063 125.354 50.4203 125.69 48.9363H126.978C126.6 51.0643 125.368 52.2263 123.478 52.2263Z" fill="#F2F0ED" style="fill:#F2F0ED;fill:color(display-p3 0.9490 0.9412 0.9294);fill-opacity:1;"/>
<path d="M109.797 48.8243H104.253V48.8943C104.295 50.2523 105.149 51.2043 106.507 51.2043C107.515 51.2043 108.299 50.6723 108.537 49.7483H109.699C109.419 51.1763 108.243 52.2263 106.591 52.2263C104.449 52.2263 103.049 50.7563 103.049 48.5723C103.049 46.4023 104.421 44.9183 106.437 44.9183C108.453 44.9183 109.769 46.1923 109.825 48.3063C109.825 48.4043 109.811 48.6563 109.797 48.8243ZM106.451 45.9263C105.401 45.9263 104.435 46.6823 104.323 47.8443H108.593C108.481 46.6123 107.641 45.9263 106.451 45.9263Z" fill="#F2F0ED" style="fill:#F2F0ED;fill:color(display-p3 0.9490 0.9412 0.9294);fill-opacity:1;"/>
<path d="M101.255 52.1423H98.7488C97.3768 52.1423 96.8868 51.5403 96.8868 50.2803V46.0523H94.6188V45.0023H96.8868V43.0003H98.0348V45.0023H101.143V46.0523H98.0348V50.2663C98.0348 50.8683 98.2448 51.0923 98.8608 51.0923H101.255V52.1423Z" fill="#F2F0ED" style="fill:#F2F0ED;fill:color(display-p3 0.9490 0.9412 0.9294);fill-opacity:1;"/>
<path d="M89.8852 43.7423C89.3672 43.7423 88.9612 43.3503 88.9612 42.8183C88.9612 42.3003 89.3672 41.9083 89.8852 41.9083C90.4032 41.9083 90.8092 42.3003 90.8092 42.8183C90.8092 43.3503 90.4032 43.7423 89.8852 43.7423ZM90.4452 51.0923H92.9652V52.1423H86.7772V51.0923H89.2972V46.0523H86.7772V45.0023H90.4452V51.0923Z" fill="#F2F0ED" style="fill:#F2F0ED;fill:color(display-p3 0.9490 0.9412 0.9294);fill-opacity:1;"/>
<path d="M84.5636 46.1223H83.2476C81.5256 46.1223 81.0076 47.4103 81.0076 48.5443V51.0923H84.1716V52.1423H78.0956V51.0923H79.8596V46.0523H78.0956V45.0023H80.9796V46.2343C81.3016 45.6883 81.9736 45.0023 83.3736 45.0023H84.5636V46.1223Z" fill="#F2F0ED" style="fill:#F2F0ED;fill:color(display-p3 0.9490 0.9412 0.9294);fill-opacity:1;"/>
<path d="M71.5979 52.1423H70.0999L68.7559 42.3423H69.8899L70.9539 50.5743L72.2419 45.7023H73.4739L74.7199 50.5743L75.7699 42.3423H76.9039L75.5319 52.1423H74.0619L72.8439 47.3263L71.5979 52.1423Z" fill="#F2F0ED" style="fill:#F2F0ED;fill:color(display-p3 0.9490 0.9412 0.9294);fill-opacity:1;"/>
<path d="M122.71 129.87C123.003 130.163 123.478 130.163 123.771 129.87L128.544 125.097C128.837 124.804 128.837 124.329 128.544 124.036C128.251 123.743 127.776 123.743 127.483 124.036L123.241 128.279L118.998 124.036C118.705 123.743 118.23 123.743 117.937 124.036C117.644 124.329 117.644 124.804 117.937 125.097L122.71 129.87ZM123.241 129.34L123.991 129.34L123.991 98.7722L123.241 98.7722L122.491 98.7722L122.491 129.34L123.241 129.34Z" fill="#8C877D" style="fill:#8C877D;fill:color(display-p3 0.5490 0.5294 0.4902);fill-opacity:1;"/>
<path d="M236.166 357.886C236.459 357.593 236.459 357.119 236.166 356.826L231.393 352.053C231.1 351.76 230.625 351.76 230.333 352.053C230.04 352.346 230.04 352.821 230.333 353.113L234.575 357.356L230.333 361.599C230.04 361.892 230.04 362.366 230.333 362.659C230.625 362.952 231.1 362.952 231.393 362.659L236.166 357.886ZM235.636 357.356L235.636 356.606L205.068 356.606L205.068 357.356L205.068 358.106L235.636 358.106L235.636 357.356Z" fill="#8C877D" style="fill:#8C877D;fill:color(display-p3 0.5490 0.5294 0.4902);fill-opacity:1;"/>
<path d="M348.707 358.129C349 357.836 349 357.361 348.707 357.068L343.934 352.295C343.642 352.002 343.167 352.002 342.874 352.295C342.581 352.588 342.581 353.063 342.874 353.356L347.116 357.598L342.874 361.841C342.581 362.134 342.581 362.609 342.874 362.902C343.167 363.194 343.642 363.194 343.934 362.902L348.707 358.129ZM348.177 357.598L348.177 356.848L317.61 356.848L317.61 357.598L317.61 358.348L348.177 358.348L348.177 357.598Z" fill="#8C877D" style="fill:#8C877D;fill:color(display-p3 0.5490 0.5294 0.4902);fill-opacity:1;"/>
<path d="M531.249 357.886C531.542 357.593 531.542 357.119 531.249 356.826L526.476 352.053C526.183 351.76 525.708 351.76 525.415 352.053C525.122 352.346 525.122 352.821 525.415 353.113L529.658 357.356L525.415 361.599C525.122 361.892 525.122 362.366 525.415 362.659C525.708 362.952 526.183 362.952 526.476 362.659L531.249 357.886ZM530.719 357.356L530.719 356.606L500.151 356.606L500.151 357.356L500.151 358.106L530.719 358.106L530.719 357.356Z" fill="#8C877D" style="fill:#8C877D;fill:color(display-p3 0.5490 0.5294 0.4902);fill-opacity:1;"/>
<path d="M122.71 203.097C123.003 203.39 123.478 203.39 123.771 203.097L128.544 198.324C128.837 198.031 128.837 197.557 128.544 197.264C128.251 196.971 127.776 196.971 127.483 197.264L123.241 201.506L118.998 197.264C118.705 196.971 118.23 196.971 117.937 197.264C117.644 197.557 117.644 198.031 117.937 198.324L122.71 203.097ZM123.241 202.567L123.991 202.567L123.991 172L123.241 172L122.491 172L122.491 202.567L123.241 202.567Z" fill="#8C877D" style="fill:#8C877D;fill:color(display-p3 0.5490 0.5294 0.4902);fill-opacity:1;"/>
<path d="M122.71 276.471C123.003 276.764 123.478 276.764 123.771 276.471L128.544 271.698C128.837 271.405 128.837 270.93 128.544 270.637C128.251 270.344 127.776 270.344 127.483 270.637L123.241 274.88L118.998 270.637C118.705 270.344 118.23 270.344 117.937 270.637C117.644 270.93 117.644 271.405 117.937 271.698L122.71 276.471ZM123.241 275.94L123.991 275.94L123.991 245.373L123.241 245.373L122.491 245.373L122.491 275.94L123.241 275.94Z" fill="#8C877D" style="fill:#8C877D;fill:color(display-p3 0.5490 0.5294 0.4902);fill-opacity:1;"/>
<path d="M122.71 470.524C123.003 470.817 123.478 470.817 123.771 470.524L128.544 465.751C128.837 465.458 128.837 464.983 128.544 464.69C128.251 464.397 127.776 464.397 127.483 464.69L123.241 468.933L118.998 464.69C118.705 464.397 118.23 464.397 117.937 464.69C117.644 464.983 117.644 465.458 117.937 465.751L122.71 470.524ZM123.241 469.993L123.991 469.993L123.991 439.426L123.241 439.426L122.491 439.426L122.491 469.993L123.241 469.993Z" fill="#8C877D" style="fill:#8C877D;fill:color(display-p3 0.5490 0.5294 0.4902);fill-opacity:1;"/>
<rect x="67.2406" y="138.17" width="112" height="25" rx="5" fill="#CFC9C2" style="fill:#CFC9C2;fill:color(display-p3 0.8118 0.7882 0.7608);fill-opacity:1;"/>
<path d="M168.986 146.07V147.006H166.646V154.234H168.986V155.17H163.175V154.234H165.515V147.006H163.175V146.07H168.986Z" fill="#141312" style="fill:#141312;fill:color(display-p3 0.0784 0.0745 0.0706);fill-opacity:1;"/>
<path d="M161.328 155.17H155.79V146.07H156.921V154.13H161.328V155.17Z" fill="#141312" style="fill:#141312;fill:color(display-p3 0.0784 0.0745 0.0706);fill-opacity:1;"/>
<path d="M150.705 155.248C148.404 155.248 147.104 153.584 147.104 150.62C147.104 147.643 148.404 145.992 150.744 145.992C152.46 145.992 153.617 147.084 153.968 149.047H152.772C152.473 147.682 151.81 147.032 150.744 147.032C149.132 147.032 148.261 148.293 148.261 150.62C148.261 152.986 149.093 154.208 150.705 154.208C151.797 154.208 152.447 153.571 152.759 152.193H153.955C153.604 154.169 152.46 155.248 150.705 155.248Z" fill="#141312" style="fill:#141312;fill:color(display-p3 0.0784 0.0745 0.0706);fill-opacity:1;"/>
<path d="M135.453 155.17H134.322V147.11H131.371V146.07H138.404V147.11H135.453V155.17Z" fill="#141312" style="fill:#141312;fill:color(display-p3 0.0784 0.0745 0.0706);fill-opacity:1;"/>
<path d="M130.135 155.17H124.259V146.07H129.966V147.11H125.39V150.022H129.277V151.062H125.39V154.13H130.135V155.17Z" fill="#141312" style="fill:#141312;fill:color(display-p3 0.0784 0.0745 0.0706);fill-opacity:1;"/>
<path d="M117.341 155.17H116.262V146.07H117.367L121.215 153.051V146.07H122.294V155.17H121.189L117.341 148.176V155.17Z" fill="#141312" style="fill:#141312;fill:color(display-p3 0.0784 0.0745 0.0706);fill-opacity:1;"/>
<path d="M114.376 146.07V147.006H112.036V154.234H114.376V155.17H108.565V154.234H110.905V147.006H108.565V146.07H114.376Z" fill="#141312" style="fill:#141312;fill:color(display-p3 0.0784 0.0745 0.0706);fill-opacity:1;"/>
<path d="M101.92 155.17H100.789V146.07H103.87C105.69 146.07 106.899 147.162 106.899 148.865C106.899 150.139 106.132 151.127 104.962 151.452L107.003 155.17H105.729L103.805 151.673H101.92V155.17ZM101.92 147.11V150.633H103.779C104.975 150.633 105.742 149.931 105.742 148.865C105.742 147.799 104.975 147.11 103.792 147.11H101.92Z" fill="#141312" style="fill:#141312;fill:color(display-p3 0.0784 0.0745 0.0706);fill-opacity:1;"/>
<path d="M93.2736 155.17H92.1166L95.1716 146.07H96.5756L99.6306 155.17H98.4346L97.6156 152.713H94.0926L93.2736 155.17ZM95.8476 147.305L94.4176 151.686H97.2906L95.8476 147.305Z" fill="#141312" style="fill:#141312;fill:color(display-p3 0.0784 0.0745 0.0706);fill-opacity:1;"/>
<path d="M91.1141 155.17H85.5761V146.07H86.7071V154.13H91.1141V155.17Z" fill="#141312" style="fill:#141312;fill:color(display-p3 0.0784 0.0745 0.0706);fill-opacity:1;"/>
<path d="M80.4916 155.248C78.1906 155.248 76.8906 153.584 76.8906 150.62C76.8906 147.643 78.1906 145.992 80.5306 145.992C82.2466 145.992 83.4036 147.084 83.7546 149.047H82.5586C82.2596 147.682 81.5966 147.032 80.5306 147.032C78.9186 147.032 78.0476 148.293 78.0476 150.62C78.0476 152.986 78.8796 154.208 80.4916 154.208C81.5836 154.208 82.2336 153.571 82.5456 152.193H83.7416C83.3906 154.169 82.2466 155.248 80.4916 155.248Z" fill="#141312" style="fill:#141312;fill:color(display-p3 0.0784 0.0745 0.0706);fill-opacity:1;"/>
<rect x="244.636" y="344.856" width="64" height="25" rx="5" fill="#C2EBC4" style="fill:#C2EBC4;fill:color(display-p3 0.7608 0.9216 0.7686);fill-opacity:1;"/>
<path d="M267.99 354.21L259.99 362.21C259.943 362.256 259.888 362.293 259.827 362.318C259.767 362.343 259.702 362.356 259.636 362.356C259.57 362.356 259.505 362.343 259.444 362.318C259.384 362.293 259.329 362.256 259.282 362.21L255.782 358.71C255.688 358.616 255.636 358.489 255.636 358.356C255.636 358.223 255.688 358.096 255.782 358.002C255.876 357.908 256.003 357.856 256.136 357.856C256.269 357.856 256.396 357.908 256.49 358.002L259.636 361.149L267.282 353.502C267.376 353.408 267.503 353.356 267.636 353.356C267.769 353.356 267.896 353.408 267.99 353.502C268.083 353.596 268.136 353.723 268.136 353.856C268.136 353.989 268.083 354.116 267.99 354.21Z" fill="#141312" style="fill:#141312;fill:color(display-p3 0.0784 0.0745 0.0706);fill-opacity:1;"/>
<path d="M295.438 361.934C293.384 361.934 292.045 360.751 291.98 358.879H293.15C293.241 360.114 294.151 360.907 295.451 360.907C296.647 360.907 297.414 360.309 297.414 359.36C297.414 358.476 296.842 358.073 295.048 357.761C293.085 357.423 292.201 356.643 292.201 355.265C292.201 353.718 293.41 352.678 295.178 352.678C297.063 352.678 298.324 353.757 298.428 355.447H297.258C297.141 354.381 296.322 353.705 295.178 353.705C294.021 353.705 293.332 354.264 293.332 355.2C293.332 356.058 293.878 356.435 295.672 356.747C297.635 357.072 298.545 357.878 298.545 359.256C298.545 360.829 297.271 361.934 295.438 361.934Z" fill="#141312" style="fill:#141312;fill:color(display-p3 0.0784 0.0745 0.0706);fill-opacity:1;"/>
<path d="M290.522 361.856H284.646V352.756H290.353V353.796H285.777V356.708H289.664V357.748H285.777V360.816H290.522V361.856Z" fill="#141312" style="fill:#141312;fill:color(display-p3 0.0784 0.0745 0.0706);fill-opacity:1;"/>
<path d="M280.238 361.856H279.107V358.489L275.883 352.756H277.183L279.679 357.241L282.201 352.756H283.449L280.238 358.489V361.856Z" fill="#141312" style="fill:#141312;fill:color(display-p3 0.0784 0.0745 0.0706);fill-opacity:1;"/>
<rect x="95.2406" y="478.823" width="56" height="25" rx="5" fill="#FF9EA0" style="fill:#FF9EA0;fill:color(display-p3 1.0000 0.6196 0.6259);fill-opacity:1;"/>
<path d="M117.094 495.47C117.141 495.516 117.178 495.571 117.203 495.632C117.228 495.693 117.241 495.758 117.241 495.823C117.241 495.889 117.228 495.954 117.203 496.015C117.178 496.076 117.141 496.131 117.094 496.177C117.048 496.224 116.993 496.261 116.932 496.286C116.871 496.311 116.806 496.324 116.741 496.324C116.675 496.324 116.61 496.311 116.549 496.286C116.488 496.261 116.433 496.224 116.387 496.177L112.241 492.03L108.094 496.177C108.001 496.271 107.873 496.324 107.741 496.324C107.608 496.324 107.481 496.271 107.387 496.177C107.293 496.083 107.24 495.956 107.24 495.823C107.24 495.691 107.293 495.564 107.387 495.47L111.534 491.323L107.387 487.177C107.293 487.083 107.24 486.956 107.24 486.823C107.24 486.691 107.293 486.564 107.387 486.47C107.481 486.376 107.608 486.323 107.741 486.323C107.873 486.323 108.001 486.376 108.094 486.47L112.241 490.617L116.387 486.47C116.481 486.376 116.608 486.323 116.741 486.323C116.873 486.323 117.001 486.376 117.094 486.47C117.188 486.564 117.241 486.691 117.241 486.823C117.241 486.956 117.188 487.083 117.094 487.177L112.947 491.323L117.094 495.47Z" fill="#141312" style="fill:#141312;fill:color(display-p3 0.0784 0.0745 0.0706);fill-opacity:1;"/>
<path d="M138.072 495.901C135.979 495.901 134.692 494.159 134.692 491.273C134.692 488.387 135.979 486.645 138.072 486.645C140.165 486.645 141.452 488.387 141.452 491.273C141.452 494.159 140.165 495.901 138.072 495.901ZM138.072 494.861C139.528 494.861 140.295 493.613 140.295 491.273C140.295 488.933 139.528 487.685 138.072 487.685C136.616 487.685 135.849 488.92 135.849 491.273C135.849 493.626 136.616 494.861 138.072 494.861Z" fill="#141312" style="fill:#141312;fill:color(display-p3 0.0784 0.0745 0.0706);fill-opacity:1;"/>
<path d="M128.334 495.823H127.255V486.723H128.36L132.208 493.704V486.723H133.287V495.823H132.182L128.334 488.829V495.823Z" fill="#141312" style="fill:#141312;fill:color(display-p3 0.0784 0.0745 0.0706);fill-opacity:1;"/>
<rect x="39.7406" y="211.397" width="167" height="25" rx="5" fill="#CFC9C2" style="fill:#CFC9C2;fill:color(display-p3 0.8118 0.7882 0.7608);fill-opacity:1;"/>
<path d="M191.378 228.397H190.247V219.297H191.378V224.211L195.382 219.297H196.721L193.497 223.262L196.981 228.397H195.629L192.756 224.172L191.378 225.862V228.397Z" fill="#141312" style="fill:#141312;fill:color(display-p3 0.0784 0.0745 0.0706);fill-opacity:1;"/>
<path d="M184.876 228.397H182.38V219.297H184.876C187.463 219.297 188.776 221.117 188.776 223.847C188.776 226.564 187.463 228.397 184.876 228.397ZM183.511 220.337V227.357H184.876C186.826 227.357 187.619 225.966 187.619 223.847C187.619 221.715 186.826 220.337 184.876 220.337H183.511Z" fill="#141312" style="fill:#141312;fill:color(display-p3 0.0784 0.0745 0.0706);fill-opacity:1;"/>
<path d="M177.764 228.475C175.71 228.475 174.371 227.292 174.306 225.42H175.476C175.567 226.655 176.477 227.448 177.777 227.448C178.973 227.448 179.74 226.85 179.74 225.901C179.74 225.017 179.168 224.614 177.374 224.302C175.411 223.964 174.527 223.184 174.527 221.806C174.527 220.259 175.736 219.219 177.504 219.219C179.389 219.219 180.65 220.298 180.754 221.988H179.584C179.467 220.922 178.648 220.246 177.504 220.246C176.347 220.246 175.658 220.805 175.658 221.741C175.658 222.599 176.204 222.976 177.998 223.288C179.961 223.613 180.871 224.419 180.871 225.797C180.871 227.37 179.597 228.475 177.764 228.475Z" fill="#141312" style="fill:#141312;fill:color(display-p3 0.0784 0.0745 0.0706);fill-opacity:1;"/>
<path d="M160.107 228.397H158.976V219.297H160.107V223.249H163.877V219.297H165.008V228.397H163.877V224.289H160.107V228.397Z" fill="#141312" style="fill:#141312;fill:color(display-p3 0.0784 0.0745 0.0706);fill-opacity:1;"/>
<path d="M154.762 228.397H153.631V220.337H150.68V219.297H157.713V220.337H154.762V228.397Z" fill="#141312" style="fill:#141312;fill:color(display-p3 0.0784 0.0745 0.0706);fill-opacity:1;"/>
<path d="M149.288 219.297V220.233H146.948V227.461H149.288V228.397H143.477V227.461H145.817V220.233H143.477V219.297H149.288Z" fill="#141312" style="fill:#141312;fill:color(display-p3 0.0784 0.0745 0.0706);fill-opacity:1;"/>
<path d="M137.443 228.397H136.052L134.804 219.297H135.857L136.845 226.941L138.041 222.417H139.185L140.342 226.941L141.317 219.297H142.37L141.096 228.397H139.731L138.6 223.925L137.443 228.397Z" fill="#141312" style="fill:#141312;fill:color(display-p3 0.0784 0.0745 0.0706);fill-opacity:1;"/>
<path d="M123.153 228.475C121.099 228.475 119.76 227.292 119.695 225.42H120.865C120.956 226.655 121.866 227.448 123.166 227.448C124.362 227.448 125.129 226.85 125.129 225.901C125.129 225.017 124.557 224.614 122.763 224.302C120.8 223.964 119.916 223.184 119.916 221.806C119.916 220.259 121.125 219.219 122.893 219.219C124.778 219.219 126.039 220.298 126.143 221.988H124.973C124.856 220.922 124.037 220.246 122.893 220.246C121.736 220.246 121.047 220.805 121.047 221.741C121.047 222.599 121.593 222.976 123.387 223.288C125.35 223.613 126.26 224.419 126.26 225.797C126.26 227.37 124.986 228.475 123.153 228.475Z" fill="#141312" style="fill:#141312;fill:color(display-p3 0.0784 0.0745 0.0706);fill-opacity:1;"/>
<path d="M115.755 228.397H114.624V220.337H111.673V219.297H118.706V220.337H115.755V228.397Z" fill="#141312" style="fill:#141312;fill:color(display-p3 0.0784 0.0745 0.0706);fill-opacity:1;"/>
<path d="M107.55 228.475C105.496 228.475 104.157 227.292 104.092 225.42H105.262C105.353 226.655 106.263 227.448 107.563 227.448C108.759 227.448 109.526 226.85 109.526 225.901C109.526 225.017 108.954 224.614 107.16 224.302C105.197 223.964 104.313 223.184 104.313 221.806C104.313 220.259 105.522 219.219 107.29 219.219C109.175 219.219 110.436 220.298 110.54 221.988H109.37C109.253 220.922 108.434 220.246 107.29 220.246C106.133 220.246 105.444 220.805 105.444 221.741C105.444 222.599 105.99 222.976 107.784 223.288C109.747 223.613 110.657 224.419 110.657 225.797C110.657 227.37 109.383 228.475 107.55 228.475Z" fill="#141312" style="fill:#141312;fill:color(display-p3 0.0784 0.0745 0.0706);fill-opacity:1;"/>
<path d="M102.635 228.397H96.7587V219.297H102.466V220.337H97.8897V223.249H101.777V224.289H97.8897V227.357H102.635V228.397Z" fill="#141312" style="fill:#141312;fill:color(display-p3 0.0784 0.0745 0.0706);fill-opacity:1;"/>
<path d="M92.3502 228.397H91.2192V220.337H88.2682V219.297H95.3012V220.337H92.3502V228.397Z" fill="#141312" style="fill:#141312;fill:color(display-p3 0.0784 0.0745 0.0706);fill-opacity:1;"/>
<path d="M76.7472 228.397H75.6162V220.337H72.6652V219.297H79.6982V220.337H76.7472V228.397Z" fill="#141312" style="fill:#141312;fill:color(display-p3 0.0784 0.0745 0.0706);fill-opacity:1;"/>
<path d="M71.2727 219.297V220.233H68.9327V227.461H71.2727V228.397H65.4617V227.461H67.8017V220.233H65.4617V219.297H71.2727Z" fill="#141312" style="fill:#141312;fill:color(display-p3 0.0784 0.0745 0.0706);fill-opacity:1;"/>
<path d="M58.6352 228.397H57.5562V219.297H58.6612L62.5092 226.278V219.297H63.5882V228.397H62.4832L58.6352 221.403V228.397Z" fill="#141312" style="fill:#141312;fill:color(display-p3 0.0784 0.0745 0.0706);fill-opacity:1;"/>
<path d="M52.7576 228.475C50.7426 228.475 49.6896 227.305 49.6896 224.991V219.297H50.8206V224.965C50.8206 226.642 51.4706 227.435 52.7576 227.435C54.0706 227.435 54.7206 226.655 54.7206 224.965V219.297H55.8516V224.991C55.8516 227.305 54.7856 228.475 52.7576 228.475Z" fill="#141312" style="fill:#141312;fill:color(display-p3 0.0784 0.0745 0.0706);fill-opacity:1;"/>
<rect x="123.296" y="284.77" width="102.916" height="103.073" rx="14.7503" transform="rotate(45 123.296 284.77)" fill="#494541" style="fill:#494541;fill:color(display-p3 0.2863 0.2706 0.2549);fill-opacity:1;"/>
<path d="M160.69 359.179H159.58V358.699C159.58 357.603 160.292 357.151 161.074 356.616C161.69 356.178 162.088 355.712 162.088 354.958C162.088 354.094 161.375 353.464 160.334 353.464C159.141 353.464 158.36 354.314 158.36 355.561H157.209C157.209 353.806 158.387 352.422 160.32 352.422C162.115 352.422 163.266 353.45 163.266 354.848C163.266 356.068 162.622 356.698 161.923 357.192C161.197 357.699 160.69 358.069 160.69 358.823V359.179ZM160.169 362.167C159.676 362.167 159.306 361.824 159.306 361.317C159.306 360.81 159.676 360.467 160.169 360.467C160.662 360.467 161.033 360.81 161.033 361.317C161.033 361.824 160.662 362.167 160.169 362.167Z" fill="#F2F0ED" style="fill:#F2F0ED;fill:color(display-p3 0.9490 0.9412 0.9294);fill-opacity:1;"/>
<path d="M152.164 362.18C150.354 362.18 149.107 361.331 149.08 359.796H150.231C150.272 360.618 150.999 361.221 152.164 361.221C153.15 361.221 153.849 360.796 153.849 360.152C153.849 359.275 153.082 359.206 152.04 359.083C150.478 358.891 149.231 358.576 149.231 357.123C149.231 355.849 150.396 355.026 151.972 355.026C153.562 355.026 154.713 355.78 154.822 357.233H153.671C153.589 356.52 152.931 355.986 151.972 355.986C150.999 355.986 150.341 356.397 150.341 357.041C150.341 357.808 151.081 357.904 152.095 358.028C153.685 358.22 154.959 358.521 154.959 360.07C154.959 361.372 153.712 362.18 152.164 362.18Z" fill="#F2F0ED" style="fill:#F2F0ED;fill:color(display-p3 0.9490 0.9412 0.9294);fill-opacity:1;"/>
<path d="M143.939 362.18C142.13 362.18 140.883 361.331 140.855 359.796H142.006C142.047 360.618 142.774 361.221 143.939 361.221C144.926 361.221 145.625 360.796 145.625 360.152C145.625 359.275 144.857 359.206 143.815 359.083C142.253 358.891 141.006 358.576 141.006 357.123C141.006 355.849 142.171 355.026 143.747 355.026C145.337 355.026 146.488 355.78 146.598 357.233H145.446C145.364 356.52 144.706 355.986 143.747 355.986C142.774 355.986 142.116 356.397 142.116 357.041C142.116 357.808 142.856 357.904 143.87 358.028C145.46 358.22 146.735 358.521 146.735 360.07C146.735 361.372 145.487 362.18 143.939 362.18Z" fill="#F2F0ED" style="fill:#F2F0ED;fill:color(display-p3 0.9490 0.9412 0.9294);fill-opacity:1;"/>
<path d="M138.688 361.07H139.044V362.098H138.428C137.496 362.098 137.18 361.701 137.167 361.015C136.728 361.646 136.029 362.18 134.823 362.18C133.288 362.18 132.247 361.413 132.247 360.138C132.247 358.74 133.22 357.959 135.056 357.959H137.112V357.48C137.112 356.575 136.468 356.027 135.371 356.027C134.385 356.027 133.727 356.493 133.59 357.205H132.466C132.63 355.835 133.74 355.026 135.426 355.026C137.208 355.026 138.236 355.917 138.236 357.548V360.604C138.236 360.974 138.373 361.07 138.688 361.07ZM137.112 359.248V358.905H134.947C133.946 358.905 133.384 359.275 133.384 360.07C133.384 360.755 133.973 361.221 134.905 361.221C136.303 361.221 137.112 360.412 137.112 359.248Z" fill="#F2F0ED" style="fill:#F2F0ED;fill:color(display-p3 0.9490 0.9412 0.9294);fill-opacity:1;"/>
<path d="M127.53 355.026C129.463 355.026 130.888 356.328 130.888 358.603C130.888 360.741 129.463 362.18 127.53 362.18C126.352 362.18 125.557 361.701 125.132 361.029V364.839H124.008V355.109H124.981L125.132 356.232C125.598 355.588 126.352 355.026 127.53 355.026ZM127.421 361.18C128.805 361.18 129.737 360.125 129.737 358.603C129.737 357.082 128.805 356.027 127.421 356.027C126.05 356.027 125.118 357.082 125.118 358.576C125.118 360.111 126.05 361.18 127.421 361.18Z" fill="#F2F0ED" style="fill:#F2F0ED;fill:color(display-p3 0.9490 0.9412 0.9294);fill-opacity:1;"/>
<path d="M114.055 362.098H111.602C110.258 362.098 109.779 361.509 109.779 360.275V356.136H107.558V355.109H109.779V353.149H110.903V355.109H113.945V356.136H110.903V360.262C110.903 360.851 111.108 361.07 111.711 361.07H114.055V362.098Z" fill="#F2F0ED" style="fill:#F2F0ED;fill:color(display-p3 0.9490 0.9412 0.9294);fill-opacity:1;"/>
<path d="M102.815 362.18C101.006 362.18 99.7586 361.331 99.7311 359.796H100.882C100.924 360.618 101.65 361.221 102.815 361.221C103.802 361.221 104.501 360.796 104.501 360.152C104.501 359.275 103.733 359.206 102.691 359.083C101.129 358.891 99.8819 358.576 99.8819 357.123C99.8819 355.849 101.047 355.026 102.623 355.026C104.213 355.026 105.364 355.78 105.474 357.233H104.322C104.24 356.52 103.582 355.986 102.623 355.986C101.65 355.986 100.992 356.397 100.992 357.041C100.992 357.808 101.732 357.904 102.746 358.028C104.336 358.22 105.611 358.521 105.611 360.07C105.611 361.372 104.364 362.18 102.815 362.18Z" fill="#F2F0ED" style="fill:#F2F0ED;fill:color(display-p3 0.9490 0.9412 0.9294);fill-opacity:1;"/>
<path d="M97.7423 358.85H92.3149V358.919C92.3561 360.248 93.1921 361.18 94.5215 361.18C95.5083 361.18 96.2758 360.659 96.5088 359.755H97.6463C97.3722 361.153 96.221 362.18 94.6037 362.18C92.5068 362.18 91.1363 360.741 91.1363 358.603C91.1363 356.479 92.4794 355.026 94.453 355.026C96.4265 355.026 97.7148 356.273 97.7697 358.343C97.7697 358.439 97.756 358.686 97.7423 358.85ZM94.4667 356.013C93.4388 356.013 92.4931 356.753 92.3835 357.891H96.5636C96.454 356.685 95.6316 356.013 94.4667 356.013Z" fill="#F2F0ED" style="fill:#F2F0ED;fill:color(display-p3 0.9490 0.9412 0.9294);fill-opacity:1;"/>
<path d="M86.8312 362.098H85.6389V353.601H82.5278V352.504H89.9423V353.601H86.8312V362.098Z" fill="#F2F0ED" style="fill:#F2F0ED;fill:color(display-p3 0.9490 0.9412 0.9294);fill-opacity:1;"/>
<path d="M31.4098 44.7853C31.7027 44.4924 31.7027 44.0175 31.4098 43.7246L26.6368 38.9517C26.3439 38.6588 25.869 38.6588 25.5761 38.9517C25.2833 39.2446 25.2833 39.7194 25.5761 40.0123L29.8188 44.255L25.5761 48.4976C25.2833 48.7905 25.2833 49.2654 25.5761 49.5583C25.869 49.8512 26.3439 49.8512 26.6368 49.5583L31.4098 44.7853ZM88.171 491.129V490.379H21.7129V491.129V491.879H88.171V491.129ZM1.71289 471.129H2.46289V64.255H1.71289H0.962891V471.129H1.71289ZM21.7129 44.255V45.005H30.8794V44.255V43.505H21.7129V44.255ZM1.71289 64.255H2.46289C2.46289 53.6235 11.0814 45.005 21.7129 45.005V44.255V43.505C10.253 43.505 0.962891 52.795 0.962891 64.255H1.71289ZM21.7129 491.129V490.379C11.0814 490.379 2.46289 481.76 2.46289 471.129H1.71289H0.962891C0.962891 482.588 10.253 491.879 21.7129 491.879V491.129Z" fill="#8C877D" style="fill:#8C877D;fill:color(display-p3 0.5490 0.5294 0.4902);fill-opacity:1;"/>
<rect x="357.151" y="335.356" width="134" height="44" rx="22" fill="#B3D9FF" style="fill:#B3D9FF;fill:color(display-p3 0.7020 0.8510 1.0000);fill-opacity:1;"/>
<path d="M473.579 362.356H471.073C469.701 362.356 469.211 361.754 469.211 360.494V356.266H466.943V355.216H469.211V353.214H470.359V355.216H473.467V356.266H470.359V360.48C470.359 361.082 470.569 361.306 471.185 361.306H473.579V362.356Z" fill="#141312" style="fill:#141312;fill:color(display-p3 0.0784 0.0745 0.0706);fill-opacity:1;"/>
<path d="M465.318 359.038H459.774V359.108C459.816 360.466 460.67 361.418 462.028 361.418C463.036 361.418 463.82 360.886 464.058 359.962H465.22C464.94 361.39 463.764 362.44 462.112 362.44C459.97 362.44 458.57 360.97 458.57 358.786C458.57 356.616 459.942 355.132 461.958 355.132C463.974 355.132 465.29 356.406 465.346 358.52C465.346 358.618 465.332 358.87 465.318 359.038ZM461.972 356.14C460.922 356.14 459.956 356.896 459.844 358.058H464.114C464.002 356.826 463.162 356.14 461.972 356.14Z" fill="#141312" style="fill:#141312;fill:color(display-p3 0.0784 0.0745 0.0706);fill-opacity:1;"/>
<path d="M453.892 355.132C455.404 355.132 456.664 355.986 456.664 358.296V362.356H455.516V358.366C455.516 356.938 454.844 356.182 453.696 356.182C452.45 356.182 451.652 357.148 451.652 358.562V362.356H450.504V355.216H451.498L451.652 356.182C452.072 355.636 452.772 355.132 453.892 355.132Z" fill="#141312" style="fill:#141312;fill:color(display-p3 0.0784 0.0745 0.0706);fill-opacity:1;"/>
<path d="M445.854 362.356H444.468L441.64 355.216H442.872L445.182 361.054L447.478 355.216H448.682L445.854 362.356Z" fill="#141312" style="fill:#141312;fill:color(display-p3 0.0784 0.0745 0.0706);fill-opacity:1;"/>
<path d="M440.113 359.038H434.569V359.108C434.611 360.466 435.465 361.418 436.823 361.418C437.831 361.418 438.615 360.886 438.853 359.962H440.015C439.735 361.39 438.559 362.44 436.907 362.44C434.765 362.44 433.365 360.97 433.365 358.786C433.365 356.616 434.737 355.132 436.753 355.132C438.769 355.132 440.085 356.406 440.141 358.52C440.141 358.618 440.127 358.87 440.113 359.038ZM436.767 356.14C435.717 356.14 434.751 356.896 434.639 358.058H438.909C438.797 356.826 437.957 356.14 436.767 356.14Z" fill="#141312" style="fill:#141312;fill:color(display-p3 0.0784 0.0745 0.0706);fill-opacity:1;"/>
<path d="M427.791 362.356H425.103V352.556H427.791C430.577 352.556 431.991 354.516 431.991 357.456C431.991 360.382 430.577 362.356 427.791 362.356ZM426.321 353.676V361.236H427.791C429.891 361.236 430.745 359.738 430.745 357.456C430.745 355.16 429.891 353.676 427.791 353.676H426.321Z" fill="#141312" style="fill:#141312;fill:color(display-p3 0.0784 0.0745 0.0706);fill-opacity:1;"/>
<path d="M412.22 361.306H414.74V362.356H408.552V361.306H411.072V353.606H408.552V352.556H412.22V361.306Z" fill="#141312" style="fill:#141312;fill:color(display-p3 0.0784 0.0745 0.0706);fill-opacity:1;"/>
<path d="M406.324 361.306H406.688V362.356H406.058C405.106 362.356 404.784 361.95 404.77 361.25C404.322 361.894 403.608 362.44 402.376 362.44C400.808 362.44 399.744 361.656 399.744 360.354C399.744 358.926 400.738 358.128 402.614 358.128H404.714V357.638C404.714 356.714 404.056 356.154 402.936 356.154C401.928 356.154 401.256 356.63 401.116 357.358H399.968C400.136 355.958 401.27 355.132 402.992 355.132C404.812 355.132 405.862 356.042 405.862 357.708V360.83C405.862 361.208 406.002 361.306 406.324 361.306ZM404.714 359.444V359.094H402.502C401.48 359.094 400.906 359.472 400.906 360.284C400.906 360.984 401.508 361.46 402.46 361.46C403.888 361.46 404.714 360.634 404.714 359.444Z" fill="#141312" style="fill:#141312;fill:color(display-p3 0.0784 0.0745 0.0706);fill-opacity:1;"/>
<path d="M394.927 362.44C392.841 362.44 391.469 361.026 391.469 358.8C391.469 356.616 392.883 355.132 394.955 355.132C396.705 355.132 397.811 356.112 398.105 357.68H396.901C396.691 356.728 395.991 356.154 394.941 356.154C393.569 356.154 392.645 357.246 392.645 358.8C392.645 360.354 393.569 361.418 394.941 361.418C395.963 361.418 396.663 360.83 396.887 359.92H398.105C397.825 361.46 396.663 362.44 394.927 362.44Z" fill="#141312" style="fill:#141312;fill:color(display-p3 0.0784 0.0745 0.0706);fill-opacity:1;"/>
<path d="M386.343 362.44C384.257 362.44 382.801 360.956 382.801 358.786C382.801 356.616 384.257 355.132 386.343 355.132C388.429 355.132 389.885 356.616 389.885 358.786C389.885 360.956 388.429 362.44 386.343 362.44ZM386.343 361.418C387.757 361.418 388.709 360.312 388.709 358.786C388.709 357.26 387.757 356.154 386.343 356.154C384.929 356.154 383.977 357.26 383.977 358.786C383.977 360.312 384.929 361.418 386.343 361.418Z" fill="#141312" style="fill:#141312;fill:color(display-p3 0.0784 0.0745 0.0706);fill-opacity:1;"/>
<path d="M381.217 362.356H375.253V352.556H376.471V361.236H381.217V362.356Z" fill="#141312" style="fill:#141312;fill:color(display-p3 0.0784 0.0745 0.0706);fill-opacity:1;"/>
<defs>
<clipPath id="clip0_68_302">
<rect width="18.7568" height="18.7568" fill="white" style="fill:white;fill-opacity:1;" transform="translate(113.862 15.3354)"/>
</clipPath>
</defs>
</svg>
