<svg width="48" height="48" viewBox="0 0 48 48" fill="none" xmlns="http://www.w3.org/2000/svg">
<rect x="3.99902" y="4.00012" width="40" height="40" rx="20" fill="#5546FF"/>
<g clip-path="url(#clip0_519_430)">
<path d="M17.8063 14.8553L22.5172 22.1765L17.8063 14.8553ZM22.5172 22.1765H14.2412H22.5172ZM22.5172 22.1765H25.573H22.5172Z" fill="#F2F0ED"/>
<path d="M17.8063 14.8553L22.5172 22.1765M22.5172 22.1765H14.2412M22.5172 22.1765H25.573" stroke="#F2F0ED" stroke-width="2" stroke-linejoin="bevel"/>
<path d="M30.2842 14.8553L25.5732 22.1765H33.8493" stroke="#F2F0ED" stroke-width="2" stroke-linejoin="bevel"/>
<path d="M17.8063 33.4891L22.5172 26.168L17.8063 33.4891ZM22.5172 26.168H14.2412H22.5172ZM22.5172 26.168H25.573H22.5172Z" fill="#F2F0ED"/>
<path d="M17.8063 33.4891L22.5172 26.168M22.5172 26.168H14.2412M22.5172 26.168H25.573" stroke="#F2F0ED" stroke-width="2" stroke-linejoin="bevel"/>
<path d="M30.2842 33.4891L25.5732 26.168H33.8493" stroke="#F2F0ED" stroke-width="2" stroke-linejoin="bevel"/>
</g>
<rect x="4" y="4.00012" width="40" height="40" rx="20" fill="#CFC9C2"/>
<path d="M19.5701 31.7743L18.9306 31.3825L18.1471 32.6616L18.7866 33.0534L19.5701 31.7743ZM23.7136 16.3017L22.9636 16.3017C22.9636 16.5008 23.0427 16.6916 23.1835 16.8323C23.3243 16.973 23.5152 17.0519 23.7142 17.0517L23.7136 16.3017ZM18.7866 33.0534C20.0313 33.8158 21.4358 34.2794 22.8898 34.4079L23.0218 32.9137C21.7986 32.8057 20.6172 32.4157 19.5701 31.7743L18.7866 33.0534ZM22.8898 34.4079C24.3438 34.5363 25.8078 34.326 27.1668 33.7935L26.6196 32.3969C25.4764 32.8448 24.2449 33.0217 23.0218 32.9137L22.8898 34.4079ZM27.1668 33.7935C28.5259 33.261 29.7431 32.4209 30.7229 31.3389L29.611 30.332C28.7868 31.2422 27.7629 31.949 26.6196 32.3969L27.1668 33.7935ZM30.7229 31.3389C31.7027 30.257 32.4184 28.9627 32.8139 27.5576L31.37 27.1512C31.0373 28.3331 30.4352 29.4219 29.611 30.332L30.7229 31.3389ZM32.8139 27.5576C33.2094 26.1525 33.2739 24.6749 33.0023 23.2408L31.5285 23.5198C31.7569 24.7263 31.7027 25.9692 31.37 27.1512L32.8139 27.5576ZM33.0023 23.2408C32.7308 21.8066 32.1306 20.4549 31.2488 19.2916L30.0534 20.1978C30.7952 21.1763 31.3001 22.3134 31.5285 23.5198L33.0023 23.2408ZM31.2488 19.2916C30.367 18.1284 29.2277 17.1854 27.9202 16.5365L27.2534 17.8801C28.3533 18.426 29.3117 19.2193 30.0534 20.1978L31.2488 19.2916ZM27.9202 16.5365C26.6127 15.8876 25.1726 15.5505 23.713 15.5517L23.7142 17.0517C24.9421 17.0507 26.1535 17.3343 27.2534 17.8801L27.9202 16.5365ZM24.4636 16.3017L24.4635 3.96631L22.9635 3.96632L22.9636 16.3017L24.4636 16.3017Z" fill="#0D0C0C"/>
<defs>
<clipPath id="clip0_519_430">
<rect width="20" height="20" fill="white" transform="translate(14 14)"/>
</clipPath>
</defs>
</svg>
