<svg width="40" height="40" viewBox="0 0 40 40" fill="none" xmlns="http://www.w3.org/2000/svg">
<rect width="40" height="40" rx="20" fill="white"/>
<path d="M15.1 28.64C12.2944 25.8731 11.1141 23.3384 11.1141 20.32C11.1141 17.3403 12.2944 14.8056 15.1 12H13.2038C10.7465 14.496 9.54688 17.2822 9.54688 20.32C9.54688 23.3771 10.7272 26.1247 13.2038 28.64H15.1Z" fill="#141312"/>
<path d="M22.9128 28.64C20.1073 25.8731 18.927 23.3384 18.927 20.32C18.927 17.3403 20.1073 14.8056 22.9128 12H21.0167C18.5594 14.496 17.3597 17.2822 17.3597 20.32C17.3597 23.3771 18.54 26.1247 21.0167 28.64H22.9128Z" fill="#141312"/>
<path d="M30.7257 28.64C27.9201 25.8731 26.7398 23.3384 26.7398 20.32C26.7398 17.3403 27.9201 14.8056 30.7257 12H28.8295C26.3722 14.496 25.1726 17.2822 25.1726 20.32C25.1726 23.3771 26.3529 26.1247 28.8295 28.64H30.7257Z" fill="#141312"/>
</svg>
