<svg width="48" height="48" viewBox="0 0 48 48" fill="none" xmlns="http://www.w3.org/2000/svg">
<rect x="4" y="4.00012" width="40" height="40" rx="20" fill="white"/>
<path d="M19.1 32.6401C16.2944 29.8732 15.1141 27.3385 15.1141 24.3201C15.1141 21.3404 16.2944 18.8057 19.1 16.0001H17.2038C14.7465 18.4961 13.5469 21.2824 13.5469 24.3201C13.5469 27.3772 14.7272 30.1248 17.2038 32.6401H19.1Z" fill="#141312"/>
<path d="M26.9128 32.6401C24.1073 29.8732 22.927 27.3385 22.927 24.3201C22.927 21.3404 24.1073 18.8057 26.9128 16.0001H25.0167C22.5594 18.4961 21.3597 21.2824 21.3597 24.3201C21.3597 27.3772 22.54 30.1248 25.0167 32.6401H26.9128Z" fill="#141312"/>
<path d="M34.7257 32.6401C31.9201 29.8732 30.7398 27.3385 30.7398 24.3201C30.7398 21.3404 31.9201 18.8057 34.7257 16.0001H32.8295C30.3722 18.4961 29.1726 21.2824 29.1726 24.3201C29.1726 27.3772 30.3529 30.1248 32.8295 32.6401H34.7257Z" fill="#141312"/>
<rect x="4" y="4.00012" width="40" height="40" rx="20" fill="#0D0C0C"/>
<circle cx="24" cy="24.0001" r="11.5265" stroke="#F2F0ED" stroke-width="1.5"/>
<circle cx="24.0001" cy="24.0002" r="7.26073" fill="#F2F0ED"/>
</svg>
