<svg width="40" height="40" viewBox="0 0 40 40" fill="none" xmlns="http://www.w3.org/2000/svg">
<rect x="-0.000976562" y="0.00012207" width="40" height="40" rx="20" fill="#5546FF"/>
<g clip-path="url(#clip0_1_297)">
<path d="M13.8063 10.8553L18.5172 18.1765L13.8063 10.8553ZM18.5172 18.1765H10.2412H18.5172ZM18.5172 18.1765H21.573H18.5172Z" fill="#F2F0ED"/>
<path d="M13.8063 10.8553L18.5172 18.1765M18.5172 18.1765H10.2412M18.5172 18.1765H21.573" stroke="#F2F0ED" stroke-width="2" stroke-linejoin="bevel"/>
<path d="M26.2842 10.8553L21.5732 18.1765H29.8493" stroke="#F2F0ED" stroke-width="2" stroke-linejoin="bevel"/>
<path d="M13.8063 29.4891L18.5172 22.168L13.8063 29.4891ZM18.5172 22.168H10.2412H18.5172ZM18.5172 22.168H21.573H18.5172Z" fill="#F2F0ED"/>
<path d="M13.8063 29.4891L18.5172 22.168M18.5172 22.168H10.2412M18.5172 22.168H21.573" stroke="#F2F0ED" stroke-width="2" stroke-linejoin="bevel"/>
<path d="M26.2842 29.4891L21.5732 22.168H29.8493" stroke="#F2F0ED" stroke-width="2" stroke-linejoin="bevel"/>
</g>
<defs>
<clipPath id="clip0_1_297">
<rect width="20" height="20" fill="white" transform="translate(10 10)"/>
</clipPath>
</defs>
</svg>
