<svg xmlns="http://www.w3.org/2000/svg" width="923" height="181" viewBox="0 0 923 181" fill="none">
<rect x="603.999" y="0.473694" width="159" height="44" rx="22" fill="#B3D9FF" style="fill:#B3D9FF;fill:color(display-p3 0.7020 0.8510 1.0000);fill-opacity:1;"/>
<path d="M745.669 24.1557H740.125V24.2257C740.167 25.5837 741.021 26.5357 742.379 26.5357C743.387 26.5357 744.171 26.0037 744.409 25.0797H745.571C745.291 26.5077 744.115 27.5577 742.463 27.5577C740.321 27.5577 738.921 26.0877 738.921 23.9037C738.921 21.7337 740.293 20.2497 742.309 20.2497C744.325 20.2497 745.641 21.5237 745.697 23.6377C745.697 23.7357 745.683 23.9877 745.669 24.1557ZM742.323 21.2577C741.273 21.2577 740.307 22.0137 740.195 23.1757H744.465C744.353 21.9437 743.513 21.2577 742.323 21.2577Z" fill="#141312" style="fill:#141312;fill:color(display-p3 0.0784 0.0745 0.0706);fill-opacity:1;"/>
<path d="M736.176 21.5657L736.33 20.3337H737.324V27.1237C737.324 29.1817 736.232 30.3577 733.782 30.3577C731.962 30.3577 730.688 29.5037 730.506 27.9357H731.682C731.878 28.8317 732.676 29.3357 733.866 29.3357C735.364 29.3357 736.176 28.6357 736.176 27.0817V26.2417C735.7 27.0537 734.93 27.5577 733.726 27.5577C731.752 27.5577 730.296 26.2277 730.296 23.9037C730.296 21.7197 731.752 20.2497 733.726 20.2497C734.93 20.2497 735.728 20.7677 736.176 21.5657ZM733.838 26.5357C735.238 26.5357 736.19 25.4577 736.19 23.9317C736.19 22.3637 735.238 21.2717 733.838 21.2717C732.424 21.2717 731.472 22.3497 731.472 23.9037C731.472 25.4577 732.424 26.5357 733.838 26.5357Z" fill="#141312" style="fill:#141312;fill:color(display-p3 0.0784 0.0745 0.0706);fill-opacity:1;"/>
<path d="M728.684 26.4237H729.048V27.4737H728.418C727.466 27.4737 727.144 27.0677 727.13 26.3677C726.682 27.0117 725.968 27.5577 724.736 27.5577C723.168 27.5577 722.104 26.7737 722.104 25.4717C722.104 24.0437 723.098 23.2457 724.974 23.2457H727.074V22.7557C727.074 21.8317 726.416 21.2717 725.296 21.2717C724.288 21.2717 723.616 21.7477 723.476 22.4757H722.328C722.496 21.0757 723.63 20.2497 725.352 20.2497C727.172 20.2497 728.222 21.1597 728.222 22.8257V25.9477C728.222 26.3257 728.362 26.4237 728.684 26.4237ZM727.074 24.5617V24.2117H724.862C723.84 24.2117 723.266 24.5897 723.266 25.4017C723.266 26.1017 723.868 26.5777 724.82 26.5777C726.248 26.5777 727.074 25.7517 727.074 24.5617Z" fill="#141312" style="fill:#141312;fill:color(display-p3 0.0784 0.0745 0.0706);fill-opacity:1;"/>
<path d="M720.436 21.4537H719.12C717.398 21.4537 716.88 22.7417 716.88 23.8757V26.4237H720.044V27.4737H713.968V26.4237H715.732V21.3837H713.968V20.3337H716.852V21.5657C717.174 21.0197 717.846 20.3337 719.246 20.3337H720.436V21.4537Z" fill="#141312" style="fill:#141312;fill:color(display-p3 0.0784 0.0745 0.0706);fill-opacity:1;"/>
<path d="M708.703 27.5577C706.617 27.5577 705.161 26.0737 705.161 23.9037C705.161 21.7337 706.617 20.2497 708.703 20.2497C710.789 20.2497 712.245 21.7337 712.245 23.9037C712.245 26.0737 710.789 27.5577 708.703 27.5577ZM708.703 26.5357C710.117 26.5357 711.069 25.4297 711.069 23.9037C711.069 22.3777 710.117 21.2717 708.703 21.2717C707.289 21.2717 706.337 22.3777 706.337 23.9037C706.337 25.4297 707.289 26.5357 708.703 26.5357Z" fill="#141312" style="fill:#141312;fill:color(display-p3 0.0784 0.0745 0.0706);fill-opacity:1;"/>
<path d="M703.521 27.4737H701.015C699.643 27.4737 699.153 26.8717 699.153 25.6117V21.3837H696.885V20.3337H699.153V18.3317H700.301V20.3337H703.409V21.3837H700.301V25.5977C700.301 26.1997 700.511 26.4237 701.127 26.4237H703.521V27.4737Z" fill="#141312" style="fill:#141312;fill:color(display-p3 0.0784 0.0745 0.0706);fill-opacity:1;"/>
<path d="M692.039 27.5577C690.191 27.5577 688.917 26.6897 688.889 25.1217H690.065C690.107 25.9617 690.849 26.5777 692.039 26.5777C693.047 26.5777 693.761 26.1437 693.761 25.4857C693.761 24.5897 692.977 24.5197 691.913 24.3937C690.317 24.1977 689.043 23.8757 689.043 22.3917C689.043 21.0897 690.233 20.2497 691.843 20.2497C693.467 20.2497 694.643 21.0197 694.755 22.5037H693.579C693.495 21.7757 692.823 21.2297 691.843 21.2297C690.849 21.2297 690.177 21.6497 690.177 22.3077C690.177 23.0917 690.933 23.1897 691.969 23.3157C693.593 23.5117 694.895 23.8197 694.895 25.4017C694.895 26.7317 693.621 27.5577 692.039 27.5577Z" fill="#141312" style="fill:#141312;fill:color(display-p3 0.0784 0.0745 0.0706);fill-opacity:1;"/>
<path d="M675.138 27.4737H671.988V17.6737H675.04C677.126 17.6737 678.176 18.6817 678.176 20.2637C678.176 21.3837 677.56 22.0697 676.636 22.3917C677.672 22.5877 678.582 23.2597 678.582 24.6737C678.582 26.4097 677.462 27.4737 675.138 27.4737ZM673.206 18.7797V21.9297H675.096C676.356 21.9297 676.958 21.3417 676.958 20.3477C676.958 19.3677 676.37 18.7797 675.096 18.7797H673.206ZM673.206 23.0217V26.3677H675.138C676.65 26.3677 677.336 25.7377 677.336 24.7297C677.336 23.6237 676.594 23.0217 675.138 23.0217H673.206Z" fill="#141312" style="fill:#141312;fill:color(display-p3 0.0784 0.0745 0.0706);fill-opacity:1;"/>
<path d="M666.135 27.4737H663.447V17.6737H666.135C668.921 17.6737 670.335 19.6337 670.335 22.5737C670.335 25.4997 668.921 27.4737 666.135 27.4737ZM664.665 18.7937V26.3537H666.135C668.235 26.3537 669.089 24.8557 669.089 22.5737C669.089 20.2777 668.235 18.7937 666.135 18.7937H664.665Z" fill="#141312" style="fill:#141312;fill:color(display-p3 0.0784 0.0745 0.0706);fill-opacity:1;"/>
<path d="M658.433 27.5577C656.585 27.5577 655.311 26.6897 655.283 25.1217H656.459C656.501 25.9617 657.243 26.5777 658.433 26.5777C659.441 26.5777 660.155 26.1437 660.155 25.4857C660.155 24.5897 659.371 24.5197 658.307 24.3937C656.711 24.1977 655.437 23.8757 655.437 22.3917C655.437 21.0897 656.627 20.2497 658.237 20.2497C659.861 20.2497 661.037 21.0197 661.149 22.5037H659.973C659.889 21.7757 659.217 21.2297 658.237 21.2297C657.243 21.2297 656.571 21.6497 656.571 22.3077C656.571 23.0917 657.327 23.1897 658.363 23.3157C659.987 23.5117 661.289 23.8197 661.289 25.4017C661.289 26.7317 660.015 27.5577 658.433 27.5577Z" fill="#141312" style="fill:#141312;fill:color(display-p3 0.0784 0.0745 0.0706);fill-opacity:1;"/>
<path d="M648.183 27.4737H647.035V17.6737H648.183V24.1277L652.061 20.3337H653.531L650.451 23.3437L653.657 27.4737H652.243L649.653 24.1137L648.183 25.5557V27.4737Z" fill="#141312" style="fill:#141312;fill:color(display-p3 0.0784 0.0745 0.0706);fill-opacity:1;"/>
<path d="M641.672 27.5577C639.586 27.5577 638.214 26.1437 638.214 23.9177C638.214 21.7337 639.628 20.2497 641.7 20.2497C643.45 20.2497 644.556 21.2297 644.85 22.7977H643.646C643.436 21.8457 642.736 21.2717 641.686 21.2717C640.314 21.2717 639.39 22.3637 639.39 23.9177C639.39 25.4717 640.314 26.5357 641.686 26.5357C642.708 26.5357 643.408 25.9477 643.632 25.0377H644.85C644.57 26.5777 643.408 27.5577 641.672 27.5577Z" fill="#141312" style="fill:#141312;fill:color(display-p3 0.0784 0.0745 0.0706);fill-opacity:1;"/>
<path d="M633.088 27.5577C631.002 27.5577 629.546 26.0737 629.546 23.9037C629.546 21.7337 631.002 20.2497 633.088 20.2497C635.174 20.2497 636.63 21.7337 636.63 23.9037C636.63 26.0737 635.174 27.5577 633.088 27.5577ZM633.088 26.5357C634.502 26.5357 635.454 25.4297 635.454 23.9037C635.454 22.3777 634.502 21.2717 633.088 21.2717C631.674 21.2717 630.722 22.3777 630.722 23.9037C630.722 25.4297 631.674 26.5357 633.088 26.5357Z" fill="#141312" style="fill:#141312;fill:color(display-p3 0.0784 0.0745 0.0706);fill-opacity:1;"/>
<path d="M622.796 27.4737H621.578V17.6737H624.896C626.856 17.6737 628.158 18.8497 628.158 20.6837C628.158 22.0557 627.332 23.1197 626.072 23.4697L628.27 27.4737H626.898L624.826 23.7077H622.796V27.4737ZM622.796 18.7937V22.5877H624.798C626.086 22.5877 626.912 21.8317 626.912 20.6837C626.912 19.5357 626.086 18.7937 624.812 18.7937H622.796Z" fill="#141312" style="fill:#141312;fill:color(display-p3 0.0784 0.0745 0.0706);fill-opacity:1;"/>
<path d="M796.824 75.8024C796.824 67.5181 803.54 60.8024 811.824 60.8024H907.824C916.108 60.8024 922.824 67.5181 922.824 75.8024V75.8024C922.824 84.0866 916.108 90.8024 907.824 90.8024H811.824C803.54 90.8024 796.824 84.0866 796.824 75.8024V75.8024Z" fill="#FFB483" style="fill:#FFB483;fill:color(display-p3 1.0000 0.7071 0.5118);fill-opacity:1;"/>
<path d="M909.154 71.0024V72.0104H906.634V79.7944H909.154V80.8024H902.896V79.7944H905.416V72.0104H902.896V71.0024H909.154Z" fill="#141312" style="fill:#141312;fill:color(display-p3 0.0784 0.0745 0.0706);fill-opacity:1;"/>
<path d="M895.811 80.8024H894.593V71.0024H898.009C899.969 71.0024 901.257 72.1784 901.257 74.0124C901.257 75.8464 899.969 77.0364 898.009 77.0364H895.811V80.8024ZM895.811 72.1224V75.9164H897.897C899.185 75.9164 900.011 75.1744 900.011 74.0124C900.011 72.8504 899.199 72.1224 897.911 72.1224H895.811Z" fill="#141312" style="fill:#141312;fill:color(display-p3 0.0784 0.0745 0.0706);fill-opacity:1;"/>
<path d="M886.429 80.8024H885.183L888.473 71.0024H889.985L893.275 80.8024H891.987L891.105 78.1564H887.311L886.429 80.8024ZM889.201 72.3324L887.661 77.0504H890.755L889.201 72.3324Z" fill="#141312" style="fill:#141312;fill:color(display-p3 0.0784 0.0745 0.0706);fill-opacity:1;"/>
<path d="M872.566 80.8864C870.718 80.8864 869.444 80.0184 869.416 78.4504H870.592C870.634 79.2904 871.376 79.9064 872.566 79.9064C873.574 79.9064 874.288 79.4724 874.288 78.8144C874.288 77.9184 873.504 77.8484 872.44 77.7224C870.844 77.5264 869.57 77.2044 869.57 75.7204C869.57 74.4184 870.76 73.5784 872.37 73.5784C873.994 73.5784 875.17 74.3484 875.282 75.8324H874.106C874.022 75.1044 873.35 74.5584 872.37 74.5584C871.376 74.5584 870.704 74.9784 870.704 75.6364C870.704 76.4204 871.46 76.5184 872.496 76.6444C874.12 76.8404 875.422 77.1484 875.422 78.7304C875.422 80.0604 874.148 80.8864 872.566 80.8864Z" fill="#141312" style="fill:#141312;fill:color(display-p3 0.0784 0.0745 0.0706);fill-opacity:1;"/>
<path d="M864.696 79.7524H867.216V80.8024H861.028V79.7524H863.548V72.0524H861.028V71.0024H864.696V79.7524Z" fill="#141312" style="fill:#141312;fill:color(display-p3 0.0784 0.0745 0.0706);fill-opacity:1;"/>
<path d="M858.8 79.7524H859.164V80.8024H858.534C857.582 80.8024 857.26 80.3964 857.246 79.6964C856.798 80.3404 856.084 80.8864 854.852 80.8864C853.284 80.8864 852.22 80.1024 852.22 78.8004C852.22 77.3724 853.214 76.5744 855.09 76.5744H857.19V76.0844C857.19 75.1604 856.532 74.6004 855.412 74.6004C854.404 74.6004 853.732 75.0764 853.592 75.8044H852.444C852.612 74.4044 853.746 73.5784 855.468 73.5784C857.288 73.5784 858.338 74.4884 858.338 76.1544V79.2764C858.338 79.6544 858.478 79.7524 858.8 79.7524ZM857.19 77.8904V77.5404H854.978C853.956 77.5404 853.382 77.9184 853.382 78.7304C853.382 79.4304 853.984 79.9064 854.936 79.9064C856.364 79.9064 857.19 79.0804 857.19 77.8904Z" fill="#141312" style="fill:#141312;fill:color(display-p3 0.0784 0.0745 0.0706);fill-opacity:1;"/>
<path d="M847.557 73.5784C849.069 73.5784 850.329 74.4324 850.329 76.7424V80.8024H849.181V76.8124C849.181 75.3844 848.509 74.6284 847.361 74.6284C846.115 74.6284 845.317 75.5944 845.317 77.0084V80.8024H844.169V73.6624H845.163L845.317 74.6284C845.737 74.0824 846.437 73.5784 847.557 73.5784Z" fill="#141312" style="fill:#141312;fill:color(display-p3 0.0784 0.0745 0.0706);fill-opacity:1;"/>
<path d="M839.071 72.4024C838.553 72.4024 838.147 72.0104 838.147 71.4784C838.147 70.9604 838.553 70.5684 839.071 70.5684C839.589 70.5684 839.995 70.9604 839.995 71.4784C839.995 72.0104 839.589 72.4024 839.071 72.4024ZM839.631 79.7524H842.151V80.8024H835.963V79.7524H838.483V74.7124H835.963V73.6624H839.631V79.7524Z" fill="#141312" style="fill:#141312;fill:color(display-p3 0.0784 0.0745 0.0706);fill-opacity:1;"/>
<path d="M832.686 74.7544V71.0024H833.834V80.8024H832.84L832.686 79.6544C832.21 80.3124 831.44 80.8864 830.236 80.8864C828.262 80.8864 826.806 79.5564 826.806 77.2324C826.806 75.0484 828.262 73.5784 830.236 73.5784C831.44 73.5784 832.252 74.0684 832.686 74.7544ZM830.348 79.8644C831.748 79.8644 832.7 78.7864 832.7 77.2604C832.7 75.6924 831.748 74.6004 830.348 74.6004C828.934 74.6004 827.982 75.6784 827.982 77.2324C827.982 78.7864 828.934 79.8644 830.348 79.8644Z" fill="#141312" style="fill:#141312;fill:color(display-p3 0.0784 0.0745 0.0706);fill-opacity:1;"/>
<path d="M825.348 74.7824H824.032C822.31 74.7824 821.792 76.0704 821.792 77.2044V79.7524H824.956V80.8024H818.88V79.7524H820.644V74.7124H818.88V73.6624H821.764V74.8944C822.086 74.3484 822.758 73.6624 824.158 73.6624H825.348V74.7824Z" fill="#141312" style="fill:#141312;fill:color(display-p3 0.0784 0.0745 0.0706);fill-opacity:1;"/>
<path d="M813.614 80.8864C811.36 80.8864 809.974 79.0104 809.974 75.9024C809.974 72.7944 811.36 70.9184 813.614 70.9184C815.868 70.9184 817.254 72.7944 817.254 75.9024C817.254 79.0104 815.868 80.8864 813.614 80.8864ZM813.614 79.7664C815.182 79.7664 816.008 78.4224 816.008 75.9024C816.008 73.3824 815.182 72.0384 813.614 72.0384C812.046 72.0384 811.22 73.3684 811.22 75.9024C811.22 78.4364 812.046 79.7664 813.614 79.7664Z" fill="#141312" style="fill:#141312;fill:color(display-p3 0.0784 0.0745 0.0706);fill-opacity:1;"/>
<path d="M796.824 120.889C796.824 112.605 803.54 105.889 811.824 105.889H881.824C890.108 105.889 896.824 112.605 896.824 120.889V120.889C896.824 129.174 890.108 135.889 881.824 135.889H811.824C803.54 135.889 796.824 129.174 796.824 120.889V120.889Z" fill="#FFB483" style="fill:#FFB483;fill:color(display-p3 1.0000 0.7071 0.5118);fill-opacity:1;"/>
<path d="M883.552 116.089V117.097H881.032V124.881H883.552V125.889H877.294V124.881H879.814V117.097H877.294V116.089H883.552Z" fill="#141312" style="fill:#141312;fill:color(display-p3 0.0784 0.0745 0.0706);fill-opacity:1;"/>
<path d="M870.208 125.889H868.99V116.089H872.406C874.366 116.089 875.654 117.265 875.654 119.099C875.654 120.933 874.366 122.123 872.406 122.123H870.208V125.889ZM870.208 117.209V121.003H872.294C873.582 121.003 874.408 120.261 874.408 119.099C874.408 117.937 873.596 117.209 872.308 117.209H870.208Z" fill="#141312" style="fill:#141312;fill:color(display-p3 0.0784 0.0745 0.0706);fill-opacity:1;"/>
<path d="M860.827 125.889H859.581L862.871 116.089H864.383L867.673 125.889H866.385L865.503 123.243H861.709L860.827 125.889ZM863.599 117.419L862.059 122.137H865.153L863.599 117.419Z" fill="#141312" style="fill:#141312;fill:color(display-p3 0.0784 0.0745 0.0706);fill-opacity:1;"/>
<path d="M846.963 125.973C845.115 125.973 843.841 125.105 843.813 123.537H844.989C845.031 124.377 845.773 124.993 846.963 124.993C847.971 124.993 848.685 124.559 848.685 123.901C848.685 123.005 847.901 122.935 846.837 122.809C845.241 122.613 843.967 122.291 843.967 120.807C843.967 119.505 845.157 118.665 846.767 118.665C848.391 118.665 849.567 119.435 849.679 120.919H848.503C848.419 120.191 847.747 119.645 846.767 119.645C845.773 119.645 845.101 120.065 845.101 120.723C845.101 121.507 845.857 121.605 846.893 121.731C848.517 121.927 849.819 122.235 849.819 123.817C849.819 125.147 848.545 125.973 846.963 125.973Z" fill="#141312" style="fill:#141312;fill:color(display-p3 0.0784 0.0745 0.0706);fill-opacity:1;"/>
<path d="M841.782 122.571H836.238V122.641C836.28 123.999 837.134 124.951 838.492 124.951C839.5 124.951 840.284 124.419 840.522 123.495H841.684C841.404 124.923 840.228 125.973 838.576 125.973C836.434 125.973 835.034 124.503 835.034 122.319C835.034 120.149 836.406 118.665 838.422 118.665C840.438 118.665 841.754 119.939 841.81 122.053C841.81 122.151 841.796 122.403 841.782 122.571ZM838.436 119.673C837.386 119.673 836.42 120.429 836.308 121.591H840.578C840.466 120.359 839.626 119.673 838.436 119.673Z" fill="#141312" style="fill:#141312;fill:color(display-p3 0.0784 0.0745 0.0706);fill-opacity:1;"/>
<path d="M830.356 118.665C831.868 118.665 833.128 119.519 833.128 121.829V125.889H831.98V121.899C831.98 120.471 831.308 119.715 830.16 119.715C828.914 119.715 828.116 120.681 828.116 122.095V125.889H826.968V118.749H827.962L828.116 119.715C828.536 119.169 829.236 118.665 830.356 118.665Z" fill="#141312" style="fill:#141312;fill:color(display-p3 0.0784 0.0745 0.0706);fill-opacity:1;"/>
<path d="M823.495 122.515V118.749H824.643V125.889H823.649L823.495 124.937C823.075 125.469 822.389 125.973 821.283 125.973C819.785 125.973 818.539 125.119 818.539 122.809V118.749H819.687V122.739C819.687 124.167 820.359 124.923 821.479 124.923C822.711 124.923 823.495 123.957 823.495 122.515Z" fill="#141312" style="fill:#141312;fill:color(display-p3 0.0784 0.0745 0.0706);fill-opacity:1;"/>
<path d="M811.327 125.889H810.109V116.089H813.427C815.387 116.089 816.689 117.265 816.689 119.099C816.689 120.471 815.863 121.535 814.603 121.885L816.801 125.889H815.429L813.357 122.123H811.327V125.889ZM811.327 117.209V121.003H813.329C814.617 121.003 815.443 120.247 815.443 119.099C815.443 117.951 814.617 117.209 813.343 117.209H811.327Z" fill="#141312" style="fill:#141312;fill:color(display-p3 0.0784 0.0745 0.0706);fill-opacity:1;"/>
<path d="M796.824 165.976C796.824 157.692 803.54 150.976 811.824 150.976H890.824C899.108 150.976 905.824 157.692 905.824 165.976V165.976C905.824 174.261 899.108 180.976 890.824 180.976H811.824C803.54 180.976 796.824 174.261 796.824 165.976V165.976Z" fill="#FFB483" style="fill:#FFB483;fill:color(display-p3 1.0000 0.7071 0.5118);fill-opacity:1;"/>
<path d="M892.253 161.176V162.184H889.733V169.968H892.253V170.976H885.995V169.968H888.515V162.184H885.995V161.176H892.253Z" fill="#141312" style="fill:#141312;fill:color(display-p3 0.0784 0.0745 0.0706);fill-opacity:1;"/>
<path d="M878.909 170.976H877.691V161.176H881.107C883.067 161.176 884.355 162.352 884.355 164.186C884.355 166.02 883.067 167.21 881.107 167.21H878.909V170.976ZM878.909 162.296V166.09H880.995C882.283 166.09 883.109 165.348 883.109 164.186C883.109 163.024 882.297 162.296 881.009 162.296H878.909Z" fill="#141312" style="fill:#141312;fill:color(display-p3 0.0784 0.0745 0.0706);fill-opacity:1;"/>
<path d="M869.527 170.976H868.281L871.571 161.176H873.083L876.373 170.976H875.085L874.203 168.33H870.409L869.527 170.976ZM872.299 162.506L870.759 167.224H873.853L872.299 162.506Z" fill="#141312" style="fill:#141312;fill:color(display-p3 0.0784 0.0745 0.0706);fill-opacity:1;"/>
<path d="M855.524 161.092C857.666 161.092 858.996 162.87 858.996 165.852V166.3C858.996 169.282 857.666 171.06 855.524 171.06C853.382 171.06 852.052 169.282 852.052 166.3V165.852C852.052 162.87 853.382 161.092 855.524 161.092ZM853.214 165.894V166.258C853.214 166.804 853.256 167.294 853.34 167.714L857.33 163.318C856.938 162.548 856.322 162.142 855.524 162.142C854.068 162.142 853.214 163.514 853.214 165.894ZM857.834 166.258V165.894C857.834 165.348 857.792 164.858 857.708 164.424L853.718 168.848C854.124 169.59 854.74 169.996 855.524 169.996C856.98 169.996 857.834 168.638 857.834 166.258Z" fill="#141312" style="fill:#141312;fill:color(display-p3 0.0784 0.0745 0.0706);fill-opacity:1;"/>
<path d="M850.371 170.976H843.805V169.982L847.501 166.678C848.397 165.88 849.097 165.124 849.097 164.074C849.097 162.842 848.285 162.142 847.053 162.142C845.849 162.142 845.037 162.982 845.037 164.326V164.508H843.861V164.256C843.861 162.408 845.121 161.092 847.053 161.092C849.097 161.092 850.301 162.254 850.301 164.018C850.301 165.474 849.391 166.412 848.257 167.406L845.429 169.898H850.371V170.976Z" fill="#141312" style="fill:#141312;fill:color(display-p3 0.0784 0.0745 0.0706);fill-opacity:1;"/>
<path d="M841.899 167.476H835.543V166.51H841.899V167.476Z" fill="#141312" style="fill:#141312;fill:color(display-p3 0.0784 0.0745 0.0706);fill-opacity:1;"/>
<path d="M830.557 171.06C828.079 171.06 826.679 169.268 826.679 166.076C826.679 162.87 828.079 161.092 830.599 161.092C832.447 161.092 833.693 162.268 834.071 164.382H832.783C832.461 162.912 831.747 162.212 830.599 162.212C828.863 162.212 827.925 163.57 827.925 166.076C827.925 168.624 828.821 169.94 830.557 169.94C831.733 169.94 832.433 169.254 832.769 167.77H834.057C833.679 169.898 832.447 171.06 830.557 171.06Z" fill="#141312" style="fill:#141312;fill:color(display-p3 0.0784 0.0745 0.0706);fill-opacity:1;"/>
<path d="M820.028 170.976H818.81V161.176H822.128C824.088 161.176 825.39 162.352 825.39 164.186C825.39 165.558 824.564 166.622 823.304 166.972L825.502 170.976H824.13L822.058 167.21H820.028V170.976ZM820.028 162.296V166.09H822.03C823.318 166.09 824.144 165.334 824.144 164.186C824.144 163.038 823.318 162.296 822.044 162.296H820.028Z" fill="#141312" style="fill:#141312;fill:color(display-p3 0.0784 0.0745 0.0706);fill-opacity:1;"/>
<path d="M813.558 170.976H810.408V161.176H813.46C815.546 161.176 816.596 162.184 816.596 163.766C816.596 164.886 815.98 165.572 815.056 165.894C816.092 166.09 817.002 166.762 817.002 168.176C817.002 169.912 815.882 170.976 813.558 170.976ZM811.626 162.282V165.432H813.516C814.776 165.432 815.378 164.844 815.378 163.85C815.378 162.87 814.79 162.282 813.516 162.282H811.626ZM811.626 166.524V169.87H813.558C815.07 169.87 815.756 169.24 815.756 168.232C815.756 167.126 815.014 166.524 813.558 166.524H811.626Z" fill="#141312" style="fill:#141312;fill:color(display-p3 0.0784 0.0745 0.0706);fill-opacity:1;"/>
<rect x="603.999" y="98.8893" width="117" height="44" rx="22" fill="#B3D9FF" style="fill:#B3D9FF;fill:color(display-p3 0.7020 0.8510 1.0000);fill-opacity:1;"/>
<path d="M703.581 125.889H697.617V116.089H698.835V124.769H703.581V125.889Z" fill="#141312" style="fill:#141312;fill:color(display-p3 0.0784 0.0745 0.0706);fill-opacity:1;"/>
<path d="M695.249 124.825H695.725V125.889H695.109C694.507 125.889 694.115 125.777 693.793 125.413C693.261 125.777 692.631 125.973 691.903 125.973C689.649 125.973 688.263 124.097 688.263 120.989C688.263 117.881 689.649 116.005 691.903 116.005C694.157 116.005 695.543 117.881 695.543 120.989C695.543 122.529 695.193 123.775 694.577 124.629C694.759 124.797 694.955 124.825 695.249 124.825ZM689.509 120.989C689.509 123.523 690.335 124.853 691.903 124.853C692.421 124.853 692.855 124.713 693.205 124.419L692.701 123.481C692.505 123.117 692.365 122.935 691.847 122.935H691.021V121.871H691.903C692.743 121.871 693.177 122.137 693.541 122.809L693.891 123.467C694.157 122.851 694.297 122.011 694.297 120.989C694.297 118.469 693.471 117.125 691.903 117.125C690.335 117.125 689.509 118.455 689.509 120.989Z" fill="#141312" style="fill:#141312;fill:color(display-p3 0.0784 0.0745 0.0706);fill-opacity:1;"/>
<path d="M683.684 125.973C681.472 125.973 680.03 124.699 679.96 122.683H681.22C681.318 124.013 682.298 124.867 683.698 124.867C684.986 124.867 685.812 124.223 685.812 123.201C685.812 122.249 685.196 121.815 683.264 121.479C681.15 121.115 680.198 120.275 680.198 118.791C680.198 117.125 681.5 116.005 683.404 116.005C685.434 116.005 686.792 117.167 686.904 118.987H685.644C685.518 117.839 684.636 117.111 683.404 117.111C682.158 117.111 681.416 117.713 681.416 118.721C681.416 119.645 682.004 120.051 683.936 120.387C686.05 120.737 687.03 121.605 687.03 123.089C687.03 124.783 685.658 125.973 683.684 125.973Z" fill="#141312" style="fill:#141312;fill:color(display-p3 0.0784 0.0745 0.0706);fill-opacity:1;"/>
<path d="M678.46 122.571H672.916V122.641C672.958 123.999 673.812 124.951 675.17 124.951C676.178 124.951 676.962 124.419 677.2 123.495H678.362C678.082 124.923 676.906 125.973 675.254 125.973C673.112 125.973 671.712 124.503 671.712 122.319C671.712 120.149 673.084 118.665 675.1 118.665C677.116 118.665 678.432 119.939 678.488 122.053C678.488 122.151 678.474 122.403 678.46 122.571ZM675.114 119.673C674.064 119.673 673.098 120.429 672.986 121.591H677.256C677.144 120.359 676.304 119.673 675.114 119.673Z" fill="#141312" style="fill:#141312;fill:color(display-p3 0.0784 0.0745 0.0706);fill-opacity:1;"/>
<path d="M670.031 119.869H668.715C666.993 119.869 666.475 121.157 666.475 122.291V124.839H669.639V125.889H663.562V124.839H665.326V119.799H663.562V118.749H666.447V119.981C666.769 119.435 667.441 118.749 668.841 118.749H670.031V119.869Z" fill="#141312" style="fill:#141312;fill:color(display-p3 0.0784 0.0745 0.0706);fill-opacity:1;"/>
<path d="M660.565 119.981L660.719 118.749H661.713V125.539C661.713 127.597 660.621 128.773 658.171 128.773C656.351 128.773 655.077 127.919 654.895 126.351H656.071C656.267 127.247 657.065 127.751 658.255 127.751C659.753 127.751 660.565 127.051 660.565 125.497V124.657C660.089 125.469 659.319 125.973 658.115 125.973C656.141 125.973 654.685 124.643 654.685 122.319C654.685 120.135 656.141 118.665 658.115 118.665C659.319 118.665 660.117 119.183 660.565 119.981ZM658.227 124.951C659.627 124.951 660.579 123.873 660.579 122.347C660.579 120.779 659.627 119.687 658.227 119.687C656.813 119.687 655.861 120.765 655.861 122.319C655.861 123.873 656.813 124.951 658.227 124.951Z" fill="#141312" style="fill:#141312;fill:color(display-p3 0.0784 0.0745 0.0706);fill-opacity:1;"/>
<path d="M653.115 125.889H650.609C649.237 125.889 648.747 125.287 648.747 124.027V119.799H646.479V118.749H648.747V116.747H649.895V118.749H653.003V119.799H649.895V124.013C649.895 124.615 650.105 124.839 650.721 124.839H653.115V125.889Z" fill="#141312" style="fill:#141312;fill:color(display-p3 0.0784 0.0745 0.0706);fill-opacity:1;"/>
<path d="M641.634 125.973C639.786 125.973 638.512 125.105 638.484 123.537H639.66C639.702 124.377 640.444 124.993 641.634 124.993C642.642 124.993 643.356 124.559 643.356 123.901C643.356 123.005 642.572 122.935 641.508 122.809C639.912 122.613 638.638 122.291 638.638 120.807C638.638 119.505 639.828 118.665 641.438 118.665C643.062 118.665 644.238 119.435 644.35 120.919H643.174C643.09 120.191 642.418 119.645 641.438 119.645C640.444 119.645 639.772 120.065 639.772 120.723C639.772 121.507 640.528 121.605 641.564 121.731C643.188 121.927 644.49 122.235 644.49 123.817C644.49 125.147 643.216 125.973 641.634 125.973Z" fill="#141312" style="fill:#141312;fill:color(display-p3 0.0784 0.0745 0.0706);fill-opacity:1;"/>
<path d="M633.092 125.973C631.006 125.973 629.55 124.489 629.55 122.319C629.55 120.149 631.006 118.665 633.092 118.665C635.178 118.665 636.634 120.149 636.634 122.319C636.634 124.489 635.178 125.973 633.092 125.973ZM633.092 124.951C634.506 124.951 635.458 123.845 635.458 122.319C635.458 120.793 634.506 119.687 633.092 119.687C631.678 119.687 630.726 120.793 630.726 122.319C630.726 123.845 631.678 124.951 633.092 124.951Z" fill="#141312" style="fill:#141312;fill:color(display-p3 0.0784 0.0745 0.0706);fill-opacity:1;"/>
<path d="M622.87 125.889H621.652V116.089H625.068C627.028 116.089 628.316 117.265 628.316 119.099C628.316 120.933 627.028 122.123 625.068 122.123H622.87V125.889ZM622.87 117.209V121.003H624.956C626.244 121.003 627.07 120.261 627.07 119.099C627.07 117.937 626.258 117.209 624.97 117.209H622.87Z" fill="#141312" style="fill:#141312;fill:color(display-p3 0.0784 0.0745 0.0706);fill-opacity:1;"/>
<rect x="-0.000854492" y="42.5851" width="178" height="58" rx="8.22443" fill="#CFC9C2" style="fill:#CFC9C2;fill:color(display-p3 0.8118 0.7882 0.7608);fill-opacity:1;"/>
<path d="M30.9837 70.569C31.4853 70.086 31.8377 69.4691 31.9988 68.7917C32.1599 68.1143 32.1231 67.4048 31.8927 66.7477C31.6622 66.0906 31.2479 65.5135 30.699 65.0851C30.15 64.6567 29.4896 64.3949 28.7962 64.331V62.9935C28.7962 62.8183 28.7266 62.6502 28.6026 62.5262C28.4787 62.4023 28.3106 62.3326 28.1353 62.3326C27.96 62.3326 27.7919 62.4023 27.668 62.5262C27.544 62.6502 27.4744 62.8183 27.4744 62.9935V64.3153H26.1526V62.9935C26.1526 62.8183 26.083 62.6502 25.959 62.5262C25.8351 62.4023 25.667 62.3326 25.4917 62.3326C25.3164 62.3326 25.1483 62.4023 25.0244 62.5262C24.9005 62.6502 24.8308 62.8183 24.8308 62.9935V64.3153H22.1873C22.012 64.3153 21.8439 64.3849 21.7199 64.5089C21.596 64.6328 21.5264 64.8009 21.5264 64.9762C21.5264 65.1515 21.596 65.3196 21.7199 65.4435C21.8439 65.5675 22.012 65.6371 22.1873 65.6371H22.8482V76.8723H22.1873C22.012 76.8723 21.8439 76.9419 21.7199 77.0658C21.596 77.1898 21.5264 77.3579 21.5264 77.5332C21.5264 77.7084 21.596 77.8765 21.7199 78.0005C21.8439 78.1244 22.012 78.194 22.1873 78.194H24.8308V79.5158C24.8308 79.6911 24.9005 79.8592 25.0244 79.9832C25.1483 80.1071 25.3164 80.1767 25.4917 80.1767C25.667 80.1767 25.8351 80.1071 25.959 79.9832C26.083 79.8592 26.1526 79.6911 26.1526 79.5158V78.194H27.4744V79.5158C27.4744 79.6911 27.544 79.8592 27.668 79.9832C27.7919 80.1071 27.96 80.1767 28.1353 80.1767C28.3106 80.1767 28.4787 80.1071 28.6026 79.9832C28.7266 79.8592 28.7962 79.6911 28.7962 79.5158V78.194H29.4571C30.3736 78.1941 31.2619 77.8765 31.9707 77.2955C32.6796 76.7145 33.1653 75.9059 33.3453 75.0072C33.5252 74.1085 33.3882 73.1752 32.9577 72.366C32.5272 71.5569 31.8296 70.9219 30.9837 70.569ZM30.7789 67.9502C30.7789 68.5637 30.5352 69.1521 30.1014 69.5858C29.6676 70.0196 29.0792 70.2633 28.4657 70.2633H24.1699V65.6371H28.4657C29.0792 65.6371 29.6676 65.8808 30.1014 66.3146C30.5352 66.7484 30.7789 67.3367 30.7789 67.9502ZM29.4571 76.8723H24.1699V71.5851H29.4571C30.1582 71.5851 30.8306 71.8636 31.3264 72.3594C31.8221 72.8552 32.1006 73.5276 32.1006 74.2287C32.1006 74.9298 31.8221 75.6022 31.3264 76.098C30.8306 76.5937 30.1582 76.8723 29.4571 76.8723Z" fill="#141312" style="fill:#141312;fill:color(display-p3 0.0784 0.0745 0.0706);fill-opacity:1;"/>
<path d="M159.519 73.7931H153.183V73.8731C153.231 75.4251 154.207 76.5131 155.759 76.5131C156.911 76.5131 157.807 75.9051 158.079 74.8491H159.407C159.087 76.4811 157.743 77.6811 155.855 77.6811C153.407 77.6811 151.807 76.0011 151.807 73.5051C151.807 71.0251 153.375 69.3291 155.679 69.3291C157.983 69.3291 159.487 70.7851 159.551 73.2011C159.551 73.3131 159.535 73.6011 159.519 73.7931ZM155.695 70.4811C154.495 70.4811 153.391 71.3451 153.263 72.6731H158.143C158.015 71.2651 157.055 70.4811 155.695 70.4811Z" fill="#141312" style="fill:#141312;fill:color(display-p3 0.0784 0.0745 0.0706);fill-opacity:1;"/>
<path d="M148.669 70.6731V66.3851H149.981V77.5851H148.845L148.669 76.2731C148.125 77.0251 147.245 77.6811 145.869 77.6811C143.613 77.6811 141.949 76.1611 141.949 73.5051C141.949 71.0091 143.613 69.3291 145.869 69.3291C147.245 69.3291 148.173 69.8891 148.669 70.6731ZM145.997 76.5131C147.597 76.5131 148.685 75.2811 148.685 73.5371C148.685 71.7451 147.597 70.4971 145.997 70.4971C144.381 70.4971 143.293 71.7291 143.293 73.5051C143.293 75.2811 144.381 76.5131 145.997 76.5131Z" fill="#141312" style="fill:#141312;fill:color(display-p3 0.0784 0.0745 0.0706);fill-opacity:1;"/>
<path d="M136.475 77.6811C134.091 77.6811 132.427 75.9851 132.427 73.5051C132.427 71.0251 134.091 69.3291 136.475 69.3291C138.859 69.3291 140.523 71.0251 140.523 73.5051C140.523 75.9851 138.859 77.6811 136.475 77.6811ZM136.475 76.5131C138.091 76.5131 139.179 75.2491 139.179 73.5051C139.179 71.7611 138.091 70.4971 136.475 70.4971C134.859 70.4971 133.771 71.7611 133.771 73.5051C133.771 75.2491 134.859 76.5131 136.475 76.5131Z" fill="#141312" style="fill:#141312;fill:color(display-p3 0.0784 0.0745 0.0706);fill-opacity:1;"/>
<path d="M127.257 69.3291C128.985 69.3291 130.425 70.3051 130.425 72.9451V77.5851H129.113V73.0251C129.113 71.3931 128.345 70.5291 127.033 70.5291C125.609 70.5291 124.697 71.6331 124.697 73.2491V77.5851H123.385V69.4251H124.521L124.697 70.5291C125.177 69.9051 125.977 69.3291 127.257 69.3291Z" fill="#141312" style="fill:#141312;fill:color(display-p3 0.0784 0.0745 0.0706);fill-opacity:1;"/>
<path d="M108.053 69.3291C109.781 69.3291 111.221 70.3051 111.221 72.9451V77.5851H109.909V73.0251C109.909 71.3931 109.141 70.5291 107.829 70.5291C106.405 70.5291 105.493 71.6331 105.493 73.2491V77.5851H104.181V69.4251H105.317L105.493 70.5291C105.973 69.9051 106.773 69.3291 108.053 69.3291Z" fill="#141312" style="fill:#141312;fill:color(display-p3 0.0784 0.0745 0.0706);fill-opacity:1;"/>
<path d="M98.3556 67.9852C97.7636 67.9852 97.2996 67.5372 97.2996 66.9292C97.2996 66.3372 97.7636 65.8892 98.3556 65.8892C98.9476 65.8892 99.4116 66.3372 99.4116 66.9292C99.4116 67.5372 98.9476 67.9852 98.3556 67.9852ZM98.9956 76.3852H101.876V77.5852H94.8036V76.3852H97.6836V70.6252H94.8036V69.4252H98.9956V76.3852Z" fill="#141312" style="fill:#141312;fill:color(display-p3 0.0784 0.0745 0.0706);fill-opacity:1;"/>
<path d="M88.4657 77.6811C86.0817 77.6811 84.4177 75.9851 84.4177 73.5051C84.4177 71.0251 86.0817 69.3291 88.4657 69.3291C90.8497 69.3291 92.5137 71.0251 92.5137 73.5051C92.5137 75.9851 90.8497 77.6811 88.4657 77.6811ZM88.4657 76.5131C90.0817 76.5131 91.1697 75.2491 91.1697 73.5051C91.1697 71.7611 90.0817 70.4971 88.4657 70.4971C86.8497 70.4971 85.7617 71.7611 85.7617 73.5051C85.7617 75.2491 86.8497 76.5131 88.4657 76.5131Z" fill="#141312" style="fill:#141312;fill:color(display-p3 0.0784 0.0745 0.0706);fill-opacity:1;"/>
<path d="M79.0718 77.6811C76.6878 77.6811 75.1198 76.0651 75.1198 73.5211C75.1198 71.0251 76.7358 69.3291 79.1038 69.3291C81.1038 69.3291 82.3678 70.4491 82.7038 72.2411H81.3278C81.0878 71.1531 80.2877 70.4971 79.0877 70.4971C77.5197 70.4971 76.4638 71.7451 76.4638 73.5211C76.4638 75.2971 77.5197 76.5131 79.0877 76.5131C80.2557 76.5131 81.0558 75.8411 81.3118 74.8011H82.7038C82.3838 76.5611 81.0558 77.6811 79.0718 77.6811Z" fill="#141312" style="fill:#141312;fill:color(display-p3 0.0784 0.0745 0.0706);fill-opacity:1;"/>
<path d="M72.9419 77.5851H70.0779C68.5099 77.5851 67.9499 76.8971 67.9499 75.4571V70.6251H65.3579V69.4251H67.9499V67.1371H69.2619V69.4251H72.8139V70.6251H69.2619V75.4411C69.2619 76.1291 69.5019 76.3851 70.2059 76.3851H72.9419V77.5851Z" fill="#141312" style="fill:#141312;fill:color(display-p3 0.0784 0.0745 0.0706);fill-opacity:1;"/>
<path d="M59.948 67.9852C59.356 67.9852 58.892 67.5372 58.892 66.9292C58.892 66.3372 59.356 65.8892 59.948 65.8892C60.54 65.8892 61.004 66.3372 61.004 66.9292C61.004 67.5372 60.54 67.9852 59.948 67.9852ZM60.588 76.3852H63.468V77.5852H56.396V76.3852H59.276V70.6252H56.396V69.4252H60.588V76.3852Z" fill="#141312" style="fill:#141312;fill:color(display-p3 0.0784 0.0745 0.0706);fill-opacity:1;"/>
<path d="M50.1062 77.5851H46.5062V66.3851H49.9942C52.3782 66.3851 53.5782 67.5371 53.5782 69.3451C53.5782 70.6251 52.8742 71.4091 51.8182 71.7771C53.0022 72.0011 54.0422 72.7691 54.0422 74.3851C54.0422 76.3691 52.7622 77.5851 50.1062 77.5851ZM47.8982 67.6491V71.2491H50.0582C51.4982 71.2491 52.1862 70.5771 52.1862 69.4411C52.1862 68.3211 51.5142 67.6491 50.0582 67.6491H47.8982ZM47.8982 72.4971V76.3211H50.1062C51.8342 76.3211 52.6182 75.6011 52.6182 74.4491C52.6182 73.1851 51.7702 72.4971 50.1062 72.4971H47.8982Z" fill="#141312" style="fill:#141312;fill:color(display-p3 0.0784 0.0745 0.0706);fill-opacity:1;"/>
<path d="M304.249 72.0803C304.542 71.7874 304.542 71.3125 304.249 71.0196L299.476 66.2466C299.184 65.9537 298.709 65.9537 298.416 66.2466C298.123 66.5395 298.123 67.0144 298.416 67.3073L302.658 71.5499L298.416 75.7926C298.123 76.0855 298.123 76.5603 298.416 76.8532C298.709 77.1461 299.184 77.1461 299.476 76.8532L304.249 72.0803ZM303.719 71.5499V70.7999L183.504 70.7999V71.5499V72.2999L303.719 72.2999V71.5499Z" fill="#8C877D" style="fill:#8C877D;fill:color(display-p3 0.5490 0.5294 0.4902);fill-opacity:1;"/>
<path d="M790.355 121.42C790.647 121.127 790.647 120.652 790.355 120.359L785.582 115.586C785.289 115.293 784.814 115.293 784.521 115.586C784.228 115.879 784.228 116.354 784.521 116.647L788.764 120.889L784.521 125.132C784.228 125.425 784.228 125.9 784.521 126.193C784.814 126.486 785.289 126.486 785.582 126.193L790.355 121.42ZM789.824 120.889V120.139L726.512 120.139V120.889V121.639L789.824 121.639V120.889Z" fill="#8C877D" style="fill:#8C877D;fill:color(display-p3 0.5490 0.5294 0.4902);fill-opacity:1;"/>
<rect x="193.999" y="59.0499" width="98" height="25" rx="5" fill="#B5ACA1" style="fill:#B5ACA1;fill:color(display-p3 0.7098 0.6745 0.6314);fill-opacity:1;"/>
<path d="M281.457 75.1499H281.769V76.0499H281.229C280.413 76.0499 280.137 75.7019 280.125 75.1019C279.741 75.6539 279.129 76.1219 278.073 76.1219C276.729 76.1219 275.817 75.4499 275.817 74.3339C275.817 73.1099 276.669 72.4259 278.277 72.4259H280.077V72.0059C280.077 71.2139 279.513 70.7339 278.553 70.7339C277.689 70.7339 277.113 71.1419 276.993 71.7659H276.009C276.153 70.5659 277.125 69.8579 278.601 69.8579C280.161 69.8579 281.061 70.6379 281.061 72.0659V74.7419C281.061 75.0659 281.181 75.1499 281.457 75.1499ZM280.077 73.5539V73.2539H278.181C277.305 73.2539 276.813 73.5779 276.813 74.2739C276.813 74.8739 277.329 75.2819 278.145 75.2819C279.369 75.2819 280.077 74.5739 280.077 73.5539Z" fill="#141312" style="fill:#141312;fill:color(display-p3 0.0784 0.0745 0.0706);fill-opacity:1;"/>
<path d="M274.292 76.0499H272.144C270.968 76.0499 270.548 75.5339 270.548 74.4539V70.8299H268.604V69.9299H270.548V68.2139H271.532V69.9299H274.196V70.8299H271.532V74.4419C271.532 74.9579 271.712 75.1499 272.24 75.1499H274.292V76.0499Z" fill="#141312" style="fill:#141312;fill:color(display-p3 0.0784 0.0745 0.0706);fill-opacity:1;"/>
<path d="M267.054 75.1499H267.366V76.0499H266.826C266.01 76.0499 265.734 75.7019 265.722 75.1019C265.338 75.6539 264.726 76.1219 263.67 76.1219C262.326 76.1219 261.414 75.4499 261.414 74.3339C261.414 73.1099 262.266 72.4259 263.874 72.4259H265.674V72.0059C265.674 71.2139 265.11 70.7339 264.15 70.7339C263.286 70.7339 262.71 71.1419 262.59 71.7659H261.606C261.75 70.5659 262.722 69.8579 264.198 69.8579C265.758 69.8579 266.658 70.6379 266.658 72.0659V74.7419C266.658 75.0659 266.778 75.1499 267.054 75.1499ZM265.674 73.5539V73.2539H263.778C262.902 73.2539 262.41 73.5779 262.41 74.2739C262.41 74.8739 262.926 75.2819 263.742 75.2819C264.966 75.2819 265.674 74.5739 265.674 73.5539Z" fill="#141312" style="fill:#141312;fill:color(display-p3 0.0784 0.0745 0.0706);fill-opacity:1;"/>
<path d="M259.073 70.8659V67.6499H260.057V76.0499H259.205L259.073 75.0659C258.665 75.6299 258.005 76.1219 256.973 76.1219C255.281 76.1219 254.033 74.9819 254.033 72.9899C254.033 71.1179 255.281 69.8579 256.973 69.8579C258.005 69.8579 258.701 70.2779 259.073 70.8659ZM257.069 75.2459C258.269 75.2459 259.085 74.3219 259.085 73.0139C259.085 71.6699 258.269 70.7339 257.069 70.7339C255.857 70.7339 255.041 71.6579 255.041 72.9899C255.041 74.3219 255.857 75.2459 257.069 75.2459Z" fill="#141312" style="fill:#141312;fill:color(display-p3 0.0784 0.0745 0.0706);fill-opacity:1;"/>
<path d="M242.846 76.1219C241.262 76.1219 240.17 75.3779 240.146 74.0339H241.154C241.19 74.7539 241.826 75.2819 242.846 75.2819C243.71 75.2819 244.322 74.9099 244.322 74.3459C244.322 73.5779 243.65 73.5179 242.738 73.4099C241.37 73.2419 240.278 72.9659 240.278 71.6939C240.278 70.5779 241.298 69.8579 242.678 69.8579C244.07 69.8579 245.078 70.5179 245.174 71.7899H244.166C244.094 71.1659 243.518 70.6979 242.678 70.6979C241.826 70.6979 241.25 71.0579 241.25 71.6219C241.25 72.2939 241.898 72.3779 242.786 72.4859C244.178 72.6539 245.294 72.9179 245.294 74.2739C245.294 75.4139 244.202 76.1219 242.846 76.1219Z" fill="#141312" style="fill:#141312;fill:color(display-p3 0.0784 0.0745 0.0706);fill-opacity:1;"/>
<path d="M234.061 76.0499H233.077V67.6499H234.061V73.1819L237.385 69.9299H238.645L236.005 72.5099L238.753 76.0499H237.541L235.321 73.1699L234.061 74.4059V76.0499Z" fill="#141312" style="fill:#141312;fill:color(display-p3 0.0784 0.0745 0.0706);fill-opacity:1;"/>
<path d="M228.479 76.1219C226.691 76.1219 225.515 74.9099 225.515 73.0019C225.515 71.1299 226.727 69.8579 228.503 69.8579C230.003 69.8579 230.951 70.6979 231.203 72.0419H230.171C229.991 71.2259 229.391 70.7339 228.491 70.7339C227.315 70.7339 226.523 71.6699 226.523 73.0019C226.523 74.3339 227.315 75.2459 228.491 75.2459C229.367 75.2459 229.967 74.7419 230.159 73.9619H231.203C230.963 75.2819 229.967 76.1219 228.479 76.1219Z" fill="#141312" style="fill:#141312;fill:color(display-p3 0.0784 0.0745 0.0706);fill-opacity:1;"/>
<path d="M221.122 76.1219C219.334 76.1219 218.086 74.8499 218.086 72.9899C218.086 71.1299 219.334 69.8579 221.122 69.8579C222.91 69.8579 224.158 71.1299 224.158 72.9899C224.158 74.8499 222.91 76.1219 221.122 76.1219ZM221.122 75.2459C222.334 75.2459 223.15 74.2979 223.15 72.9899C223.15 71.6819 222.334 70.7339 221.122 70.7339C219.91 70.7339 219.094 71.6819 219.094 72.9899C219.094 74.2979 219.91 75.2459 221.122 75.2459Z" fill="#141312" style="fill:#141312;fill:color(display-p3 0.0784 0.0745 0.0706);fill-opacity:1;"/>
<path d="M214.497 75.1499H216.657V76.0499H211.353V75.1499H213.513V68.5499H211.353V67.6499H214.497V75.1499Z" fill="#141312" style="fill:#141312;fill:color(display-p3 0.0784 0.0745 0.0706);fill-opacity:1;"/>
<path d="M206.755 76.0499H204.055V67.6499H206.671C208.459 67.6499 209.359 68.5139 209.359 69.8699C209.359 70.8299 208.831 71.4179 208.039 71.6939C208.927 71.8619 209.707 72.4379 209.707 73.6499C209.707 75.1379 208.747 76.0499 206.755 76.0499ZM205.099 68.5979V71.2979H206.719C207.799 71.2979 208.315 70.7939 208.315 69.9419C208.315 69.1019 207.811 68.5979 206.719 68.5979H205.099ZM205.099 72.2339V75.1019H206.755C208.051 75.1019 208.639 74.5619 208.639 73.6979C208.639 72.7499 208.003 72.2339 206.755 72.2339H205.099Z" fill="#141312" style="fill:#141312;fill:color(display-p3 0.0784 0.0745 0.0706);fill-opacity:1;"/>
<rect x="310.719" y="49.5499" width="175" height="44" rx="22" fill="#FFB483" style="fill:#FFB483;fill:color(display-p3 1.0000 0.7071 0.5118);fill-opacity:1;"/>
<path d="M460.362 70.5299H459.046C457.324 70.5299 456.806 71.8179 456.806 72.9519V75.4999H459.97V76.5499H453.894V75.4999H455.658V70.4599H453.894V69.4099H456.778V70.6419C457.1 70.0959 457.772 69.4099 459.172 69.4099H460.362V70.5299Z" fill="#141312" style="fill:#141312;fill:color(display-p3 0.0784 0.0745 0.0706);fill-opacity:1;"/>
<path d="M451.988 73.2319H446.444V73.3019C446.486 74.6599 447.34 75.6119 448.698 75.6119C449.706 75.6119 450.49 75.0799 450.728 74.1559H451.89C451.61 75.5839 450.434 76.6339 448.782 76.6339C446.64 76.6339 445.24 75.1639 445.24 72.9799C445.24 70.8099 446.612 69.3259 448.628 69.3259C450.644 69.3259 451.96 70.5999 452.016 72.7139C452.016 72.8119 452.002 73.0639 451.988 73.2319ZM448.642 70.3339C447.592 70.3339 446.626 71.0899 446.514 72.2519H450.784C450.672 71.0199 449.832 70.3339 448.642 70.3339Z" fill="#141312" style="fill:#141312;fill:color(display-p3 0.0784 0.0745 0.0706);fill-opacity:1;"/>
<path d="M438.126 76.5499H436.796L439.512 72.8819L436.978 69.4099H438.378L440.24 72.0279L442.13 69.4099H443.46L440.912 72.8819L443.642 76.5499H442.242L440.184 73.7079L438.126 76.5499Z" fill="#141312" style="fill:#141312;fill:color(display-p3 0.0784 0.0745 0.0706);fill-opacity:1;"/>
<path d="M435.185 73.2319H429.641V73.3019C429.683 74.6599 430.537 75.6119 431.895 75.6119C432.903 75.6119 433.687 75.0799 433.925 74.1559H435.087C434.807 75.5839 433.631 76.6339 431.979 76.6339C429.837 76.6339 428.437 75.1639 428.437 72.9799C428.437 70.8099 429.809 69.3259 431.825 69.3259C433.841 69.3259 435.157 70.5999 435.213 72.7139C435.213 72.8119 435.199 73.0639 435.185 73.2319ZM431.839 70.3339C430.789 70.3339 429.823 71.0899 429.711 72.2519H433.981C433.869 71.0199 433.029 70.3339 431.839 70.3339Z" fill="#141312" style="fill:#141312;fill:color(display-p3 0.0784 0.0745 0.0706);fill-opacity:1;"/>
<path d="M425.691 70.5019V66.7499H426.839V76.5499H425.845L425.691 75.4019C425.215 76.0599 424.445 76.6339 423.241 76.6339C421.267 76.6339 419.811 75.3039 419.811 72.9799C419.811 70.7959 421.267 69.3259 423.241 69.3259C424.445 69.3259 425.257 69.8159 425.691 70.5019ZM423.353 75.6119C424.753 75.6119 425.705 74.5339 425.705 73.0079C425.705 71.4399 424.753 70.3479 423.353 70.3479C421.939 70.3479 420.987 71.4259 420.987 72.9799C420.987 74.5339 421.939 75.6119 423.353 75.6119Z" fill="#141312" style="fill:#141312;fill:color(display-p3 0.0784 0.0745 0.0706);fill-opacity:1;"/>
<path d="M415.357 69.3259C416.869 69.3259 418.129 70.1799 418.129 72.4899V76.5499H416.981V72.5599C416.981 71.1319 416.309 70.3759 415.161 70.3759C413.915 70.3759 413.117 71.3419 413.117 72.7559V76.5499H411.969V69.4099H412.963L413.117 70.3759C413.537 69.8299 414.237 69.3259 415.357 69.3259Z" fill="#141312" style="fill:#141312;fill:color(display-p3 0.0784 0.0745 0.0706);fill-opacity:1;"/>
<path d="M406.872 68.1499C406.354 68.1499 405.948 67.7579 405.948 67.2259C405.948 66.7079 406.354 66.3159 406.872 66.3159C407.39 66.3159 407.796 66.7079 407.796 67.2259C407.796 67.7579 407.39 68.1499 406.872 68.1499ZM407.432 75.4999H409.952V76.5499H403.764V75.4999H406.284V70.4599H403.764V69.4099H407.432V75.4999Z" fill="#141312" style="fill:#141312;fill:color(display-p3 0.0784 0.0745 0.0706);fill-opacity:1;"/>
<path d="M390.153 69.3259C391.665 69.3259 392.925 70.1799 392.925 72.4899V76.5499H391.777V72.5599C391.777 71.1319 391.105 70.3759 389.957 70.3759C388.711 70.3759 387.913 71.3419 387.913 72.7559V76.5499H386.765V69.4099H387.759L387.913 70.3759C388.333 69.8299 389.033 69.3259 390.153 69.3259Z" fill="#141312" style="fill:#141312;fill:color(display-p3 0.0784 0.0745 0.0706);fill-opacity:1;"/>
<path d="M381.667 68.1499C381.149 68.1499 380.743 67.7579 380.743 67.2259C380.743 66.7079 381.149 66.3159 381.667 66.3159C382.185 66.3159 382.591 66.7079 382.591 67.2259C382.591 67.7579 382.185 68.1499 381.667 68.1499ZM382.227 75.4999H384.747V76.5499H378.559V75.4999H381.079V70.4599H378.559V69.4099H382.227V75.4999Z" fill="#141312" style="fill:#141312;fill:color(display-p3 0.0784 0.0745 0.0706);fill-opacity:1;"/>
<path d="M373.013 76.6339C370.927 76.6339 369.471 75.1499 369.471 72.9799C369.471 70.8099 370.927 69.3259 373.013 69.3259C375.099 69.3259 376.555 70.8099 376.555 72.9799C376.555 75.1499 375.099 76.6339 373.013 76.6339ZM373.013 75.6119C374.427 75.6119 375.379 74.5059 375.379 72.9799C375.379 71.4539 374.427 70.3479 373.013 70.3479C371.599 70.3479 370.647 71.4539 370.647 72.9799C370.647 74.5059 371.599 75.6119 373.013 75.6119Z" fill="#141312" style="fill:#141312;fill:color(display-p3 0.0784 0.0745 0.0706);fill-opacity:1;"/>
<path d="M364.794 76.6339C362.708 76.6339 361.336 75.2199 361.336 72.9939C361.336 70.8099 362.75 69.3259 364.822 69.3259C366.572 69.3259 367.678 70.3059 367.972 71.8739H366.768C366.558 70.9219 365.858 70.3479 364.808 70.3479C363.436 70.3479 362.512 71.4399 362.512 72.9939C362.512 74.5479 363.436 75.6119 364.808 75.6119C365.83 75.6119 366.53 75.0239 366.754 74.1139H367.972C367.692 75.6539 366.53 76.6339 364.794 76.6339Z" fill="#141312" style="fill:#141312;fill:color(display-p3 0.0784 0.0745 0.0706);fill-opacity:1;"/>
<path d="M359.43 76.5499H356.924C355.552 76.5499 355.062 75.9479 355.062 74.6879V70.4599H352.794V69.4099H355.062V67.4079H356.21V69.4099H359.318V70.4599H356.21V74.6739C356.21 75.2759 356.42 75.4999 357.036 75.4999H359.43V76.5499Z" fill="#141312" style="fill:#141312;fill:color(display-p3 0.0784 0.0745 0.0706);fill-opacity:1;"/>
<path d="M348.06 68.1499C347.542 68.1499 347.136 67.7579 347.136 67.2259C347.136 66.7079 347.542 66.3159 348.06 66.3159C348.578 66.3159 348.984 66.7079 348.984 67.2259C348.984 67.7579 348.578 68.1499 348.06 68.1499ZM348.62 75.4999H351.14V76.5499H344.952V75.4999H347.472V70.4599H344.952V69.4099H348.62V75.4999Z" fill="#141312" style="fill:#141312;fill:color(display-p3 0.0784 0.0745 0.0706);fill-opacity:1;"/>
<path d="M339.449 76.5499H336.299V66.7499H339.351C341.437 66.7499 342.487 67.7579 342.487 69.3399C342.487 70.4599 341.871 71.1459 340.947 71.4679C341.983 71.6639 342.893 72.3359 342.893 73.7499C342.893 75.4859 341.773 76.5499 339.449 76.5499ZM337.517 67.8559V71.0059H339.407C340.667 71.0059 341.269 70.4179 341.269 69.4239C341.269 68.4439 340.681 67.8559 339.407 67.8559H337.517ZM337.517 72.0979V75.4439H339.449C340.961 75.4439 341.647 74.8139 341.647 73.8059C341.647 72.6999 340.905 72.0979 339.449 72.0979H337.517Z" fill="#141312" style="fill:#141312;fill:color(display-p3 0.0784 0.0745 0.0706);fill-opacity:1;"/>
<path d="M597.679 23.004C597.972 22.7111 597.972 22.2363 597.679 21.9434L592.906 17.1704C592.613 16.8775 592.138 16.8775 591.845 17.1704C591.553 17.4633 591.553 17.9382 591.845 18.2311L596.088 22.4737L591.845 26.7163C591.553 27.0092 591.553 27.4841 591.845 27.777C592.138 28.0699 592.613 28.0699 592.906 27.777L597.679 23.004ZM491.223 71.6815L491.223 72.4315L493.345 72.4315L493.345 71.6815L493.345 70.9315L491.223 70.9315L491.223 71.6815ZM504.345 60.6815H505.095V33.4737H504.345H503.595V60.6815H504.345ZM515.345 22.4737V23.2237H597.149V22.4737V21.7237H515.345V22.4737ZM504.345 33.4737H505.095C505.095 27.8128 509.684 23.2237 515.345 23.2237V22.4737V21.7237C508.856 21.7237 503.595 26.9844 503.595 33.4737H504.345ZM493.345 71.6815L493.345 72.4315C499.835 72.4315 505.095 67.1709 505.095 60.6815H504.345H503.595C503.595 66.3424 499.006 70.9315 493.345 70.9315L493.345 71.6815Z" fill="#8C877D" style="fill:#8C877D;fill:color(display-p3 0.5490 0.5294 0.4902);fill-opacity:1;"/>
<path d="M790.355 76.3327C790.648 76.0398 790.648 75.5649 790.355 75.272L785.582 70.4991C785.289 70.2062 784.814 70.2062 784.521 70.4991C784.228 70.792 784.228 71.2668 784.521 71.5597L788.764 75.8024L784.521 80.045C784.228 80.3379 784.228 80.8128 784.521 81.1057C784.814 81.3986 785.289 81.3986 785.582 81.1057L790.355 76.3327ZM726.502 120.889L726.502 121.639L728.625 121.639L728.625 120.889L728.625 120.139L726.502 120.139L726.502 120.889ZM739.625 109.889H740.375V86.8024H739.625H738.875V109.889H739.625ZM750.625 75.8024V76.5524H789.824V75.8024V75.0524H750.625V75.8024ZM739.625 86.8024H740.375C740.375 81.1415 744.964 76.5524 750.625 76.5524V75.8024V75.0524C744.135 75.0524 738.875 80.313 738.875 86.8024H739.625ZM728.625 120.889L728.625 121.639C735.114 121.639 740.375 116.379 740.375 109.889H739.625H738.875C738.875 115.55 734.286 120.139 728.625 120.139L728.625 120.889Z" fill="#8C877D" style="fill:#8C877D;fill:color(display-p3 0.5490 0.5294 0.4902);fill-opacity:1;"/>
<path d="M597.679 120.359C597.972 120.652 597.972 121.127 597.679 121.42L592.906 126.193C592.613 126.486 592.138 126.486 591.845 126.193C591.553 125.9 591.553 125.425 591.845 125.132L596.088 120.889L591.845 116.647C591.553 116.354 591.553 115.879 591.845 115.586C592.138 115.293 592.613 115.293 592.906 115.586L597.679 120.359ZM491.223 71.6815L491.223 70.9315L493.345 70.9315L493.345 71.6815L493.345 72.4315L491.223 72.4315L491.223 71.6815ZM504.345 82.6815H505.095V109.889H504.345H503.595V82.6815H504.345ZM515.345 120.889V120.139H597.149V120.889V121.639H515.345V120.889ZM504.345 109.889H505.095C505.095 115.55 509.684 120.139 515.345 120.139V120.889V121.639C508.856 121.639 503.595 116.379 503.595 109.889H504.345ZM493.345 71.6815L493.345 70.9315C499.835 70.9315 505.095 76.1922 505.095 82.6815H504.345H503.595C503.595 77.0206 499.006 72.4315 493.345 72.4315L493.345 71.6815Z" fill="#8C877D" style="fill:#8C877D;fill:color(display-p3 0.5490 0.5294 0.4902);fill-opacity:1;"/>
<path d="M790.355 165.446C790.648 165.739 790.648 166.214 790.355 166.507L785.582 171.28C785.289 171.573 784.814 171.573 784.521 171.28C784.228 170.987 784.228 170.512 784.521 170.219L788.764 165.976L784.521 161.734C784.228 161.441 784.228 160.966 784.521 160.673C784.814 160.38 785.289 160.38 785.582 160.673L790.355 165.446ZM726.502 120.889L726.502 120.139L728.625 120.139L728.625 120.889L728.625 121.639L726.502 121.639L726.502 120.889ZM739.625 131.889H740.375V154.976H739.625H738.875V131.889H739.625ZM750.625 165.976V165.226H789.824V165.976V166.726H750.625V165.976ZM739.625 154.976H740.375C740.375 160.637 744.964 165.226 750.625 165.226V165.976V166.726C744.135 166.726 738.875 161.466 738.875 154.976H739.625ZM728.625 120.889L728.625 120.139C735.114 120.139 740.375 125.4 740.375 131.889H739.625H738.875C738.875 126.228 734.286 121.639 728.625 121.639L728.625 120.889Z" fill="#8C877D" style="fill:#8C877D;fill:color(display-p3 0.5490 0.5294 0.4902);fill-opacity:1;"/>
</svg>
